<?xml version="1.0" encoding="UTF-8" standalone="no"?>
<!DOCTYPE svg PUBLIC "-//W3C//DTD SVG 1.1//EN" "http://www.w3.org/Graphics/SVG/1.1/DTD/svg11.dtd">
<!-- Created with Vectornator (http://vectornator.io/) -->
<svg height="100%" stroke-miterlimit="10" style="fill-rule:nonzero;clip-rule:evenodd;stroke-linecap:round;stroke-linejoin:round;" version="1.1" viewBox="0 0 14400 14400" width="100%" xml:space="preserve" xmlns="http://www.w3.org/2000/svg" xmlns:vectornator="http://vectornator.io" xmlns:xlink="http://www.w3.org/1999/xlink">
<defs/>
<g id="圖層_2" vectornator:layerName="圖層_2">
<path d="M7200 0C3223.48 0 0 3223.48 0 7200C0 11176.5 3223.48 14400 7200 14400C11176.5 14400 14400 11176.5 14400 7200C14400 3223.48 11176.5 0 7200 0ZM12246 10015.9C12244.7 10055.1 12223.8 10091.1 12230.9 10130.8C12212.8 10164.2 12206.3 10199.7 12211.3 10237.7C12213.3 10252.1 12209.4 10264.9 12198.2 10275C12194.7 10311.2 12183 10344.8 12164.2 10375.7L12163.8 10375.5C12161.4 10404.1 12150.9 10428.9 12129.8 10448.6C12128.7 10459.5 12127.6 10470.6 12126.5 10481.5C12111.2 10500.9 12094.9 10519.4 12091.6 10545.4L12091.4 10545C12068.7 10567.4 12052.6 10595.3 12030.1 10617.8L12030.5 10618C12025.3 10642.9 12013.3 10663.8 11994.1 10680.2L11993.9 10679.9C11982.1 10691.9 11968.8 10702.6 11959 10716.4L11958.8 10716.1C11929.8 10752.8 11896.6 10785.3 11860.4 10814.7L11860.4 10814.9C11846.2 10824.5 11836.4 10838.7 11823.6 10849.6L11823.8 10850.1C11807.4 10869.5 11786.5 10881 11762.1 10886.9L11761.9 10886.7C11738.7 10908.5 11711.7 10925.5 11689.2 10948.2C11680.9 10948.8 11672.9 10949.5 11664.6 10950.2C11648.2 10960.4 11635.4 10975.7 11617.7 10984.4C11609.6 10984.8 11601.3 10985.5 11593.3 10986.1C11573.6 11001 11553.4 11014.9 11536.4 11032.8C11532.2 11033.5 11528.1 11034.1 11523.9 11034.5C11509.5 11032.4 11503 11045.9 11492.1 11050.9C11480.5 11054.2 11467.2 11047.4 11456.3 11056.4L11456.3 11056.4C11447.2 11069.2 11429.5 11070.3 11420.3 11083L11420.3 11083C11386.7 11093.6 11349.9 11094.5 11320.7 11117.6C11309.1 11118.3 11297.8 11118.7 11286.2 11119.4C11233.9 11141.4 11178.5 11137.3 11123.7 11136.8C11074.5 11133.6 11024.5 11125.1 10977.4 11149C10975.7 11149.9 10975.4 11150.4 10975.4 11150.6C10975.9 11150.8 10975.4 11150.8 10975.4 11150.6C10975.2 11150.4 10974.6 11150.1 10973.3 11150.1C10870.1 11136.4 10770 11172.6 10666.9 11167.4C10297.4 11149.3 9927.78 11162.1 9558.34 11161C9487.25 11160.8 9414.19 11178 9344.4 11164.7C9203.52 11137.9 9061.12 11166.5 8921.76 11148.2C8750.35 11125.5 8579.37 11136.4 8408.18 11134.6C8381.57 11134.4 8355.4 11147.5 8328.36 11137.9C8189.66 11135.3 8051.17 11138.8 7912.47 11136.6C7848.79 11135.7 7784.9 11140.1 7721 11132C7704.86 11130.1 7692.43 11120.5 7677.16 11120C7674.33 11119.8 7671.49 11119.4 7668.44 11118.9C7634.2 11101.9 7597.78 11091 7560.49 11083.8C7541.95 11083.8 7528.87 11076.4 7524.94 11057C7500.73 11050.7 7480.23 11038 7462.35 11020.6L7462.57 11020.4C7450.14 11009 7439.23 10995.9 7425.71 10985.5L7425.93 10985.3C7415.03 10972.4 7402.38 10961.1 7390.82 10948.8L7389.73 10949.7C7360.51 10932 7353.75 10894.5 7324.52 10876.7C7328.23 10841.8 7292.9 10820.8 7292.46 10787.5C7290.72 10777.2 7292.68 10764.1 7287.01 10757.6C7258.88 10724.2 7260.19 10683.9 7256.26 10644.6C7231.4 10611.7 7240.34 10573.7 7240.12 10537.1C7239.91 10473.6 7232.06 10410.4 7244.27 10346.7C7246.67 10334.1 7248.85 10323.2 7256.04 10312.9C7256.48 10301.4 7256.92 10289.8 7257.35 10278.2C7264.77 10211.5 7275.24 10145.2 7292.03 10080L7293.55 10080.9C7317.33 10047.9 7317.11 10008 7326.49 9970.96C7327.36 9950.9 7328.23 9930.83 7329.32 9910.77C7359.2 9868.46 7357.45 9815.25 7377.52 9769.45C7381.66 9759.86 7382.1 9747.86 7389.95 9739.36C7387.77 9693.56 7414.59 9655.83 7425.49 9613.52C7425.93 9601.96 7426.37 9590.4 7426.8 9579.06C7442.94 9544.61 7453.85 9508.41 7461.7 9471.11L7461.7 9470.9C7489.61 9430.77 7490.27 9380.39 7510.98 9337.21C7515.13 9328.27 7517.53 9318.02 7524.5 9309.95L7524.94 9310.17C7525.81 9278.55 7544.35 9254.34 7559.4 9228.61C7560.27 9204.83 7561.58 9181.94 7580.12 9162.74C7595.16 9146.82 7593.64 9124.36 7596.04 9103.64C7614.14 9082.49 7621.33 9054.58 7625.69 9029.93C7630.27 9003.76 7642.27 8986.53 7658.63 8969.31L7659.06 8969.74C7659.28 8932.67 7690.47 8906.72 7695.05 8871.17L7694.83 8871.17C7712.27 8840.42 7718.6 8805.53 7730.81 8772.81L7730.81 8772.81C7751.75 8754.49 7768.1 8733.99 7762.65 8703.46C7766.36 8690.81 7780.97 8686.67 7784.9 8674.24C7787.73 8671.19 7790.35 8667.92 7792.75 8664.64L7793.4 8665.3C7796.24 8636.73 7817.17 8617.1 7828.29 8592.46C7829.17 8568.69 7829.38 8546.01 7850.54 8527.91C7867.55 8513.29 7864.06 8489.74 7866.02 8469.24C7883.9 8450.7 7896.77 8430.86 7900.92 8403.82C7903.31 8388.55 7913.78 8371.76 7928.61 8361.29L7928.39 8361.07C7930.36 8334.9 7944.75 8315.28 7962.41 8297.39C7963.07 8288.89 7963.5 8280.38 7964.16 8271.66C7978.12 8248.54 7994.91 8226.95 8001.02 8199.91C8019.77 8196.2 8026.75 8182.68 8030.24 8165.89C8033.95 8148.01 8040.49 8132.09 8060.99 8127.51C8066 8102.43 8079.09 8081.71 8096.32 8063.17C8096.97 8054.88 8097.63 8046.6 8098.28 8038.53C8106.13 8020.43 8121.4 8008 8132.3 7992.08C8133.17 7983.79 8133.83 7975.5 8134.7 7967.43C8156.51 7944.32 8173.74 7917.27 8195.76 7894.38L8195.33 7894.38C8198.82 7866.03 8213.43 7843.78 8233.06 7824.15L8233.06 7824.15C8249.19 7805.62 8262.71 7785.55 8268.82 7761.13L8269.04 7761.35C8287.79 7744.55 8299.35 7723.4 8305.46 7699.19C8313.31 7695.48 8321.38 7691.78 8329.23 7688.07C8335.77 7663.86 8346.89 7642.49 8366.3 7625.92C8368.7 7612.83 8371.1 7599.31 8385.06 7592.77C8397.49 7586.88 8399.45 7575.1 8402.51 7563.54C8427.8 7543.04 8437.18 7509.46 8464 7490.27C8464.66 7481.98 8465.31 7473.69 8465.97 7465.63C8473.6 7447.52 8487.34 7433.79 8500.42 7419.83C8501.08 7411.54 8501.51 7403.25 8502.17 7394.97C8512.2 7380.14 8527.25 7369.23 8535.1 7352.88C8570.65 7331.5 8568.25 7283.53 8599.87 7259.54C8603.36 7245.36 8605.98 7230.97 8620.37 7222.9C8633.89 7215.48 8633.45 7201.31 8636.51 7188.88C8654.17 7171 8667.04 7150.28 8671.84 7125.2L8671.84 7125.63C8694.08 7102.74 8710.44 7075.04 8732.9 7052.58L8733.12 7053.01C8736.83 7027.5 8750.35 7007.22 8768.01 6989.33C8771.5 6976.9 8772.16 6962.94 8785.24 6955.75C8799.85 6947.68 8801.38 6932.63 8804.87 6918.67C8836.49 6892.72 8836.49 6846.49 8868.11 6820.75C8871.17 6806.14 8874 6791.75 8889.48 6784.12C8899.95 6778.88 8901.04 6767.76 8903.66 6757.73C8917.62 6744.21 8931.79 6730.9 8938.33 6711.71C8938.77 6703.21 8939.21 6694.92 8939.86 6686.42C8966.25 6664.83 8967.99 6628.19 8990.46 6604.2C9008.78 6588.71 9021.21 6568.22 9036.69 6549.9C9037.78 6539.21 9038.65 6528.31 9039.74 6517.62C9056.75 6499.3 9070.49 6479.24 9074.64 6453.72L9074.64 6453.72L9074.64 6453.5L9074.64 6453.72C9096.44 6430.6 9114.55 6404.43 9135.05 6380.45C9135.92 6372.16 9136.79 6363.87 9137.66 6355.37C9142.68 6335.3 9166.67 6329.41 9171.9 6309.57C9172.56 6301.28 9173.21 6292.99 9173.86 6284.71C9191.09 6266.17 9205.05 6246.11 9208.76 6220.37C9214.86 6216.45 9223.37 6213.83 9226.42 6208.38C9242.34 6180.25 9256.74 6151.02 9271.78 6122.45C9278.98 6103.92 9293.16 6090.61 9306.02 6076.44C9306.68 6068.15 9307.33 6059.86 9307.98 6051.36C9323.47 6032.17 9340.48 6013.85 9342.44 5987.46C9342.88 5985.06 9343.31 5982.66 9343.53 5980.26C9367.09 5958.02 9369.48 5922.91 9391.51 5899.57C9411.36 5884.09 9422.26 5860.75 9439.71 5842.87L9439.71 5843.74C9445.16 5816.27 9464.13 5795.55 9475.47 5770.9C9476.13 5762.62 9476.56 5754.33 9477.22 5746.04C9510.37 5720.75 9508.62 5673.64 9539.15 5646.82L9538.72 5646.38C9543.3 5618.9 9551.58 5593.39 9574.7 5575.07C9575.35 5566.78 9576.23 5558.71 9576.88 5550.42C9593.46 5531.01 9610.03 5511.6 9609.81 5483.69C9634.02 5477.58 9648.85 5464.5 9642.31 5437.46C9637.73 5418.26 9652.12 5408.67 9661.06 5396.46C9681.34 5378.36 9696.39 5356.55 9708.82 5332.78C9709.04 5327.11 9709.26 5321.44 9709.48 5315.77C9723.87 5293.09 9743.06 5272.8 9745.24 5244.02L9745.46 5244.23C9762.47 5227.01 9779.92 5211.09 9777.52 5182.74C9775.77 5161.36 9795.84 5150.9 9808.27 5136.94L9808.27 5136.94C9810.45 5108.15 9831.17 5088.31 9843.16 5064.1C9843.38 5055.38 9843.6 5046.65 9843.81 5038.15C9850.79 5003.47 9876.96 4975.99 9881.76 4940.45C9890.05 4937.61 9901.17 4935.21 9902.48 4926.49C9907.49 4893.78 9931.05 4870.66 9942.61 4841.44C9945.88 4813.3 9952.86 4786.92 9976.84 4768.38C9977.72 4760.09 9978.37 4751.8 9979.24 4743.3C10002.6 4724.98 10011.5 4699.46 10013.9 4670.9L10013.5 4670.46C10034.4 4653.01 10037 4624.66 10042.3 4602.85C10048.6 4575.81 10062.8 4557.27 10076.5 4536.56L10076.5 4536.56C10088.5 4503.63 10087.6 4466.12 10111.8 4437.33C10112.3 4428.82 10112.9 4420.32 10113.4 4411.81C10129.3 4386.52 10148 4362.53 10147.4 4330.25C10148 4321.75 10148.7 4313.02 10149.3 4304.52C10170.9 4284.45 10181 4261.34 10181.2 4229.93C10181.4 4196.35 10193.4 4163.42 10211.5 4133.98L10211.5 4133.76C10211.9 4093.19 10226.3 4054.81 10229.2 4014.25C10234.2 3939.01 10229.8 3932.03 10158.1 3932.03C10152.8 3932.25 10148 3930.94 10143.5 3928.32C10119.7 3905.86 10091.8 3915.46 10064.7 3917.86C10005.6 3915.02 9946.31 3916.77 9887.21 3916.98C9875 3916.33 9862.57 3914.58 9850.36 3914.8C9828.77 3919.16 9802.81 3904.77 9785.37 3928.76C9781.22 3931.16 9776.64 3932.25 9771.85 3932.03C9723.65 3927.23 9680.25 3942.94 9637.94 3963.44C9629.22 3963.87 9620.5 3964.31 9611.77 3964.53C9574.26 3971.94 9536.75 3978.92 9503.39 3998.76C9488.56 3999.64 9473.07 4000.95 9461.73 4011.2C9437.74 4033 9408.52 4034.53 9378.86 4035.62C9365.56 4044.78 9354.87 4057.43 9340.92 4065.93C9310.17 4060.7 9289.45 4077.06 9270.69 4097.77L9270.91 4098.21C9242.34 4100.39 9221.84 4119.58 9198.94 4133.54C9193.06 4133.76 9187.17 4133.98 9181.28 4133.98C9163.18 4141.61 9150.53 4156.66 9135.05 4168C9126.76 4168.87 9118.47 4169.52 9110.18 4170.4C9086.63 4191.77 9059.81 4209 9037.13 4231.24L9037.13 4231.24L9036.91 4231.24L9036.91 4231.24C9000.49 4232.55 8978.46 4258.07 8956.22 4281.62C8948.15 4290.34 8940.52 4298.19 8929.18 4302.34C8921.11 4303.21 8913.26 4303.86 8905.19 4304.52C8899.08 4323.27 8890.14 4338.97 8867.24 4338.97L8867.24 4338.97C8858.52 4348.13 8850.01 4357.51 8839.98 4365.14L8839.98 4365.14C8822.53 4374.09 8814.03 4393.71 8796.14 4402C8769.97 4412.69 8754.93 4437.33 8732.68 4452.81C8711.31 4467.64 8698.88 4493.59 8671.62 4501.01C8658.1 4511.48 8646.76 4524.13 8634.98 4536.12L8635.2 4536.34C8622.55 4547.46 8610.99 4559.89 8599 4571.67L8599.43 4572.32C8581.12 4595.88 8561.05 4617.47 8536.41 4634.69L8536.19 4634.48C8524.41 4646.69 8512.42 4658.46 8500.42 4670.24L8500.42 4670.24C8488.43 4682.24 8476.87 4694.45 8464.44 4705.79L8464.66 4706.01C8447.43 4730.65 8426.06 4750.93 8402.29 4768.81L8401.63 4768.38C8390.29 4780.81 8377.64 4792.15 8366.3 4804.58L8366.3 4804.58C8354.31 4816.36 8342.1 4828.13 8330.54 4840.56L8330.32 4840.35C8308.73 4860.63 8292.37 4885.93 8268.6 4904.03L8268.6 4904.03C8254.86 4914.28 8242 4925.4 8233.27 4940.45C8227.39 4971.63 8199.25 4985.81 8180.5 5006.96C8168.28 5020.7 8160 5039.02 8141.24 5047.74C8133.39 5051.45 8134.26 5063.23 8132.08 5071.73C8122.71 5086.34 8109.4 5097.03 8096.97 5108.59L8096.1 5107.93C8087.38 5122.98 8066.22 5126.03 8061.21 5144.35L8061.21 5144.35C8052.92 5153.95 8043.76 5162.67 8034.6 5171.4L8034.6 5171.4C8023.48 5184.04 8010.17 5194.73 7999.92 5208.25L7999.71 5207.6C7998.4 5244.45 7967.87 5270.62 7963.94 5306.39L7963.94 5306.17C7963.5 5343.24 7930.79 5369.2 7929.05 5406.05C7928.18 5417.17 7927.52 5428.3 7926.87 5439.64C7891.1 5466.03 7898.3 5510.95 7881.29 5545.63C7876.27 5555.66 7874.31 5567 7865.15 5574.85L7864.93 5574.63C7862.31 5603.2 7852.06 5628.06 7830.69 5647.91C7830.04 5659.25 7829.17 5670.37 7828.51 5681.71C7824.15 5717.47 7794.71 5743.86 7792.09 5780.28L7791.66 5779.41C7758.07 5804.93 7766.58 5855.52 7731.68 5880.16L7731.03 5879.51C7729.72 5916.37 7700.06 5942.54 7694.61 5977.87C7694.39 5986.59 7693.95 5995.09 7693.74 6003.6C7682.83 6028.46 7658.84 6047.43 7660.81 6077.97C7640.96 6092.79 7625.04 6108.71 7627 6136.85C7628.53 6158.87 7608.68 6169.56 7596.04 6183.52L7596.04 6183.52C7593.42 6211.87 7573.57 6231.93 7561.14 6255.48C7560.49 6263.77 7559.62 6272.06 7558.96 6280.35C7542.39 6299.1 7526.9 6318.29 7524.94 6344.9L7524.72 6344.9C7511.2 6353.4 7510.98 6371.94 7497.46 6380.23L7497.9 6380.66C7494.41 6408.8 7486.78 6434.75 7462.13 6452.41L7461.91 6452.2C7459.08 6480.55 7439.89 6500.83 7426.37 6523.94C7425.71 6532.23 7424.84 6540.52 7424.19 6548.81C7407.83 6567.56 7393.65 6587.62 7389.95 6613.14L7389.95 6612.92C7358.33 6632.11 7364.43 6674.86 7337.61 6696.88C7316.67 6722.62 7299.66 6750.53 7291.37 6783.03C7289.19 6796.11 7287.01 6809.41 7274.58 6817.27C7260.19 6826.21 7259.32 6841.25 7255.83 6854.99C7223.77 6881.16 7227.04 6929.14 7193.89 6954.44C7193.24 6962.94 7192.8 6971.23 7192.15 6979.74C7185.39 6998.27 7170.12 7010.92 7158.56 7026.19C7157.91 7034.48 7157.04 7042.76 7156.38 7051.05C7133.48 7069.59 7126.07 7095.76 7119.96 7122.8L7120.62 7122.8C7095.75 7144.39 7095.1 7180.37 7072.2 7203.27C7053.01 7219.63 7040.14 7241.22 7024.44 7260.41C7023.79 7268.48 7023.13 7276.77 7022.7 7284.83C6998.05 7302.28 6991.07 7328.45 6986.71 7356.15L6987.37 7356.58C6956.4 7383.19 6954.87 7428.33 6925 7455.38C6924.34 7457.99 6923.9 7460.61 6923.69 7463.23C6922.16 7489.83 6907.98 7509.68 6889.67 7527.12C6889.01 7535.41 6888.14 7543.7 6887.48 7551.99C6864.59 7570.52 6858.26 7597.57 6850.41 7623.95C6844.96 7626.13 6836.02 7627.01 6834.93 7630.71C6823.8 7663.64 6794.36 7686.98 6788.48 7722.31C6779.97 7737.36 6764.27 7745.86 6755.76 7760.69C6755.33 7769.2 6754.67 7777.7 6754.24 7786.21C6740.06 7808.89 6721.96 7829.82 6718.03 7857.74L6718.47 7857.96C6697.97 7877.15 6687.29 7901.57 6681.4 7928.61L6681.4 7928.61L6681.18 7929.27C6681.18 7929.05 6681.4 7928.83 6681.4 7928.61C6674.85 7939.52 6664.17 7946.93 6656.54 7956.97C6653.05 7972.45 6651.08 7988.59 6633.85 7997.09C6622.08 8002.98 6622.3 8016.5 6619.03 8027.62C6600.71 8045.07 6586.53 8064.92 6585 8091.3L6585.44 8091.96C6570.39 8099.16 6570.39 8117.91 6557.96 8127.07C6553.38 8154.55 6546.4 8180.94 6521.76 8198.38C6518.27 8226.52 6500.17 8247.23 6485.78 8269.91C6485.34 8278.42 6484.9 8286.92 6484.47 8295.21C6467.68 8313.75 6452.63 8333.16 6450.23 8359.55L6450.23 8359.76C6412.28 8381.35 6424.5 8430.64 6396.36 8457.68C6393.09 8460.74 6390.04 8463.57 6386.77 8466.62C6383.93 8476.22 6384.37 8488 6375.64 8494.32C6354.05 8509.81 6351.22 8532.27 6350.57 8555.82C6342.71 8576.32 6325.05 8590.71 6315.89 8610.34C6315.45 8616.01 6315.24 8621.68 6314.8 8627.13C6291.68 8645.45 6283.83 8671.62 6279.03 8699.1L6279.03 8699.1L6278.82 8699.54L6278.82 8699.32C6267.04 8709.13 6266.39 8727.23 6251.99 8735.08C6249.16 8745.12 6249.38 8756.89 6240.43 8763.44C6216.44 8780.88 6216.88 8806.4 6215.14 8831.7C6184.39 8858.96 6186.35 8906.28 6154.07 8932.67L6153.85 8932.45C6151.67 8961.24 6142.95 8986.75 6118.74 9004.63L6118.31 9004.42C6116.13 9032.99 6095.84 9052.83 6083.2 9076.38C6082.76 9082.27 6082.54 9087.94 6082.11 9093.83C6069.24 9117.38 6048.3 9137.01 6047.65 9166.45C6031.07 9203.53 6018.21 9242.35 5993.78 9275.49C5988.11 9283.13 5985.93 9291.41 5983.97 9299.92C5982.22 9328.71 5970.23 9352.91 5950.17 9373.41C5949.51 9384.75 5948.64 9395.88 5947.98 9407C5925.3 9436 5922.69 9472.42 5911.56 9505.57L5911.56 9505.13C5900.01 9515.17 5898.92 9532.83 5884.96 9541.34L5884.96 9541.55C5882.12 9577.76 5879.72 9613.96 5849.63 9640.35L5849.41 9640.13C5840.91 9674.37 5835.02 9709.48 5814.74 9739.36C5814.08 9741.97 5813.65 9744.59 5813.21 9747.42C5811.25 9783.84 5775.7 9808.71 5779.41 9846.87C5778.75 9855.38 5778.1 9864.1 5777.44 9872.6C5755.85 9892.45 5745.39 9914.91 5745.82 9946.1C5746.26 9980.34 5732.08 10012.8 5715.73 10043.4C5716.16 10081.5 5696.1 10116.6 5699.15 10155.2C5704.82 10186.2 5684.1 10211.5 5680.62 10240.3C5678 10268.2 5675.82 10295.5 5658.37 10319.9C5646.16 10336.9 5648.12 10359.4 5647.25 10380.1C5646.16 10402.1 5645.29 10424.4 5644.2 10446.4C5618.68 10483 5627.4 10526.2 5625.66 10565.9C5620.86 10668.6 5640.27 10771.8 5619.77 10874.3C5611.48 10901.1 5608.65 10930.7 5582.7 10948.8C5577.24 10982 5548.24 10997.3 5527.74 11018.4C5510.73 11036.1 5492.19 11052.6 5466.68 11058.8C5455.99 11061.4 5451.19 11071.8 5447.27 11081.7C5424.37 11086.2 5402.78 11096 5379.44 11099.5C5324.92 11097.6 5270.18 11099.8 5215.88 11104.1C5201.27 11104.1 5191.02 11094.1 5178.59 11088.6C5158.31 11087.1 5156.13 11064.9 5141.51 11056.6L5142.39 11057C5133.01 11044.1 5116.87 11056.6 5106.62 11047L5106.62 11047C5098.33 11037.2 5089.83 11027.8 5079.14 11020.6L5079.58 11020.8C5062.57 11013.6 5057.99 10994.2 5043.16 10984.8L5042.94 10985C5034 10970.4 5019.61 10960.6 5009.14 10947.5C5008.48 10939.5 5007.83 10931.4 5007.18 10923.1C4987.33 10902.4 4974.46 10878.4 4973.16 10849.2L4973.16 10849C4946.33 10810.8 4961.81 10766.7 4958.54 10726C4949.6 10617.1 4957.67 10508.1 4961.81 10399.1C4963.56 10353.3 4987.33 10310.3 4977.3 10263.4C4988.86 10214.1 4991.91 10162.9 5007.61 10114.2C5008.27 10090.9 5008.92 10067.8 5009.57 10044.5C5033.56 10002.4 5025.71 9952.42 5043.6 9908.81L5043.6 9908.37C5059.73 9876.97 5072.38 9843.6 5074.78 9808.49C5077.18 9772.94 5088.52 9741.54 5106.4 9711.66C5107.06 9700.32 5107.93 9688.98 5108.58 9677.42C5126.69 9656.05 5119.05 9623.12 5141.3 9603.49C5141.95 9594.98 5142.39 9586.26 5143.04 9577.76C5159.62 9543.3 5170.3 9507.1 5178.15 9469.81L5178.15 9469.59C5197.34 9449.09 5202.36 9420.74 5207.59 9396.31C5213.05 9370.58 5224.39 9352.69 5240.09 9334.59C5240.52 9326.09 5241.18 9317.58 5241.61 9308.86C5240.31 9271.35 5273.02 9245.83 5276.51 9209.85C5277.16 9207.23 5277.82 9204.83 5278.69 9202.44C5293.52 9182.81 5312.06 9165.14 5311.62 9137.88C5312.27 9129.38 5312.93 9120.65 5313.58 9112.15C5331.9 9092.09 5346.29 9070.28 5344.99 9041.71C5358.51 9031.68 5363.96 9015.54 5374.65 9003.33L5375.08 9003.98C5378.79 8975.85 5389.26 8950.77 5409.76 8930.49C5410.85 8911.08 5412.16 8891.67 5413.25 8872.26C5433.53 8851.76 5444.43 8826.68 5448.36 8798.33L5448.79 8799.42C5478.67 8771.94 5475.4 8724.18 5509.64 8699.1L5509.86 8699.32C5513.13 8671.19 5522.51 8646.11 5544.75 8626.92C5545.62 8618.63 5546.49 8610.34 5547.37 8602.05C5569.61 8583.08 5578.99 8557.78 5582.26 8529.65L5582.48 8529.87C5612.79 8502.61 5611.27 8456.16 5643.54 8430.21C5648.56 8402.73 5656.41 8376.77 5679.31 8358.24C5679.96 8349.95 5680.83 8341.45 5681.49 8333.16C5703.95 8314.62 5712.46 8289.11 5717.04 8261.63L5716.82 8261.41C5747.57 8234.58 5744.51 8186.82 5778.32 8161.96L5778.32 8162.18C5782.24 8134.05 5790.53 8108.32 5813.86 8090C5814.52 8081.71 5814.95 8073.2 5815.61 8064.92C5838.51 8046.38 5846.58 8020.43 5851.81 7992.95L5851.37 7993.17C5881.25 7965.69 5879.29 7918.58 5913.31 7893.72C5917.02 7881.29 5918.54 7868.21 5930.32 7859.26C5935.99 7855.12 5942.75 7849.01 5943.62 7842.91C5947.98 7817.61 5959.76 7797.33 5978.3 7779.88C5982.88 7775.52 5982.66 7766.36 5984.84 7759.38C5996.4 7746.3 6006.43 7731.69 6016.24 7717.29C6013.63 7691.34 6037.62 7679.35 6046.56 7659.72C6047.21 7651.43 6047.65 7642.93 6048.3 7634.64C6055.28 7616.1 6070.98 7603.89 6081.89 7588.19C6082.76 7579.9 6083.63 7571.61 6084.72 7563.33C6096.5 7548.28 6111.11 7535.41 6118.53 7517.09C6118.96 7508.59 6119.4 7500.08 6119.83 7491.8C6131.17 7471.3 6155.6 7457.12 6151.46 7428.77C6165.41 7419.83 6169.56 7403.04 6181.55 7392.35C6185.26 7378.17 6187 7362.91 6202.92 7355.71C6213.61 7350.7 6215.57 7340.01 6217.75 7329.76C6232.15 7307.08 6249.81 7286.14 6253.95 7258.45L6253.3 7257.79C6267.04 7249.51 6267.26 7230.75 6280.78 7222.46L6280.78 7222.46C6290.37 7212 6279.69 7196.73 6289.5 7186.48L6289.5 7186.48C6302.37 7177.54 6302.37 7158.78 6316.98 7151.15L6316.54 7150.71C6319.16 7124.76 6333.12 7104.92 6351 7087.03C6351.66 7078.53 6352.09 7070.02 6352.75 7061.52C6366.49 7038.18 6383.06 7016.59 6389.82 6989.77C6409.01 6986.72 6415.77 6973.19 6419.26 6956.18C6422.75 6938.08 6430.17 6922.6 6450.01 6917.37C6454.37 6889.45 6472.47 6868.73 6486.21 6845.62C6486.65 6837.11 6487.09 6828.61 6487.52 6820.1C6505.19 6802.22 6519.58 6782.37 6521.98 6756.2L6521.98 6756.2C6547.28 6739.19 6554.25 6712.8 6558.4 6685.11L6558.4 6685.11L6558.4 6685.11L6558.4 6685.11C6571.05 6676.17 6571.05 6657.19 6585.88 6650L6586.09 6649.34C6587.84 6622.95 6605.29 6605.07 6620.12 6585.66C6621.64 6579.99 6620.99 6571.49 6624.7 6568.87C6656.75 6545.97 6658.72 6505.41 6677.69 6474.88C6693.61 6448.92 6711.49 6420.79 6720.43 6389.82C6726.54 6370.63 6742.9 6359.07 6753.8 6343.37C6754.45 6335.08 6755.33 6326.8 6755.98 6318.29C6767.98 6303.46 6782.81 6290.6 6789.78 6272.06C6790.22 6263.55 6790.87 6255.05 6791.31 6246.76C6820.75 6219.06 6822.71 6174.58 6853.03 6147.32L6852.81 6147.32C6856.74 6119.4 6864.59 6093.67 6888.14 6075.35C6888.79 6067.06 6889.67 6058.77 6890.32 6050.49C6912.35 6031.51 6920.85 6005.78 6926.09 5978.3C6926.09 5978.3 6926.09 5978.52 6925.87 5978.52L6926.09 5978.3L6926.09 5978.3C6955.74 5950.82 6953.35 5903.72 6986.93 5878.42L6986.93 5878.64C6988.46 5842 7017.9 5815.83 7024 5780.94L7024.44 5781.37C7046.9 5762.62 7056.06 5737.32 7059.55 5709.19L7059.33 5708.97C7090.52 5681.93 7090.74 5640.27 7107.09 5606.25C7111.24 5597.75 7114.73 5589.68 7121.27 5583.14C7121.71 5580.52 7122.36 5577.68 7123.01 5575.07C7123.45 5548.02 7139.37 5529.27 7156.38 5510.73C7157.25 5499.61 7158.34 5488.49 7159.22 5477.37C7180.59 5457.74 7191.27 5432.88 7193.24 5404.31C7194.98 5394.28 7196.07 5383.81 7205.45 5377.27C7217.66 5368.98 7220.28 5356.33 7221.15 5343.03C7227.69 5333.65 7222.24 5322.09 7226.82 5312.28C7238.82 5301.81 7244.92 5288.94 7242.74 5272.8C7242.31 5268.01 7243.18 5263.64 7245.58 5259.5C7278.73 5239.44 7271.53 5198.22 7291.59 5171.18L7292.03 5171.4C7296.39 5146.32 7314.49 5124.51 7309.91 5097.25C7321.91 5078.93 7321.91 5057.34 7327.58 5037.06L7327.58 5036.84C7352.87 4995.62 7360.07 4948.3 7372.94 4902.94C7376.64 4890.07 7377.95 4875.68 7390.38 4866.95C7392.13 4831.4 7393.87 4796.51 7418.08 4766.63C7429.42 4752.68 7424.62 4732.39 7427.02 4714.95C7452.76 4670.02 7443.81 4617.03 7460.61 4569.92C7461.04 4546.59 7461.48 4523.25 7462.13 4499.92C7467.37 4493.59 7474.13 4488.36 7474.35 4478.55C7476.09 4395.24 7484.6 4312.15 7473.91 4228.62C7472.38 4217.28 7467.37 4211.61 7462.57 4203.98C7461.7 4185.01 7460.82 4165.82 7459.95 4146.84C7459.08 4125.91 7455.37 4106.28 7441.63 4089.27C7429.2 4073.79 7425.93 4054.81 7425.06 4035.4C7415.9 4020.79 7402.16 4010.54 7390.38 3998.55C7389.08 3998.11 7387.11 3998.11 7386.24 3997.02C7342.19 3956.24 7287.67 3964.31 7234.89 3963.87C7209.59 3963.65 7184.3 3963.87 7159 3963.87C7099.68 3964.31 7044.72 3986.77 6987.58 3998.11C6979.08 3998.55 6970.57 3998.98 6961.85 3999.42C6930.45 4025.59 6888.36 4019.7 6853.25 4034.53L6853.25 4034.53C6839.51 4056.12 6806.58 4038.46 6794.58 4063.54C6783.24 4070.51 6772.77 4079.02 6759.69 4083.16C6727.19 4104.53 6680.96 4096.9 6654.79 4132.01C6643.67 4132.89 6632.55 4133.76 6621.64 4134.63C6603.11 4151.2 6583.7 4166.47 6557.31 4168.43L6557.09 4168.43C6549.24 4182.61 6530.27 4182.61 6521.98 4195.91L6521.98 4195.91C6511.73 4205.73 6496.24 4194.82 6486.21 4204.85L6486.21 4204.85C6477.49 4217.94 6458.73 4218.16 6450.88 4232.11L6450.67 4232.33C6424.71 4234.95 6406.18 4251.52 6387.2 4267.01L6387.2 4267.01C6366.05 4284.02 6345.11 4301.03 6316.54 4304.3L6316.33 4303.86C6297.79 4320 6277.73 4333.74 6253.3 4339.63C6244.36 4352.28 6225.17 4352.06 6218.41 4367.32L6218.41 4367.32C6203.58 4376.05 6194.85 4391.31 6180.68 4400.69C6172.39 4401.35 6164.32 4402.22 6156.04 4402.87C6141.21 4415.52 6125.29 4426.86 6112.2 4441.47C6094.1 4465.03 6066.19 4477.67 6046.78 4499.7L6046.12 4499.05C6021.48 4504.72 6000.54 4516.28 5984.4 4535.9L5984.84 4536.34C5972.19 4547.46 5961.94 4560.98 5947.55 4570.36L5948.2 4571.23C5913.31 4592.39 5894.99 4636 5850.07 4643.42C5846.58 4662.61 5833.06 4669.37 5815.39 4671.11C5801.87 4681.58 5790.53 4694.23 5778.75 4706.44L5779.19 4706.66C5761.74 4731.09 5736.23 4747.22 5715.73 4768.81L5715.73 4768.81C5703.51 4780.59 5691.52 4792.37 5679.96 4804.58L5679.96 4804.58C5667.97 4816.36 5655.54 4827.92 5644.63 4840.78L5644.2 4840.35C5622.39 4860.63 5606.47 4886.14 5582.48 4904.46C5579.21 4918.86 5577.46 4933.9 5560.67 4940.45C5549.55 4944.81 5547.58 4955.49 5545.84 4965.96C5538.21 4984.06 5515.74 4990.82 5510.95 5011.1C5510.07 5019.39 5509.2 5027.9 5508.33 5036.18C5485.65 5057.34 5477.58 5082.42 5476.93 5114.48C5476.27 5146.75 5463.84 5178.59 5446.83 5207.38L5446.83 5207.38C5443.78 5246.2 5439.2 5284.36 5412.16 5315.55C5411.5 5324.27 5411.07 5332.99 5410.41 5341.72C5407.58 5377.7 5378.35 5404.74 5376.17 5441.16C5375.52 5452.5 5374.65 5463.84 5373.99 5475.18C5334.08 5498.08 5350.44 5541.05 5338.66 5573.98L5338.66 5573.98C5327.1 5584.01 5325.79 5601.45 5312.49 5610.4L5312.49 5610.61C5313.58 5648.12 5280.87 5673.64 5277.38 5709.41C5276.94 5718.13 5276.51 5726.63 5276.07 5735.36C5262.33 5759.56 5243.14 5781.37 5241.4 5811.03C5201.05 5832.19 5213.26 5877.55 5196.25 5909.39C5190.37 5920.29 5189.71 5933.81 5178.59 5941.66C5178.59 5944.5 5178.37 5947.55 5177.93 5950.39C5177.06 5984.41 5144.13 6006.43 5143.26 6040.45C5142.82 6043.07 5142.39 6045.69 5141.95 6048.31C5125.81 6071.42 5103.79 6092.14 5111.2 6124.85C5112.07 6129 5112.29 6135.54 5109.02 6137.5C5068.68 6162.8 5079.36 6217.97 5044.47 6246.33C5040.98 6257.23 5041.2 6270.53 5031.38 6277.51C5007.83 6294.3 5008.7 6318.95 5007.18 6343.37C4984.5 6362.13 4976.21 6388.08 4971.41 6415.78L4971.41 6415.34C4941.31 6442.6 4943.93 6489.92 4910.35 6515.22C4909.47 6517.62 4909.04 6520.24 4908.82 6522.85C4907.29 6549.46 4892.46 6568.87 4875.02 6586.97C4874.36 6595.26 4873.49 6603.76 4872.84 6612.05C4849.94 6630.59 4842.31 6656.76 4836.85 6684.02L4837.29 6683.8C4808.5 6711.93 4805.89 6756.2 4775.57 6783.24C4771.65 6797.2 4770.12 6812.03 4755.29 6820.32C4741.99 6827.73 4741.99 6841.91 4739.37 6854.56C4735.66 6898.17 4697.93 6920.64 4677.87 6953.79C4672.64 6981.05 4666.31 7007.65 4641.23 7024.88L4641.23 7024.88C4638.4 7050.83 4624.22 7070.68 4606.78 7088.78C4606.12 7097.28 4605.69 7105.79 4605.03 7114.08C4591.29 7137.19 4572.97 7157.91 4568.83 7185.83L4569.27 7185.83C4535.68 7210.69 4538.3 7258.45 4507.11 7284.83C4502.53 7298.36 4500.57 7313.4 4486.39 7321.69C4473.53 7329.32 4473.09 7343.28 4469.82 7355.71C4451.72 7373.38 4437.76 7393.22 4435.36 7419.39L4435.8 7420.05C4421.19 7427.46 4421.41 7446.65 4408.1 7454.94L4408.1 7454.94C4398.29 7465.19 4408.98 7480.45 4399.38 7490.92L4399.38 7490.92C4386.08 7499.43 4386.08 7518.18 4371.9 7526.03C4369.28 7538.9 4367.1 7551.99 4354.89 7560.27C4345.95 7566.16 4341.15 7575.32 4338.97 7585.57C4335.26 7602.8 4331.34 7619.16 4313.67 7629.41C4302.77 7635.73 4304.08 7649.91 4300.81 7661.03C4270.49 7687.85 4268.53 7732.78 4238.22 7759.82C4237.78 7768.32 4237.13 7776.83 4236.69 7785.33C4231.24 7804.96 4214.88 7816.96 4202.89 7832C4202.01 7840.29 4201.36 7848.36 4200.49 7856.65C4187.19 7874.09 4171.48 7889.8 4166.25 7912.26C4151.42 7929.92 4135.06 7946.5 4129.83 7970.49C4127.21 7983.14 4116.74 7989.46 4105.19 7993.6C4098.86 8020.65 4091.66 8047.03 4068.55 8065.35C4068.11 8073.64 4067.46 8082.15 4067.02 8090.43C4050.45 8108.75 4031.69 8125.98 4034.75 8154.11C4003.34 8173.3 3997.45 8212.99 3969.76 8235.02C3965.18 8262.5 3947.29 8283.44 3933.77 8306.55C3933.12 8314.84 3932.46 8323.34 3931.81 8331.63C3916.54 8351.04 3899.53 8369.36 3897.79 8395.75L3897.79 8395.97C3884.05 8403.82 3884.49 8423.23 3869.87 8430.64L3869.66 8431.08C3867.91 8459.86 3859.84 8485.6 3833.89 8502.39L3834.11 8502.83C3832.15 8529.21 3817.53 8548.62 3800.09 8566.51C3797.25 8576.1 3799 8588.75 3790.06 8594.42C3763.23 8611 3764.54 8637.6 3762.58 8663.55C3732.48 8683.18 3737.28 8723.74 3712.2 8746.21C3692.36 8763.65 3677.96 8785.46 3664.88 8808.14C3664.22 8816.65 3663.79 8825.15 3663.13 8833.66C3645.25 8851.32 3631.07 8871.17 3629.11 8897.34L3629.33 8897.56C3616.24 8906.28 3614.06 8923.51 3602.29 8933.32C3598.8 8961.45 3587.89 8985.88 3566.09 9004.63L3565.87 9004.42C3563.25 9030.59 3547.98 9050 3531.85 9068.97C3530.76 9079.87 3529.67 9090.78 3528.58 9101.9C3511.13 9120 3496.3 9139.41 3494.99 9166.02L3494.77 9166.02C3482.78 9179.1 3466.2 9188.91 3462.93 9208.54C3468.82 9237.77 3448.98 9255.21 3432.4 9273.97L3432.18 9273.31C3428.69 9301.66 3407.98 9321.73 3396.85 9346.37C3396.2 9357.49 3395.54 9368.61 3394.89 9379.96C3386.82 9411.58 3364.58 9437.53 3359.56 9470.24L3358.69 9469.59C3343.42 9487.69 3324.89 9503.17 3327.72 9531.52C3329.68 9552.68 3309.18 9563.58 3297.41 9578.19C3296.75 9586.7 3296.1 9595.42 3295.44 9603.93C3281.27 9626.82 3275.82 9653.87 3261.42 9676.55L3261.42 9676.55C3257.5 9712.31 3224.35 9737.61 3226.09 9775.34L3226.09 9775.56C3207.34 9798.46 3200.36 9826.59 3195.34 9854.07C3190.98 9877.62 3182.91 9896.59 3164.6 9911.42C3163.72 9922.54 3162.63 9933.67 3161.76 9945.01C3162.63 9974.67 3139.08 9993.42 3128.61 10018.1C3127.96 10035.5 3127.3 10053 3126.65 10070.4C3098.95 10101.4 3094.59 10139.8 3091.76 10178.6L3091.76 10178.8C3075.18 10210.2 3068.2 10244.9 3058.39 10278.5C3033.53 10300.9 3045.09 10329.7 3045.09 10356.3C3044.21 10375.9 3045.3 10396 3028.95 10411.1C3025.89 10450.5 3026.77 10490.2 3002.12 10525.5C2990.35 10542.6 2996.02 10565.9 2994.93 10586.4C2994.05 10605.6 2993.18 10624.8 2992.53 10644C2985.55 10697.8 2987.51 10752.1 2975.3 10806C2969.41 10832.6 2956.98 10858.3 2957.63 10886.5C2957.2 10895 2956.54 10903.5 2956.11 10912C2935.39 10935.8 2914.02 10959.1 2894.17 10983.7L2894.17 10984C2882.4 10995.9 2870.84 11008.4 2857.97 11019.3L2858.19 11019.7C2832.02 11051.1 2786.66 11052 2759.62 11082.1L2760.27 11083.2C2710.77 11096.9 2660.82 11101.7 2608.92 11100C2585.59 11099.1 2566.18 11092.6 2545.24 11087.1C2512.75 11084.5 2496.17 11044.1 2459.97 11050.9C2444.27 11047.2 2436.2 11033.7 2425.95 11023.2C2399.13 11001.8 2381.9 10971.3 2357.25 10948L2357.69 10947.8C2354.2 10919.6 2334.79 10899.6 2321.92 10876C2321.49 10867.3 2320.83 10858.8 2320.4 10850.1C2289.65 10804 2304.26 10751.5 2302.95 10702.6C2301.21 10638.1 2298.37 10572 2320.62 10509C2321.27 10476.5 2321.71 10444 2322.36 10411.5C2334.57 10357.6 2356.82 10305.5 2354.2 10248.6C2367.28 10234.6 2370.56 10218.3 2371.86 10199.1C2375.35 10143.5 2396.94 10092.9 2419.41 10042.7C2419.84 10040.1 2420.06 10037.3 2420.5 10034.6C2426.39 9991.02 2431.84 9947.19 2454.95 9908.15C2455.61 9896.81 2456.04 9885.47 2456.7 9873.91C2477.63 9844.04 2482.87 9808.71 2491.16 9774.47L2491.16 9774.25C2508.6 9751.79 2517.76 9724.09 2521.47 9697.92C2525.83 9666.08 2537.83 9639.47 2553.96 9613.3L2554.62 9613.74C2555.71 9582.12 2573.81 9557.69 2589.51 9532.4C2589.95 9523.67 2590.17 9515.17 2590.6 9506.44C2611.97 9476.78 2616.77 9441.45 2625.93 9407.65L2626.59 9408.09C2642.72 9390.42 2660.61 9374.94 2657.99 9346.59C2656.03 9325.43 2676.74 9314.53 2688.08 9299.48L2688.08 9300.14C2696.37 9265.9 2692.66 9227.08 2724.29 9201.13C2724.72 9192.62 2725.38 9184.12 2725.81 9175.61C2748.28 9156.64 2757.87 9131.56 2760.49 9102.99L2760.92 9103.43C2777.72 9085.76 2795.6 9069.84 2792.76 9040.84C2790.8 9022.52 2807.81 9012.05 2820.24 9000.71C2827.22 8966.69 2852.52 8940.08 2858.84 8906.06C2859.28 8894.94 2859.93 8883.82 2860.37 8872.48C2881.31 8852.41 2890.9 8826.68 2896.14 8798.98L2895.92 8800.07C2926.23 8772.81 2922.09 8724.4 2956.98 8699.97C2960.03 8690.38 2958.73 8677.73 2967.45 8672.28C2993.4 8655.48 2993.18 8629.31 2994.49 8603.58C3021.75 8582.21 3021.97 8545.79 3041.6 8520.06C3055.34 8499.12 3057.08 8472.08 3076.71 8454.19C3093.06 8434.13 3110.51 8414.94 3126.21 8394C3126.87 8385.72 3127.52 8377.43 3128.18 8369.36C3152.16 8351.7 3159.36 8325.53 3163.94 8298.05L3163.5 8297.39C3195.34 8271.22 3191.42 8222.81 3225.22 8197.95C3225.88 8195.33 3226.31 8192.93 3226.75 8190.31C3228.49 8163.93 3243.11 8144.3 3260.99 8126.42C3261.64 8118.13 3262.51 8109.84 3263.17 8101.34C3280.83 8082.58 3296.54 8063.17 3296.54 8035.48C3312.24 8026.97 3332.3 8025.44 3330.99 7998.18C3330.12 7980.74 3349.31 7969.83 3360.22 7956.53L3360 7956.75C3364.36 7931.45 3377.88 7911.17 3394.67 7892.41C3395.76 7881.51 3396.85 7870.6 3397.94 7859.7C3413.21 7840.51 3429.78 7821.97 3432.62 7795.8L3432.4 7795.8C3445.49 7787.3 3445.49 7768.11 3460.1 7760.69L3460.1 7760.47C3468.82 7750.01 3457.7 7734.3 3469.26 7724.49L3469.04 7724.93C3476.24 7714.46 3486.7 7706.82 3494.12 7696.57C3499.13 7683.27 3500.66 7668.01 3515.05 7659.94C3528.14 7652.52 3528.36 7638.56 3531.63 7626.13C3550.17 7608.69 3563.9 7588.84 3566.09 7562.45C3566.52 7559.84 3566.96 7557.22 3567.61 7554.82C3574.81 7544.35 3585.06 7536.5 3592.91 7526.69L3592.91 7526.91C3603.81 7517.09 3592.47 7501.39 3602.29 7491.14L3602.29 7491.14C3615.81 7482.85 3615.81 7463.88 3629.77 7456.03C3631.95 7442.94 3634.13 7429.86 3646.56 7421.79C3655.72 7415.9 3660.95 7407.18 3662.7 7396.71C3665.75 7377.3 3673.16 7361.6 3689.96 7348.95C3696.72 7343.94 3697.37 7330.63 3700.64 7321.04C3732.7 7295.3 3731.83 7248.63 3763.01 7222.25C3763.67 7213.74 3764.1 7205.45 3764.76 7196.95C3771.08 7177.97 3785.91 7164.89 3798.56 7150.5C3799.22 7142.21 3799.87 7133.92 3800.52 7125.63C3832.15 7084.63 3856.35 7039.71 3872.71 6990.42C3880.34 6989.99 3887.98 6989.33 3895.61 6988.9C3903.46 6962.51 3909.78 6935.47 3932.46 6916.71C3933.12 6908.42 3933.77 6900.14 3934.43 6891.85C3947.51 6877.67 3962.12 6864.59 3968.23 6845.62C3968.88 6837.33 3969.54 6828.82 3970.19 6820.54C4003.34 6795.24 4000.29 6747.48 4032.13 6721.31C4035.62 6706.92 4037.14 6692.09 4051.76 6682.93C4056.55 6680.09 4062.01 6674.2 4062.44 6669.41C4065.49 6630.8 4105.84 6609.65 4107.8 6570.4C4108.46 6559.49 4120.67 6555.13 4130.48 6551.2C4134.63 6523.29 4141.61 6496.9 4166.69 6479.67L4166.9 6479.67C4169.3 6453.5 4184.13 6433.88 4201.36 6415.56C4201.8 6407.05 4202.45 6398.76 4202.89 6390.26C4216.41 6367.14 4235.38 6346.86 4238.43 6318.51L4238.43 6318.51C4253.05 6298.66 4272.46 6282.31 4271.36 6252.87C4270.71 6234.55 4289.68 6224.08 4301.68 6211.43L4301.68 6211.21C4304.08 6185.04 4318.69 6165.63 4335.92 6147.32C4336.57 6138.81 4337.23 6130.31 4337.66 6121.8C4350.53 6098.46 4370.37 6078.18 4372.99 6049.83L4373.43 6050.27C4384.33 6037.84 4397.63 6027.15 4403.96 6011.23C4401.34 5985.28 4408.1 5963.69 4431.22 5949.08C4441.91 5924.22 4447.58 5896.52 4469.6 5877.55C4470.47 5866.42 4471.13 5855.52 4472 5844.4C4492.06 5824.34 4488.14 5792.71 4506.89 5772C4532.41 5732.52 4541.13 5684.76 4569.48 5646.82C4571.01 5610.18 4600.89 5583.79 4605.69 5548.24C4605.9 5545.41 4606.12 5542.57 4606.12 5539.74C4609.61 5503.75 4642.32 5478.46 4641.45 5440.95L4641.45 5440.73C4654.97 5432.22 4655.63 5413.9 4668.28 5404.96L4668.28 5404.96C4677.87 5385.99 4670.67 5365.71 4673.07 5346.3C4674.82 5332.12 4691.61 5328.63 4695.1 5315.77C4697.93 5312.49 4700.55 5309.22 4703.39 5305.95L4704.04 5306.61C4715.6 5273.46 4715.6 5236.17 4738.93 5206.94C4739.81 5186.88 4740.46 5167.03 4741.33 5146.97C4763.58 5130.83 4756.82 5104.01 4763.58 5082.42C4783.21 5019.83 4802.18 4957.02 4808.72 4890.94C4811.77 4861.72 4821.37 4831.19 4838.82 4805.23C4839.25 4796.73 4839.69 4788.01 4840.12 4779.5C4857.79 4720.62 4856.7 4658.25 4873.71 4599.15C4876.54 4512.79 4875.89 4426.42 4873.71 4339.85C4850.81 4294.7 4857.14 4242.36 4839.25 4195.91C4838.82 4187.41 4838.16 4178.9 4837.73 4170.4C4835.54 4167.12 4832.93 4163.85 4830.31 4161.02C4826.6 4149.02 4812.86 4144.88 4808.28 4133.32C4805.01 4121.76 4811.99 4108.68 4802.83 4097.99L4802.83 4097.99C4794.33 4088.61 4784.51 4080.33 4776.88 4070.3L4776.88 4070.3C4771.43 4051.98 4750.27 4049.14 4741.33 4034.09L4741.33 4033.88C4726.94 4024.72 4718 4009.45 4703.17 4000.95C4691.83 4000.07 4680.49 3999.42 4669.37 3998.55C4570.57 3969.11 4471.56 3975.43 4372.77 3998.55C4361 3998.98 4349.44 3999.2 4337.66 3999.64C4293.17 4012.72 4248.03 4023.84 4203.11 4034.97L4203.11 4034.97C4179.55 4049.8 4153.6 4061.79 4127.21 4065.06C4098.43 4068.55 4079.23 4083.16 4059.82 4100.83C4027.98 4106.72 3997.02 4114.57 3969.97 4133.1C3961.47 4133.54 3952.96 4133.98 3944.24 4134.19C3920.47 4146.41 3900.62 4167.12 3871.84 4168.87L3871.84 4169.09C3851.34 4188.5 3831.49 4208.34 3804.89 4219.03C3768.9 4231.24 3740.77 4260.46 3702.39 4268.31L3702.17 4268.31C3687.34 4280.53 3675.13 4296.23 3655.94 4302.55C3647.87 4303.43 3639.58 4304.52 3631.51 4305.39C3598.58 4329.81 3573.72 4365.14 3529.67 4374.3C3515.71 4377.14 3506.33 4391.53 3495.86 4402L3495.86 4402C3477.98 4419.01 3457.92 4432.31 3433.49 4438.2C3414.08 4469.61 3377.23 4477.89 3350.84 4500.57C3335.79 4513.66 3326.85 4539.83 3299.59 4536.99C3286.07 4547.46 3275.82 4560.98 3262.51 4571.45L3263.17 4572.1C3216.94 4604.16 3186.4 4654.76 3135.37 4681.58C3131.23 4683.76 3133.41 4692.92 3128.61 4697.28C3089.14 4713.2 3067.33 4750.28 3037.02 4776.88C3012.59 4798.26 2992.75 4825.95 2967.67 4847.76C2962.65 4852.12 2962 4861.06 2959.16 4868.04C2933.65 4887.67 2920.34 4918.42 2895.92 4938.92C2892.21 4951.79 2890.47 4965.74 2876.51 4972.29C2863.86 4978.39 2861.9 4989.95 2860.59 5002.16C2828.53 5031.6 2826.79 5070.42 2827.66 5109.9C2808.9 5128.87 2798 5154.82 2795.38 5178.37C2792.11 5206.72 2780.12 5225.48 2762.01 5243.8C2761.36 5252.09 2760.92 5260.37 2760.27 5268.66C2751.55 5283.71 2737.81 5294.18 2725.38 5305.73C2712.73 5309.44 2698.77 5311.4 2692.45 5325.58C2686.78 5338.45 2675.22 5340.63 2663.01 5341.72C2635.74 5368.76 2600.42 5373.78 2564.65 5378.14L2564.87 5378.14C2528.45 5403.65 2486.79 5385.12 2447.76 5391C2430.31 5393.62 2408.72 5395.15 2393.89 5378.14L2394.11 5378.14C2365.32 5375.52 2340.9 5363.53 2320.18 5343.9C2309.49 5342.81 2298.81 5341.94 2288.12 5340.85C2273.73 5331.47 2263.26 5317.73 2251.05 5305.95L2251.05 5305.95C2241.89 5297.23 2232.95 5288.29 2224.22 5278.91L2224.22 5278.91C2216.59 5260.37 2195.65 5252.96 2188.24 5234.42C2187.8 5222.21 2185.84 5210.87 2176.46 5201.71C2158.36 5183.61 2154.44 5160.06 2152.04 5136.07C2126.96 5070.21 2125.43 5004.56 2152.26 4938.7C2152.69 4927.36 2153.35 4915.8 2153.78 4904.46C2167.52 4871.97 2162.29 4832.93 2187.58 4804.14C2188.46 4801.75 2188.89 4799.13 2188.89 4796.51C2197.18 4764.89 2218.99 4738.72 2224.44 4706.23L2224.66 4706.66C2259.12 4682.45 2253.23 4632.51 2287.47 4608.09L2287.47 4608.09C2292.92 4588.02 2316.04 4581.92 2322.36 4562.73C2324.54 4552.48 2326.94 4541.79 2338.06 4537.65C2355.07 4531.1 2355.73 4515.62 2359.65 4501.66C2382.99 4483.13 2395.64 4454.34 2420.5 4437.11L2421.15 4437.55C2432.27 4424.68 2446.23 4414.65 2456.04 4400.69C2458.88 4387.39 2464.99 4377.57 2475.45 4367.54C2515.8 4328.72 2551.35 4284.89 2593.44 4248.25C2624.62 4221.21 2647.3 4183.26 2688.08 4167.56C2702.26 4157.75 2712.95 4144.44 2725.38 4132.67L2724.94 4132.23C2738.03 4121.55 2749.15 4108.68 2761.36 4097.12L2761.14 4096.9C2777.93 4071.6 2807.16 4059.39 2825.48 4035.84C2839 4031.48 2854.05 4029.95 2860.81 4014.03C2866.91 3999.64 2881.31 4000.07 2893.95 3997.46C2908.57 3987.64 2921 3975.87 2928.85 3959.95C2946.73 3935.52 2975.3 3923.09 2995.36 3901.28L2995.8 3901.94C3022.62 3897.79 3045.09 3886.45 3061.66 3864.43C3078.23 3842.4 3100.92 3831.06 3127.74 3827.13L3127.74 3827.57C3146.71 3800.75 3179.21 3790.06 3200.36 3765.85L3200.36 3765.63C3226.53 3763.02 3246.59 3749.28 3263.6 3730.52L3263.6 3730.52C3290.87 3701.08 3334.7 3697.16 3361.74 3667.28L3361.74 3667.28C3371.77 3657.47 3387.48 3668.81 3397.29 3657.9L3397.07 3657.9C3406.23 3645.47 3424.77 3644.82 3432.84 3630.86C3442.65 3628.24 3454.86 3628.68 3460.75 3619.08C3471.22 3602.07 3491.72 3602.51 3504.59 3592.69C3533.81 3570.01 3571.54 3565.43 3600.11 3542.75C3602.51 3541.01 3604.25 3537.52 3606.87 3537.08C3639.36 3531.63 3664.44 3510.26 3693.23 3496.74C3713.29 3476.46 3746.88 3484.53 3766.29 3462.28C3777.41 3461.41 3788.53 3460.54 3799.65 3459.66C3819.5 3438.29 3844.14 3427.61 3872.93 3426.08C3881.43 3425.64 3889.94 3425.21 3898.66 3424.77C3921.78 3391.84 3955.8 3391.84 3990.69 3394.24C4010.32 3387.7 4028.2 3378.1 4043.25 3363.49C4051.97 3363.05 4060.48 3362.4 4069.2 3361.96C4106.49 3354.33 4143.79 3346.48 4177.81 3328.16C4186.53 3327.51 4195.25 3327.07 4203.98 3326.42C4269.4 3311.15 4335.26 3298.94 4402 3292.39C4404.61 3292.18 4407.45 3291.74 4410.07 3291.09C4443.43 3267.75 4482.69 3274.08 4519.11 3273.86C4563.6 3273.64 4610.48 3264.48 4651.92 3291.09C4657.59 3291.52 4663.48 3291.96 4669.15 3292.39C4728.25 3293.05 4784.3 3310.28 4840.12 3326.63L4839.69 3327.94C4870.66 3346.04 4905.99 3351.28 4939.57 3362.18C4950.69 3362.84 4961.81 3363.49 4973.16 3363.93C4993.65 3382.46 5014.15 3400.78 5045.12 3394.89C5060.61 3401.44 5070.42 3414.74 5081.32 3426.52C5092.45 3430.44 5104 3433.49 5109.46 3445.71C5116 3460.32 5130.17 3460.32 5143.04 3462.72C5157.65 3471.88 5167.68 3485.83 5180.55 3496.96L5179.9 3497.83C5198.65 3520.95 5217.84 3543.63 5243.36 3559.76L5243.36 3559.76C5254.92 3572.2 5267.13 3583.75 5278.91 3595.75L5279.34 3595.31C5290.25 3608.18 5303.77 3618.65 5314.02 3632.17L5314.45 3631.73C5331.68 3649.4 5345.42 3669.24 5350.87 3693.89C5359.6 3696.94 5368.32 3700.21 5376.83 3703.26C5380.75 3729 5394.27 3749.28 5411.94 3767.38C5412.59 3775.67 5413.46 3783.95 5414.12 3792.24C5436.8 3811 5445.96 3836.08 5449.01 3864.21L5448.14 3865.08C5464.93 3888.41 5473.87 3915.24 5479.32 3942.72C5482.38 3957.98 5489.57 3970.85 5493.94 3984.59C5505.49 4020.57 5522.72 4022.1 5548.89 4000.95C5561.54 3997.46 5575.72 3996.37 5581.82 3981.97C5587.28 3969.32 5599.27 3967.14 5610.61 3963.87C5631.11 3939.23 5660.55 3924.4 5682.14 3901.06C5696.75 3898.23 5711.36 3895.83 5718.34 3879.69C5723.14 3868.79 5734.26 3867.48 5744.3 3864.86C5757.16 3850.47 5771.77 3837.82 5789.44 3829.53C5797.73 3828.88 5805.79 3828.01 5814.08 3827.35C5833.93 3801.62 5867.29 3791.8 5887.14 3765.85L5887.58 3766.29C5913.53 3763.45 5933.81 3750.15 5950.6 3730.96L5949.73 3729.65C5963.69 3719.84 5972.41 3704.14 5988.33 3696.5C5996.84 3696.07 6005.34 3695.63 6013.85 3695.19C6021.48 3681.02 6040.89 3681.45 6048.52 3667.28L6048.74 3667.28C6059.21 3658.12 6074.69 3669.24 6084.5 3658.12L6084.29 3658.34C6096.28 3649.18 6107.4 3639.15 6117.87 3628.24C6133.79 3621.26 6143.17 3605.78 6158.22 3597.71C6166.5 3596.84 6174.57 3596.18 6182.86 3595.31C6200.31 3576.77 6220.15 3562.38 6246.98 3561.51C6249.59 3561.29 6251.99 3560.85 6254.61 3559.98C6274.45 3536.21 6306.29 3533.16 6330.5 3516.8C6337.92 3509.82 6347.29 3505.46 6354.93 3498.7C6381.75 3496.96 6408.14 3494.99 6427.33 3471.44C6435.18 3461.85 6449.36 3463.81 6460.7 3461.19C6495.15 3461.19 6516.53 3426.73 6550.98 3427.17C6553.6 3426.52 6556.22 3425.86 6558.83 3425.43C6599.4 3397.29 6649.99 3397.07 6693.83 3377.88C6703.42 3373.74 6713.89 3372.21 6720.43 3362.84L6720.65 3362.84C6757.94 3354.98 6795.45 3348.22 6829.04 3328.6C6837.76 3327.94 6846.49 3327.07 6854.99 3326.42C6897.08 3303.08 6946.59 3308.97 6990.64 3292.61C7022.91 3291.96 7055.19 3291.52 7087.47 3290.87C7123.67 3273.64 7162.71 3281.27 7200.22 3276.91C7255.17 3270.37 7309.26 3274.51 7363.78 3279.31C7374.46 3280.18 7385.15 3282.58 7393 3291.3C7416.34 3291.74 7439.89 3292.39 7463.22 3292.83C7495.72 3306.57 7534.32 3302.43 7563.54 3326.2L7562.67 3327.29C7599.74 3327.51 7625.69 3358.91 7661.46 3362.84L7661.68 3362.62C7669.75 3376.57 7687.85 3377.23 7697.23 3389.44C7738.23 3386.39 7758.51 3428.7 7795.36 3434.58C7798.2 3454.65 7812.16 3460.97 7830.04 3462.5C7843.78 3472.53 7854.9 3485.62 7866.68 3497.83L7866.68 3497.83C7884.56 3521.82 7905.93 3542.32 7929.05 3561.07C7933.41 3575.03 7936.24 3589.64 7951.95 3596.62C7962.63 3601.42 7964.38 3612.1 7966.56 3622.14C7979.86 3636.09 7992.51 3650.27 8001.89 3667.06L8001.89 3667.06C8032.64 3693.89 8030.67 3740.99 8063.6 3766.51C8064.04 3775.01 8064.48 3783.52 8064.7 3792.24C8066.22 3821.03 8076.47 3845.89 8098.28 3865.52C8099.15 3876.86 8100.02 3888.2 8100.9 3899.54C8126.19 3940.75 8127.72 3988.3 8137.1 4033.88L8137.1 4033.66C8144.73 4048.92 8153.67 4045.43 8163.05 4035.4L8163.05 4035.4C8180.72 4026.9 8189.22 4007.05 8206.89 3998.55C8233.49 3988.08 8247.88 3962.56 8269.91 3946.86C8290.85 3931.81 8302.41 3904.33 8331.19 3899.32C8345.15 3889.51 8356.05 3876.2 8368.48 3864.86L8368.05 3864.43C8380.92 3853.52 8391.17 3839.78 8405.34 3829.97C8432.82 3820.81 8448.96 3796.6 8469.67 3778.94C8479.71 3770.43 8489.74 3767.38 8501.3 3764.76C8516.34 3756.04 8525.72 3741.43 8539.03 3730.96L8538.37 3730.3C8554.95 3710.9 8575.44 3698.46 8600.74 3694.1L8600.96 3694.32C8622.99 3671.2 8650.9 3655.07 8673.8 3633.04L8673.58 3633.04L8673.8 3632.82L8673.8 3632.82C8698.66 3627.81 8717.85 3612.76 8736.83 3597.27C8747.51 3596.4 8758.42 3595.31 8769.1 3594.44C8787.64 3578.96 8808.79 3566.52 8824.71 3547.99C8828.64 3546.9 8832.56 3546.24 8836.71 3545.81C8850.23 3546.68 8857.86 3537.08 8866.8 3529.23C8877.71 3516.15 8892.97 3508.51 8906.28 3498.48L8906.28 3498.48L8906.71 3498.26C8906.49 3498.26 8906.49 3498.48 8906.28 3498.48C8933.75 3493.47 8959.49 3484.53 8978.9 3462.72C8990.02 3462.06 9001.36 3461.41 9012.48 3460.75C9044.32 3453.56 9070.27 3430.88 9102.55 3425.21L9102.33 3425.21C9111.71 3412.56 9129.81 3411.9 9138.32 3398.17C9150.31 3395.33 9162.52 3392.71 9174.52 3389.88C9183.24 3376.57 9201.12 3375.48 9210.72 3363.27L9210.28 3363.27C9244.09 3352.8 9286.61 3367.63 9310.38 3328.16C9330.23 3327.29 9350.29 3326.42 9370.14 3325.54C9402.2 3300.46 9443.41 3305.26 9478.96 3291.3C9487.68 3291.09 9496.41 3290.65 9505.13 3290.43C9533.26 3274.73 9565.98 3271.46 9595.2 3259.03C9632.49 3243.11 9670.87 3242.02 9709.69 3243.33C9729.76 3243.98 9739.35 3223.48 9758.33 3223.92C9869.11 3218.46 9979.46 3202.11 10090.9 3211.27C10119.3 3213.67 10145 3231.11 10174.4 3223.92C10206.9 3241.8 10240.3 3249 10278 3241.36C10289.1 3239.18 10308.1 3241.15 10317.5 3256.19C10336.9 3263.61 10357.2 3258.16 10376.8 3259.9C10396.2 3262.74 10403.9 3282.58 10420 3290.43C10431.1 3291.09 10442.5 3291.96 10453.6 3292.61C10480.8 3292.83 10500.2 3308.1 10518.6 3325.76L10517.9 3326.63C10545.8 3330.56 10567 3347.79 10589.4 3362.62L10589.4 3362.62C10610.8 3395.98 10659.2 3386.61 10680.6 3420.41C10693 3436.33 10710.3 3446.8 10724.2 3460.97C10753.2 3462.5 10763.7 3490.41 10780.5 3506.12C10795.5 3520.29 10822.1 3532.29 10821.7 3560.42C10848.1 3576.34 10853.1 3603.6 10859.2 3630.42C10868.4 3644.6 10882.8 3654.41 10891 3669.02C10893.2 3676.87 10902.2 3681.02 10904.4 3689.09C10915 3713.73 10890.2 3744.92 10919.4 3766.51L10921.1 3765.42C10933.1 3841.09 10944.9 3916.11 10936.8 3993.75C10933.8 4023.41 10915.9 4050.89 10925.3 4081.85C10906.3 4118.27 10897.8 4156.44 10905.4 4197.66C10896.7 4220.34 10888.4 4243.02 10886 4267.66C10885.6 4276.38 10885.2 4285.33 10884.9 4294.05C10867.5 4321.31 10856.8 4353.15 10855.7 4383.46C10854.4 4416.61 10843.5 4441.47 10823.4 4465.24C10822.8 4467.86 10822.4 4470.48 10821.7 4473.09C10813 4507.33 10810.6 4543.54 10787.7 4572.76C10787 4584.1 10786.4 4595.44 10785.7 4606.78C10782.7 4642.98 10750.4 4668.71 10750.6 4706.01L10750.6 4706.01L10750.6 4706.01L10750.6 4706.01C10732.7 4726.72 10725.5 4754.42 10721.6 4778.41C10717.2 4805.67 10705.9 4823.34 10688 4840.56L10686.9 4840.35C10686.7 4869.79 10664 4888.76 10653.3 4913.19C10652.7 4921.69 10651.8 4929.98 10651.2 4938.48C10633.1 4956.37 10618 4975.99 10617.8 5003.04C10617.1 5014.16 10616.3 5025.28 10615.6 5036.4C10598.8 5055.59 10582 5073.48 10583.8 5103.14C10584.9 5121.24 10565.7 5132.14 10553.9 5145.01L10553.2 5144.79C10551.9 5171.4 10535.8 5190.37 10519.9 5209.56C10519.2 5217.85 10518.6 5226.35 10517.9 5234.64C10504.2 5257.54 10485 5278.04 10482.6 5306.61L10482.4 5306.39C10457.5 5324.05 10449 5349.57 10447 5378.36L10447 5378.36C10413.2 5406.92 10411.9 5454.25 10384.4 5486.31C10383.8 5494.59 10383.4 5503.1 10382.7 5511.39C10364.6 5529.27 10349.3 5548.46 10349.1 5575.72C10348.5 5578.34 10347.8 5580.95 10347.1 5583.35C10316.2 5609.96 10318.6 5657.5 10285.4 5682.8L10285 5682.36C10282.2 5708.53 10266.9 5728.16 10250.8 5747.13C10250.1 5755.42 10249.7 5763.71 10249 5771.78C10234.8 5794.46 10216.1 5814.96 10213.5 5843.74L10213.7 5843.96C10199.7 5852.03 10199.7 5870.79 10186.2 5879.07L10186.2 5879.29C10183.4 5907.64 10175.7 5933.59 10150.2 5950.6L10150.7 5951.04C10147.8 5976.99 10133.6 5996.84 10116.2 6014.72C10115.8 6023.23 10115.3 6031.95 10114.9 6040.45C10100.5 6063.14 10082.6 6084.07 10078.5 6111.99L10078.9 6111.77C10047.9 6130.74 10053.4 6171.74 10028.3 6194.2C10008.5 6211.65 9994.07 6233.24 9981.21 6256.14C9980.77 6264.64 9980.12 6273.15 9979.68 6281.65C9969.87 6294.96 9955.04 6304.55 9949.58 6321.35C9953.29 6348.82 9930.17 6362.13 9917.74 6380.88L9917.74 6380.88C9908.15 6390.91 9919.92 6406.83 9908.15 6416.43L9908.15 6415.99C9896.81 6423.84 9897.46 6440.64 9884.6 6447.4C9870.86 6460.26 9859.3 6475.09 9847.52 6489.92C9846.87 6498.21 9845.99 6506.5 9845.34 6514.78C9832.91 6529.4 9818.3 6542.48 9811.32 6561.02C9810.88 6569.52 9810.23 6577.81 9809.79 6586.32C9780.13 6613.58 9778.61 6658.94 9747.2 6685.33C9743.71 6697.97 9742.41 6712.15 9728.23 6718.69C9715.58 6724.58 9713.4 6736.14 9711 6747.92C9697.92 6762.09 9683.31 6775.18 9676.98 6794.15C9676.54 6802.65 9675.89 6810.94 9675.45 6819.45C9649.5 6841.47 9647.32 6877.89 9625.08 6901.88C9606.76 6917.58 9594.11 6937.87 9578.84 6956.18C9577.75 6966.87 9576.66 6977.77 9575.79 6988.46C9558.56 7006.78 9545.26 7027.06 9540.68 7052.36L9540.24 7051.49C9527.81 7059.77 9506.22 7055.63 9508.62 7082.89C9510.37 7100.55 9490.52 7111.68 9479.4 7124.76L9479.83 7124.76C9475.47 7150.06 9462.17 7170.34 9444.72 7188.44C9443.63 7199.13 9442.76 7210.03 9441.67 7220.72C9433.16 7236.64 9417.03 7246.67 9409.18 7263.46C9373.63 7285.05 9376.03 7332.81 9344.4 7356.8C9341.57 7371.41 9338.3 7385.59 9323.03 7393.44C9312.78 7398.67 9311.69 7410.01 9308.86 7419.83C9294.9 7433.35 9280.72 7446.65 9274.18 7465.84C9273.75 7474.35 9273.31 7482.85 9272.87 7491.36C9263.06 7509.68 9240.82 7520.15 9241.47 7544.79C9241.91 7565.94 9218.57 7552.64 9211.81 7563.98C9210.72 7572.27 9209.63 7580.34 9208.54 7588.62C9200.03 7603.45 9184.55 7612.39 9175.61 7626.79C9174.95 7635.08 9174.3 7643.36 9173.65 7651.65C9160.56 7665.83 9147.48 7679.78 9138.53 7697.23L9138.53 7697.23C9122.18 7715.77 9107.13 7734.74 9102.99 7760.26L9102.99 7760.26C9090.12 7766.58 9091.21 7784.24 9078.56 7790.79C9064.6 7803.65 9053.48 7818.7 9041.27 7833.09C9040.62 7841.38 9040.18 7849.67 9039.52 7857.96C9027.09 7872.57 9013.36 7886.09 9004.41 7903.32C9003.54 7920.11 8992.42 7926.65 8978.24 7930.58C8971.92 7954.78 8959.05 7975.28 8942.04 7993.39C8938.55 8007.34 8937.46 8022.39 8921.54 8029.81C8907.37 8036.35 8907.8 8050.96 8904.75 8063.39C8889.05 8082.36 8873.78 8101.55 8868.98 8126.42C8869.2 8126.42 8869.42 8126.2 8869.42 8126.2L8868.77 8126.63L8868.77 8126.42C8852.85 8132.74 8835.62 8135.14 8836.27 8160.65C8836.71 8177.01 8818.17 8186.82 8807.48 8199.04C8804.43 8211.9 8802.69 8225.21 8789.38 8232.62C8778.04 8238.95 8774.77 8250.29 8771.28 8261.63C8751.44 8277.77 8739.44 8298.7 8734.65 8323.78L8735.74 8324.65C8713.06 8355.84 8704.11 8395.31 8677.94 8424.53C8662.68 8437.62 8650.68 8453.76 8638.47 8469.46C8637.6 8477.75 8636.94 8486.03 8636.07 8494.1C8623.21 8508.5 8607.94 8521.15 8602.49 8540.77C8602.05 8549.28 8601.61 8557.57 8600.96 8566.07C8570.65 8593.11 8568.03 8637.38 8539.03 8665.3L8539.03 8664.86C8534.66 8692.78 8525.94 8718.29 8503.7 8737.48C8502.82 8745.77 8502.17 8754.06 8501.3 8762.56C8478.83 8781.32 8469.67 8806.62 8466.4 8834.53L8466.4 8834.53C8449.83 8855.47 8443.94 8884.91 8430.86 8902.79C8404.69 8938.12 8402.07 8977.37 8389.42 9014.88C8383.97 9024.7 8376.99 9033.2 8369.14 9041.27C8368.27 9049.56 8367.39 9057.85 8366.52 9066.13C8345.59 9085.98 8334.68 9110.62 8332.5 9139.41L8332.5 9139.63C8312.22 9157.73 8307.2 9185.86 8303.71 9208.11C8299.35 9236.46 8285.83 9254.56 8269.47 9273.75L8269.04 9273.53C8264.46 9309.08 8238.29 9336.77 8233.49 9372.1C8233.27 9380.83 8232.84 9389.55 8232.62 9398.27C8218.01 9424.23 8198.82 9448.22 8198.16 9479.84C8197.94 9485.73 8197.73 9491.4 8197.51 9497.28C8162.4 9528.47 8169.16 9577.54 8148.22 9615.05C8143.86 9622.68 8142.11 9633.37 8134.92 9640.78L8134.26 9640.78C8136.88 9678.73 8102.42 9703.81 8099.59 9739.79C8099.15 9748.51 8098.72 9757.24 8098.28 9765.96C8083.23 9791.7 8063.39 9815.47 8064.7 9847.74C8064.04 9856.25 8063.6 9864.97 8062.95 9873.48C8049.43 9902.26 8035.69 9930.61 8031.33 9963.11C8027.4 9991.9 8016.5 10019.6 8001.89 10045.1C8001.23 10065.4 8000.58 10085.5 7999.92 10105.7C7992.51 10151.7 7976.59 10195.8 7965.9 10241.2L7964.16 10240.7C7933.41 10276.9 7956.53 10320.3 7948.02 10359.4C7948.68 10387.5 7940.82 10416.7 7956.53 10443.5C7960.02 10446.2 7963.07 10450.1 7967.87 10450.1C8129.47 10451.6 8290.41 10480.4 8452.01 10467.5C8532.7 10461.2 8612.3 10457.9 8692.77 10463.8C8801.38 10466.7 8909.77 10465.4 9018.15 10464.5C9088.81 10464 9159.25 10471.2 9229.91 10468C9273.09 10466 9315.84 10455.8 9359.45 10462.7C9437.09 10471.2 9514.73 10465.1 9592.15 10465.1C9840.98 10464.9 10089.6 10464.9 10338.4 10465.1C10368.1 10465.1 10397.7 10463.4 10427.4 10461.4C10547.1 10462.7 10666.9 10456.2 10786.6 10463C10875.6 10468 10964.3 10464.7 11053.3 10463C11079.5 10462.3 11101.1 10447.7 11126.4 10447.7C11135.1 10447.3 11143.8 10446.8 11152.5 10446.6C11182.6 10426.8 11217.3 10419.1 11251.5 10410.8L11251.3 10410.8C11275.7 10376.6 11324.8 10381.4 11349.9 10348L11349.7 10347.4C11382.8 10329.3 11402.5 10297 11429.1 10272.1C11458.9 10246.8 11490.6 10222.6 11494.9 10179L11495.1 10179.4C11511.9 10159.8 11531.3 10141.1 11525.2 10111.2C11525.9 10106.8 11527.4 10102.9 11529.6 10099.2C11547.9 10088.7 11540.1 10071.9 11539 10057.1C11543.3 9989.93 11539.2 9922.54 11539.8 9855.16C11536.4 9792.57 11535.5 9729.11 11494.5 9676.11L11494.5 9676.33C11490.6 9648.2 11481.2 9622.9 11459.6 9603.27C11458.7 9594.98 11457.8 9586.92 11457 9578.63C11444.8 9563.8 11429.9 9551.15 11422.5 9532.83C11422.1 9524.76 11421.6 9516.47 11421.4 9508.41C11402.2 9502.74 11387 9493.58 11386.3 9470.68L11386.3 9470.68C11377.6 9461.74 11368 9453.23 11360.1 9443.42L11360.1 9443.2C11350.3 9426.62 11337.7 9412.45 11324.8 9398.49C11323.1 9376.25 11320.7 9354 11303.2 9337.21C11301 9335.25 11298.6 9332.63 11298.2 9330.01C11287.5 9261.54 11275.1 9192.62 11307.4 9126.54C11315.2 9110.41 11323.5 9095.14 11324.6 9076.82C11330.3 9057.19 11353.6 9051.09 11359.3 9031.46L11359.3 9031.46L11359.3 9031.46L11359.3 9031.46C11368.6 9022.74 11378.2 9014.45 11385.4 9003.76L11385 9003.98C11392.4 8986.97 11411 8981.95 11422.1 8968.87L11421.6 8968.43C11436 8956 11449.3 8941.61 11467.4 8933.98C11473.1 8933.54 11479 8933.32 11484.7 8932.89C11504.3 8910.21 11528.1 8895.59 11559 8902.14C11582.2 8906.93 11600.5 8891.45 11622.1 8890.58C11682.3 8887.74 11737.4 8904.53 11789.8 8932.89C11818.1 8930.92 11829.5 8956.44 11845.6 8970.83C11885.3 9006.16 11920.6 9046.07 11957.3 9084.89C11960.7 9088.6 11960.1 9096.23 11961.4 9101.9C11969.7 9117.17 11984.9 9126.33 11994.8 9139.85C11997.6 9151.4 12000 9163.18 12012.2 9169.07C12026.2 9175.83 12028.3 9189.13 12030.7 9202.22C12056.5 9218.79 12062.6 9245.62 12067.6 9272.88C12075.2 9282.91 12085.5 9290.76 12092.9 9301.23C12093.6 9303.84 12094.2 9306.46 12094.6 9308.86C12094.9 9335.9 12113.4 9353.79 12128 9373.41C12128.9 9384.53 12129.8 9395.66 12130.6 9406.78C12150.3 9437.09 12156.4 9472.2 12165.3 9506.44L12165.3 9506.44C12181.2 9531.09 12195.2 9558.56 12195.6 9586.92C12196.3 9636.64 12210.4 9681.35 12232.7 9724.53C12235.1 9821.79 12249.3 9918.18 12246 10015.9Z" fill="#ffffff" fill-rule="nonzero" opacity="1" stroke="none"/>
</g>
</svg>
