<svg width="1200" height="630" viewBox="0 0 1200 630" fill="none" xmlns="http://www.w3.org/2000/svg">
<g clip-path="url(#clip0_171_58)">
<rect width="1200" height="630" fill="white"/>
<rect opacity="0.2" width="1200" height="630" fill="#373737"/>
<path d="M689.5 266.5C689.5 315.929 649.429 356 600 356C550.571 356 510.5 315.929 510.5 266.5C510.5 217.071 550.571 177 600 177C649.429 177 689.5 217.071 689.5 266.5ZM528.21 266.5C528.21 306.149 560.351 338.29 600 338.29C639.649 338.29 671.79 306.149 671.79 266.5C671.79 226.851 639.649 194.71 600 194.71C560.351 194.71 528.21 226.851 528.21 266.5Z" fill="#ABABAB"/>
<path d="M600 185.98C600 181.021 595.969 176.953 591.034 177.45C573.263 179.239 556.357 186.316 542.556 197.867C526.45 211.348 515.597 230.064 511.899 250.739C508.2 271.414 511.89 292.732 522.324 310.96C532.758 329.189 549.27 343.167 568.971 350.449C588.671 357.731 610.305 357.852 630.087 350.791C649.868 343.731 666.535 329.938 677.173 311.828C687.81 293.717 691.739 272.443 688.272 251.727C685.302 233.977 677.063 217.606 664.727 204.689C661.302 201.102 655.595 201.57 652.369 205.337V205.337C649.143 209.104 649.632 214.739 652.966 218.411C662.145 228.521 668.284 241.101 670.558 254.692C673.329 271.25 670.189 288.256 661.686 302.732C653.183 317.208 639.86 328.233 624.049 333.876C608.237 339.52 590.945 339.423 575.197 333.603C559.45 327.782 546.252 316.609 537.912 302.038C529.572 287.468 526.622 270.428 529.578 253.902C532.535 237.376 541.209 222.416 554.084 211.64C564.651 202.796 577.495 197.233 591.043 195.523C595.964 194.902 600 190.94 600 185.98V185.98Z" fill="black"/>
<path d="M432.75 433.453H443.406V437H428.344V414.25H432.75V433.453ZM448.108 428.391C448.108 427.161 448.285 426.026 448.639 424.984C448.994 423.932 449.514 423.021 450.202 422.25C450.879 421.479 451.707 420.875 452.686 420.438C453.676 420 454.806 419.781 456.077 419.781C457.348 419.781 458.478 420 459.468 420.438C460.457 420.875 461.296 421.479 461.983 422.25C462.66 423.021 463.176 423.932 463.53 424.984C463.884 426.026 464.061 427.161 464.061 428.391V428.719C464.061 429.958 463.884 431.104 463.53 432.156C463.176 433.198 462.66 434.104 461.983 434.875C461.306 435.646 460.473 436.25 459.483 436.688C458.494 437.115 457.369 437.328 456.108 437.328C454.837 437.328 453.702 437.115 452.702 436.688C451.712 436.25 450.879 435.646 450.202 434.875C449.514 434.104 448.994 433.198 448.639 432.156C448.285 431.104 448.108 429.958 448.108 428.719V428.391ZM452.452 428.719C452.452 429.427 452.52 430.094 452.655 430.719C452.79 431.333 453.004 431.87 453.296 432.328C453.587 432.797 453.962 433.167 454.421 433.438C454.889 433.708 455.452 433.844 456.108 433.844C456.744 433.844 457.29 433.708 457.749 433.438C458.207 433.167 458.582 432.797 458.874 432.328C459.155 431.87 459.363 431.333 459.499 430.719C459.634 430.094 459.702 429.427 459.702 428.719V428.391C459.702 427.703 459.634 427.052 459.499 426.438C459.363 425.823 459.155 425.281 458.874 424.812C458.582 424.344 458.207 423.974 457.749 423.703C457.29 423.432 456.733 423.297 456.077 423.297C455.431 423.297 454.879 423.432 454.421 423.703C453.962 423.974 453.587 424.344 453.296 424.812C453.004 425.281 452.79 425.823 452.655 426.438C452.52 427.052 452.452 427.703 452.452 428.391V428.719ZM479.763 437C479.659 436.792 479.57 436.552 479.498 436.281C479.425 436.01 479.362 435.724 479.31 435.422C479.07 435.682 478.794 435.927 478.482 436.156C478.169 436.385 477.826 436.583 477.451 436.75C477.065 436.927 476.643 437.062 476.185 437.156C475.727 437.26 475.232 437.312 474.701 437.312C473.836 437.312 473.039 437.188 472.31 436.938C471.591 436.688 470.971 436.339 470.451 435.891C469.93 435.443 469.524 434.911 469.232 434.297C468.94 433.672 468.794 432.995 468.794 432.266C468.794 431.328 468.977 430.5 469.341 429.781C469.706 429.052 470.253 428.453 470.982 427.984C471.638 427.557 472.445 427.234 473.404 427.016C474.373 426.786 475.482 426.672 476.732 426.672H479.154V425.672C479.154 425.276 479.091 424.922 478.966 424.609C478.841 424.286 478.654 424.01 478.404 423.781C478.143 423.542 477.815 423.359 477.419 423.234C477.034 423.099 476.581 423.031 476.06 423.031C475.602 423.031 475.206 423.089 474.873 423.203C474.539 423.307 474.268 423.458 474.06 423.656C473.873 423.833 473.732 424.047 473.638 424.297C473.555 424.547 473.513 424.823 473.513 425.125H469.169C469.169 424.406 469.326 423.724 469.638 423.078C469.961 422.432 470.43 421.865 471.044 421.375C471.649 420.885 472.388 420.5 473.263 420.219C474.149 419.927 475.159 419.781 476.294 419.781C477.315 419.781 478.263 419.906 479.138 420.156C480.024 420.406 480.789 420.776 481.435 421.266C482.081 421.755 482.586 422.375 482.951 423.125C483.315 423.865 483.498 424.724 483.498 425.703V432.953C483.498 433.859 483.555 434.609 483.669 435.203C483.784 435.797 483.951 436.307 484.169 436.734V437H479.763ZM475.623 433.953C476.06 433.953 476.466 433.901 476.841 433.797C477.216 433.693 477.555 433.557 477.857 433.391C478.159 433.224 478.419 433.036 478.638 432.828C478.857 432.609 479.029 432.391 479.154 432.172V429.266H476.935C476.258 429.266 475.68 429.333 475.201 429.469C474.721 429.594 474.331 429.771 474.029 430C473.727 430.24 473.503 430.526 473.357 430.859C473.211 431.182 473.138 431.536 473.138 431.922C473.138 432.224 473.19 432.505 473.294 432.766C473.409 433.016 473.57 433.229 473.779 433.406C473.987 433.573 474.242 433.708 474.544 433.812C474.857 433.906 475.216 433.953 475.623 433.953ZM489.246 428.422C489.246 427.141 489.392 425.969 489.684 424.906C489.986 423.844 490.423 422.932 490.996 422.172C491.569 421.411 492.262 420.823 493.074 420.406C493.897 419.99 494.835 419.781 495.887 419.781C496.772 419.781 497.548 419.943 498.215 420.266C498.892 420.578 499.491 421.026 500.012 421.609V413H504.371V437H500.449L500.231 435.234C499.699 435.891 499.074 436.401 498.356 436.766C497.637 437.13 496.804 437.312 495.856 437.312C494.824 437.312 493.897 437.099 493.074 436.672C492.262 436.234 491.574 435.635 491.012 434.875C490.439 434.115 490.001 433.214 489.699 432.172C489.397 431.12 489.246 429.979 489.246 428.75V428.422ZM493.59 428.75C493.59 429.458 493.647 430.12 493.762 430.734C493.887 431.339 494.085 431.865 494.356 432.312C494.626 432.771 494.975 433.13 495.403 433.391C495.83 433.651 496.35 433.781 496.965 433.781C497.715 433.781 498.335 433.62 498.824 433.297C499.324 432.974 499.72 432.531 500.012 431.969V425.125C499.72 424.552 499.33 424.109 498.84 423.797C498.35 423.474 497.736 423.312 496.996 423.312C496.382 423.312 495.856 423.448 495.418 423.719C494.991 423.979 494.642 424.339 494.371 424.797C494.1 425.266 493.903 425.812 493.778 426.438C493.653 427.052 493.59 427.714 493.59 428.422V428.75ZM511.354 420.094H520.558V433.469H525.136V437H511.354V433.469H516.167V423.641H511.354V420.094ZM515.854 415.766C515.854 415.432 515.912 415.125 516.026 414.844C516.151 414.552 516.323 414.302 516.542 414.094C516.761 413.896 517.021 413.74 517.323 413.625C517.636 413.51 517.979 413.453 518.354 413.453C519.125 413.453 519.735 413.672 520.183 414.109C520.641 414.536 520.87 415.089 520.87 415.766C520.87 416.443 520.641 417 520.183 417.438C519.735 417.865 519.125 418.078 518.354 418.078C517.979 418.078 517.636 418.021 517.323 417.906C517.021 417.792 516.761 417.63 516.542 417.422C516.323 417.224 516.151 416.984 516.026 416.703C515.912 416.411 515.854 416.099 515.854 415.766ZM530.697 437V420.094H534.634L534.9 422.438C535.119 422.125 535.358 421.839 535.619 421.578C535.879 421.318 536.155 421.083 536.447 420.875C536.947 420.521 537.494 420.25 538.088 420.062C538.681 419.875 539.311 419.781 539.978 419.781C540.832 419.781 541.614 419.906 542.322 420.156C543.03 420.406 543.645 420.802 544.166 421.344C544.676 421.896 545.072 422.604 545.353 423.469C545.645 424.323 545.791 425.365 545.791 426.594V437H541.447V426.656C541.447 425.99 541.369 425.443 541.213 425.016C541.067 424.578 540.853 424.234 540.572 423.984C540.291 423.734 539.952 423.562 539.556 423.469C539.16 423.365 538.713 423.312 538.213 423.312C537.796 423.312 537.41 423.359 537.056 423.453C536.713 423.547 536.405 423.688 536.134 423.875C535.916 424.01 535.718 424.172 535.541 424.359C535.364 424.547 535.202 424.755 535.056 424.984V437H530.697ZM550.758 428.422C550.758 427.141 550.914 425.969 551.227 424.906C551.55 423.844 552.008 422.932 552.602 422.172C553.196 421.411 553.914 420.823 554.758 420.406C555.602 419.99 556.555 419.781 557.618 419.781C558.19 419.781 558.711 419.839 559.18 419.953C559.659 420.057 560.091 420.219 560.477 420.438C560.769 420.594 561.039 420.781 561.289 421C561.539 421.208 561.769 421.443 561.977 421.703L562.149 420.094H566.102V436.453C566.102 437.599 565.904 438.62 565.508 439.516C565.123 440.411 564.581 441.167 563.883 441.781C563.175 442.396 562.326 442.859 561.336 443.172C560.357 443.495 559.274 443.656 558.086 443.656C557.576 443.656 557.029 443.604 556.446 443.5C555.862 443.396 555.284 443.234 554.711 443.016C554.138 442.797 553.597 442.516 553.086 442.172C552.576 441.839 552.138 441.438 551.774 440.969L553.727 438.328C554.008 438.651 554.31 438.932 554.633 439.172C554.956 439.422 555.295 439.625 555.649 439.781C555.993 439.938 556.347 440.052 556.711 440.125C557.086 440.208 557.472 440.25 557.868 440.25C558.503 440.25 559.065 440.161 559.555 439.984C560.055 439.807 560.472 439.547 560.805 439.203C561.107 438.891 561.336 438.505 561.493 438.047C561.659 437.589 561.743 437.073 561.743 436.5V435.531C561.534 435.76 561.315 435.969 561.086 436.156C560.857 436.344 560.612 436.51 560.352 436.656C559.966 436.865 559.539 437.026 559.071 437.141C558.612 437.255 558.118 437.312 557.586 437.312C556.534 437.312 555.586 437.099 554.743 436.672C553.909 436.234 553.196 435.635 552.602 434.875C552.008 434.115 551.55 433.214 551.227 432.172C550.914 431.12 550.758 429.979 550.758 428.75V428.422ZM555.118 428.75C555.118 429.458 555.185 430.12 555.321 430.734C555.466 431.339 555.685 431.865 555.977 432.312C556.269 432.771 556.638 433.13 557.086 433.391C557.534 433.651 558.065 433.781 558.68 433.781C559.055 433.781 559.394 433.745 559.696 433.672C560.008 433.599 560.289 433.495 560.539 433.359C560.8 433.214 561.029 433.036 561.227 432.828C561.425 432.62 561.597 432.385 561.743 432.125V424.969C561.586 424.677 561.399 424.422 561.18 424.203C560.961 423.984 560.711 423.807 560.43 423.672C560.19 423.557 559.925 423.469 559.633 423.406C559.352 423.344 559.045 423.312 558.711 423.312C558.097 423.312 557.565 423.448 557.118 423.719C556.67 423.979 556.3 424.339 556.008 424.797C555.706 425.266 555.482 425.812 555.336 426.438C555.19 427.052 555.118 427.714 555.118 428.422V428.75ZM593.006 414.25H606.162V417.797H601.724V433.469H606.162V437H593.006V433.469H597.334V417.797H593.006V414.25ZM615.395 420.094L615.52 422.141C615.843 421.411 616.286 420.839 616.848 420.422C617.421 419.995 618.114 419.781 618.926 419.781C619.322 419.781 619.676 419.828 619.989 419.922C620.301 420.016 620.572 420.161 620.801 420.359C620.978 420.505 621.129 420.682 621.254 420.891C621.39 421.089 621.504 421.318 621.598 421.578C621.744 421.328 621.905 421.104 622.083 420.906C622.27 420.698 622.473 420.521 622.692 420.375C622.963 420.188 623.27 420.042 623.614 419.938C623.958 419.833 624.333 419.781 624.739 419.781C625.249 419.781 625.723 419.875 626.161 420.062C626.609 420.25 626.999 420.547 627.333 420.953C627.655 421.37 627.905 421.906 628.083 422.562C628.27 423.208 628.364 424 628.364 424.938V437H624.411V424.922C624.411 424.599 624.374 424.333 624.301 424.125C624.239 423.917 624.15 423.75 624.036 423.625C623.921 423.51 623.786 423.432 623.629 423.391C623.484 423.339 623.333 423.312 623.176 423.312C623.01 423.312 622.859 423.333 622.723 423.375C622.598 423.417 622.478 423.474 622.364 423.547C622.27 423.62 622.187 423.703 622.114 423.797C622.041 423.88 621.978 423.979 621.926 424.094C621.926 424.115 621.926 424.161 621.926 424.234C621.926 424.307 621.926 424.406 621.926 424.531V437H618.098V424.906C618.098 424.583 618.067 424.318 618.004 424.109C617.942 423.901 617.859 423.74 617.754 423.625C617.64 423.51 617.51 423.432 617.364 423.391C617.218 423.339 617.062 423.312 616.895 423.312C616.708 423.312 616.541 423.344 616.395 423.406C616.249 423.469 616.119 423.557 616.004 423.672C615.921 423.755 615.848 423.854 615.786 423.969C615.723 424.083 615.666 424.208 615.614 424.344V437H611.661V420.094H615.395ZM643.753 437C643.649 436.792 643.56 436.552 643.488 436.281C643.415 436.01 643.352 435.724 643.3 435.422C643.06 435.682 642.784 435.927 642.472 436.156C642.159 436.385 641.816 436.583 641.441 436.75C641.055 436.927 640.633 437.062 640.175 437.156C639.717 437.26 639.222 437.312 638.691 437.312C637.826 437.312 637.029 437.188 636.3 436.938C635.581 436.688 634.961 436.339 634.441 435.891C633.92 435.443 633.514 434.911 633.222 434.297C632.93 433.672 632.784 432.995 632.784 432.266C632.784 431.328 632.967 430.5 633.331 429.781C633.696 429.052 634.243 428.453 634.972 427.984C635.628 427.557 636.435 427.234 637.394 427.016C638.363 426.786 639.472 426.672 640.722 426.672H643.144V425.672C643.144 425.276 643.081 424.922 642.956 424.609C642.831 424.286 642.644 424.01 642.394 423.781C642.133 423.542 641.805 423.359 641.409 423.234C641.024 423.099 640.571 423.031 640.05 423.031C639.592 423.031 639.196 423.089 638.863 423.203C638.529 423.307 638.258 423.458 638.05 423.656C637.863 423.833 637.722 424.047 637.628 424.297C637.545 424.547 637.503 424.823 637.503 425.125H633.159C633.159 424.406 633.316 423.724 633.628 423.078C633.951 422.432 634.42 421.865 635.034 421.375C635.639 420.885 636.378 420.5 637.253 420.219C638.139 419.927 639.149 419.781 640.284 419.781C641.305 419.781 642.253 419.906 643.128 420.156C644.014 420.406 644.779 420.776 645.425 421.266C646.071 421.755 646.576 422.375 646.941 423.125C647.305 423.865 647.488 424.724 647.488 425.703V432.953C647.488 433.859 647.545 434.609 647.659 435.203C647.774 435.797 647.941 436.307 648.159 436.734V437H643.753ZM639.613 433.953C640.05 433.953 640.456 433.901 640.831 433.797C641.206 433.693 641.545 433.557 641.847 433.391C642.149 433.224 642.409 433.036 642.628 432.828C642.847 432.609 643.019 432.391 643.144 432.172V429.266H640.925C640.248 429.266 639.67 429.333 639.191 429.469C638.711 429.594 638.321 429.771 638.019 430C637.717 430.24 637.493 430.526 637.347 430.859C637.201 431.182 637.128 431.536 637.128 431.922C637.128 432.224 637.18 432.505 637.284 432.766C637.399 433.016 637.56 433.229 637.769 433.406C637.977 433.573 638.232 433.708 638.534 433.812C638.847 433.906 639.206 433.953 639.613 433.953ZM653.252 428.422C653.252 427.141 653.408 425.969 653.721 424.906C654.044 423.844 654.502 422.932 655.096 422.172C655.689 421.411 656.408 420.823 657.252 420.406C658.096 419.99 659.049 419.781 660.111 419.781C660.684 419.781 661.205 419.839 661.674 419.953C662.153 420.057 662.585 420.219 662.971 420.438C663.262 420.594 663.533 420.781 663.783 421C664.033 421.208 664.262 421.443 664.471 421.703L664.643 420.094H668.596V436.453C668.596 437.599 668.398 438.62 668.002 439.516C667.616 440.411 667.075 441.167 666.377 441.781C665.669 442.396 664.82 442.859 663.83 443.172C662.851 443.495 661.768 443.656 660.58 443.656C660.07 443.656 659.523 443.604 658.939 443.5C658.356 443.396 657.778 443.234 657.205 443.016C656.632 442.797 656.09 442.516 655.58 442.172C655.07 441.839 654.632 441.438 654.268 440.969L656.221 438.328C656.502 438.651 656.804 438.932 657.127 439.172C657.45 439.422 657.788 439.625 658.143 439.781C658.486 439.938 658.84 440.052 659.205 440.125C659.58 440.208 659.965 440.25 660.361 440.25C660.997 440.25 661.559 440.161 662.049 439.984C662.549 439.807 662.965 439.547 663.299 439.203C663.601 438.891 663.83 438.505 663.986 438.047C664.153 437.589 664.236 437.073 664.236 436.5V435.531C664.028 435.76 663.809 435.969 663.58 436.156C663.351 436.344 663.106 436.51 662.846 436.656C662.46 436.865 662.033 437.026 661.564 437.141C661.106 437.255 660.611 437.312 660.08 437.312C659.028 437.312 658.08 437.099 657.236 436.672C656.403 436.234 655.689 435.635 655.096 434.875C654.502 434.115 654.044 433.214 653.721 432.172C653.408 431.12 653.252 429.979 653.252 428.75V428.422ZM657.611 428.75C657.611 429.458 657.679 430.12 657.814 430.734C657.96 431.339 658.179 431.865 658.471 432.312C658.762 432.771 659.132 433.13 659.58 433.391C660.028 433.651 660.559 433.781 661.174 433.781C661.549 433.781 661.887 433.745 662.189 433.672C662.502 433.599 662.783 433.495 663.033 433.359C663.294 433.214 663.523 433.036 663.721 432.828C663.919 432.62 664.09 432.385 664.236 432.125V424.969C664.08 424.677 663.893 424.422 663.674 424.203C663.455 423.984 663.205 423.807 662.924 423.672C662.684 423.557 662.419 423.469 662.127 423.406C661.846 423.344 661.538 423.312 661.205 423.312C660.59 423.312 660.059 423.448 659.611 423.719C659.163 423.979 658.794 424.339 658.502 424.797C658.2 425.266 657.976 425.812 657.83 426.438C657.684 427.052 657.611 427.714 657.611 428.422V428.75ZM682.391 437.312C681.089 437.312 679.907 437.099 678.844 436.672C677.782 436.245 676.87 435.661 676.11 434.922C675.35 434.193 674.761 433.333 674.344 432.344C673.938 431.344 673.735 430.276 673.735 429.141V428.516C673.735 427.224 673.938 426.047 674.344 424.984C674.751 423.911 675.318 422.99 676.048 422.219C676.777 421.448 677.641 420.849 678.641 420.422C679.641 419.995 680.73 419.781 681.907 419.781C683.126 419.781 684.209 419.984 685.157 420.391C686.115 420.786 686.928 421.349 687.594 422.078C688.251 422.807 688.751 423.688 689.094 424.719C689.438 425.74 689.61 426.87 689.61 428.109V429.953H678.141V430C678.287 430.677 678.475 431.224 678.704 431.641C678.933 432.047 679.24 432.417 679.626 432.75C680.021 433.094 680.475 433.359 680.985 433.547C681.495 433.734 682.053 433.828 682.657 433.828C683.511 433.828 684.339 433.667 685.141 433.344C685.943 433.021 686.594 432.536 687.094 431.891L689.266 434.234C688.714 435.016 687.839 435.724 686.641 436.359C685.443 436.995 684.027 437.312 682.391 437.312ZM681.876 423.297C681.386 423.297 680.938 423.385 680.532 423.562C680.126 423.729 679.771 423.974 679.469 424.297C679.157 424.62 678.896 425.005 678.688 425.453C678.48 425.901 678.324 426.401 678.219 426.953H685.344V426.609C685.344 426.151 685.261 425.719 685.094 425.312C684.928 424.906 684.699 424.552 684.407 424.25C684.115 423.958 683.756 423.729 683.329 423.562C682.912 423.385 682.428 423.297 681.876 423.297ZM705.593 432.359C705.593 432.099 705.531 431.87 705.406 431.672C705.291 431.474 705.083 431.286 704.781 431.109C704.468 430.943 704.057 430.786 703.546 430.641C703.036 430.495 702.39 430.349 701.609 430.203C700.619 430.005 699.713 429.76 698.89 429.469C698.078 429.167 697.38 428.802 696.796 428.375C696.213 427.958 695.755 427.474 695.421 426.922C695.098 426.37 694.937 425.734 694.937 425.016C694.937 424.318 695.104 423.651 695.437 423.016C695.77 422.38 696.249 421.823 696.874 421.344C697.499 420.865 698.26 420.484 699.156 420.203C700.051 419.922 701.062 419.781 702.187 419.781C703.364 419.781 704.421 419.922 705.359 420.203C706.296 420.474 707.093 420.849 707.749 421.328C708.395 421.818 708.89 422.396 709.234 423.062C709.578 423.729 709.749 424.453 709.749 425.234H705.406C705.406 424.953 705.359 424.693 705.265 424.453C705.171 424.203 705.031 423.979 704.843 423.781C704.583 423.521 704.229 423.312 703.781 423.156C703.343 423 702.812 422.922 702.187 422.922C701.656 422.922 701.192 422.974 700.796 423.078C700.4 423.182 700.078 423.328 699.828 423.516C699.598 423.682 699.421 423.88 699.296 424.109C699.182 424.328 699.124 424.562 699.124 424.812C699.124 425.062 699.176 425.297 699.281 425.516C699.385 425.724 699.572 425.911 699.843 426.078C700.104 426.255 700.463 426.417 700.921 426.562C701.38 426.698 701.963 426.818 702.671 426.922C703.692 427.089 704.64 427.302 705.515 427.562C706.39 427.823 707.145 428.156 707.781 428.562C708.416 428.979 708.911 429.484 709.265 430.078C709.63 430.661 709.812 431.359 709.812 432.172C709.812 432.922 709.63 433.615 709.265 434.25C708.911 434.875 708.406 435.417 707.749 435.875C707.083 436.333 706.281 436.693 705.343 436.953C704.406 437.203 703.359 437.328 702.203 437.328C700.932 437.328 699.807 437.161 698.828 436.828C697.859 436.495 697.046 436.057 696.39 435.516C695.734 434.984 695.234 434.38 694.89 433.703C694.557 433.016 694.39 432.328 694.39 431.641H698.531C698.562 432.099 698.687 432.495 698.906 432.828C699.124 433.151 699.406 433.411 699.749 433.609C700.093 433.818 700.484 433.969 700.921 434.062C701.369 434.156 701.828 434.203 702.296 434.203C702.859 434.203 703.348 434.156 703.765 434.062C704.192 433.958 704.541 433.823 704.812 433.656C705.072 433.49 705.265 433.297 705.39 433.078C705.525 432.859 705.593 432.62 705.593 432.359ZM719.576 434.484C719.576 433.682 719.842 433.005 720.373 432.453C720.904 431.891 721.644 431.609 722.592 431.609C723.529 431.609 724.264 431.885 724.795 432.438C725.337 432.99 725.608 433.672 725.608 434.484C725.608 435.297 725.331 435.974 724.779 436.516C724.238 437.047 723.509 437.312 722.592 437.312C721.665 437.312 720.93 437.042 720.389 436.5C719.847 435.958 719.576 435.286 719.576 434.484ZM740.075 434.484C740.075 433.682 740.341 433.005 740.872 432.453C741.403 431.891 742.143 431.609 743.091 431.609C744.028 431.609 744.763 431.885 745.294 432.438C745.835 432.99 746.106 433.672 746.106 434.484C746.106 435.297 745.83 435.974 745.278 436.516C744.736 437.047 744.007 437.312 743.091 437.312C742.164 437.312 741.429 437.042 740.888 436.5C740.346 435.958 740.075 435.286 740.075 434.484ZM760.574 434.484C760.574 433.682 760.839 433.005 761.371 432.453C761.902 431.891 762.641 431.609 763.589 431.609C764.527 431.609 765.261 431.885 765.793 432.438C766.334 432.99 766.605 433.672 766.605 434.484C766.605 435.297 766.329 435.974 765.777 436.516C765.235 437.047 764.506 437.312 763.589 437.312C762.662 437.312 761.928 437.042 761.386 436.5C760.845 435.958 760.574 435.286 760.574 434.484Z" fill="black"/>
</g>
<defs>
<clipPath id="clip0_171_58">
<rect width="1200" height="630" fill="white"/>
</clipPath>
</defs>
</svg>
