<svg width="280" height="280" viewBox="0 0 280 280" fill="none" xmlns="http://www.w3.org/2000/svg">
<rect width="280" height="280" rx="140" fill="white"/>
<g clip-path="url(#clip0_502_2162)">
<path d="M101 67.5833C101.115 67.5833 101.208 67.49 101.208 67.375C101.208 67.2599 101.115 67.1666 101 67.1666C100.885 67.1666 100.792 67.2599 100.792 67.375C100.792 67.49 100.885 67.5833 101 67.5833Z" stroke="#9013FE" stroke-width="2" stroke-linecap="round" stroke-linejoin="round"/>
<path d="M101.125 67.8334H100.875C100.836 67.8334 100.817 67.8334 100.801 67.835C100.642 67.8506 100.517 67.9758 100.502 68.134C100.5 68.1503 100.5 68.1697 100.5 68.2084H101.5C101.5 68.1697 101.5 68.1503 101.498 68.134C101.483 67.9758 101.358 67.8506 101.199 67.835C101.183 67.8334 101.164 67.8334 101.125 67.8334Z" stroke="#9013FE" stroke-width="2" stroke-linecap="round" stroke-linejoin="round"/>
<path d="M101.708 68.116C101.787 68.167 101.833 68.2272 101.833 68.2916C101.833 68.4757 101.46 68.625 101 68.625C100.54 68.625 100.167 68.4757 100.167 68.2916C100.167 68.2272 100.212 68.167 100.292 68.116" stroke="#9013FE" stroke-width="2" stroke-linecap="round" stroke-linejoin="round"/>
<path d="M100.792 68.4166L101 68.625L100.792 68.8333" stroke="#9013FE" stroke-width="2" stroke-linecap="round" stroke-linejoin="round"/>
</g>
<path d="M185 59H95C75.1177 59 59 75.1177 59 95V185C59 204.882 75.1177 221 95 221H185C204.882 221 221 204.882 221 185V95C221 75.1177 204.882 59 185 59Z" stroke="black" stroke-width="16" stroke-linejoin="round"/>
<path d="M140 176C159.882 176 176 159.882 176 140C176 120.118 159.882 104 140 104C120.118 104 104 120.118 104 140C104 159.882 120.118 176 140 176Z" stroke="black" stroke-width="16" stroke-linejoin="round"/>
<path d="M189.5 99.5C194.471 99.5 198.5 95.4707 198.5 90.5C198.5 85.5293 194.471 81.5 189.5 81.5C184.529 81.5 180.5 85.5293 180.5 90.5C180.5 95.4707 184.529 99.5 189.5 99.5Z" fill="black"/>
<defs>
<clipPath id="clip0_502_2162">
<rect width="2" height="2" fill="white" transform="translate(100 67)"/>
</clipPath>
</defs>
</svg>
