<svg width="512" height="512" viewBox="0 0 512 512" fill="none" xmlns="http://www.w3.org/2000/svg">
<rect width="512" height="512" rx="80" fill="white"/>
<path d="M322.511 312.506H113.115C89.8556 312.506 71 331.362 71 354.622C71 377.881 89.8556 396.737 113.115 396.737H322.511C345.77 396.737 364.626 377.881 364.626 354.622C364.626 331.362 345.77 312.506 322.511 312.506Z" fill="#F5212D"/>
<path d="M128.665 265.795L298.069 388.874C316.887 402.546 343.224 398.374 356.896 379.557C370.567 360.74 366.396 334.402 347.579 320.73L178.174 197.651C159.357 183.979 133.019 188.151 119.348 206.968C105.676 225.785 109.847 252.123 128.665 265.795Z" fill="#FADB15"/>
<path d="M363.428 341.203L298.721 142.056C291.534 119.935 267.774 107.829 245.653 115.016C223.532 122.204 211.426 145.963 218.614 168.085L283.32 367.231C290.508 389.353 314.267 401.459 336.389 394.271C358.51 387.083 370.616 363.324 363.428 341.203Z" fill="#52C41A"/>
<path d="M347.878 142.054L283.171 341.201C275.983 363.322 288.09 387.082 310.211 394.269C332.332 401.457 356.091 389.351 363.279 367.23L427.986 168.083C435.173 145.962 423.067 122.202 400.946 115.014C378.825 107.827 355.065 119.933 347.878 142.054Z" fill="#1777FF"/>
<path d="M258.597 176.383C270.206 176.383 279.616 166.973 279.616 155.365C279.616 143.757 270.206 134.347 258.597 134.347C246.989 134.347 237.579 143.757 237.579 155.365C237.579 166.973 246.989 176.383 258.597 176.383Z" fill="white"/>
<path d="M152.798 252.08C164.406 252.08 173.816 242.67 173.816 231.062C173.816 219.454 164.406 210.044 152.798 210.044C141.19 210.044 131.78 219.454 131.78 231.062C131.78 242.67 141.19 252.08 152.798 252.08Z" fill="white"/>
<path d="M113.375 375.797C124.983 375.797 134.393 366.387 134.393 354.779C134.393 343.17 124.983 333.76 113.375 333.76C101.767 333.76 92.3567 343.17 92.3567 354.779C92.3567 366.387 101.767 375.797 113.375 375.797Z" fill="white"/>
<path d="M323.447 375.041C335.055 375.041 344.465 365.631 344.465 354.023C344.465 342.415 335.055 333.005 323.447 333.005C311.839 333.005 302.429 342.415 302.429 354.023C302.429 365.631 311.839 375.041 323.447 375.041Z" fill="white"/>
<path d="M388.352 175.289C399.96 175.289 409.37 165.879 409.37 154.271C409.37 142.663 399.96 133.252 388.352 133.252C376.744 133.252 367.334 142.663 367.334 154.271C367.334 165.879 376.744 175.289 388.352 175.289Z" fill="white"/>
</svg>
