<svg width="512" height="512" viewBox="0 0 512 512" fill="none" xmlns="http://www.w3.org/2000/svg">
<rect width="512" height="512" rx="80" fill="white"/>
<path d="M256 81C159.323 81 81 159.323 81 256C81 352.677 159.323 431 256 431C352.677 431 431 352.677 431 256C431 159.323 352.677 81 256 81ZM182.511 193C193.503 193 202.056 201.017 203.019 210.489C204.058 219.031 200.514 226.502 191.064 230.997C186.044 233.502 184.053 233.502 183.025 232.014C182.511 230.997 183.025 230.034 184.042 228.995C193.055 221.547 193.055 215.509 192.016 207.022C191.502 201.498 187.52 198.009 183.528 198.009C165.984 198.009 141.036 236.98 144.503 265.516C146.045 276.508 152.542 289.502 166.498 289.502C171.005 289.502 176.025 288.014 180.509 286.034C187.805 282.152 192.191 279.198 196.522 274.353C195.439 261.414 206.77 244.505 223.516 244.505C231.041 244.505 237.023 247.523 237.527 253.047C238.5 260.517 232.003 261.534 230.012 261.534C228.011 261.534 224.489 261.02 224.489 259.03C224.041 257.028 228.984 258.013 228.525 253.506C228.011 250.488 224.992 249.525 222.039 249.525C211.495 249.525 205.513 264.05 207 272.986C207.514 277.022 209.494 281.025 213.552 281.025C216.516 281.025 221.022 276.519 222.487 270.033C223.505 265.527 227.508 262.508 231.03 262.508C232.517 262.508 233.48 263.022 233.994 265.012V267.014C233.545 269.016 231.992 275.053 232.517 276.519C232.517 277.558 233.031 279.023 235.011 279.023C236.323 279.023 241.344 276.398 246.353 272.297C248.005 263.689 249.995 253.386 249.995 252.533C250.509 249 251.997 245.522 258.997 245.522C260.528 245.522 261.502 246.036 262.016 248.027V250.028L260.014 259.03C266.522 250.542 276.027 244.559 282.009 244.559C284.514 244.559 286.516 246.036 286.516 248.541C286.516 250.028 286.516 252.533 285.477 255.048C283.497 260.517 280.981 269.059 279.494 276.519C279.494 278.52 280.008 280.511 282.512 280.511C285.017 280.511 292.487 277.547 298.47 269.519L298.591 269.464C298.591 268.491 298.47 267.528 298.47 266.566C298.47 260.528 298.984 255.573 300.013 252.041C301.03 248.048 305.995 244.57 309.014 244.57C310.491 244.57 312.033 245.533 312.033 247.02C312.033 247.534 312.033 248.552 311.519 249.022C309.517 255.573 307.975 261.545 307.975 267.528C307.975 271.061 308.5 276.016 309.517 279.034C309.517 279.548 309.966 280.052 310.48 280.052C311.519 280.052 318.519 273.566 323.473 265.012C318.967 262.048 316.462 257.039 316.462 251.056C316.462 240.523 323.025 235.044 329.008 235.044C334.028 235.044 338.009 238.533 338.009 245.533C338.009 250.039 336.522 255.059 334.028 259.544H335.505C338.698 259.664 341.838 258.352 343.992 256.077C344.506 255.278 345.184 254.709 345.994 254.37C350.894 248.158 358.069 243.553 366.556 243.553C373.556 243.553 379.998 246.572 380.513 252.041C381.53 259.555 374.989 261.042 372.987 261.042C371.008 261.042 367.475 260.528 367.475 258.538C367.475 256.547 371.97 257.52 371.511 253.069C370.997 250.05 367.978 249.033 364.959 249.033C354.984 249.033 348.498 262.016 349.964 272.559C350.478 276.541 352.469 281.047 356.472 281.047C359.491 281.047 363.986 276.541 365.977 270.055C366.939 266.073 370.997 262.53 374.464 262.53C375.995 262.53 376.969 263.044 377.483 265.034C377.483 266.073 377.483 268.053 375.481 274.561C372.977 279.056 372.977 281.561 373.502 283.563C373.95 287.544 375.952 290.562 377.997 292.05C378.445 292.564 378.97 293.527 378.97 293.527C378.97 294.566 378.445 295.583 376.969 295.583C376.455 295.583 375.995 295.583 375.481 295.069C367.967 292.05 364.948 287.03 363.975 282.02C360.956 285.553 357.489 287.544 353.442 287.544C346.934 287.544 340.503 281.561 339.486 274.036C339.191 270.853 339.53 267.605 340.569 264.586C337.605 266.467 334.411 267.55 331.458 267.55H329.008C322.456 277.055 315.445 283.563 310.491 286.527C308.784 287.434 306.903 287.959 304.967 288.058C304.005 288.058 302.473 287.544 302.003 286.527C300.592 284.306 299.728 280.828 299.159 276.847C292.148 284.47 282.458 288.572 277.973 288.572C272.953 288.572 270 285.553 269.486 280.555V275.086C270.962 264.094 275.009 257.542 275.009 255.541C274.955 255.027 274.539 254.567 273.97 254.523C270.503 254.523 258.997 266.544 256.995 274.572L255.464 281.058C254.491 285.553 249.995 288.572 246.977 288.572C245.489 288.572 244.472 288.058 244.013 286.078V284.077L244.636 280.664C238.303 285.159 231.981 288.058 228.962 288.058C224.467 288.058 221.963 285.553 221.514 282.02C218.495 286.078 215.006 288.058 210.522 288.058C205.327 288.058 200.328 284.525 197.933 279.406C194.334 283.442 190.288 287.489 185.508 290.562C178.508 295.069 170.534 298.536 161.008 298.536C152.52 298.536 145.006 294.03 141.014 290.048C134.977 284.525 131.509 276.037 130.995 268.053C128.031 243.564 143.016 212.053 165.963 198.042C171.486 195.023 177.02 193.044 182.489 193.044L182.511 193ZM324.983 241.027C323.506 241.027 322.489 243.531 322.489 245.97C322.489 250.028 324.469 254.512 326.984 257.028C328.023 254.305 328.472 251.395 328.527 248.486C328.527 243.542 326.525 241.037 324.983 241.037V241.027Z" fill="url(#paint0_linear_39_902)"/>
<defs>
<linearGradient id="paint0_linear_39_902" x1="81" y1="81" x2="431" y2="431" gradientUnits="userSpaceOnUse">
<stop stop-color="#36CFC9"/>
<stop offset="1" stop-color="#9154DE"/>
</linearGradient>
</defs>
</svg>
