<svg width="512" height="512" viewBox="0 0 512 512" fill="none" xmlns="http://www.w3.org/2000/svg">
<g clip-path="url(#clip0_35_127)">
<path d="M435.2 0H76.8C34.3845 0 0 34.3845 0 76.8V435.2C0 477.615 34.3845 512 76.8 512H435.2C477.615 512 512 477.615 512 435.2V76.8C512 34.3845 477.615 0 435.2 0Z" fill="white"/>
<path d="M325.099 335.124C335.248 311.137 321.409 300.066 307.57 300.066L171.027 298.221C167.337 298.221 167.337 292.685 171.95 291.762L310.338 289.917C326.022 288.995 344.474 276.078 350.009 259.472C350.009 259.472 359.235 240.097 358.313 237.33C354.319 218.059 344.084 200.643 329.193 187.776C314.302 174.909 295.585 167.31 275.939 166.154C256.293 164.999 236.814 170.351 220.517 181.383C204.22 192.416 192.014 208.512 185.789 227.181C150.73 204.116 113.827 235.484 122.13 269.62C77.8456 272.388 62.1616 312.059 66.7745 336.047C66.7745 336.969 67.6971 337.892 69.5423 337.892H322.332C323.254 337.892 325.099 336.969 325.099 335.124Z" fill="#FA8B16"/>
<path d="M371.229 241.02C367.539 241.02 365.693 240.098 364.771 241.943L360.158 261.317C355.545 276.079 362.926 288.995 378.61 289.917L408.132 291.763C411.823 291.763 411.823 297.298 407.21 298.221L376.764 299.143C343.551 302.834 334.325 335.124 334.325 335.124C334.325 336.969 334.325 337.892 336.17 337.892H440.423L443.191 336.047C446.328 324.931 446.846 313.24 444.704 301.89C442.561 290.541 437.818 279.842 430.845 270.635C423.872 261.427 414.86 253.961 404.517 248.823C394.173 243.685 382.779 241.014 371.229 241.02Z" fill="#FFA940"/>
</g>
<defs>
<clipPath id="clip0_35_127">
<rect width="512" height="512" rx="80" fill="white"/>
</clipPath>
</defs>
</svg>
