<svg width="512" height="512" viewBox="0 0 512 512" fill="none" xmlns="http://www.w3.org/2000/svg">
<rect width="512" height="512" rx="80" fill="white"/>
<path d="M136.221 215.542L98.4979 177.658C77.6874 198.513 66 226.772 66 256.234C66 285.696 77.6874 313.955 98.4979 334.81L136.381 296.926C125.587 286.145 119.509 271.523 119.478 256.267C119.448 241.011 125.469 226.365 136.221 215.542Z" fill="#FA8B16"/>
<path d="M98.4979 177.658L136.221 215.542C141.573 210.183 147.929 205.932 154.925 203.032C161.921 200.132 169.42 198.639 176.993 198.639C184.567 198.639 192.066 200.132 199.062 203.032C206.058 205.932 212.414 210.183 217.766 215.542L245.215 168.509L243.61 167.224C222.2 151.251 195.756 143.515 169.112 145.431C142.468 147.346 117.403 158.786 98.4979 177.658Z" fill="#FFA940"/>
<path d="M245.376 343.959L217.766 297.087C212.414 302.445 206.058 306.696 199.062 309.596C192.066 312.497 184.567 313.99 176.993 313.99C169.42 313.99 161.921 312.497 154.925 309.596C147.929 306.696 141.573 302.445 136.221 297.087L98.4979 334.97C117.365 353.674 142.304 365.009 168.802 366.922C195.301 368.836 221.609 361.203 242.968 345.404L244.734 343.959" fill="#FFA940"/>
<path d="M255.971 177.658C235.16 198.513 223.473 226.772 223.473 256.234C223.473 285.696 235.16 313.955 255.971 334.81L293.854 296.927C283.04 286.113 276.965 271.447 276.965 256.154C276.965 240.861 283.04 226.195 293.854 215.381C304.667 204.568 319.334 198.493 334.627 198.493C349.919 198.493 364.586 204.568 375.399 215.381L413.443 177.658C403.111 167.306 390.838 159.092 377.327 153.488C363.817 147.885 349.334 145 334.707 145C320.08 145 305.597 147.885 292.086 153.488C278.576 159.092 266.303 167.306 255.971 177.658Z" fill="#FFA940"/>
<path d="M413.443 177.658L375.72 215.542C386.534 226.355 392.609 241.022 392.609 256.314C392.609 271.607 386.534 286.273 375.72 297.087C364.907 307.901 350.24 313.976 334.948 313.976C319.655 313.976 304.988 307.901 294.175 297.087L255.97 334.97C276.831 355.852 305.133 367.592 334.65 367.607C349.265 367.615 363.739 364.744 377.244 359.157C390.75 353.571 403.023 345.38 413.363 335.051C423.703 324.721 431.907 312.457 437.507 298.957C443.106 285.457 445.992 270.986 446 256.371C446.007 241.756 443.136 227.282 437.55 213.777C431.964 200.271 423.772 187.998 413.443 177.658Z" fill="#FA8B16"/>
</svg>
