<svg width="512" height="512" viewBox="0 0 512 512" fill="none" xmlns="http://www.w3.org/2000/svg">
<rect width="512" height="512" rx="80" fill="white"/>
<path d="M288.056 230.221H327.418ZM241.197 230.221H280.559ZM195.275 230.221H234.637ZM149.353 230.221H187.778ZM102.494 230.221H141.856ZM149.353 187.11H187.778ZM195.275 187.11H234.637ZM241.197 187.11H280.559ZM241.197 144H280.559Z" fill="#1777FF"/>
<path d="M288.056 230.221H327.418M241.197 230.221H280.559M195.275 230.221H234.637M149.353 230.221H187.778M102.494 230.221H141.856M149.353 187.11H187.778M195.275 187.11H234.637M241.197 187.11H280.559M241.197 144H280.559" stroke="#1777FF" stroke-width="38"/>
<path d="M453 232.095C453 232.095 436.131 216.163 401.455 221.786C397.706 194.608 368.654 178.676 368.654 178.676C368.654 178.676 341.475 211.477 361.156 248.027C355.533 250.839 346.161 254.587 332.104 254.587H74.3788C69.6929 272.394 69.6929 390.479 199.024 390.479C291.805 390.479 361.156 347.368 393.958 268.645C442.691 272.394 453 232.095 453 232.095Z" fill="#1777FF"/>
</svg>
