<svg width="512" height="512" viewBox="0 0 512 512" fill="none" xmlns="http://www.w3.org/2000/svg">
<rect width="512" height="512" rx="80" fill="white"/>
<mask id="mask0_40_1372" style="mask-type:alpha" maskUnits="userSpaceOnUse" x="91" y="66" width="330" height="380">
<path d="M256 66L420.545 161V351L256 446L91.4552 351V161L256 66Z" fill="#D9D9D9"/>
</mask>
<g mask="url(#mask0_40_1372)">
<path d="M163.147 347.909C160.283 347.909 157.828 347.407 155.781 346.403C153.747 345.417 152.129 344.07 150.925 342.362C149.722 340.654 148.94 338.735 148.58 336.605L156.756 335.205C157.005 336.015 157.399 336.772 157.939 337.476C158.478 338.181 159.19 338.744 160.076 339.167C160.975 339.607 162.068 339.827 163.354 339.827C165.277 339.827 166.861 339.228 168.106 338.031C169.365 336.851 169.994 334.87 169.994 332.088V324.666H169.621C169.233 325.793 168.652 326.859 167.878 327.862C167.103 328.866 166.107 329.685 164.89 330.319C163.672 330.953 162.22 331.269 160.532 331.269C158.139 331.269 155.96 330.565 153.996 329.157C152.046 327.73 150.489 325.556 149.327 322.633C148.179 319.692 147.605 315.977 147.605 311.487C147.605 306.891 148.193 303.053 149.369 299.971C150.545 296.89 152.108 294.583 154.058 293.052C156.023 291.52 158.174 290.754 160.512 290.754C162.296 290.754 163.79 291.141 164.994 291.916C166.197 292.673 167.165 293.624 167.898 294.768C168.645 295.895 169.22 297.004 169.621 298.096H169.953V291.282H178.73V332.247C178.73 335.698 178.066 338.586 176.738 340.91C175.41 343.234 173.57 344.977 171.218 346.139C168.881 347.319 166.19 347.909 163.147 347.909ZM163.334 322.818C164.758 322.818 165.962 322.369 166.944 321.471C167.94 320.555 168.701 319.252 169.226 317.562C169.766 315.854 170.036 313.811 170.036 311.434C170.036 309.057 169.773 306.997 169.247 305.254C168.722 303.493 167.961 302.128 166.965 301.16C165.969 300.192 164.758 299.707 163.334 299.707C161.881 299.707 160.657 300.209 159.661 301.213C158.665 302.199 157.911 303.572 157.399 305.333C156.887 307.094 156.631 309.128 156.631 311.434C156.631 313.776 156.887 315.801 157.399 317.509C157.925 319.199 158.679 320.511 159.661 321.444C160.657 322.36 161.881 322.818 163.334 322.818Z" fill="black"/>
<path d="M200.123 347.909C197.26 347.909 194.804 347.407 192.757 346.403C190.723 345.417 189.105 344.07 187.901 342.362C186.698 340.654 185.916 338.735 185.557 336.605L193.732 335.205C193.981 336.015 194.375 336.772 194.915 337.476C195.454 338.181 196.167 338.744 197.052 339.167C197.951 339.607 199.044 339.827 200.331 339.827C202.253 339.827 203.837 339.228 205.082 338.031C206.341 336.851 206.971 334.87 206.971 332.088V324.666H206.597C206.21 325.793 205.629 326.859 204.854 327.862C204.079 328.866 203.083 329.685 201.866 330.319C200.649 330.953 199.196 331.269 197.509 331.269C195.115 331.269 192.937 330.565 190.972 329.157C189.022 327.73 187.466 325.556 186.304 322.633C185.155 319.692 184.581 315.977 184.581 311.487C184.581 306.891 185.169 303.053 186.345 299.971C187.521 296.89 189.084 294.583 191.035 293.052C192.999 291.52 195.15 290.754 197.488 290.754C199.272 290.754 200.766 291.141 201.97 291.916C203.173 292.673 204.142 293.624 204.875 294.768C205.622 295.895 206.196 297.004 206.597 298.096H206.929V291.282H215.706V332.247C215.706 335.698 215.042 338.586 213.714 340.91C212.386 343.234 210.546 344.977 208.195 346.139C205.857 347.319 203.166 347.909 200.123 347.909ZM200.31 322.818C201.735 322.818 202.938 322.369 203.92 321.471C204.916 320.555 205.677 319.252 206.203 317.562C206.742 315.854 207.012 313.811 207.012 311.434C207.012 309.057 206.749 306.997 206.224 305.254C205.698 303.493 204.937 302.128 203.941 301.16C202.945 300.192 201.735 299.707 200.31 299.707C198.857 299.707 197.633 300.209 196.637 301.213C195.641 302.199 194.887 303.572 194.375 305.333C193.864 307.094 193.608 309.128 193.608 311.434C193.608 313.776 193.864 315.801 194.375 317.509C194.901 319.199 195.655 320.511 196.637 321.444C197.633 322.36 198.857 322.818 200.31 322.818Z" fill="black"/>
<path d="M222.74 347.064V291.282H231.455V298.096H231.85C232.237 297.004 232.797 295.895 233.53 294.768C234.277 293.624 235.246 292.673 236.435 291.916C237.639 291.141 239.133 290.754 240.917 290.754C243.241 290.754 245.385 291.528 247.35 293.078C249.314 294.61 250.884 296.925 252.06 300.024C253.236 303.106 253.824 306.971 253.824 311.619C253.824 316.144 253.25 319.965 252.101 323.082C250.967 326.181 249.418 328.531 247.454 330.134C245.503 331.718 243.317 332.511 240.897 332.511C239.181 332.511 237.722 332.15 236.518 331.428C235.329 330.706 234.353 329.799 233.593 328.708C232.832 327.598 232.251 326.48 231.85 325.353H231.58V347.064H222.74ZM231.393 311.566C231.393 313.978 231.656 316.083 232.182 317.879C232.707 319.675 233.468 321.074 234.464 322.078C235.46 323.064 236.671 323.557 238.095 323.557C239.534 323.557 240.751 323.055 241.747 322.052C242.743 321.03 243.497 319.622 244.009 317.826C244.535 316.012 244.798 313.926 244.798 311.566C244.798 309.224 244.542 307.164 244.03 305.386C243.518 303.607 242.764 302.216 241.768 301.213C240.772 300.209 239.548 299.707 238.095 299.707C236.657 299.707 235.439 300.192 234.443 301.16C233.461 302.128 232.707 303.502 232.182 305.28C231.656 307.059 231.393 309.154 231.393 311.566Z" fill="black"/>
<path d="M268.556 277.759V331.851H259.717V277.759H268.556Z" fill="black"/>
<path d="M290.037 332.643C286.814 332.643 284.027 331.771 281.675 330.028C279.337 328.267 277.532 325.82 276.26 322.686C274.987 319.534 274.351 315.88 274.351 311.725C274.351 307.534 274.987 303.872 276.26 300.737C277.532 297.586 279.337 295.138 281.675 293.395C284.027 291.634 286.814 290.754 290.037 290.754C293.261 290.754 296.041 291.634 298.379 293.395C300.731 295.138 302.543 297.586 303.815 300.737C305.088 303.872 305.724 307.534 305.724 311.725C305.724 315.88 305.088 319.534 303.815 322.686C302.543 325.82 300.731 328.267 298.379 330.028C296.041 331.771 293.261 332.643 290.037 332.643ZM290.079 323.927C291.545 323.927 292.77 323.399 293.752 322.342C294.734 321.268 295.474 319.807 295.972 317.958C296.484 316.109 296.74 314.005 296.74 311.645C296.74 309.286 296.484 307.182 295.972 305.333C295.474 303.484 294.734 302.023 293.752 300.949C292.77 299.875 291.545 299.338 290.079 299.338C288.599 299.338 287.354 299.875 286.344 300.949C285.348 302.023 284.594 303.484 284.082 305.333C283.584 307.182 283.335 309.286 283.335 311.645C283.335 314.005 283.584 316.109 284.082 317.958C284.594 319.807 285.348 321.268 286.344 322.342C287.354 323.399 288.599 323.927 290.079 323.927Z" fill="black"/>
<path d="M328.425 291.282V299.734H309.231V291.282H328.425ZM313.589 281.562H322.428V319.384C322.428 320.423 322.553 321.233 322.802 321.814C323.051 322.377 323.396 322.774 323.839 323.003C324.296 323.231 324.821 323.346 325.416 323.346C325.831 323.346 326.246 323.302 326.661 323.214C327.076 323.108 327.394 323.029 327.616 322.976L329.006 331.349C328.563 331.525 327.941 331.727 327.138 331.956C326.336 332.203 325.361 332.352 324.213 332.405C322.082 332.511 320.215 332.15 318.61 331.322C317.019 330.495 315.781 329.209 314.896 327.466C314.011 325.723 313.575 323.522 313.589 320.863V281.562Z" fill="black"/>
<path d="M334.1 331.851V323.61L349.227 305.782C350.513 304.197 351.592 302.771 352.463 301.503C353.349 300.236 354.02 298.994 354.476 297.779C354.933 296.547 355.161 295.217 355.161 293.791C355.161 292.206 354.877 290.842 354.31 289.697C353.743 288.535 352.968 287.646 351.986 287.03C351.004 286.396 349.89 286.079 348.645 286.079C347.345 286.079 346.211 286.413 345.243 287.082C344.274 287.752 343.527 288.711 343.002 289.961C342.476 291.211 342.213 292.699 342.213 294.425H333.685C333.685 290.886 334.314 287.813 335.573 285.207C336.832 282.601 338.596 280.585 340.864 279.159C343.133 277.733 345.747 277.02 348.708 277.02C351.751 277.02 354.4 277.706 356.655 279.08C358.924 280.435 360.687 282.32 361.946 284.732C363.205 287.144 363.834 289.909 363.834 293.025C363.834 295.068 363.516 297.084 362.88 299.073C362.257 301.063 361.144 303.273 359.539 305.703C357.935 308.115 355.673 311.012 352.754 314.392L346.55 322.131V322.501H364.395V331.851H334.1Z" fill="black"/>
<path d="M109.275 261.358L237.041 177.28L274.959 231.683L389.536 158.733" stroke="#262626" stroke-width="7"/>
<circle cx="235.805" cy="178.104" r="18.1345" fill="#1777FF"/>
<circle cx="391.596" cy="157.497" r="18.1345" fill="#001D66"/>
<circle cx="172.334" cy="219.319" r="18.1345" fill="#3F96FF"/>
<circle cx="335.544" cy="192.117" r="18.1345" fill="#002C8C"/>
<circle cx="109.687" cy="261.358" r="18.1345" fill="#91CAFF"/>
<circle cx="274.546" cy="231.683" r="18.1345" fill="#0758D9"/>
<path d="M412.545 165.618V346.381L256 436.763L99.4551 346.381V165.618L256 75.2363L412.545 165.618Z" stroke="black" stroke-width="16"/>
</g>
</svg>
