<svg width="512" height="512" viewBox="0 0 512 512" fill="none" xmlns="http://www.w3.org/2000/svg">
<rect width="512" height="512" rx="80" fill="white"/>
<path d="M429.143 239.975L271.928 82.8122C269.778 80.6531 267.222 78.9398 264.409 77.7708C261.595 76.6018 258.578 76 255.532 76C252.485 76 249.468 76.6018 246.654 77.7708C243.841 78.9398 241.286 80.6531 239.135 82.8122L206.531 115.519L247.943 156.848C252.827 155.194 258.077 154.944 263.096 156.127C268.115 157.31 272.702 159.879 276.333 163.541C279.965 167.203 282.496 171.811 283.638 176.84C284.781 181.87 284.489 187.12 282.796 191.992L322.615 231.821C328.569 229.767 335.048 229.816 340.971 231.96C346.893 234.104 351.902 238.214 355.163 243.605C358.424 248.995 359.739 255.34 358.89 261.583C358.041 267.826 355.078 273.589 350.496 277.912C345.914 282.235 339.989 284.856 333.709 285.34C327.429 285.823 321.173 284.139 315.984 280.568C310.794 276.997 306.985 271.755 305.191 265.715C303.398 259.676 303.727 253.204 306.125 247.378L268.929 210.173V308.106C274.568 310.912 279.075 315.566 281.699 321.292C284.324 327.018 284.908 333.471 283.353 339.576C281.799 345.68 278.2 351.067 273.156 354.84C268.113 358.612 261.93 360.542 255.636 360.308C249.343 360.074 243.32 357.69 238.571 353.553C233.821 349.416 230.632 343.777 229.536 337.574C228.439 331.371 229.5 324.979 232.542 319.463C235.585 313.948 240.425 309.642 246.256 307.263V208.486C242.885 207.11 239.821 205.079 237.24 202.512C234.659 199.944 232.612 196.89 231.218 193.526C229.824 190.162 229.11 186.555 229.118 182.914C229.127 179.273 229.856 175.669 231.265 172.311L190.509 131.545L82.7636 239.318C78.4325 243.658 76 249.54 76 255.672C76 261.804 78.4325 267.686 82.7636 272.026L240.072 429.188C242.222 431.347 244.778 433.06 247.591 434.229C250.405 435.398 253.422 436 256.468 436C259.515 436 262.532 435.398 265.346 434.229C268.159 433.06 270.714 431.347 272.865 429.188L429.236 272.681C433.568 268.342 436 262.46 436 256.328C436 250.196 433.568 244.314 429.236 239.975" fill="#FA541C"/>
</svg>
