<svg width="512" height="512" viewBox="0 0 512 512" fill="none" xmlns="http://www.w3.org/2000/svg">
<rect width="512" height="512" rx="80" fill="white"/>
<path d="M256.018 78.012C156.598 78.012 76 158.583 76 257.971C76 336.994 126.959 404.137 197.821 428.318L199.093 428.69C208.096 430.382 211.398 424.825 211.398 420.037C211.398 415.765 211.254 404.437 211.17 389.448C161.099 400.308 150.535 365.303 150.535 365.303C147.078 354.203 139.995 345.082 130.692 339.094L130.5 338.986C114.198 327.826 131.76 328.054 131.76 328.054C143.609 329.722 153.536 336.67 159.239 346.414L159.335 346.594C165.985 358.535 178.542 366.479 192.959 366.479C199.873 366.479 206.356 364.655 211.95 361.451L211.758 361.547C212.622 352.055 216.812 343.678 223.15 337.486L223.162 337.474C183.187 332.974 141.16 317.493 141.16 248.551C141.16 248.227 141.148 247.855 141.148 247.483C141.148 229.23 148.194 212.621 159.719 200.225L159.683 200.273C157.246 193.768 155.829 186.256 155.829 178.42C155.829 169.096 157.822 160.227 161.411 152.235L161.243 152.643C161.243 152.643 176.321 147.819 210.749 171.088C224.242 167.235 239.74 165.015 255.754 165.015C271.768 165.015 287.265 167.235 301.959 171.376L300.758 171.088C334.959 147.819 350.036 152.643 350.036 152.643C353.458 160.347 355.45 169.324 355.45 178.768C355.45 186.472 354.13 193.864 351.693 200.729L351.837 200.273C363.277 212.657 370.3 229.266 370.3 247.519C370.3 247.891 370.3 248.251 370.288 248.611V248.551C370.288 317.685 328.212 332.902 288.154 337.33C295.741 345.094 300.422 355.715 300.422 367.439C300.422 368.555 300.374 369.671 300.29 370.775L300.302 370.631C300.302 394.716 300.074 414.061 300.074 419.905C300.074 424.633 303.219 430.25 312.451 428.45C384.813 404.101 436 336.898 436 257.731C436 158.463 355.498 78 256.21 78C256.138 78 256.054 78 255.982 78H255.994L256.018 78.012Z" fill="#262626"/>
</svg>
