<svg width="512" height="512" viewBox="0 0 512 512" fill="none" xmlns="http://www.w3.org/2000/svg">
<rect width="512" height="512" rx="80" fill="white"/>
<path d="M391 331.262H260.32C254.075 330.742 247.79 331.516 241.857 333.536C235.925 335.557 230.473 338.78 225.844 343.003C221.215 347.227 217.507 352.361 214.953 358.084C212.398 363.807 211.053 369.995 211 376.262C210.971 382.553 212.262 388.781 214.788 394.542C217.315 400.304 221.022 405.472 225.669 409.712C230.317 413.953 235.802 417.171 241.77 419.161C247.739 421.15 254.058 421.866 260.32 421.262H391V331.262Z" fill="#69B1FF"/>
<path d="M346 376.262C346 364.327 350.741 352.881 359.18 344.442C367.62 336.003 379.065 331.262 391 331.262C402.935 331.262 414.381 336.003 422.82 344.442C431.259 352.881 436 364.327 436 376.262C436 388.197 431.259 399.642 422.82 408.082C414.381 416.521 402.935 421.262 391 421.262C379.065 421.262 367.62 416.521 359.18 408.082C350.741 399.642 346 388.197 346 376.262Z" fill="#1777FF"/>
<path d="M256 211.202H125.32C119.075 210.682 112.79 211.456 106.857 213.476C100.925 215.496 95.4737 218.719 90.8443 222.943C86.2148 227.167 82.507 232.301 79.9528 238.024C77.3986 243.747 76.0531 249.935 76.0005 256.202C75.9718 262.493 77.2625 268.72 79.7893 274.481C82.3162 280.243 86.023 285.41 90.6704 289.65C95.3177 293.891 100.802 297.11 106.771 299.1C112.739 301.089 119.058 301.806 125.32 301.202H256V211.202Z" fill="#69B1FF"/>
<path d="M211 256.202C210.989 250.289 212.144 244.432 214.402 238.967C216.659 233.502 219.973 228.537 224.154 224.356C228.335 220.175 233.301 216.86 238.766 214.603C244.231 212.346 250.088 211.19 256 211.202C261.913 211.19 267.77 212.346 273.235 214.603C278.7 216.86 283.666 220.175 287.847 224.356C292.028 228.537 295.342 233.502 297.599 238.967C299.856 244.432 301.012 250.289 301 256.202C301.012 262.115 299.856 267.972 297.599 273.437C295.342 278.902 292.028 283.867 287.847 288.048C283.666 292.229 278.7 295.543 273.235 297.801C267.77 300.058 261.913 301.214 256 301.202C250.088 301.214 244.231 300.058 238.766 297.801C233.301 295.543 228.335 292.229 224.154 288.048C219.973 283.867 216.659 278.902 214.402 273.437C212.144 267.972 210.989 262.115 211 256.202Z" fill="#1777FF"/>
<path d="M391 91.1423H260.32C254.08 90.6488 247.806 91.4418 241.885 93.4722C235.964 95.5025 230.524 98.727 225.9 102.946C221.276 107.165 217.568 112.288 215.005 117.998C212.442 123.708 211.079 129.884 211 136.142C210.971 142.433 212.262 148.661 214.788 154.423C217.315 160.184 221.022 165.352 225.669 169.592C230.317 173.833 235.802 177.052 241.77 179.041C247.739 181.03 254.058 181.746 260.32 181.142H391V91.1423Z" fill="#69B1FF"/>
<path d="M346 136.142C346 124.207 350.741 112.762 359.18 104.322C367.62 95.8833 379.065 91.1422 391 91.1422C402.935 91.1422 414.381 95.8833 422.82 104.322C431.259 112.762 436 124.207 436 136.142C436 148.077 431.259 159.523 422.82 167.962C414.381 176.401 402.935 181.142 391 181.142C379.065 181.142 367.62 176.401 359.18 167.962C350.741 159.523 346 148.077 346 136.142Z" fill="#1777FF"/>
</svg>
