<svg width="512" height="512" viewBox="0 0 512 512" fill="none" xmlns="http://www.w3.org/2000/svg">
<rect width="512" height="512" rx="80" fill="white"/>
<path d="M84.2863 328.185L203.897 123.413C219.091 132.358 295.705 174.758 308.078 182.821L188.467 387.605C175.386 404.886 67.7138 354.41 84.2863 328.173V328.185Z" fill="#FADB15"/>
<path d="M427.948 328.18L308.337 123.421C291.616 95.5927 255.601 85.4802 226.021 101.916C196.441 118.352 187.435 153.758 204.156 182.829L323.767 387.613C340.489 415.429 376.504 425.541 406.083 409.105C434.371 392.669 444.67 356.008 427.948 328.205V328.18Z" fill="#1777FF"/>
<path d="M136.041 417.02C169.201 417.02 196.083 390.806 196.083 358.469C196.083 326.133 169.201 299.919 136.041 299.919C102.881 299.919 76 326.133 76 358.469C76 390.806 102.881 417.02 136.041 417.02Z" fill="#52C41A"/>
</svg>
