<svg width="512" height="512" viewBox="0 0 512 512" fill="none" xmlns="http://www.w3.org/2000/svg">
<rect width="512" height="512" rx="80" fill="white"/>
<path d="M122.674 406.422L93 74H419.418L389.744 406.422L255.847 444" fill="#FA8B16"/>
<path d="M256.654 415.538L363.969 385.862L389.178 100.683H256.654" fill="#FFA940"/>
<path d="M256.654 223.979H202.631L199.029 182.065H256.654V141.596H154.37L165.175 265.17H256.654V223.979ZM255.934 330.209L210.554 317.924L207.673 285.405H167.336L172.378 349.721L255.934 372.846V330.209Z" fill="white"/>
<path d="M255.765 223.979V265.17H306.186L301.144 317.924L255.765 330.209V372.846L339.32 349.721L350.845 223.979H255.765ZM255.765 141.596V182.065H354.447L358.048 141.596H255.765Z" fill="white"/>
</svg>
