<svg width="512" height="512" viewBox="0 0 512 512" fill="none" xmlns="http://www.w3.org/2000/svg">
<g clip-path="url(#clip0_39_1008)">
<path d="M435.2 0H76.8C34.3845 0 0 34.3845 0 76.8V435.2C0 477.615 34.3845 512 76.8 512H435.2C477.615 512 512 477.615 512 435.2V76.8C512 34.3845 477.615 0 435.2 0Z" fill="white"/>
<path d="M96.45 249.036C96.45 193.284 126.674 141.786 175.718 113.902C199.887 100.201 227.195 93 254.977 93C282.76 93 310.067 100.201 334.237 113.902C383.28 141.786 413.505 193.284 413.505 249.036C413.505 335.21 342.533 405.068 254.985 405.068C167.437 405.068 96.45 335.194 96.45 249.036Z" fill="#FAAD14"/>
<path d="M254.985 388.966C333.484 388.966 397.14 326.308 397.14 249.036C397.14 171.765 333.484 109.123 254.985 109.123C176.47 109.123 112.814 171.765 112.814 249.036C112.814 326.308 176.47 388.95 254.985 388.95V388.966Z" fill="#FADB15"/>
<path d="M253.954 307.587C294.161 307.587 307.138 272.306 307.138 254.191C307.138 244.765 300.707 247.744 290.397 252.735C280.873 257.366 268.06 263.78 254.004 263.78C224.581 263.78 200.82 236.076 200.82 254.191C200.82 272.306 213.748 307.587 254.004 307.587H253.954Z" fill="#FF4D4F"/>
<path d="M301.165 210.99C306.401 212.757 308.447 223.312 313.716 220.563C321.031 216.75 325.286 208.977 324.5 200.861C324.093 196.871 322.507 193.092 319.946 190.006C317.384 186.92 313.963 184.666 310.116 183.531C306.255 182.363 302.136 182.351 298.269 183.496C294.401 184.642 290.953 186.896 288.352 189.978C283.083 196.262 282.183 205.033 286.061 212.234C288.565 216.865 296.501 209.337 301.198 210.941L301.165 210.99ZM204.829 210.99C199.593 212.757 197.498 223.312 192.262 220.563C188.707 218.727 185.782 215.87 183.864 212.359C181.945 208.848 181.12 204.844 181.494 200.861C182.28 192.76 187.958 185.92 195.862 183.531C199.723 182.363 203.841 182.351 207.709 183.496C211.577 184.642 215.025 186.896 217.626 189.978C222.895 196.262 223.795 205.033 219.917 212.234C217.43 216.865 209.444 209.337 204.78 210.941L204.829 210.99ZM223.157 298.374C225.338 294.033 228.388 290.186 232.118 287.072C235.848 283.959 240.178 281.645 244.84 280.276C245.985 279.948 247.196 281.257 248.423 283.074L251.565 288.081C252.694 289.718 253.84 290.945 254.985 290.945C256.196 290.945 257.44 289.734 258.635 288.13L261.989 283.188C263.298 281.388 264.558 280.112 265.818 280.488C274.606 283.238 281.953 289.26 286.274 297.278C301.525 285.43 307.138 266.104 307.138 254.191C307.138 245.878 302.13 247.22 293.883 251.082L283.803 255.926C275.293 259.853 265.017 263.781 253.954 263.781C242.892 263.781 232.648 259.853 224.123 255.926L214.484 251.295C205.975 247.236 200.771 245.698 200.771 254.191C200.771 265.695 206.008 284.154 220.195 296.083L223.141 298.374H223.157Z" fill="#434343"/>
<path d="M351.108 229.907C352.842 229.922 354.561 229.595 356.168 228.945C357.775 228.295 359.238 227.335 360.474 226.119C361.71 224.903 362.693 223.456 363.369 221.859C364.045 220.263 364.399 218.549 364.412 216.816C364.412 209.599 358.456 203.724 351.108 203.724C349.376 203.711 347.658 204.04 346.053 204.691C344.448 205.342 342.987 206.302 341.753 207.518C340.519 208.734 339.537 210.18 338.862 211.776C338.187 213.371 337.833 215.084 337.821 216.816C337.821 224.049 343.777 229.907 351.108 229.907ZM160.892 229.907C162.624 229.92 164.342 229.592 165.947 228.941C167.552 228.29 169.013 227.329 170.247 226.113C171.481 224.898 172.463 223.451 173.138 221.856C173.813 220.26 174.167 218.548 174.179 216.816C174.179 209.599 168.223 203.724 160.892 203.724C159.158 203.709 157.439 204.036 155.832 204.686C154.225 205.336 152.762 206.296 151.526 207.512C150.29 208.728 149.307 210.175 148.631 211.772C147.955 213.368 147.601 215.082 147.588 216.816C147.588 224.049 153.544 229.907 160.892 229.907ZM133.515 274.205C126.887 274.205 120.996 276.856 116.872 281.732C113.355 285.993 111.428 291.344 111.423 296.869C108.845 296.105 106.175 295.698 103.487 295.658C97.1536 295.658 91.4262 298.047 87.3679 302.351C83.7622 306.013 81.4821 310.773 80.8892 315.878C80.2964 320.983 81.4246 326.139 84.095 330.53C80.4895 333.422 77.9222 337.408 76.7803 341.887C75.7984 345.519 74.8166 353.178 80.0531 360.967C78.0883 363.926 76.9165 367.34 76.65 370.881C76.3835 374.423 77.0313 377.974 78.5313 381.193C82.4259 389.915 91.7862 396.87 109.459 404.185L113.387 405.756C125.954 410.665 137.491 413.807 137.573 413.84C152.137 417.816 167.159 419.976 182.28 420.287C206.253 420.287 223.403 413.038 233.254 398.785C248.473 376.824 247.032 356.647 228.77 337.206L226.299 334.686C214.975 323.493 207.399 307.031 205.844 303.398C202.653 292.68 194.225 280.767 180.283 280.767C172.756 280.881 165.736 284.579 161.465 290.667C157.374 285.594 153.364 281.618 149.764 279.31C144.94 276.105 139.305 274.334 133.515 274.205ZM378.485 274.205C385.113 274.205 391.037 276.856 395.128 281.732C398.662 286.019 400.577 291.354 400.577 296.869C403.162 296.1 405.846 295.707 408.546 295.658C414.895 295.658 420.623 298.047 424.665 302.351C428.271 306.013 430.551 310.773 431.143 315.878C431.736 320.983 430.608 326.139 427.938 330.53C431.538 333.443 434.107 337.435 435.22 341.887C436.202 345.519 437.183 353.178 431.947 360.967C435.94 367.022 436.512 374.647 433.469 381.193C429.574 389.915 420.214 396.87 402.557 404.185L398.646 405.756C386.046 410.665 374.509 413.807 374.427 413.84C359.863 417.816 344.841 419.976 329.72 420.287C305.747 420.287 288.597 413.038 278.746 398.785C263.527 376.824 264.968 356.647 283.23 337.206L285.701 334.686C297.074 323.493 304.634 307.031 306.189 303.398C309.38 292.68 317.775 280.767 331.717 280.767C339.244 280.881 346.264 284.579 350.535 290.667C354.626 285.594 358.636 281.618 362.285 279.31C366.278 276.659 370.843 274.974 375.605 274.401L378.485 274.205Z" fill="#FAAD14"/>
<path d="M219.753 389.719C231.012 373.453 230.194 361.245 214.762 346.075C199.298 330.89 190.298 308.634 190.298 308.634C190.298 308.634 186.943 295.739 179.301 296.95C171.643 298.161 166.046 317.406 182.083 329.204C198.071 341.003 178.892 349.005 172.707 337.942C166.57 326.864 149.715 298.407 140.96 292.925C132.255 287.492 126.118 290.503 128.164 301.778C130.209 313.02 166.734 340.233 163.183 346.075C159.615 351.999 147.097 339.203 147.097 339.203C147.097 339.203 107.954 304.102 99.3954 313.265C90.8861 322.397 105.908 330.055 127.214 342.77C148.619 355.501 150.288 358.889 147.26 363.716C144.2 368.543 97.0226 329.351 92.6043 345.994C88.186 362.538 140.764 367.332 137.524 378.82C134.251 390.275 100.459 357.154 93.5862 370.033C86.6314 382.96 141.255 398.146 141.697 398.261C159.288 402.777 204.093 412.317 219.753 389.719ZM292.279 389.719C281.037 373.453 281.806 361.245 297.27 346.075C312.702 330.89 321.702 308.634 321.702 308.634C321.702 308.634 325.057 295.739 332.748 296.95C340.357 298.161 345.954 317.406 329.966 329.204C313.929 341.003 333.157 349.005 339.293 337.942C345.463 326.864 362.318 298.407 371.04 292.925C379.745 287.492 385.931 290.503 383.836 301.778C381.791 313.02 345.299 340.233 348.866 346.075C352.385 351.999 364.903 339.203 364.903 339.203C364.903 339.203 404.095 304.102 412.605 313.265C421.114 322.397 406.141 330.055 384.786 342.77C363.381 355.501 361.745 358.889 364.74 363.716C367.8 368.543 414.977 329.351 419.396 345.994C423.814 362.538 371.285 367.332 374.509 378.82C377.782 390.275 411.541 357.154 418.447 370.033C425.369 382.96 370.794 398.146 370.336 398.261C352.712 402.777 307.907 412.317 292.279 389.719Z" fill="#FADB15"/>
</g>
<defs>
<clipPath id="clip0_39_1008">
<rect width="512" height="512" rx="80" fill="white"/>
</clipPath>
</defs>
</svg>
