<svg width="512" height="512" viewBox="0 0 512 512" fill="none" xmlns="http://www.w3.org/2000/svg">
<rect width="512" height="512" rx="80" fill="white"/>
<path d="M187.372 87.2093C187.372 75.4957 196.868 66 208.581 66C220.295 66 229.791 75.4957 229.791 87.2093C229.791 98.9229 220.295 108.419 208.581 108.419C196.868 108.419 187.372 98.9229 187.372 87.2093Z" fill="#1777FF"/>
<path d="M99 255.116C99 243.403 108.496 233.907 120.209 233.907C131.923 233.907 141.419 243.403 141.419 255.116C141.419 266.83 131.923 276.326 120.209 276.326C108.496 276.326 99 266.83 99 255.116Z" fill="#1777FF"/>
<path d="M187.372 424.791C187.372 413.077 196.868 403.581 208.581 403.581C220.295 403.581 229.791 413.077 229.791 424.791C229.791 436.504 220.295 446 208.581 446C196.868 446 187.372 436.504 187.372 424.791Z" fill="#1777FF"/>
<path d="M242.163 87.2093C242.163 75.9838 251.263 66.8837 262.488 66.8837H393.279C404.505 66.8837 413.605 75.9838 413.605 87.2093C413.605 98.4348 404.505 107.535 393.279 107.535H262.488C251.263 107.535 242.163 98.4348 242.163 87.2093Z" fill="#1777FF"/>
<path d="M153.791 255.116C153.791 243.891 162.891 234.791 174.116 234.791H274.86C286.086 234.791 295.186 243.891 295.186 255.116C295.186 266.342 286.086 275.442 274.86 275.442H174.116C162.891 275.442 153.791 266.342 153.791 255.116Z" fill="#1777FF"/>
<path d="M242.163 424.791C242.163 413.565 251.263 404.465 262.488 404.465H393.279C404.505 404.465 413.605 413.565 413.605 424.791C413.605 436.016 404.505 445.116 393.279 445.116H262.488C251.263 445.116 242.163 436.016 242.163 424.791Z" fill="#1777FF"/>
<path d="M134.349 339.953C134.349 328.24 143.845 318.744 155.558 318.744C167.272 318.744 176.767 328.24 176.767 339.953C176.767 351.667 167.272 361.163 155.558 361.163C143.845 361.163 134.349 351.667 134.349 339.953Z" fill="#5BDBD3"/>
<path d="M134.349 171.163C134.349 159.449 143.845 149.953 155.558 149.953C167.272 149.953 176.767 159.449 176.767 171.163C176.767 182.876 167.272 192.372 155.558 192.372C143.845 192.372 134.349 182.876 134.349 171.163Z" fill="#5BDBD3"/>
<path d="M189.14 339.953C189.14 328.728 198.24 319.628 209.465 319.628H308.442C319.667 319.628 328.767 328.728 328.767 339.953C328.767 351.179 319.667 360.279 308.442 360.279H209.465C198.24 360.279 189.14 351.179 189.14 339.953Z" fill="#5BDBD3"/>
<path d="M189.14 171.163C189.14 159.937 198.24 150.837 209.465 150.837H308.442C319.667 150.837 328.767 159.937 328.767 171.163C328.767 182.388 319.667 191.488 308.442 191.488H209.465C198.24 191.488 189.14 182.388 189.14 171.163Z" fill="#5BDBD3"/>
</svg>
