<svg width="512" height="512" viewBox="0 0 512 512" fill="none" xmlns="http://www.w3.org/2000/svg">
<g clip-path="url(#clip0_35_75)">
<path d="M435.2 0H76.8C34.3845 0 0 34.3845 0 76.8V435.2C0 477.615 34.3845 512 76.8 512H435.2C477.615 512 512 477.615 512 435.2V76.8C512 34.3845 477.615 0 435.2 0Z" fill="white"/>
<path d="M319.286 66C317.04 66.0026 314.838 66.6271 312.921 67.8051C306.998 71.3202 297.135 81.2798 285.382 95.7204L282.924 98.7605C279.804 102.656 276.575 106.868 273.25 111.317C261.946 126.497 251.347 142.194 241.488 158.36L241.142 158.93L240.448 160.07C230.781 175.935 221.797 192.212 213.523 208.854C207.02 222.024 201.235 235.54 196.193 249.342C194.759 253.316 193.451 257.148 192.254 260.837C191.277 263.988 190.332 267.139 189.45 270.274C187.354 277.669 185.542 285.063 184.061 292.41L184.077 292.442L183.872 293.408C182.107 302.255 180.881 311.202 180.201 320.199L180.123 321.133C175.711 314.024 163.911 307.104 163.927 307.168C172.387 319.486 178.799 331.71 179.745 343.712C175.223 344.647 169.015 343.301 161.847 340.641C169.315 347.544 174.924 349.444 177.113 349.951C170.244 350.379 163.107 355.129 155.907 360.576C166.432 356.253 174.939 354.559 181.036 355.936C170.682 385.733 161 415.762 152 446C153.343 445.616 154.57 444.903 155.571 443.925C156.572 442.946 157.316 441.733 157.735 440.395C159.468 434.552 170.922 396.281 188.882 345.961L190.426 341.638L190.868 340.435C192.758 335.162 194.728 329.779 196.76 324.284L198.162 320.531L198.194 320.452L199.864 323.73L201.345 323.572L201.502 323.128C203.913 316.525 206.292 310.081 208.655 303.811L208.734 303.589C206.287 310.087 203.866 316.6 201.502 323.128L201.345 323.572L200.305 326.469C198.446 331.615 196.571 336.84 194.696 342.192L194.617 342.43L193.814 344.694C192.553 348.304 191.45 351.55 188.945 358.929C193.089 360.829 196.413 365.833 199.564 371.501C199.261 365.514 196.623 359.888 192.222 355.841C212.641 356.76 230.239 351.582 239.346 336.571C240.165 335.225 240.905 333.832 241.567 332.328C237.439 337.6 232.303 339.833 222.661 339.279C236.872 332.882 243.993 326.754 250.295 316.589C251.884 313.999 253.361 311.342 254.723 308.624C242.292 321.45 227.908 325.092 212.735 322.321H212.704L212.058 322.21C225.655 320.516 243.726 310.303 255.416 297.699C260.804 291.888 265.688 285.032 270.21 277.02C273.581 271.05 276.732 264.432 279.741 257.1C282.373 250.704 284.893 243.768 287.335 236.247C283.331 238.307 279.021 239.702 274.574 240.38C273.851 240.506 273.126 240.622 272.4 240.728L272.431 240.712L272.478 240.696C273.187 240.586 273.881 240.506 274.574 240.38C275.283 240.253 275.992 240.111 276.685 239.952L274.59 240.332L272.51 240.696C285.145 235.788 293.117 226.335 298.915 214.776C294.288 217.941 289.117 220.218 283.664 221.49C282.771 221.678 281.873 221.841 280.97 221.981L280.293 222.076L280.309 222.06L280.45 222.044L280.955 221.965C281.783 221.835 282.608 221.682 283.428 221.506L283.649 221.458L283.397 221.506L280.34 222.028C284.72 220.176 288.422 218.117 291.636 215.679C293.994 213.836 296.163 211.762 298.112 209.488C299.372 207.983 300.554 206.353 301.657 204.579L302.665 202.932L303.878 200.526C306.039 196.137 307.974 191.639 309.676 187.051L310.164 185.657C310.605 184.312 310.984 183.108 311.267 182.063C311.693 180.496 311.96 179.245 312.102 178.326C311.635 178.702 311.14 179.041 310.621 179.34C306.793 181.636 300.223 183.726 294.929 184.707L293.369 184.882L293.354 184.897L257.637 188.84L257.448 189.22L256.235 191.722L252.533 199.449C253.777 196.82 255.006 194.24 256.235 191.722L257.448 189.22C257.511 189.078 257.59 188.951 257.637 188.808L256.314 188.951L255.258 186.861C253.242 190.872 251.256 194.899 249.303 198.942L246.089 205.656C240.123 218.248 234.387 230.949 228.884 243.752C223.019 257.412 217.342 271.152 211.853 284.968L213.208 281.548C218.271 268.882 223.497 256.282 228.884 243.752C234.387 230.949 240.123 218.248 246.089 205.656L249.303 198.942C251.162 195.079 253.037 191.247 254.943 187.463L255.258 186.861C258.267 180.876 261.308 174.985 264.38 169.19C267.657 163.015 270.997 156.982 274.353 151.124C277.766 145.148 281.296 139.241 284.941 133.405L285.571 132.392C289.1 126.787 292.661 121.387 296.237 116.225C303.493 105.631 311.508 95.5815 320.216 86.1567L319.302 87.1384C316.781 89.9252 309.156 98.8714 297.639 116.637C308.731 116.083 325.762 113.803 339.658 111.412C343.785 88.1359 335.609 77.4955 335.609 77.4955C335.609 77.4955 328.613 66.1108 319.349 66.0158L319.286 66ZM293.322 184.866C303.721 180.052 308.384 175.698 312.89 169.412C314.087 167.67 315.3 165.865 316.498 163.981C320.169 158.233 323.761 151.884 326.975 145.582C330.079 139.501 332.82 133.469 334.915 128.022C336.138 124.915 337.19 121.744 338.066 118.521C338.712 116.035 339.232 113.66 339.626 111.412C325.715 113.787 308.683 116.083 297.592 116.621C293.807 122.461 290.151 128.385 286.626 134.387C283.412 139.85 279.978 145.835 276.386 152.39C269.81 164.36 263.543 176.498 257.59 188.793L293.306 184.85L293.322 184.866ZM350.481 100.803V101.848H352.939V108.799H354.073V101.848H356.547V100.803H350.481ZM357.776 100.803V108.815H358.816V102.466L361.526 107.976H362.25L364.96 102.466V108.815H366V100.803H364.629L361.888 106.393L359.131 100.803H357.776ZM294.63 184.739L293.023 184.992L293.039 184.977L294.614 184.723L294.63 184.739ZM248.373 208.189L246.278 212.734C241.281 223.666 236.443 234.672 231.767 245.747C226.341 258.583 221.094 271.494 216.028 284.477C213.697 290.463 211.333 296.59 208.954 302.892L208.875 303.114C220.144 272.495 232.622 242.339 246.278 212.718L248.373 208.189Z" fill="url(#paint0_linear_35_75)"/>
</g>
<defs>
<linearGradient id="paint0_linear_35_75" x1="259" y1="66" x2="259" y2="446" gradientUnits="userSpaceOnUse">
<stop stop-color="#FA8B16"/>
<stop offset="1" stop-color="#CF1421"/>
</linearGradient>
<clipPath id="clip0_35_75">
<rect width="512" height="512" rx="80" fill="white"/>
</clipPath>
</defs>
</svg>
