<svg width="512" height="512" viewBox="0 0 512 512" fill="none" xmlns="http://www.w3.org/2000/svg">
<rect width="512" height="512" rx="80" fill="white"/>
<mask id="mask0_34_120" style="mask-type:luminance" maskUnits="userSpaceOnUse" x="73" y="73" width="366" height="366">
<path d="M435.5 76.5V435.5H76.5V76.5H435.5Z" fill="white" stroke="white" stroke-width="7"/>
</mask>
<g mask="url(#mask0_34_120)">
<path d="M244.351 76.582C245.584 76.4631 251.968 76.4795 258.811 76.5889C265.575 76.697 272.119 76.8847 273.684 77.043C287.43 78.5944 299.644 81.1609 311.091 84.8711L311.096 84.873C376.161 105.86 424.137 162.512 433.891 229.91L433.892 229.914C435.327 239.754 435.5 242.546 435.5 256.062C435.5 269.58 435.327 272.373 433.892 282.211L433.891 282.215C428.978 316.104 414.349 347.896 391.639 373.976L391.636 373.979C381.365 385.805 368.478 397.18 356.204 405.379L329.151 364.399V364.398L295.977 314.168C282.892 294.348 268.832 273.044 256.955 255.031C245.075 237.015 234.17 220.527 226.167 208.471C222.166 202.443 218.887 197.521 216.575 194.067C215.42 192.342 214.503 190.978 213.855 190.025C213.533 189.55 213.271 189.168 213.078 188.892C212.983 188.755 212.895 188.632 212.822 188.531C212.812 188.517 212.653 188.291 212.466 188.086H212.467C211.905 187.471 211.238 186.815 210.378 186.261C209.487 185.687 208.538 185.317 207.48 185.076C205.568 184.641 203.016 184.586 199.472 184.586C196.445 184.586 194.556 184.6 193.247 184.728C191.656 184.883 190.743 185.223 189.709 185.728L189.576 185.796C188.408 186.429 186.802 187.663 185.856 188.878L184.747 190.273C184.256 190.891 183.988 191.656 183.986 192.445L183.88 264.215V264.216L183.808 335.949C183.807 336.462 183.919 336.968 184.136 337.433L184.888 339.043C184.908 339.086 184.929 339.129 184.951 339.172C185.762 340.739 186.967 342.108 188.583 343.132L188.591 343.137L190.236 344.174C190.795 344.526 191.441 344.712 192.102 344.712H198.292C203.368 344.712 205.355 344.69 207.408 343.662C207.427 343.653 207.445 343.643 207.464 343.633C208.406 343.139 209.307 342.561 210.138 341.708C210.948 340.875 211.542 339.932 212.081 338.916V338.915C212.577 337.979 212.748 337.054 212.856 335.729C212.963 334.424 213.032 332.329 213.083 328.781C213.186 321.638 213.222 308.202 213.275 282.438C213.311 267.719 213.365 254.335 213.428 244.637C213.439 242.931 213.451 241.34 213.463 239.876C214.845 241.899 216.43 244.224 218.188 246.808C224.876 256.633 234.068 270.19 244.156 285.106L280.827 339.379C280.855 339.42 280.884 339.462 280.914 339.502L310.179 379.036C318.231 389.915 325.613 399.855 331.019 407.104C333.721 410.727 335.932 413.682 337.486 415.746C337.608 415.908 337.727 416.063 337.841 416.214C317.721 426.479 297.322 432.444 273.146 435.118C270.599 435.397 263.429 435.554 256 435.554C248.57 435.554 241.399 435.397 238.853 435.118H238.854C224.82 433.567 212.531 430.999 200.903 427.252H200.902C135.837 406.265 87.863 349.614 78.1094 282.215V282.211L77.8545 280.444C76.6526 271.981 76.5 268.735 76.5 256.062C76.5 242.546 76.6738 239.754 78.1094 229.914L78.1104 229.908C82.1794 201.67 92.9471 175.006 109.798 151.485L109.799 151.483C140.048 109.198 187.806 81.6922 238.744 77.0879L238.745 77.0889C241.024 76.908 243.596 76.6509 244.332 76.584C244.338 76.5834 244.344 76.5826 244.351 76.582ZM311.526 179.577C308.793 179.577 307.031 179.59 305.777 179.728C304.228 179.897 303.314 180.271 302.31 180.785L302.237 180.823C299.654 182.223 297.816 184.582 296.998 187.447L296.978 187.523C296.867 187.946 296.841 188.402 296.834 188.498C296.817 188.729 296.802 189.011 296.789 189.327C296.763 189.965 296.74 190.843 296.718 191.941C296.674 194.144 296.636 197.307 296.604 201.377C296.542 209.52 296.506 221.337 296.506 236.457V283.218C296.506 283.899 296.704 284.565 297.077 285.135L308.455 302.521L319.793 319.905C320.639 321.202 322.236 321.788 323.72 321.349C325.203 320.909 326.222 319.547 326.225 317.999L326.332 253.671C326.368 231.256 326.367 215.067 326.322 204.363C326.3 199.014 326.267 195.021 326.221 192.302C326.198 190.945 326.171 189.884 326.14 189.122C326.124 188.744 326.107 188.411 326.086 188.14C326.078 188.038 326.046 187.523 325.904 187.036H325.905C325.902 187.026 325.899 187.015 325.896 187.005C325.893 186.998 325.892 186.99 325.89 186.983H325.889C325.1 184.337 323.078 181.995 320.607 180.721H320.608C320.602 180.717 320.595 180.714 320.588 180.71C320.558 180.694 320.528 180.677 320.498 180.662L320.497 180.663C319.471 180.12 318.493 179.84 317.102 179.709C315.86 179.592 314.119 179.577 311.526 179.577Z" fill="#262626" stroke="white" stroke-width="7" stroke-linejoin="round"/>
</g>
<rect x="283.007" y="253.775" width="134.229" height="16.7972" transform="rotate(56.5 283.007 253.775)" fill="#262626"/>
</svg>
