<svg width="512" height="512" viewBox="0 0 512 512" fill="none" xmlns="http://www.w3.org/2000/svg">
<rect width="512" height="512" rx="80" fill="white"/>
<path d="M256 435.332C250.876 435.332 246.092 434.011 241.652 431.701L196.217 405.622C189.385 401.991 192.801 400.67 194.851 400.009C204.074 397.039 205.783 396.379 215.348 391.096C216.373 390.436 217.739 390.766 218.764 391.426L253.609 411.563C254.975 412.223 256.682 412.223 257.708 411.563L394.012 335.306C395.378 334.646 396.062 333.327 396.062 331.675V179.492C396.062 177.841 395.378 176.521 394.012 175.86L257.708 99.9334C256.342 99.2732 254.633 99.2732 253.609 99.9334L117.304 175.86C115.938 176.521 115.255 178.171 115.255 179.492V331.675C115.255 332.997 115.938 334.646 117.304 335.306L154.54 356.104C174.696 366.007 187.335 354.454 187.335 342.9V192.696C187.335 190.715 189.043 188.735 191.435 188.735H208.857C210.907 188.735 212.956 190.385 212.956 192.696V342.9C212.956 368.979 198.267 384.165 172.646 384.165C164.789 384.165 158.64 384.165 141.217 375.912L105.348 356.104C96.4658 351.152 91 341.909 91 332.005V179.822C91 169.918 96.4658 160.675 105.348 155.723L241.652 79.4662C250.192 74.8446 261.808 74.8446 270.347 79.4662L406.652 155.723C415.534 160.675 421 169.918 421 179.822V332.005C421 341.909 415.534 351.152 406.652 356.104L270.347 432.361C265.907 434.341 260.782 435.332 256 435.332ZM298.018 330.685C238.235 330.685 225.938 304.276 225.938 281.828C225.938 279.847 227.645 277.867 230.038 277.867H247.801C249.851 277.867 251.558 279.187 251.558 281.167C254.291 298.663 262.148 307.248 298.36 307.248C327.056 307.248 339.353 300.975 339.353 286.12C339.353 277.537 335.938 271.264 291.187 266.972C253.951 263.341 230.72 255.418 230.72 226.699C230.72 199.959 253.951 184.113 292.894 184.113C336.62 184.113 358.142 198.638 360.875 230.329C360.875 231.32 360.533 232.311 359.851 233.301C359.167 233.961 358.142 234.621 357.118 234.621H339.353C337.646 234.621 335.938 233.301 335.596 231.651C331.496 213.494 320.906 207.551 292.894 207.551C261.466 207.551 257.708 218.115 257.708 226.037C257.708 235.612 262.148 238.582 304.51 243.865C346.528 249.146 366.341 256.74 366.341 285.129C365.999 314.179 341.404 330.685 298.018 330.685Z" fill="#389E0E"/>
</svg>
