<svg width="512" height="512" viewBox="0 0 512 512" fill="none" xmlns="http://www.w3.org/2000/svg">
<rect width="512" height="512" rx="80" fill="white"/>
<path d="M190.472 222.578V219.775C190.472 212.668 196.164 206.774 203.501 206.284L256.937 202.716L330.834 311.537V216.027L311.814 213.492V212.161C311.814 204.97 317.636 199.037 325.066 198.656L373.688 196.166V203.163C373.688 206.447 371.244 209.257 367.897 209.823L356.196 211.802V366.476L341.512 371.525C329.244 375.745 315.587 371.228 308.564 360.632L236.823 252.372V355.7L258.904 359.925L258.597 361.973C257.632 368.389 252.093 373.242 245.393 373.54L190.472 375.985C189.746 369.085 194.917 362.913 202.05 362.164L209.275 361.404V223.634L190.472 222.578Z" fill="black"/>
<path fill-rule="evenodd" clip-rule="evenodd" d="M320.591 76.1009L100.412 91.1334C87.2233 92.034 77 102.637 77 115.415V329.569C77 341.575 81.1329 353.24 88.7477 362.727L136.222 421.868C143.897 431.429 155.977 436.695 168.473 435.926L412.847 420.883C425.372 420.112 435.123 410.069 435.123 397.94V154.468C435.123 146.963 431.334 139.932 424.97 135.63L347.612 83.327C339.728 77.9967 330.189 75.4457 320.591 76.1009ZM111.33 118.756C108.268 116.488 109.725 111.765 113.572 111.489L322.072 96.534C328.716 96.0576 335.316 97.8869 340.689 101.693L382.523 131.332C384.11 132.457 383.366 134.886 381.399 134.993L160.599 147.002C153.917 147.365 147.321 145.402 142.008 141.469L111.33 118.756ZM150.242 184.647C150.242 177.474 156.038 171.549 163.448 171.146L396.896 158.432C404.119 158.039 410.198 163.593 410.198 170.584V381.405C410.198 388.565 404.424 394.484 397.029 394.905L165.057 408.103C157.02 408.561 150.242 402.385 150.242 394.604V184.647Z" fill="black"/>
</svg>
