<svg width="512" height="512" viewBox="0 0 512 512" fill="none" xmlns="http://www.w3.org/2000/svg">
<rect width="512" height="512" rx="80" fill="white"/>
<path d="M383.825 66H283.095C274.434 66 267.413 73.0213 267.413 81.6825V430.317C267.413 438.979 274.434 446 283.095 446H383.825C392.487 446 399.508 438.979 399.508 430.317V81.6825C399.508 73.0213 392.487 66 383.825 66Z" fill="#FAAD14"/>
<g filter="url(#filter0_d_39_1131)">
<path d="M321.699 430.317V446H306.016H205.286C196.625 446 189.603 438.979 189.603 430.317V176.381C189.603 167.72 196.625 160.698 205.286 160.698H306.016C314.677 160.698 321.699 167.72 321.699 176.381V430.317Z" fill="#FFC53D"/>
</g>
<path d="M321.699 430.317V446H306.016H205.286C196.625 446 189.603 438.979 189.603 430.317V176.381C189.603 167.72 196.625 160.698 205.286 160.698H306.016C314.677 160.698 321.699 167.72 321.699 176.381V430.317Z" fill="#FFC53D"/>
<path fill-rule="evenodd" clip-rule="evenodd" d="M245.095 430.317V446H229.413H128.683C120.021 446 113 438.979 113 430.317V271.683C113 263.021 120.021 256 128.683 256H229.413C238.074 256 245.095 263.021 245.095 271.683V430.317Z" fill="#FFD766"/>
<defs>
<filter id="filter0_d_39_1131" x="189.603" y="150.698" width="172.095" height="325.302" filterUnits="userSpaceOnUse" color-interpolation-filters="sRGB">
<feFlood flood-opacity="0" result="BackgroundImageFix"/>
<feColorMatrix in="SourceAlpha" type="matrix" values="0 0 0 0 0 0 0 0 0 0 0 0 0 0 0 0 0 0 127 0" result="hardAlpha"/>
<feOffset dx="20" dy="10"/>
<feGaussianBlur stdDeviation="10"/>
<feColorMatrix type="matrix" values="0 0 0 0 0 0 0 0 0 0 0 0 0 0 0 0 0 0 0.0530212 0"/>
<feBlend mode="normal" in2="BackgroundImageFix" result="effect1_dropShadow_39_1131"/>
<feBlend mode="normal" in="SourceGraphic" in2="effect1_dropShadow_39_1131" result="shape"/>
</filter>
</defs>
</svg>
