<svg width="512" height="512" viewBox="0 0 512 512" fill="none" xmlns="http://www.w3.org/2000/svg">
<rect width="512" height="512" rx="80" fill="white"/>
<path d="M347.069 344.705C349.49 324.53 348.764 321.572 363.785 324.84L367.598 325.175C379.148 325.701 394.256 323.316 403.132 319.191C422.24 310.321 433.57 295.512 414.729 299.404C371.752 308.273 368.798 293.715 368.798 293.715C414.179 226.352 433.15 140.842 416.775 119.91C372.112 62.8175 294.802 89.8154 293.509 90.5164L293.097 90.5924C284.605 88.8298 275.102 87.7767 264.426 87.604C244.978 87.2843 230.221 92.7047 219.027 101.199C219.027 101.199 81.1101 44.3551 87.5262 172.686C88.8908 199.986 126.641 379.259 171.665 325.11C188.121 305.31 204.024 288.568 204.024 288.568C211.921 293.816 221.375 296.494 231.291 295.532L232.058 294.878C231.818 297.337 231.924 299.741 232.365 302.588C220.768 315.553 224.175 317.829 200.986 322.604C177.525 327.442 191.309 336.054 200.305 338.305C211.215 341.034 236.453 344.901 253.511 321.017L252.831 323.742C257.381 327.384 257.074 349.916 257.719 366.015C258.365 382.115 259.442 397.138 262.723 405.996C266.003 414.852 269.874 437.667 300.35 431.133C325.82 425.672 345.294 417.814 347.069 344.705Z" fill="#434343" stroke="#434343" stroke-width="49.8604"/>
<path d="M414.733 299.402C371.752 308.271 368.798 293.713 368.798 293.713C414.179 226.346 433.15 140.834 416.778 119.905C372.116 62.8156 294.802 89.8152 293.512 90.5161L293.097 90.5905C284.605 88.827 275.102 87.7764 264.421 87.602C244.973 87.2832 230.221 92.7028 219.027 101.195C219.027 101.195 81.1075 44.354 87.5219 172.684C88.8865 199.986 126.636 379.258 171.661 325.11C188.118 305.309 204.019 288.568 204.019 288.568C211.917 293.816 221.371 296.494 231.283 295.532L232.053 294.878C231.814 297.336 231.923 299.741 232.361 302.588C220.762 315.553 224.17 317.829 200.983 322.604C177.52 327.442 191.304 336.054 200.303 338.305C211.213 341.034 236.452 344.9 253.506 321.017L252.826 323.742C257.371 327.383 260.563 347.43 260.028 365.602C259.493 383.774 259.136 396.251 262.717 405.996C266.298 415.741 269.867 437.667 300.349 431.132C325.819 425.672 339.018 411.521 340.854 387.917C342.157 371.136 345.106 373.617 345.292 358.614L347.658 351.511C350.385 328.763 348.091 321.424 363.783 324.838L367.596 325.173C379.146 325.699 394.262 323.314 403.134 319.189C422.238 310.319 433.568 295.51 414.732 299.402H414.733Z" fill="#097099"/>
<path d="M255.352 312.441C254.169 354.768 255.649 397.391 259.789 407.749C263.932 418.108 272.797 438.256 303.281 431.723C328.749 426.261 338.016 415.69 342.037 392.357C344.998 375.191 350.708 327.516 351.44 317.748" stroke="#FAFAFA" stroke-width="16.6201" stroke-linecap="round" stroke-linejoin="round"/>
<path d="M218.814 100.25C218.814 100.25 80.8008 43.8182 87.217 172.149C88.5815 199.45 126.333 378.729 171.358 324.577C187.812 304.774 202.692 289.243 202.692 289.243" stroke="#FAFAFA" stroke-width="16.6201" stroke-linecap="round" stroke-linejoin="round"/>
<path d="M293.361 89.9503C288.584 91.4488 370.132 60.1264 416.477 119.371C432.848 140.3 413.877 225.812 368.497 293.181" stroke="#FAFAFA" stroke-width="16.6201" stroke-linecap="round" stroke-linejoin="round"/>
<path d="M368.496 293.181C368.496 293.181 371.453 307.744 414.435 298.868C433.267 294.977 421.934 309.788 402.834 318.662C387.159 325.94 352.016 327.805 351.442 317.748C349.965 291.8 369.938 299.683 368.496 293.181ZM368.496 293.181C367.193 287.326 358.261 281.579 352.353 267.247C347.194 254.739 281.607 158.814 370.542 173.06C373.8 172.386 347.347 88.4312 264.116 87.0661C180.905 85.7009 183.635 189.441 183.635 189.441" stroke="#FAFAFA" stroke-width="16.6201" stroke-linecap="round" stroke-linejoin="bevel"/>
<path d="M232.058 302.055C220.457 315.019 223.869 317.295 200.679 322.072C177.217 326.911 191.002 335.521 199.998 337.771C210.908 340.502 236.148 344.369 253.202 320.479C258.396 313.205 253.171 301.599 246.038 298.641C242.591 297.212 237.982 295.422 232.058 302.055Z" stroke="#FAFAFA" stroke-width="16.6201" stroke-linecap="round" stroke-linejoin="round"/>
<path d="M231.298 301.828C230.129 294.206 233.802 285.135 237.738 274.524C243.652 258.602 257.299 242.677 246.382 192.171C238.245 154.534 183.668 184.338 183.634 189.441C183.601 194.543 186.103 215.308 182.722 239.49C178.312 271.044 202.792 297.73 230.981 295" stroke="#FAFAFA" stroke-width="16.6201" stroke-linecap="round" stroke-linejoin="round"/>
<path d="M218.312 188.676C218.066 190.419 221.502 195.07 225.982 195.692C230.454 196.316 234.282 192.681 234.525 190.94C234.767 189.197 231.336 187.277 226.854 186.653C222.379 186.028 218.55 186.937 218.313 188.676H218.312Z" fill="#FAFAFA" stroke="#FAFAFA" stroke-width="5.54"/>
<path d="M354.533 185.123C354.776 186.866 351.345 191.517 346.864 192.139C342.388 192.763 338.56 189.128 338.315 187.387C338.078 185.644 341.511 183.724 345.987 183.1C350.464 182.476 354.291 183.384 354.533 185.124V185.123Z" fill="#FAFAFA" stroke="#FAFAFA" stroke-width="2.77"/>
<path d="M370.542 173.061C371.279 186.733 367.598 196.045 367.134 210.599C366.447 231.754 377.216 255.968 360.99 280.212" stroke="#FAFAFA" stroke-width="16.6201" stroke-linecap="round" stroke-linejoin="round"/>
</svg>
