<svg width="512" height="512" viewBox="0 0 512 512" fill="none" xmlns="http://www.w3.org/2000/svg">
<rect width="512" height="512" rx="80" fill="white"/>
<path d="M293.695 273.411L268.236 87H266.333C221.887 87.0755 179.279 104.744 147.822 136.142C116.365 167.541 98.6172 210.116 98.4587 254.561V256.464L293.695 273.411Z" fill="#FF7944"/>
<path d="M270.139 87H268.236V256.464L353.112 290.357L438 256.464V254.561C437.842 210.118 420.096 167.545 388.642 136.147C357.187 104.748 314.583 87.079 270.139 87Z" fill="#FFBB96"/>
<path d="M438 256.464V258.328C437.835 302.78 420.083 345.359 388.623 376.763C357.162 408.167 314.552 425.843 270.1 425.929H266.359C221.909 425.836 179.302 408.158 147.844 376.755C116.385 345.353 98.6308 302.778 98.4587 258.328V256.464H438Z" fill="#FF7944"/>
<path opacity="0.1" d="M276.722 170.285V351.104C276.699 354.18 275.768 357.181 274.048 359.732C272.328 362.282 269.893 364.269 267.05 365.443C265.193 366.225 263.198 366.628 261.184 366.629H138.531C136.158 363.918 133.864 361.037 131.739 358.156C110.116 329.373 98.4361 294.341 98.4588 258.341V254.613C98.4178 222.14 107.924 190.372 125.795 163.259C127.659 160.378 129.614 157.497 131.739 154.786H261.184C265.29 154.813 269.22 156.453 272.127 159.353C275.034 162.253 276.685 166.179 276.722 170.285Z" fill="black"/>
<path opacity="0.2" d="M268.236 178.772V359.59C268.235 361.596 267.832 363.582 267.05 365.43C265.874 368.271 263.886 370.703 261.336 372.421C258.785 374.139 255.785 375.067 252.71 375.089H146.261C143.575 372.361 140.999 369.536 138.531 366.616C136.158 363.905 133.864 361.024 131.739 358.143C110.116 329.36 98.4361 294.328 98.4587 258.328V254.6C98.4203 222.132 107.926 190.368 125.795 163.259H252.697C256.805 163.286 260.738 164.929 263.645 167.831C266.553 170.734 268.202 174.663 268.236 178.772Z" fill="black"/>
<path opacity="0.2" d="M268.236 178.772V342.643C268.198 346.749 266.548 350.676 263.641 353.576C260.734 356.475 256.803 358.116 252.697 358.143H131.739C110.116 329.36 98.4361 294.328 98.4587 258.328V254.6C98.4203 222.132 107.926 190.368 125.795 163.259H252.697C256.805 163.286 260.738 164.929 263.645 167.831C266.553 170.734 268.202 174.663 268.236 178.772Z" fill="black"/>
<path opacity="0.2" d="M259.75 178.772V342.643C259.712 346.749 258.062 350.676 255.155 353.576C252.248 356.475 248.317 358.116 244.211 358.143H131.739C110.116 329.36 98.4361 294.328 98.4587 258.328V254.6C98.4203 222.132 107.926 190.368 125.795 163.259H244.211C248.319 163.286 252.252 164.929 255.159 167.831C258.067 170.734 259.715 174.663 259.75 178.772Z" fill="black"/>
<path d="M88.5646 163.259H244.185C248.307 163.256 252.262 164.889 255.181 167.8C258.099 170.711 259.743 174.662 259.75 178.785V334.144C259.743 338.267 258.099 342.217 255.181 345.129C252.262 348.04 248.307 349.673 244.185 349.67H88.5646C86.523 349.673 84.5007 349.274 82.6133 348.496C80.7259 347.717 79.0104 346.574 77.565 345.132C76.1195 343.691 74.9723 341.978 74.189 340.093C73.4058 338.207 73.0017 336.186 73 334.144V178.785C73.0017 176.743 73.4058 174.722 74.189 172.836C74.9723 170.951 76.1195 169.238 77.565 167.796C79.0104 166.355 80.7259 165.212 82.6133 164.433C84.5007 163.655 86.523 163.256 88.5646 163.259Z" fill="url(#paint0_linear_36_25)"/>
<path d="M168.07 204.686C178.2 204.005 188.243 206.943 196.409 212.977C199.767 215.966 202.399 219.681 204.107 223.839C205.815 227.997 206.552 232.49 206.264 236.976C206.378 243.295 204.692 249.517 201.402 254.913C198.073 260.223 193.279 264.457 187.597 267.101C181.105 270.112 174.012 271.601 166.857 271.455H147.134V307.955H126.981V204.686H168.07ZM147.121 255.682H164.472C169.973 256.079 175.429 254.452 179.815 251.107C181.608 249.396 183.004 247.313 183.905 245.005C184.806 242.696 185.19 240.218 185.029 237.745C185.029 226.369 178.403 220.677 165.15 220.668H147.121V255.682Z" fill="white"/>
<defs>
<linearGradient id="paint0_linear_36_25" x1="105.511" y1="151.058" x2="227.239" y2="361.871" gradientUnits="userSpaceOnUse">
<stop stop-color="#FA541C"/>
<stop offset="0.5" stop-color="#D4380D"/>
<stop offset="1" stop-color="#AD2101"/>
</linearGradient>
</defs>
</svg>
