<svg width="512" height="512" viewBox="0 0 512 512" fill="none" xmlns="http://www.w3.org/2000/svg">
<rect width="512" height="512" rx="80" fill="white"/>
<path d="M257.841 431C272.491 431 286.226 430.083 298.129 427.332C333.839 420.912 340.249 408.072 340.249 384.227V352.129H256.01V341.123H371.381C396.103 341.123 417.163 326.45 424.488 298.936C431.813 266.837 431.813 246.661 424.488 213.645C418.078 187.966 403.428 170.541 379.621 170.541H350.321V209.06C350.321 236.573 326.514 261.335 298.129 261.335H214.806C190.999 261.335 172.686 280.594 172.686 303.522V384.227C172.686 406.238 191.915 423.663 214.806 427.332C228.54 430.083 244.106 431 257.841 431ZM303.623 405.321C294.467 405.321 288.057 397.984 288.057 388.813C288.057 380.559 294.467 373.222 303.623 373.222C311.864 373.222 319.189 380.559 319.189 388.813C319.189 397.984 311.864 405.321 303.623 405.321Z" fill="#FADB15"/>
<path d="M254.159 81C239.507 81 225.771 81.9157 213.867 84.663C178.153 91.0732 171.743 103.894 171.743 127.703V159.754H255.991V170.743H140.607C115.882 170.743 94.8204 185.394 87.4944 212.867C80.1685 244.918 80.1685 265.064 87.4944 298.031C93.9046 323.671 108.556 341.071 132.366 341.071H161.669V302.609C161.669 275.137 185.479 250.412 213.867 250.412H297.199C321.008 250.412 339.323 231.182 339.323 208.288V127.703C339.323 105.725 320.093 88.3259 297.199 84.663C283.463 81.9157 267.895 81 254.159 81ZM208.372 106.641C217.53 106.641 223.94 113.967 223.94 123.124C223.94 131.366 217.53 138.692 208.372 138.692C200.131 138.692 192.805 131.366 192.805 123.124C192.805 113.967 200.131 106.641 208.372 106.641Z" fill="#1394BF"/>
</svg>
