<svg width="512" height="512" viewBox="0 0 512 512" fill="none" xmlns="http://www.w3.org/2000/svg">
<rect width="512" height="512" rx="80" fill="white"/>
<path d="M265.889 81.5663C272.32 92.8571 278.718 104.181 285.1 115.521C285.358 115.974 285.732 116.351 286.183 116.612C286.634 116.874 287.147 117.011 287.669 117.01H378.519C381.366 117.01 383.788 118.81 385.817 122.36L409.609 164.415C412.718 169.929 413.536 172.236 410.002 178.111C405.747 185.147 401.607 192.249 397.566 199.383L391.56 210.151C389.826 213.358 387.911 214.732 390.906 218.529L434.302 294.406C437.116 299.332 436.118 302.49 433.598 307.006C426.447 319.851 419.165 332.599 411.753 345.297C409.151 349.747 405.993 351.433 400.626 351.351C387.911 351.089 375.23 351.187 362.548 351.613C362.276 351.627 362.012 351.709 361.78 351.852C361.549 351.995 361.357 352.194 361.223 352.431C346.591 378.355 331.836 404.21 316.959 429.994C314.194 434.788 310.741 435.934 305.096 435.95C288.782 435.999 272.336 436.016 255.728 435.983C254.181 435.979 252.663 435.566 251.327 434.788C249.991 434.009 248.884 432.892 248.119 431.548L226.273 393.536C226.146 393.287 225.951 393.08 225.711 392.938C225.47 392.796 225.194 392.725 224.915 392.734H141.167C136.504 393.225 132.118 392.718 127.995 391.229L101.764 345.902C100.988 344.56 100.577 343.038 100.571 341.488C100.566 339.938 100.965 338.413 101.731 337.066L121.482 302.375C121.763 301.885 121.911 301.329 121.911 300.763C121.911 300.198 121.763 299.642 121.482 299.152C111.194 281.339 100.967 263.492 90.8005 245.61L77.8734 222.783C75.2553 217.71 75.0425 214.667 79.4279 206.992C87.0369 193.689 94.5968 180.402 102.124 167.131C104.284 163.302 107.099 161.666 111.68 161.649C125.802 161.59 139.924 161.584 154.045 161.633C154.402 161.63 154.752 161.533 155.059 161.352C155.366 161.171 155.621 160.912 155.796 160.602L201.712 80.5027C202.408 79.2841 203.412 78.2705 204.625 77.5638C205.837 76.8571 207.214 76.4823 208.617 76.4772C217.192 76.4609 225.848 76.4772 234.521 76.3791L251.162 76.0027C256.742 75.9536 263.009 76.5263 265.889 81.5663ZM209.73 88.1608C209.557 88.1607 209.388 88.206 209.239 88.2922C209.089 88.3783 208.965 88.5023 208.879 88.6517L161.981 170.715C161.756 171.101 161.434 171.422 161.047 171.646C160.659 171.87 160.22 171.989 159.772 171.991H112.875C111.958 171.991 111.729 172.4 112.204 173.202L207.275 339.389C207.685 340.077 207.488 340.404 206.719 340.42L160.983 340.666C160.315 340.643 159.653 340.81 159.075 341.145C158.496 341.481 158.023 341.972 157.711 342.564L136.111 380.364C135.391 381.64 135.767 382.294 137.224 382.294L230.757 382.425C231.51 382.425 232.066 382.753 232.459 383.423L255.417 423.579C256.169 424.905 256.922 424.921 257.691 423.579L339.606 280.235L352.419 257.621C352.497 257.481 352.611 257.365 352.749 257.284C352.887 257.203 353.044 257.16 353.204 257.16C353.365 257.16 353.522 257.203 353.66 257.284C353.798 257.365 353.912 257.481 353.99 257.621L377.291 299.021C377.466 299.33 377.721 299.588 378.029 299.766C378.337 299.945 378.687 300.037 379.042 300.035L424.254 299.708C424.37 299.709 424.484 299.679 424.585 299.622C424.686 299.564 424.769 299.481 424.827 299.381C424.883 299.281 424.912 299.168 424.912 299.053C424.912 298.939 424.883 298.826 424.827 298.726L377.373 215.501C377.202 215.223 377.112 214.903 377.112 214.577C377.112 214.25 377.202 213.93 377.373 213.652L382.168 205.356L400.495 173.005C400.887 172.335 400.691 171.991 399.922 171.991H210.188C209.223 171.991 208.994 171.565 209.484 170.731L232.95 129.74C233.125 129.461 233.219 129.138 233.219 128.808C233.219 128.478 233.125 128.154 232.95 127.875L210.597 88.668C210.512 88.5132 210.386 88.3844 210.233 88.2951C210.081 88.2058 209.907 88.1594 209.73 88.1608ZM312.656 219.396C313.409 219.396 313.605 219.723 313.212 220.378L299.598 244.35L256.84 319.377C256.76 319.523 256.641 319.644 256.497 319.728C256.353 319.811 256.189 319.854 256.022 319.851C255.856 319.851 255.693 319.807 255.55 319.723C255.406 319.64 255.287 319.521 255.204 319.377L198.701 220.672C198.374 220.116 198.537 219.821 199.159 219.789L202.694 219.592L312.689 219.396H312.656Z" fill="url(#paint0_linear_40_1408)"/>
<defs>
<linearGradient id="paint0_linear_40_1408" x1="76" y1="76" x2="36076" y2="76" gradientUnits="userSpaceOnUse">
<stop stop-color="#541DAB" stop-opacity="0.84"/>
<stop offset="1" stop-color="#9154DE" stop-opacity="0.84"/>
</linearGradient>
</defs>
</svg>
