<svg width="512" height="512" viewBox="0 0 512 512" fill="none" xmlns="http://www.w3.org/2000/svg">
<rect width="512" height="512" rx="80" fill="white"/>
<path d="M256 216.207C275.28 216.207 290.909 231.837 290.909 251.117C290.909 270.397 275.28 286.026 256 286.026C236.72 286.026 221.09 270.397 221.09 251.117C221.09 231.837 236.72 216.207 256 216.207Z" fill="#24BBE5" stroke="#24BBE5"/>
<path d="M316.462 285.966C339.622 244.269 355.062 201.306 359.388 166.528C363.713 131.75 356.569 108.006 339.528 100.517C322.486 93.0276 296.942 102.408 268.514 126.593C240.086 150.779 211.103 187.79 187.938 229.486C164.774 271.181 149.327 314.147 144.993 348.931C140.659 383.716 147.795 407.471 164.83 414.972C181.866 422.473 207.405 413.105 235.832 388.929C264.259 364.752 293.244 327.748 316.413 286.055L316.462 285.966ZM195.587 286.055C218.756 327.748 247.741 364.752 276.168 388.929C304.595 413.105 330.134 422.473 347.17 414.972C364.205 407.471 371.341 383.716 367.007 348.931C362.674 314.147 347.226 271.181 324.062 229.486C300.897 187.79 271.914 150.779 243.486 126.593C215.058 102.408 189.514 93.0276 172.472 100.517C155.431 108.006 148.287 131.75 152.612 166.528C156.938 201.306 172.378 244.269 195.538 285.966L195.587 286.055ZM256.049 320.904C303.784 320.899 349.559 313.538 383.305 300.439C417.052 287.341 436.007 269.578 436 251.058C435.993 232.538 417.026 214.778 383.271 201.683C349.515 188.588 303.735 181.232 256 181.232C208.265 181.232 162.485 188.588 128.729 201.683C94.9736 214.778 76.0065 232.538 76 251.058C75.9935 269.578 94.9481 287.341 128.695 300.439C162.441 313.538 208.216 320.899 255.951 320.904H256.049Z" stroke="#24BBE5" stroke-width="18"/>
</svg>
