<svg width="512" height="512" viewBox="0 0 512 512" fill="none" xmlns="http://www.w3.org/2000/svg">
<rect width="512" height="512" rx="80" fill="white"/>
<path d="M421.895 342.755C402.683 352.769 303.16 393.689 281.972 404.735C260.784 415.783 249.014 415.676 232.275 407.674C215.538 399.673 109.628 356.892 90.5491 347.772C81.0147 343.216 76 339.369 76 335.735V299.347C76 299.347 213.883 269.33 236.142 261.344C258.4 253.358 266.124 253.07 285.066 260.008C304.011 266.95 417.279 287.385 436 294.242L435.992 330.115C435.994 333.713 431.674 337.659 421.895 342.755Z" fill="#820014"/>
<path d="M421.888 306.582C402.678 316.592 303.157 357.514 281.969 368.558C260.783 379.607 249.012 379.499 232.275 371.497C215.537 363.502 109.631 320.714 90.5533 311.6C71.4761 302.48 71.0768 296.204 89.8165 288.866C108.556 281.526 213.881 240.203 236.144 232.217C258.402 224.234 266.124 223.942 285.066 230.884C304.009 237.822 402.936 277.199 421.655 284.054C440.381 290.918 441.099 296.57 421.888 306.582Z" fill="#CF1421"/>
<path d="M421.895 283.877C402.683 293.892 303.16 334.811 281.972 345.861C260.784 356.904 249.014 356.798 232.275 348.796C215.537 340.799 109.628 298.014 90.5491 288.894C81.0147 284.338 76 280.496 76 276.861V240.468C76 240.468 213.883 210.453 236.142 202.467C258.4 194.481 266.124 194.192 285.066 201.131C304.012 208.071 417.28 228.503 436 235.361L435.992 271.239C435.994 274.834 431.674 278.78 421.895 283.877Z" fill="#820014"/>
<path d="M421.888 247.704C402.678 257.716 303.157 298.635 281.969 309.684C260.783 320.729 249.012 320.62 232.275 312.619C215.537 304.623 109.631 261.836 90.5533 252.721C71.4761 243.604 71.0768 237.327 89.8165 229.986C108.556 222.65 213.883 181.324 236.144 173.34C258.402 165.355 266.124 165.065 285.066 172.005C304.009 178.944 402.936 218.317 421.655 225.175C440.381 232.038 441.099 237.691 421.888 247.704Z" fill="#CF1421"/>
<path d="M421.895 222.816C402.683 232.828 303.16 273.75 281.972 284.8C260.784 295.845 249.014 295.737 232.275 287.735C215.537 279.738 109.628 236.951 90.5491 227.836C81.0147 223.275 76 219.432 76 215.801V179.407C76 179.407 213.883 149.394 236.142 141.409C258.4 133.422 266.124 133.135 285.066 140.073C304.012 147.013 417.28 167.444 436 174.303L435.992 210.179C435.994 213.772 431.674 217.718 421.895 222.816Z" fill="#820014"/>
<path d="M421.888 186.643C402.678 196.655 303.157 237.577 281.969 248.622C260.783 259.667 249.012 259.558 232.275 251.561C215.538 243.559 109.63 200.776 90.5547 191.659C71.4761 182.544 71.0781 176.265 89.8164 168.925C108.556 161.588 213.883 120.268 236.144 112.28C258.402 104.294 266.124 104.007 285.066 110.947C304.009 117.887 402.936 157.261 421.655 164.119C440.38 170.976 441.099 176.63 421.888 186.643Z" fill="#CF1421"/>
<path d="M299.992 151.244L269.04 154.457L262.112 171.129L250.921 152.525L215.181 149.313L241.849 139.695L233.847 124.933L258.815 134.698L282.353 126.991L275.991 142.256L299.992 151.244ZM260.264 232.128L202.499 208.17L285.271 195.464L260.264 232.128ZM180.178 160.511C204.611 160.511 224.419 168.189 224.419 177.659C224.419 187.131 204.611 194.808 180.178 194.808C155.744 194.808 135.937 187.13 135.937 177.659C135.937 168.189 155.744 160.511 180.178 160.511Z" fill="white"/>
<path d="M336.571 155.801L385.559 175.16L336.613 194.5L336.571 155.801Z" fill="#5C0012"/>
<path d="M282.374 177.24L336.571 155.801L336.613 194.5L331.299 196.578L282.374 177.24Z" fill="#A8071A"/>
</svg>
