<svg width="512" height="512" viewBox="0 0 512 512" fill="none" xmlns="http://www.w3.org/2000/svg">
<rect width="512" height="512" rx="80" fill="white"/>
<g clip-path="url(#clip0_34_136)">
<path d="M256.292 281.626L189.896 246.413L74.6438 185.296C74.5386 185.191 74.3282 185.191 74.223 185.191C70.0148 183.185 65.7014 187.407 67.2794 191.63L126.005 341.91L126.015 341.941C126.079 342.089 126.131 342.236 126.194 342.385C128.603 347.99 133.864 351.451 139.587 352.813C140.071 352.919 140.417 353.014 140.998 353.131C141.576 353.26 142.385 353.436 143.08 353.489C143.195 353.499 143.301 353.499 143.416 353.51H143.501C143.585 353.521 143.669 353.521 143.753 353.531H143.869C143.942 353.541 144.027 353.541 144.1 353.541H144.237C144.321 353.553 144.405 353.553 144.489 353.553C218.864 361.688 293.898 361.688 368.272 353.553C369.166 353.553 370.039 353.51 370.88 353.426C371.154 353.394 371.417 353.363 371.68 353.331C371.712 353.32 371.754 353.32 371.785 353.309C371.964 353.288 372.142 353.256 372.322 353.225C372.584 353.193 372.848 353.141 373.111 353.088C373.637 352.971 373.876 352.888 374.59 352.641C375.304 352.395 376.489 351.964 377.23 351.606C377.972 351.247 378.486 350.903 379.107 350.513C379.875 350.026 380.606 349.53 381.347 348.972C381.666 348.727 381.885 348.57 382.116 348.348L381.99 348.274L256.292 281.626Z" fill="#FFA39E"/>
<path d="M438.13 185.298H438.025L322.73 246.415L386.821 342.186L445.399 191.631V191.42C446.872 186.986 442.349 182.975 438.13 185.298Z" fill="#CF1421"/>
<path d="M262.436 156.237C259.489 151.92 253.072 151.92 250.232 156.237L189.896 246.414L256.292 281.627L382.117 348.348C382.907 347.571 383.541 346.815 384.21 346.016C385.157 344.844 386.041 343.589 386.82 342.184L322.728 246.414L262.436 156.237Z" fill="#FF4D4F"/>
</g>
<defs>
<clipPath id="clip0_34_136">
<rect width="380" height="209" fill="white" transform="translate(66 153)"/>
</clipPath>
</defs>
</svg>
