<svg width="512" height="512" viewBox="0 0 512 512" fill="none" xmlns="http://www.w3.org/2000/svg">
<rect width="512" height="512" rx="80" fill="white"/>
<path d="M285.81 430.019C276.611 441.597 257.956 435.261 257.731 420.466L254.483 204.169H399.925C426.266 204.169 440.965 234.595 424.594 255.212L285.81 430.019Z" fill="url(#paint0_linear_39_988)"/>
<path d="M285.81 430.019C276.611 441.597 257.956 435.261 257.731 420.466L254.483 204.169H399.925C426.266 204.169 440.965 234.595 424.594 255.212L285.81 430.019Z" fill="url(#paint1_linear_39_988)" fill-opacity="0.2"/>
<path d="M226.662 81.9814C235.86 70.4026 254.515 76.7388 254.74 91.5338L256.155 307.831H112.547C86.2053 307.831 71.5067 277.405 87.8777 256.788L226.662 81.9814Z" fill="#73D13C"/>
<defs>
<linearGradient id="paint0_linear_39_988" x1="242.84" y1="279.978" x2="372.103" y2="334.205" gradientUnits="userSpaceOnUse">
<stop stop-color="#227805"/>
<stop offset="1" stop-color="#73D13C"/>
</linearGradient>
<linearGradient id="paint1_linear_39_988" x1="249.015" y1="146.147" x2="307.97" y2="257.11" gradientUnits="userSpaceOnUse">
<stop/>
<stop offset="1" stop-opacity="0"/>
</linearGradient>
</defs>
</svg>
