<svg width="512" height="512" viewBox="0 0 512 512" fill="none" xmlns="http://www.w3.org/2000/svg">
<rect width="512" height="512" rx="80" fill="white"/>
<path d="M411.649 90H166.064C164.052 89.9983 162.058 90.3931 160.198 91.1617C158.338 91.9303 156.648 93.0578 155.224 94.4797C153.799 95.9017 152.669 97.5902 151.897 99.449C151.125 101.308 150.727 103.3 150.726 105.313V173.571L293.041 215.357L427 173.571V105.313C426.998 103.299 426.6 101.306 425.827 99.446C425.055 97.5864 423.923 95.8973 422.498 94.4752C421.072 93.0531 419.38 91.9259 417.518 91.158C415.657 90.3901 413.662 89.9966 411.649 90Z" fill="#3F96FF"/>
<path d="M427 173.571H150.726V257.143L293.041 282.214L427 257.143V173.571Z" fill="#1777FF"/>
<path d="M150.726 257.143V340.714L284.671 357.429L427 340.714V257.143H150.726Z" fill="#0758D9"/>
<path d="M166.064 424.286H411.636C413.65 424.291 415.646 423.898 417.509 423.131C419.372 422.364 421.066 421.237 422.493 419.815C423.92 418.393 425.053 416.703 425.826 414.843C426.599 412.982 426.998 410.988 427 408.973V340.714H150.726V408.973C150.727 410.985 151.125 412.978 151.897 414.837C152.669 416.695 153.799 418.384 155.224 419.806C156.648 421.228 158.338 422.355 160.198 423.124C162.058 423.893 164.052 424.287 166.064 424.286Z" fill="#003EB3"/>
<path opacity="0.1" d="M252.58 156.857H150.726V365.786H252.58C256.639 365.766 260.526 364.147 263.399 361.281C266.273 358.414 267.901 354.531 267.931 350.473V172.17C267.901 168.112 266.273 164.228 263.399 161.362C260.526 158.496 256.639 156.877 252.58 156.857Z" fill="black"/>
<path opacity="0.2" d="M244.21 165.214H150.726V374.143H244.21C248.269 374.123 252.156 372.504 255.029 369.638C257.903 366.772 259.531 362.888 259.561 358.83V180.527C259.531 176.469 257.903 172.586 255.029 169.719C252.156 166.853 248.269 165.234 244.21 165.214Z" fill="black"/>
<path opacity="0.2" d="M244.21 165.214H150.726V357.428H244.21C248.269 357.408 252.156 355.79 255.029 352.923C257.903 350.057 259.531 346.174 259.561 342.116V180.527C259.531 176.469 257.903 172.586 255.029 169.719C252.156 166.853 248.269 165.234 244.21 165.214Z" fill="black"/>
<path opacity="0.2" d="M235.84 165.214H150.726V357.428H235.84C239.899 357.408 243.786 355.79 246.659 352.923C249.533 350.057 251.161 346.174 251.191 342.116V180.527C251.161 176.469 249.533 172.586 246.659 169.719C243.786 166.853 239.899 165.234 235.84 165.214Z" fill="black"/>
<path d="M82.3514 165.214H235.84C239.906 165.211 243.807 166.822 246.685 169.693C249.564 172.565 251.185 176.461 251.191 180.527V333.759C251.185 337.824 249.564 341.721 246.685 344.592C243.807 347.464 239.906 349.075 235.84 349.071H82.3514C80.3377 349.075 78.3431 348.681 76.4816 347.913C74.6201 347.146 72.9281 346.018 71.5024 344.596C70.0768 343.174 68.9453 341.485 68.1727 339.625C67.4002 337.766 67.0017 335.772 67 333.759V180.527C67.0017 178.513 67.4002 176.52 68.1727 174.66C68.9453 172.801 70.0768 171.112 71.5024 169.689C72.9281 168.267 74.6201 167.14 76.4816 166.372C78.3431 165.604 80.3377 165.211 82.3514 165.214Z" fill="url(#paint0_linear_36_59)"/>
<path d="M130 282.703C130.296 285.069 130.501 287.126 130.591 288.887H130.951C131.08 287.216 131.363 285.197 131.787 282.844C132.211 280.491 132.584 278.499 132.931 276.866L149.067 207.347H169.947L186.661 275.824C187.635 280.06 188.331 284.355 188.744 288.681H189.027C189.334 284.47 189.914 280.282 190.763 276.146L204.121 207.257H223.111L199.66 306.874H177.456L161.551 240.969C161.089 239.066 160.566 236.589 159.983 233.537C159.4 230.486 159.04 228.257 158.903 226.851H158.633C158.453 228.471 158.093 230.876 157.553 234.064C157.013 237.266 156.589 239.619 156.267 241.161L141.314 306.913H118.737L95.1571 207.347H114.443L128.984 277.007C129.418 278.887 129.757 280.788 130 282.703Z" fill="white"/>
<defs>
<linearGradient id="paint0_linear_36_59" x1="99.0657" y1="153.18" x2="219.126" y2="361.106" gradientUnits="userSpaceOnUse">
<stop stop-color="#0758D9"/>
<stop offset="0.5" stop-color="#003EB3"/>
<stop offset="1" stop-color="#002C8C"/>
</linearGradient>
</defs>
</svg>
