<svg width="512" height="512" viewBox="0 0 512 512" fill="none" xmlns="http://www.w3.org/2000/svg">
<rect width="512" height="512" rx="80" fill="white"/>
<path fill-rule="evenodd" clip-rule="evenodd" d="M144.927 104C123.245 104 107.201 122.996 107.919 143.596C108.608 163.388 107.713 189.021 101.266 209.924C94.7996 230.889 83.8632 244.17 66 245.875V265.125C83.8632 266.83 94.7996 280.111 101.266 301.077C107.713 321.979 108.608 347.613 107.919 367.404C107.201 388.002 123.245 407 144.93 407H367.101C388.785 407 404.825 388.006 404.107 367.404C403.418 347.613 404.312 321.979 410.76 301.077C417.229 280.111 428.137 266.83 446 265.125V245.875C428.137 244.17 417.229 230.889 410.76 209.924C404.312 189.024 403.418 163.388 404.107 143.596C404.825 122.999 388.785 104 367.101 104H144.927ZM323.627 290.516C323.627 318.883 302.488 336.086 267.409 336.086H207.695C205.987 336.086 204.348 335.406 203.141 334.197C201.933 332.988 201.254 331.349 201.254 329.639V181.362C201.254 179.652 201.933 178.012 203.141 176.803C204.348 175.594 205.987 174.915 207.695 174.915H267.069C296.318 174.915 315.514 190.774 315.514 215.124C315.514 232.214 302.602 247.516 286.148 250.194V251.088C308.546 253.547 323.627 269.071 323.627 290.516ZM260.899 195.352H226.849V243.49H255.527C277.695 243.49 289.92 234.555 289.92 218.583C289.92 203.616 279.408 195.352 260.899 195.352ZM226.849 262.592V315.643H262.151C285.231 315.643 297.458 306.372 297.458 288.95C297.458 271.524 284.889 262.589 260.666 262.589L226.849 262.592Z" fill="#9154DE"/>
</svg>
