<?xml version="1.0" encoding="UTF-8"?>
<svg xmlns="http://www.w3.org/2000/svg" xmlns:xlink="http://www.w3.org/1999/xlink" width="144px" height="144px" viewBox="0 0 144 144" version="1.1">
<g id="surface1">
<path style=" stroke:none;fill-rule:nonzero;fill:rgb(100%,100%,100%);fill-opacity:1;" d="M 72 0 C 32.234375 0 0 32.234375 0 72 C 0 111.765625 32.234375 144 72 144 C 111.765625 144 144 111.765625 144 72 C 144 32.234375 111.765625 0 72 0 Z M 122.460938 100.160156 C 122.445312 100.550781 122.238281 100.910156 122.308594 101.308594 C 122.128906 101.640625 122.0625 101.996094 122.113281 102.378906 C 122.132812 102.519531 122.09375 102.648438 121.980469 102.75 C 121.945312 103.113281 121.828125 103.449219 121.640625 103.757812 L 121.636719 103.753906 C 121.613281 104.039062 121.507812 104.289062 121.296875 104.484375 C 121.285156 104.59375 121.277344 104.707031 121.265625 104.816406 C 121.113281 105.007812 120.949219 105.195312 120.914062 105.453125 L 120.914062 105.449219 C 120.6875 105.675781 120.527344 105.953125 120.300781 106.179688 L 120.304688 106.179688 C 120.253906 106.429688 120.132812 106.636719 119.941406 106.800781 L 119.9375 106.800781 C 119.820312 106.917969 119.6875 107.027344 119.589844 107.164062 L 119.589844 107.160156 C 119.296875 107.527344 118.964844 107.851562 118.605469 108.148438 C 118.460938 108.246094 118.363281 108.386719 118.234375 108.496094 L 118.238281 108.5 C 118.074219 108.695312 117.863281 108.808594 117.621094 108.867188 L 117.617188 108.867188 C 117.386719 109.085938 117.117188 109.253906 116.890625 109.480469 C 116.808594 109.488281 116.730469 109.496094 116.644531 109.503906 C 116.480469 109.605469 116.355469 109.757812 116.175781 109.84375 C 116.097656 109.847656 116.011719 109.855469 115.933594 109.859375 C 115.734375 110.011719 115.535156 110.148438 115.363281 110.328125 C 115.320312 110.335938 115.28125 110.339844 115.238281 110.34375 C 115.09375 110.324219 115.03125 110.460938 114.921875 110.507812 C 114.804688 110.542969 114.671875 110.472656 114.5625 110.5625 C 114.472656 110.691406 114.296875 110.703125 114.203125 110.828125 C 113.867188 110.9375 113.5 110.945312 113.207031 111.175781 C 113.089844 111.183594 112.976562 111.1875 112.863281 111.195312 C 112.339844 111.414062 111.785156 111.371094 111.238281 111.367188 C 110.746094 111.335938 110.246094 111.25 109.773438 111.488281 C 109.757812 111.5 109.753906 111.503906 109.753906 111.507812 C 109.757812 111.507812 109.753906 111.507812 109.753906 111.507812 C 109.753906 111.503906 109.746094 111.5 109.734375 111.5 C 108.699219 111.363281 107.699219 111.726562 106.667969 111.675781 C 102.972656 111.492188 99.277344 111.621094 95.582031 111.609375 C 94.871094 111.609375 94.140625 111.78125 93.445312 111.648438 C 92.035156 111.378906 90.609375 111.664062 89.21875 111.480469 C 87.503906 111.253906 85.792969 111.363281 84.082031 111.347656 C 83.816406 111.34375 83.554688 111.476562 83.285156 111.378906 C 81.898438 111.351562 80.511719 111.386719 79.125 111.367188 C 78.488281 111.355469 77.847656 111.402344 77.210938 111.320312 C 77.046875 111.300781 76.925781 111.203125 76.773438 111.199219 C 76.742188 111.199219 76.714844 111.195312 76.683594 111.1875 C 76.34375 111.019531 75.976562 110.910156 75.605469 110.839844 C 75.417969 110.839844 75.289062 110.765625 75.25 110.570312 C 75.007812 110.507812 74.800781 110.378906 74.625 110.207031 L 74.625 110.203125 C 74.5 110.089844 74.390625 109.960938 74.257812 109.855469 L 74.257812 109.851562 C 74.148438 109.722656 74.023438 109.609375 73.90625 109.488281 L 73.898438 109.496094 C 73.605469 109.320312 73.539062 108.945312 73.246094 108.765625 C 73.28125 108.417969 72.929688 108.207031 72.925781 107.875 C 72.90625 107.773438 72.925781 107.640625 72.871094 107.574219 C 72.589844 107.242188 72.601562 106.839844 72.5625 106.445312 C 72.3125 106.117188 72.402344 105.738281 72.402344 105.371094 C 72.398438 104.734375 72.320312 104.105469 72.441406 103.46875 C 72.464844 103.339844 72.488281 103.230469 72.558594 103.128906 C 72.566406 103.015625 72.570312 102.898438 72.574219 102.78125 C 72.648438 102.113281 72.753906 101.453125 72.921875 100.800781 L 72.933594 100.808594 C 73.171875 100.480469 73.171875 100.078125 73.265625 99.710938 C 73.273438 99.507812 73.28125 99.308594 73.292969 99.109375 C 73.59375 98.683594 73.574219 98.152344 73.773438 97.695312 C 73.816406 97.597656 73.820312 97.480469 73.898438 97.394531 C 73.878906 96.9375 74.144531 96.558594 74.253906 96.136719 C 74.257812 96.019531 74.265625 95.902344 74.269531 95.789062 C 74.429688 95.445312 74.539062 95.085938 74.617188 94.710938 C 74.894531 94.308594 74.902344 93.804688 75.109375 93.371094 C 75.152344 93.28125 75.175781 93.179688 75.246094 93.097656 L 75.25 93.101562 C 75.257812 92.785156 75.445312 92.542969 75.59375 92.285156 C 75.601562 92.046875 75.617188 91.820312 75.800781 91.628906 C 75.953125 91.46875 75.9375 91.242188 75.960938 91.035156 C 76.140625 90.824219 76.214844 90.546875 76.257812 90.300781 C 76.300781 90.039062 76.421875 89.867188 76.585938 89.691406 L 76.589844 89.699219 C 76.59375 89.328125 76.90625 89.066406 76.949219 88.710938 C 77.121094 88.402344 77.1875 88.054688 77.308594 87.726562 C 77.515625 87.542969 77.679688 87.339844 77.625 87.035156 C 77.664062 86.90625 77.808594 86.867188 77.847656 86.742188 C 77.878906 86.710938 77.902344 86.679688 77.925781 86.644531 L 77.933594 86.652344 C 77.960938 86.367188 78.171875 86.171875 78.28125 85.925781 C 78.292969 85.6875 78.292969 85.460938 78.503906 85.277344 C 78.675781 85.132812 78.640625 84.898438 78.660156 84.691406 C 78.839844 84.507812 78.96875 84.308594 79.007812 84.039062 C 79.03125 83.886719 79.136719 83.71875 79.285156 83.613281 L 79.285156 83.609375 C 79.304688 83.347656 79.449219 83.152344 79.625 82.972656 C 79.628906 82.890625 79.636719 82.804688 79.640625 82.714844 C 79.78125 82.484375 79.949219 82.269531 80.011719 82 C 80.199219 81.960938 80.265625 81.828125 80.300781 81.660156 C 80.339844 81.480469 80.40625 81.320312 80.609375 81.273438 C 80.660156 81.023438 80.789062 80.816406 80.964844 80.632812 C 80.96875 80.546875 80.976562 80.464844 80.984375 80.386719 C 81.0625 80.203125 81.214844 80.078125 81.324219 79.921875 C 81.332031 79.839844 81.339844 79.753906 81.347656 79.675781 C 81.566406 79.441406 81.738281 79.171875 81.957031 78.945312 L 81.953125 78.945312 C 81.988281 78.660156 82.132812 78.4375 82.332031 78.242188 C 82.492188 78.054688 82.628906 77.855469 82.6875 77.609375 L 82.691406 77.613281 C 82.878906 77.445312 82.992188 77.234375 83.054688 76.992188 C 83.132812 76.953125 83.214844 76.917969 83.292969 76.878906 C 83.359375 76.636719 83.46875 76.425781 83.664062 76.257812 C 83.6875 76.128906 83.710938 75.992188 83.851562 75.925781 C 83.976562 75.867188 83.996094 75.75 84.023438 75.636719 C 84.277344 75.429688 84.371094 75.09375 84.640625 74.902344 C 84.648438 74.820312 84.652344 74.738281 84.660156 74.65625 C 84.734375 74.476562 84.875 74.339844 85.003906 74.199219 C 85.011719 74.117188 85.015625 74.03125 85.023438 73.949219 C 85.121094 73.800781 85.273438 73.691406 85.351562 73.527344 C 85.707031 73.316406 85.683594 72.835938 86 72.59375 C 86.035156 72.453125 86.058594 72.308594 86.203125 72.230469 C 86.339844 72.15625 86.335938 72.011719 86.363281 71.890625 C 86.542969 71.710938 86.671875 71.503906 86.71875 71.253906 L 86.71875 71.257812 C 86.941406 71.027344 87.105469 70.75 87.328125 70.527344 L 87.332031 70.53125 C 87.367188 70.273438 87.503906 70.070312 87.679688 69.894531 C 87.714844 69.769531 87.722656 69.628906 87.851562 69.558594 C 88 69.476562 88.015625 69.328125 88.046875 69.1875 C 88.363281 68.925781 88.363281 68.464844 88.679688 68.207031 C 88.710938 68.0625 88.738281 67.917969 88.894531 67.839844 C 89 67.789062 89.011719 67.675781 89.035156 67.578125 C 89.175781 67.441406 89.316406 67.308594 89.382812 67.117188 C 89.386719 67.03125 89.390625 66.949219 89.398438 66.863281 C 89.664062 66.648438 89.679688 66.28125 89.90625 66.042969 C 90.085938 65.886719 90.210938 65.683594 90.367188 65.5 C 90.378906 65.390625 90.386719 65.28125 90.398438 65.175781 C 90.566406 64.992188 90.703125 64.792969 90.746094 64.539062 L 90.746094 64.535156 L 90.746094 64.539062 C 90.964844 64.304688 91.144531 64.042969 91.351562 63.804688 C 91.359375 63.722656 91.367188 63.640625 91.375 63.554688 C 91.425781 63.351562 91.667969 63.292969 91.71875 63.09375 C 91.726562 63.011719 91.730469 62.929688 91.738281 62.847656 C 91.910156 62.660156 92.050781 62.460938 92.085938 62.203125 C 92.148438 62.164062 92.234375 62.136719 92.265625 62.082031 C 92.421875 61.800781 92.566406 61.511719 92.71875 61.222656 C 92.789062 61.039062 92.929688 60.90625 93.058594 60.765625 C 93.066406 60.679688 93.074219 60.597656 93.078125 60.511719 C 93.234375 60.320312 93.40625 60.136719 93.425781 59.875 C 93.429688 59.851562 93.433594 59.828125 93.433594 59.800781 C 93.671875 59.582031 93.695312 59.230469 93.914062 58.996094 C 94.113281 58.839844 94.222656 58.609375 94.398438 58.429688 L 94.398438 58.4375 C 94.453125 58.164062 94.640625 57.957031 94.753906 57.710938 C 94.761719 57.625 94.765625 57.542969 94.773438 57.460938 C 95.105469 57.207031 95.085938 56.738281 95.390625 56.46875 L 95.386719 56.464844 C 95.433594 56.1875 95.515625 55.933594 95.746094 55.75 C 95.753906 55.667969 95.761719 55.585938 95.769531 55.503906 C 95.933594 55.308594 96.101562 55.117188 96.097656 54.835938 C 96.339844 54.777344 96.488281 54.644531 96.421875 54.375 C 96.378906 54.183594 96.519531 54.085938 96.609375 53.964844 C 96.8125 53.785156 96.964844 53.566406 97.089844 53.328125 C 97.089844 53.269531 97.09375 53.214844 97.09375 53.15625 C 97.238281 52.929688 97.429688 52.726562 97.453125 52.441406 C 97.625 52.269531 97.800781 52.109375 97.773438 51.828125 C 97.757812 51.613281 97.957031 51.507812 98.082031 51.371094 C 98.105469 51.082031 98.3125 50.882812 98.429688 50.640625 C 98.433594 50.554688 98.4375 50.464844 98.4375 50.382812 C 98.507812 50.035156 98.769531 49.761719 98.816406 49.40625 C 98.902344 49.375 99.011719 49.351562 99.023438 49.265625 C 99.074219 48.9375 99.308594 48.707031 99.425781 48.414062 C 99.457031 48.132812 99.527344 47.871094 99.769531 47.683594 C 99.777344 47.601562 99.785156 47.519531 99.792969 47.433594 C 100.027344 47.25 100.113281 46.996094 100.140625 46.710938 L 100.136719 46.703125 C 100.34375 46.53125 100.371094 46.246094 100.421875 46.027344 C 100.484375 45.757812 100.628906 45.574219 100.765625 45.367188 C 100.886719 45.035156 100.875 44.660156 101.117188 44.375 C 101.121094 44.289062 101.128906 44.203125 101.132812 44.117188 C 101.292969 43.863281 101.480469 43.625 101.472656 43.300781 C 101.480469 43.21875 101.488281 43.128906 101.492188 43.046875 C 101.710938 42.84375 101.808594 42.613281 101.8125 42.300781 C 101.8125 41.964844 101.933594 41.632812 102.113281 41.339844 L 102.113281 41.335938 C 102.117188 40.933594 102.261719 40.546875 102.292969 40.140625 C 102.34375 39.390625 102.296875 39.320312 101.582031 39.320312 C 101.527344 39.324219 101.480469 39.308594 101.433594 39.28125 C 101.195312 39.058594 100.917969 39.15625 100.648438 39.179688 C 100.054688 39.148438 99.464844 39.167969 98.871094 39.167969 C 98.75 39.164062 98.625 39.144531 98.503906 39.148438 C 98.289062 39.191406 98.027344 39.046875 97.855469 39.289062 C 97.8125 39.3125 97.765625 39.324219 97.71875 39.320312 C 97.238281 39.273438 96.800781 39.429688 96.378906 39.632812 C 96.292969 39.640625 96.203125 39.644531 96.117188 39.644531 C 95.742188 39.71875 95.367188 39.789062 95.035156 39.988281 C 94.886719 39.996094 94.730469 40.007812 94.617188 40.113281 C 94.378906 40.328125 94.085938 40.34375 93.789062 40.355469 C 93.65625 40.449219 93.546875 40.574219 93.410156 40.660156 C 93.101562 40.605469 92.894531 40.769531 92.707031 40.976562 L 92.710938 40.980469 C 92.421875 41.003906 92.21875 41.195312 91.988281 41.335938 C 91.929688 41.335938 91.871094 41.339844 91.8125 41.339844 C 91.632812 41.417969 91.503906 41.566406 91.351562 41.679688 C 91.269531 41.6875 91.183594 41.695312 91.101562 41.703125 C 90.867188 41.917969 90.597656 42.089844 90.371094 42.3125 L 90.367188 42.3125 C 90.003906 42.324219 89.785156 42.582031 89.5625 42.816406 C 89.480469 42.902344 89.40625 42.980469 89.292969 43.023438 C 89.210938 43.03125 89.132812 43.039062 89.050781 43.046875 C 88.992188 43.234375 88.902344 43.390625 88.671875 43.390625 C 88.585938 43.480469 88.5 43.574219 88.398438 43.652344 C 88.226562 43.742188 88.140625 43.9375 87.960938 44.019531 C 87.699219 44.125 87.550781 44.375 87.328125 44.527344 C 87.113281 44.675781 86.988281 44.9375 86.714844 45.011719 C 86.582031 45.113281 86.46875 45.242188 86.351562 45.359375 L 86.351562 45.363281 C 86.226562 45.472656 86.109375 45.597656 85.988281 45.714844 L 85.996094 45.722656 C 85.8125 45.957031 85.609375 46.175781 85.363281 46.347656 L 85.363281 46.34375 C 85.242188 46.46875 85.125 46.585938 85.003906 46.703125 C 84.882812 46.824219 84.769531 46.945312 84.644531 47.058594 L 84.648438 47.058594 C 84.472656 47.304688 84.261719 47.507812 84.023438 47.6875 L 84.015625 47.683594 C 83.902344 47.808594 83.777344 47.921875 83.664062 48.046875 C 83.542969 48.164062 83.421875 48.28125 83.304688 48.40625 L 83.304688 48.402344 C 83.085938 48.605469 82.921875 48.859375 82.6875 49.039062 C 82.546875 49.144531 82.421875 49.253906 82.332031 49.40625 C 82.273438 49.714844 81.992188 49.859375 81.804688 50.070312 C 81.683594 50.207031 81.601562 50.390625 81.414062 50.476562 C 81.332031 50.515625 81.34375 50.632812 81.320312 50.71875 C 81.226562 50.863281 81.09375 50.96875 80.96875 51.085938 L 80.960938 51.078125 C 80.875 51.230469 80.664062 51.261719 80.613281 51.445312 C 80.527344 51.539062 80.4375 51.625 80.347656 51.714844 C 80.234375 51.839844 80.101562 51.949219 80 52.082031 L 79.996094 52.074219 C 79.984375 52.445312 79.679688 52.707031 79.640625 53.0625 C 79.636719 53.433594 79.308594 53.691406 79.289062 54.058594 C 79.28125 54.171875 79.273438 54.28125 79.269531 54.394531 C 78.910156 54.660156 78.984375 55.109375 78.8125 55.457031 C 78.761719 55.554688 78.742188 55.671875 78.652344 55.75 L 78.648438 55.746094 C 78.625 56.03125 78.519531 56.28125 78.308594 56.480469 C 78.300781 56.59375 78.292969 56.703125 78.285156 56.816406 C 78.242188 57.175781 77.945312 57.4375 77.921875 57.804688 L 77.917969 57.792969 C 77.582031 58.050781 77.664062 58.554688 77.316406 58.800781 L 77.308594 58.796875 C 77.296875 59.164062 77 59.425781 76.945312 59.777344 C 76.945312 59.867188 76.941406 59.949219 76.9375 60.035156 C 76.828125 60.285156 76.589844 60.472656 76.609375 60.78125 C 76.410156 60.929688 76.25 61.085938 76.269531 61.367188 C 76.285156 61.589844 76.085938 61.695312 75.960938 61.835938 C 75.933594 62.117188 75.734375 62.320312 75.613281 62.554688 C 75.605469 62.636719 75.597656 62.71875 75.589844 62.804688 C 75.425781 62.992188 75.269531 63.183594 75.25 63.449219 L 75.246094 63.449219 C 75.113281 63.535156 75.109375 63.71875 74.972656 63.800781 L 74.980469 63.804688 C 74.945312 64.089844 74.867188 64.347656 74.621094 64.523438 L 74.617188 64.523438 C 74.589844 64.804688 74.398438 65.007812 74.265625 65.238281 C 74.257812 65.324219 74.25 65.40625 74.242188 65.488281 C 74.078125 65.675781 73.9375 65.875 73.898438 66.132812 L 73.898438 66.128906 C 73.582031 66.320312 73.644531 66.75 73.375 66.96875 C 73.167969 67.226562 72.996094 67.503906 72.914062 67.832031 C 72.890625 67.960938 72.871094 68.09375 72.746094 68.171875 C 72.601562 68.261719 72.59375 68.414062 72.558594 68.550781 C 72.238281 68.8125 72.269531 69.292969 71.9375 69.542969 C 71.933594 69.628906 71.929688 69.710938 71.921875 69.796875 C 71.855469 69.984375 71.703125 70.109375 71.585938 70.261719 C 71.578125 70.34375 71.570312 70.425781 71.5625 70.511719 C 71.335938 70.695312 71.261719 70.957031 71.199219 71.226562 L 71.207031 71.226562 C 70.957031 71.445312 70.949219 71.804688 70.722656 72.03125 C 70.53125 72.195312 70.402344 72.414062 70.246094 72.605469 C 70.238281 72.683594 70.230469 72.769531 70.226562 72.847656 C 69.980469 73.023438 69.910156 73.285156 69.867188 73.5625 L 69.875 73.566406 C 69.5625 73.832031 69.546875 74.285156 69.25 74.554688 C 69.242188 74.578125 69.238281 74.605469 69.238281 74.632812 C 69.222656 74.898438 69.078125 75.097656 68.898438 75.269531 C 68.890625 75.355469 68.882812 75.4375 68.875 75.519531 C 68.644531 75.707031 68.582031 75.976562 68.503906 76.238281 C 68.449219 76.261719 68.359375 76.269531 68.347656 76.308594 C 68.238281 76.636719 67.945312 76.871094 67.886719 77.222656 C 67.800781 77.375 67.644531 77.457031 67.558594 77.605469 C 67.554688 77.691406 67.546875 77.777344 67.542969 77.863281 C 67.402344 78.089844 67.21875 78.296875 67.179688 78.578125 L 67.183594 78.578125 C 66.980469 78.773438 66.871094 79.015625 66.8125 79.285156 L 66.8125 79.292969 C 66.8125 79.289062 66.8125 79.289062 66.8125 79.285156 C 66.75 79.394531 66.640625 79.46875 66.566406 79.570312 C 66.53125 79.722656 66.511719 79.886719 66.339844 79.972656 C 66.222656 80.03125 66.222656 80.164062 66.191406 80.277344 C 66.007812 80.449219 65.867188 80.648438 65.851562 80.914062 L 65.855469 80.917969 C 65.703125 80.992188 65.703125 81.179688 65.578125 81.269531 C 65.535156 81.546875 65.464844 81.808594 65.21875 81.984375 C 65.183594 82.265625 65 82.472656 64.859375 82.699219 C 64.851562 82.785156 64.847656 82.871094 64.84375 82.953125 C 64.675781 83.136719 64.527344 83.332031 64.503906 83.59375 L 64.503906 83.597656 C 64.121094 83.8125 64.246094 84.304688 63.964844 84.578125 C 63.929688 84.605469 63.902344 84.636719 63.867188 84.667969 C 63.839844 84.761719 63.84375 84.878906 63.757812 84.941406 C 63.539062 85.097656 63.511719 85.324219 63.503906 85.558594 C 63.425781 85.761719 63.25 85.90625 63.160156 86.101562 C 63.15625 86.160156 63.152344 86.21875 63.148438 86.269531 C 62.917969 86.453125 62.839844 86.714844 62.789062 86.992188 L 62.789062 86.996094 L 62.789062 86.992188 C 62.671875 87.089844 62.664062 87.273438 62.519531 87.351562 C 62.492188 87.453125 62.492188 87.570312 62.40625 87.632812 C 62.164062 87.808594 62.167969 88.0625 62.152344 88.316406 C 61.84375 88.589844 61.863281 89.0625 61.539062 89.328125 L 61.539062 89.324219 C 61.515625 89.613281 61.429688 89.867188 61.1875 90.046875 L 61.183594 90.042969 C 61.160156 90.328125 60.957031 90.527344 60.832031 90.765625 C 60.828125 90.824219 60.824219 90.878906 60.820312 90.9375 C 60.691406 91.171875 60.484375 91.371094 60.476562 91.664062 C 60.3125 92.035156 60.183594 92.421875 59.9375 92.753906 C 59.882812 92.832031 59.859375 92.914062 59.839844 93 C 59.820312 93.285156 59.703125 93.527344 59.5 93.734375 C 59.496094 93.847656 59.488281 93.957031 59.480469 94.070312 C 59.253906 94.359375 59.226562 94.722656 59.117188 95.054688 L 59.117188 95.050781 C 59 95.152344 58.988281 95.328125 58.847656 95.414062 C 58.820312 95.777344 58.796875 96.140625 58.496094 96.402344 L 58.492188 96.402344 C 58.410156 96.742188 58.351562 97.09375 58.148438 97.394531 C 58.140625 97.417969 58.136719 97.445312 58.132812 97.472656 C 58.113281 97.839844 57.757812 98.085938 57.792969 98.46875 C 57.789062 98.554688 57.78125 98.640625 57.773438 98.726562 C 57.558594 98.925781 57.453125 99.148438 57.457031 99.460938 C 57.460938 99.804688 57.320312 100.128906 57.15625 100.433594 C 57.160156 100.816406 56.960938 101.164062 56.992188 101.550781 C 57.046875 101.863281 56.839844 102.113281 56.804688 102.402344 C 56.78125 102.683594 56.757812 102.953125 56.582031 103.199219 C 56.460938 103.367188 56.480469 103.59375 56.472656 103.800781 C 56.460938 104.019531 56.453125 104.242188 56.441406 104.464844 C 56.1875 104.828125 56.273438 105.261719 56.257812 105.660156 C 56.207031 106.6875 56.402344 107.71875 56.199219 108.742188 C 56.113281 109.011719 56.085938 109.308594 55.828125 109.488281 C 55.773438 109.820312 55.480469 109.972656 55.277344 110.183594 C 55.105469 110.359375 54.921875 110.527344 54.667969 110.589844 C 54.558594 110.613281 54.511719 110.71875 54.472656 110.816406 C 54.242188 110.863281 54.027344 110.960938 53.792969 110.996094 C 53.25 110.976562 52.703125 110.996094 52.160156 111.039062 C 52.011719 111.039062 51.910156 110.941406 51.785156 110.886719 C 51.582031 110.871094 51.5625 110.648438 51.414062 110.566406 L 51.425781 110.570312 C 51.332031 110.441406 51.167969 110.566406 51.066406 110.46875 C 50.984375 110.371094 50.898438 110.277344 50.792969 110.207031 L 50.796875 110.207031 C 50.625 110.136719 50.578125 109.941406 50.429688 109.847656 L 50.429688 109.851562 C 50.339844 109.703125 50.195312 109.605469 50.089844 109.476562 C 50.085938 109.394531 50.078125 109.3125 50.070312 109.230469 C 49.875 109.023438 49.746094 108.785156 49.730469 108.492188 L 49.730469 108.488281 C 49.464844 108.109375 49.617188 107.667969 49.585938 107.261719 C 49.496094 106.171875 49.578125 105.082031 49.617188 103.992188 C 49.636719 103.53125 49.875 103.101562 49.773438 102.632812 C 49.886719 102.140625 49.917969 101.628906 50.074219 101.140625 C 50.082031 100.910156 50.089844 100.679688 50.09375 100.445312 C 50.335938 100.023438 50.257812 99.523438 50.4375 99.089844 L 50.4375 99.082031 C 50.597656 98.769531 50.722656 98.4375 50.746094 98.085938 C 50.773438 97.730469 50.886719 97.414062 51.0625 97.117188 C 51.070312 97.003906 51.078125 96.890625 51.085938 96.773438 C 51.265625 96.558594 51.191406 96.230469 51.414062 96.035156 C 51.417969 95.949219 51.425781 95.863281 51.429688 95.777344 C 51.597656 95.433594 51.703125 95.070312 51.78125 94.699219 L 51.78125 94.695312 C 51.972656 94.492188 52.023438 94.207031 52.074219 93.964844 C 52.128906 93.707031 52.242188 93.527344 52.402344 93.347656 C 52.40625 93.261719 52.410156 93.175781 52.417969 93.089844 C 52.402344 92.714844 52.730469 92.457031 52.765625 92.097656 C 52.773438 92.074219 52.777344 92.046875 52.785156 92.023438 C 52.933594 91.828125 53.121094 91.652344 53.117188 91.378906 C 53.121094 91.292969 53.128906 91.207031 53.136719 91.121094 C 53.320312 90.921875 53.464844 90.703125 53.449219 90.417969 C 53.585938 90.316406 53.640625 90.15625 53.746094 90.035156 L 53.75 90.039062 C 53.789062 89.757812 53.894531 89.507812 54.097656 89.304688 C 54.109375 89.109375 54.121094 88.917969 54.132812 88.722656 C 54.335938 88.519531 54.445312 88.265625 54.484375 87.984375 L 54.488281 87.996094 C 54.785156 87.71875 54.753906 87.242188 55.097656 86.992188 C 55.132812 86.710938 55.226562 86.460938 55.449219 86.269531 C 55.457031 86.1875 55.464844 86.101562 55.472656 86.019531 C 55.695312 85.832031 55.789062 85.578125 55.824219 85.296875 C 56.128906 85.027344 56.113281 84.5625 56.433594 84.300781 C 56.484375 84.027344 56.5625 83.769531 56.792969 83.582031 C 56.800781 83.5 56.808594 83.414062 56.816406 83.332031 C 57.039062 83.144531 57.125 82.890625 57.171875 82.617188 L 57.167969 82.613281 C 57.476562 82.347656 57.445312 81.867188 57.78125 81.621094 C 57.824219 81.339844 57.90625 81.082031 58.136719 80.898438 C 58.144531 80.816406 58.148438 80.730469 58.15625 80.648438 C 58.386719 80.464844 58.464844 80.203125 58.519531 79.929688 L 58.515625 79.933594 C 58.8125 79.65625 58.792969 79.1875 59.132812 78.9375 C 59.171875 78.8125 59.183594 78.683594 59.304688 78.59375 C 59.359375 78.550781 59.425781 78.488281 59.4375 78.429688 C 59.480469 78.175781 59.597656 77.972656 59.78125 77.796875 C 59.828125 77.753906 59.828125 77.664062 59.847656 77.59375 C 59.964844 77.464844 60.0625 77.316406 60.164062 77.171875 C 60.136719 76.914062 60.375 76.792969 60.464844 76.597656 C 60.472656 76.515625 60.476562 76.429688 60.484375 76.347656 C 60.554688 76.160156 60.710938 76.039062 60.820312 75.882812 C 60.828125 75.800781 60.835938 75.714844 60.847656 75.632812 C 60.964844 75.484375 61.109375 75.355469 61.183594 75.171875 C 61.191406 75.085938 61.195312 75 61.199219 74.917969 C 61.3125 74.714844 61.554688 74.570312 61.515625 74.289062 C 61.652344 74.199219 61.695312 74.03125 61.816406 73.921875 C 61.851562 73.78125 61.871094 73.628906 62.027344 73.558594 C 62.136719 73.507812 62.15625 73.398438 62.175781 73.296875 C 62.320312 73.070312 62.5 72.863281 62.539062 72.585938 L 62.53125 72.578125 C 62.671875 72.496094 62.671875 72.308594 62.808594 72.222656 C 62.902344 72.121094 62.796875 71.96875 62.894531 71.863281 C 63.023438 71.777344 63.023438 71.585938 63.167969 71.511719 L 63.164062 71.507812 C 63.191406 71.246094 63.332031 71.050781 63.511719 70.871094 C 63.515625 70.785156 63.519531 70.699219 63.527344 70.613281 C 63.664062 70.382812 63.832031 70.164062 63.898438 69.898438 C 64.089844 69.867188 64.15625 69.730469 64.191406 69.5625 C 64.226562 69.378906 64.300781 69.226562 64.5 69.171875 C 64.542969 68.894531 64.726562 68.6875 64.863281 68.457031 C 64.867188 68.371094 64.871094 68.285156 64.875 68.199219 C 65.050781 68.023438 65.195312 67.824219 65.21875 67.5625 C 65.472656 67.390625 65.542969 67.128906 65.585938 66.851562 C 65.710938 66.761719 65.710938 66.570312 65.859375 66.5 L 65.859375 66.492188 C 65.878906 66.230469 66.054688 66.050781 66.203125 65.855469 C 66.214844 65.800781 66.210938 65.714844 66.246094 65.6875 C 66.566406 65.460938 66.585938 65.054688 66.777344 64.75 C 66.9375 64.488281 67.113281 64.207031 67.203125 63.898438 C 67.265625 63.707031 67.429688 63.589844 67.539062 63.433594 C 67.542969 63.351562 67.554688 63.269531 67.558594 63.183594 C 67.679688 63.035156 67.828125 62.90625 67.898438 62.71875 C 67.902344 62.636719 67.910156 62.550781 67.914062 62.46875 C 68.207031 62.191406 68.226562 61.746094 68.53125 61.472656 L 68.527344 61.472656 C 68.566406 61.195312 68.644531 60.9375 68.882812 60.753906 C 68.886719 60.671875 68.898438 60.585938 68.902344 60.503906 C 69.125 60.316406 69.207031 60.058594 69.261719 59.78125 C 69.261719 59.78125 69.261719 59.785156 69.257812 59.785156 L 69.261719 59.78125 C 69.558594 59.507812 69.535156 59.039062 69.871094 58.785156 C 69.882812 58.421875 70.179688 58.160156 70.238281 57.808594 L 70.246094 57.8125 C 70.46875 57.625 70.5625 57.375 70.59375 57.09375 L 70.59375 57.089844 C 70.90625 56.820312 70.90625 56.402344 71.070312 56.0625 C 71.113281 55.976562 71.148438 55.898438 71.210938 55.832031 C 71.21875 55.804688 71.222656 55.777344 71.230469 55.75 C 71.234375 55.480469 71.394531 55.292969 71.5625 55.105469 C 71.574219 54.996094 71.582031 54.886719 71.59375 54.773438 C 71.804688 54.578125 71.914062 54.328125 71.933594 54.042969 C 71.949219 53.941406 71.960938 53.839844 72.054688 53.773438 C 72.175781 53.691406 72.203125 53.5625 72.210938 53.429688 C 72.277344 53.335938 72.222656 53.222656 72.269531 53.121094 C 72.386719 53.019531 72.449219 52.890625 72.425781 52.726562 C 72.421875 52.679688 72.433594 52.636719 72.457031 52.59375 C 72.789062 52.394531 72.714844 51.980469 72.914062 51.710938 L 72.921875 51.714844 C 72.964844 51.464844 73.144531 51.246094 73.097656 50.972656 C 73.21875 50.789062 73.21875 50.574219 73.277344 50.371094 L 73.277344 50.367188 C 73.527344 49.957031 73.601562 49.484375 73.730469 49.03125 C 73.765625 48.902344 73.78125 48.757812 73.902344 48.667969 C 73.921875 48.3125 73.9375 47.964844 74.179688 47.667969 C 74.292969 47.527344 74.246094 47.324219 74.269531 47.148438 C 74.527344 46.699219 74.4375 46.171875 74.605469 45.699219 C 74.609375 45.464844 74.613281 45.234375 74.621094 45 C 74.671875 44.9375 74.742188 44.882812 74.742188 44.785156 C 74.761719 43.953125 74.847656 43.121094 74.738281 42.285156 C 74.722656 42.171875 74.671875 42.117188 74.625 42.039062 C 74.617188 41.851562 74.609375 41.65625 74.597656 41.46875 C 74.589844 41.257812 74.554688 41.0625 74.417969 40.894531 C 74.292969 40.738281 74.257812 40.546875 74.25 40.355469 C 74.160156 40.207031 74.023438 40.105469 73.902344 39.984375 C 73.890625 39.980469 73.871094 39.980469 73.863281 39.96875 C 73.421875 39.5625 72.875 39.644531 72.347656 39.640625 C 72.097656 39.636719 71.84375 39.640625 71.589844 39.640625 C 70.996094 39.644531 70.445312 39.867188 69.875 39.980469 C 69.789062 39.984375 69.707031 39.988281 69.617188 39.996094 C 69.304688 40.257812 68.882812 40.195312 68.53125 40.34375 C 68.394531 40.5625 68.066406 40.382812 67.945312 40.636719 C 67.832031 40.707031 67.726562 40.789062 67.597656 40.832031 C 67.273438 41.046875 66.808594 40.96875 66.546875 41.320312 C 66.4375 41.328125 66.324219 41.335938 66.214844 41.347656 C 66.03125 41.511719 65.835938 41.664062 65.574219 41.683594 L 65.570312 41.683594 C 65.492188 41.824219 65.300781 41.824219 65.21875 41.960938 C 65.117188 42.058594 64.960938 41.949219 64.863281 42.046875 C 64.773438 42.179688 64.585938 42.179688 64.507812 42.320312 L 64.507812 42.324219 C 64.246094 42.347656 64.0625 42.515625 63.871094 42.671875 C 63.660156 42.839844 63.449219 43.011719 63.164062 43.042969 L 63.164062 43.039062 C 62.976562 43.199219 62.777344 43.335938 62.53125 43.394531 C 62.445312 43.523438 62.25 43.519531 62.183594 43.671875 C 62.035156 43.761719 61.949219 43.914062 61.808594 44.007812 C 61.722656 44.011719 61.644531 44.023438 61.558594 44.027344 C 61.410156 44.15625 61.253906 44.269531 61.121094 44.414062 C 60.941406 44.648438 60.660156 44.777344 60.46875 44.996094 L 60.460938 44.992188 C 60.214844 45.046875 60.003906 45.164062 59.84375 45.359375 L 59.847656 45.363281 C 59.722656 45.472656 59.621094 45.609375 59.476562 45.703125 L 59.480469 45.710938 C 59.132812 45.925781 58.949219 46.359375 58.5 46.433594 C 58.464844 46.625 58.332031 46.695312 58.152344 46.710938 C 58.019531 46.816406 57.90625 46.941406 57.789062 47.0625 L 57.792969 47.066406 C 57.617188 47.3125 57.363281 47.472656 57.15625 47.6875 C 57.035156 47.804688 56.914062 47.921875 56.800781 48.046875 C 56.679688 48.164062 56.554688 48.277344 56.445312 48.40625 L 56.441406 48.402344 C 56.222656 48.605469 56.066406 48.863281 55.824219 49.042969 C 55.792969 49.1875 55.773438 49.339844 55.605469 49.40625 C 55.496094 49.449219 55.476562 49.554688 55.457031 49.660156 C 55.382812 49.839844 55.15625 49.90625 55.109375 50.109375 C 55.101562 50.195312 55.09375 50.277344 55.082031 50.363281 C 54.855469 50.574219 54.777344 50.824219 54.769531 51.144531 C 54.761719 51.46875 54.636719 51.785156 54.46875 52.074219 C 54.4375 52.460938 54.390625 52.84375 54.121094 53.15625 C 54.113281 53.242188 54.109375 53.328125 54.105469 53.417969 C 54.074219 53.777344 53.785156 54.046875 53.761719 54.410156 C 53.753906 54.523438 53.746094 54.636719 53.738281 54.75 C 53.339844 54.980469 53.503906 55.410156 53.386719 55.738281 C 53.269531 55.839844 53.257812 56.015625 53.125 56.105469 C 53.136719 56.480469 52.808594 56.738281 52.773438 57.09375 C 52.769531 57.179688 52.765625 57.265625 52.761719 57.355469 C 52.625 57.59375 52.429688 57.8125 52.414062 58.109375 C 52.011719 58.320312 52.132812 58.777344 51.960938 59.09375 C 51.902344 59.203125 51.898438 59.339844 51.785156 59.417969 C 51.785156 59.445312 51.785156 59.476562 51.78125 59.503906 C 51.769531 59.84375 51.441406 60.0625 51.433594 60.40625 C 51.429688 60.429688 51.425781 60.457031 51.417969 60.484375 C 51.257812 60.714844 51.039062 60.921875 51.113281 61.25 C 51.121094 61.289062 51.121094 61.355469 51.089844 61.375 C 50.6875 61.628906 50.792969 62.179688 50.445312 62.464844 C 50.410156 62.574219 50.410156 62.707031 50.3125 62.773438 C 50.078125 62.941406 50.085938 63.191406 50.070312 63.433594 C 49.84375 63.621094 49.761719 63.878906 49.714844 64.15625 L 49.714844 64.152344 C 49.414062 64.425781 49.4375 64.898438 49.101562 65.152344 C 49.09375 65.175781 49.089844 65.203125 49.089844 65.226562 C 49.074219 65.496094 48.925781 65.6875 48.75 65.871094 C 48.742188 65.953125 48.734375 66.039062 48.726562 66.121094 C 48.5 66.304688 48.421875 66.566406 48.367188 66.839844 L 48.371094 66.839844 C 48.085938 67.121094 48.058594 67.5625 47.753906 67.832031 C 47.714844 67.972656 47.703125 68.121094 47.554688 68.203125 C 47.417969 68.277344 47.417969 68.417969 47.394531 68.546875 C 47.355469 68.980469 46.980469 69.207031 46.777344 69.539062 C 46.726562 69.808594 46.664062 70.078125 46.414062 70.25 C 46.382812 70.507812 46.242188 70.707031 46.066406 70.886719 C 46.0625 70.972656 46.058594 71.058594 46.050781 71.140625 C 45.914062 71.371094 45.730469 71.578125 45.6875 71.859375 L 45.691406 71.859375 C 45.355469 72.105469 45.382812 72.585938 45.070312 72.847656 C 45.023438 72.984375 45.003906 73.132812 44.863281 73.21875 C 44.734375 73.292969 44.730469 73.433594 44.699219 73.558594 C 44.515625 73.734375 44.378906 73.933594 44.355469 74.195312 L 44.359375 74.199219 C 44.210938 74.273438 44.214844 74.464844 44.082031 74.550781 C 43.984375 74.652344 44.089844 74.804688 43.992188 74.910156 C 43.859375 74.996094 43.859375 75.183594 43.71875 75.261719 C 43.691406 75.390625 43.671875 75.519531 43.550781 75.601562 C 43.460938 75.660156 43.410156 75.753906 43.390625 75.855469 C 43.351562 76.027344 43.3125 76.191406 43.136719 76.292969 C 43.027344 76.355469 43.039062 76.5 43.007812 76.609375 C 42.703125 76.878906 42.683594 77.328125 42.382812 77.597656 C 42.378906 77.683594 42.371094 77.769531 42.367188 77.851562 C 42.3125 78.050781 42.148438 78.167969 42.027344 78.320312 C 42.019531 78.402344 42.011719 78.484375 42.003906 78.566406 C 41.871094 78.742188 41.714844 78.898438 41.664062 79.121094 C 41.515625 79.300781 41.351562 79.464844 41.296875 79.703125 C 41.273438 79.832031 41.167969 79.894531 41.050781 79.9375 C 40.988281 80.207031 40.917969 80.46875 40.683594 80.652344 C 40.679688 80.738281 40.675781 80.820312 40.671875 80.90625 C 40.503906 81.085938 40.316406 81.261719 40.347656 81.542969 C 40.035156 81.734375 39.972656 82.128906 39.699219 82.351562 C 39.652344 82.625 39.472656 82.835938 39.335938 83.066406 C 39.332031 83.148438 39.324219 83.234375 39.316406 83.316406 C 39.164062 83.511719 38.996094 83.695312 38.976562 83.957031 L 38.976562 83.960938 C 38.839844 84.039062 38.84375 84.230469 38.699219 84.304688 L 38.695312 84.3125 C 38.679688 84.597656 38.597656 84.855469 38.339844 85.023438 L 38.339844 85.027344 C 38.320312 85.292969 38.175781 85.484375 38 85.664062 C 37.972656 85.761719 37.988281 85.886719 37.902344 85.945312 C 37.632812 86.109375 37.644531 86.375 37.625 86.636719 C 37.324219 86.832031 37.371094 87.238281 37.121094 87.460938 C 36.921875 87.636719 36.78125 87.855469 36.648438 88.082031 C 36.640625 88.167969 36.636719 88.25 36.632812 88.335938 C 36.453125 88.511719 36.3125 88.710938 36.292969 88.972656 L 36.292969 88.976562 C 36.164062 89.0625 36.140625 89.234375 36.023438 89.332031 C 35.988281 89.613281 35.878906 89.859375 35.660156 90.046875 L 35.660156 90.042969 C 35.632812 90.304688 35.480469 90.5 35.320312 90.691406 C 35.308594 90.796875 35.296875 90.90625 35.285156 91.019531 C 35.109375 91.199219 34.964844 91.394531 34.949219 91.660156 C 34.828125 91.789062 34.660156 91.890625 34.628906 92.085938 C 34.6875 92.378906 34.488281 92.550781 34.324219 92.738281 L 34.320312 92.734375 C 34.285156 93.015625 34.078125 93.21875 33.96875 93.464844 C 33.960938 93.574219 33.957031 93.6875 33.949219 93.800781 C 33.867188 94.117188 33.644531 94.375 33.59375 94.703125 L 33.585938 94.695312 C 33.433594 94.875 33.25 95.03125 33.277344 95.316406 C 33.296875 95.527344 33.09375 95.636719 32.972656 95.78125 C 32.96875 95.867188 32.960938 95.953125 32.953125 96.039062 C 32.8125 96.269531 32.757812 96.539062 32.613281 96.765625 C 32.574219 97.125 32.242188 97.375 32.261719 97.753906 C 32.074219 97.984375 32.003906 98.265625 31.953125 98.539062 C 31.910156 98.777344 31.828125 98.964844 31.644531 99.113281 C 31.636719 99.226562 31.625 99.335938 31.617188 99.449219 C 31.625 99.746094 31.390625 99.933594 31.285156 100.179688 C 31.28125 100.355469 31.273438 100.53125 31.265625 100.703125 C 30.988281 101.015625 30.945312 101.398438 30.917969 101.785156 L 30.917969 101.789062 C 30.75 102.101562 30.683594 102.449219 30.582031 102.785156 C 30.335938 103.007812 30.449219 103.296875 30.449219 103.5625 C 30.441406 103.757812 30.453125 103.960938 30.289062 104.109375 C 30.257812 104.503906 30.269531 104.902344 30.019531 105.253906 C 29.902344 105.425781 29.960938 105.660156 29.949219 105.863281 C 29.941406 106.054688 29.933594 106.246094 29.925781 106.441406 C 29.855469 106.976562 29.875 107.519531 29.753906 108.058594 C 29.695312 108.324219 29.570312 108.582031 29.578125 108.863281 C 29.570312 108.949219 29.566406 109.035156 29.5625 109.121094 C 29.355469 109.359375 29.140625 109.589844 28.941406 109.835938 L 28.941406 109.839844 C 28.824219 109.960938 28.707031 110.085938 28.578125 110.191406 L 28.582031 110.195312 C 28.320312 110.511719 27.867188 110.519531 27.597656 110.820312 L 27.601562 110.832031 C 27.109375 110.96875 26.609375 111.015625 26.089844 111 C 25.855469 110.992188 25.660156 110.925781 25.453125 110.871094 C 25.128906 110.84375 24.960938 110.441406 24.601562 110.507812 C 24.441406 110.472656 24.363281 110.335938 24.257812 110.230469 C 23.992188 110.019531 23.820312 109.714844 23.574219 109.480469 L 23.578125 109.476562 C 23.542969 109.195312 23.347656 108.996094 23.21875 108.761719 C 23.214844 108.671875 23.207031 108.589844 23.203125 108.5 C 22.898438 108.039062 23.042969 107.515625 23.03125 107.027344 C 23.011719 106.382812 22.984375 105.71875 23.207031 105.089844 C 23.210938 104.765625 23.21875 104.441406 23.222656 104.113281 C 23.34375 103.574219 23.566406 103.054688 23.542969 102.484375 C 23.671875 102.347656 23.707031 102.183594 23.71875 101.992188 C 23.753906 101.433594 23.96875 100.929688 24.195312 100.425781 C 24.199219 100.402344 24.199219 100.371094 24.203125 100.347656 C 24.265625 99.910156 24.320312 99.472656 24.550781 99.082031 C 24.554688 98.96875 24.558594 98.855469 24.566406 98.738281 C 24.777344 98.441406 24.828125 98.085938 24.910156 97.746094 L 24.910156 97.742188 C 25.085938 97.519531 25.175781 97.242188 25.214844 96.980469 C 25.257812 96.660156 25.378906 96.394531 25.539062 96.132812 L 25.546875 96.136719 C 25.558594 95.820312 25.738281 95.578125 25.894531 95.324219 C 25.898438 95.238281 25.902344 95.152344 25.90625 95.0625 C 26.121094 94.769531 26.167969 94.414062 26.257812 94.078125 L 26.265625 94.082031 C 26.425781 93.902344 26.605469 93.75 26.578125 93.464844 C 26.558594 93.253906 26.765625 93.144531 26.878906 92.996094 L 26.878906 93 C 26.964844 92.660156 26.925781 92.269531 27.242188 92.011719 C 27.246094 91.925781 27.253906 91.839844 27.257812 91.757812 C 27.484375 91.566406 27.578125 91.316406 27.605469 91.03125 L 27.609375 91.035156 C 27.777344 90.859375 27.957031 90.699219 27.925781 90.410156 C 27.90625 90.226562 28.078125 90.121094 28.203125 90.007812 C 28.273438 89.667969 28.523438 89.402344 28.589844 89.0625 C 28.59375 88.949219 28.597656 88.839844 28.605469 88.726562 C 28.8125 88.523438 28.910156 88.265625 28.960938 87.988281 L 28.960938 88 C 29.261719 87.726562 29.222656 87.242188 29.570312 87 C 29.601562 86.902344 29.585938 86.777344 29.675781 86.722656 C 29.933594 86.554688 29.933594 86.292969 29.945312 86.035156 C 30.21875 85.820312 30.21875 85.457031 30.414062 85.199219 C 30.554688 84.992188 30.570312 84.722656 30.765625 84.542969 C 30.929688 84.339844 31.105469 84.148438 31.261719 83.941406 C 31.269531 83.855469 31.273438 83.773438 31.28125 83.695312 C 31.523438 83.515625 31.59375 83.253906 31.640625 82.980469 L 31.636719 82.972656 C 31.953125 82.710938 31.914062 82.226562 32.253906 81.980469 C 32.257812 81.953125 32.261719 81.929688 32.265625 81.902344 C 32.285156 81.640625 32.429688 81.441406 32.609375 81.265625 C 32.617188 81.179688 32.625 81.097656 32.632812 81.011719 C 32.808594 80.824219 32.964844 80.632812 32.964844 80.355469 C 33.121094 80.269531 33.324219 80.253906 33.308594 79.980469 C 33.300781 79.808594 33.492188 79.699219 33.601562 79.566406 C 33.644531 79.316406 33.777344 79.113281 33.945312 78.925781 C 33.957031 78.816406 33.96875 78.707031 33.980469 78.597656 C 34.132812 78.40625 34.296875 78.21875 34.328125 77.957031 L 34.324219 77.957031 C 34.453125 77.871094 34.453125 77.679688 34.601562 77.605469 C 34.6875 77.5 34.578125 77.34375 34.691406 77.246094 L 34.691406 77.25 C 34.761719 77.144531 34.867188 77.066406 34.941406 76.964844 C 34.992188 76.832031 35.007812 76.679688 35.152344 76.597656 C 35.28125 76.523438 35.285156 76.386719 35.316406 76.261719 C 35.5 76.085938 35.640625 75.886719 35.660156 75.625 C 35.664062 75.597656 35.667969 75.570312 35.675781 75.546875 C 35.75 75.445312 35.851562 75.363281 35.929688 75.265625 L 35.929688 75.269531 C 36.039062 75.171875 35.925781 75.015625 36.023438 74.910156 C 36.15625 74.828125 36.15625 74.640625 36.296875 74.558594 C 36.320312 74.429688 36.339844 74.296875 36.464844 74.21875 C 36.558594 74.160156 36.609375 74.070312 36.628906 73.96875 C 36.65625 73.773438 36.730469 73.617188 36.898438 73.488281 C 36.96875 73.4375 36.972656 73.304688 37.007812 73.210938 C 37.328125 72.953125 37.316406 72.484375 37.628906 72.222656 C 37.636719 72.136719 37.640625 72.054688 37.648438 71.96875 C 37.710938 71.78125 37.859375 71.648438 37.984375 71.503906 C 37.992188 71.421875 38 71.339844 38.003906 71.257812 C 38.320312 70.847656 38.5625 70.398438 38.726562 69.902344 C 38.804688 69.898438 38.878906 69.894531 38.957031 69.890625 C 39.035156 69.625 39.097656 69.355469 39.324219 69.167969 C 39.332031 69.085938 39.335938 69 39.34375 68.917969 C 39.476562 68.777344 39.621094 68.644531 39.683594 68.457031 C 39.6875 68.375 39.695312 68.289062 39.703125 68.207031 C 40.035156 67.953125 40.003906 67.476562 40.320312 67.214844 C 40.355469 67.070312 40.371094 66.921875 40.519531 66.828125 C 40.566406 66.800781 40.621094 66.742188 40.625 66.695312 C 40.65625 66.308594 41.058594 66.097656 41.078125 65.703125 C 41.085938 65.59375 41.207031 65.550781 41.304688 65.511719 C 41.347656 65.234375 41.417969 64.96875 41.667969 64.796875 C 41.691406 64.535156 41.839844 64.339844 42.011719 64.15625 C 42.019531 64.070312 42.023438 63.988281 42.027344 63.902344 C 42.164062 63.671875 42.355469 63.46875 42.382812 63.183594 C 42.53125 62.988281 42.722656 62.824219 42.714844 62.527344 C 42.707031 62.34375 42.898438 62.242188 43.015625 62.113281 C 43.039062 61.851562 43.1875 61.65625 43.359375 61.472656 C 43.367188 61.386719 43.371094 61.304688 43.375 61.21875 C 43.503906 60.984375 43.703125 60.78125 43.730469 60.5 L 43.734375 60.503906 C 43.84375 60.378906 43.976562 60.273438 44.039062 60.113281 C 44.011719 59.851562 44.082031 59.636719 44.3125 59.492188 C 44.417969 59.242188 44.476562 58.964844 44.695312 58.777344 C 44.703125 58.664062 44.710938 58.554688 44.71875 58.445312 C 44.921875 58.242188 44.882812 57.925781 45.070312 57.71875 C 45.324219 57.324219 45.410156 56.847656 45.695312 56.46875 C 45.710938 56.101562 46.007812 55.839844 46.058594 55.480469 C 46.058594 55.453125 46.0625 55.425781 46.0625 55.398438 C 46.097656 55.039062 46.421875 54.785156 46.414062 54.410156 L 46.414062 54.40625 C 46.550781 54.320312 46.554688 54.140625 46.683594 54.050781 C 46.777344 53.859375 46.707031 53.65625 46.730469 53.464844 C 46.75 53.320312 46.917969 53.285156 46.949219 53.15625 C 46.980469 53.125 47.003906 53.09375 47.035156 53.058594 L 47.039062 53.066406 C 47.15625 52.734375 47.15625 52.363281 47.390625 52.070312 C 47.398438 51.867188 47.40625 51.671875 47.414062 51.46875 C 47.636719 51.308594 47.566406 51.039062 47.636719 50.824219 C 47.832031 50.199219 48.023438 49.570312 48.085938 48.910156 C 48.117188 48.617188 48.214844 48.3125 48.386719 48.050781 C 48.390625 47.96875 48.398438 47.878906 48.402344 47.796875 C 48.578125 47.207031 48.566406 46.582031 48.738281 45.992188 C 48.765625 45.128906 48.757812 44.265625 48.738281 43.398438 C 48.507812 42.945312 48.570312 42.421875 48.390625 41.960938 C 48.386719 41.875 48.382812 41.789062 48.378906 41.703125 C 48.355469 41.671875 48.328125 41.636719 48.304688 41.609375 C 48.265625 41.488281 48.128906 41.449219 48.082031 41.332031 C 48.050781 41.21875 48.121094 41.085938 48.027344 40.980469 C 47.941406 40.886719 47.84375 40.804688 47.769531 40.703125 C 47.714844 40.519531 47.503906 40.492188 47.414062 40.339844 C 47.269531 40.246094 47.179688 40.09375 47.03125 40.007812 C 46.917969 40 46.804688 39.996094 46.695312 39.984375 C 45.707031 39.691406 44.714844 39.753906 43.726562 39.984375 C 43.609375 39.988281 43.496094 39.992188 43.375 39.996094 C 42.933594 40.128906 42.480469 40.238281 42.03125 40.351562 C 41.796875 40.496094 41.535156 40.617188 41.273438 40.652344 C 40.984375 40.683594 40.792969 40.832031 40.597656 41.007812 C 40.28125 41.066406 39.96875 41.144531 39.699219 41.332031 C 39.613281 41.335938 39.53125 41.339844 39.441406 41.34375 C 39.203125 41.464844 39.007812 41.671875 38.71875 41.6875 L 38.71875 41.691406 C 38.511719 41.886719 38.316406 42.082031 38.050781 42.191406 C 37.6875 42.3125 37.40625 42.605469 37.023438 42.683594 C 36.875 42.804688 36.75 42.960938 36.558594 43.027344 C 36.480469 43.035156 36.394531 43.046875 36.316406 43.054688 C 35.984375 43.296875 35.738281 43.652344 35.296875 43.742188 C 35.15625 43.769531 35.0625 43.914062 34.957031 44.019531 C 34.78125 44.191406 34.578125 44.324219 34.335938 44.382812 C 34.140625 44.695312 33.773438 44.777344 33.507812 45.003906 C 33.359375 45.136719 33.269531 45.398438 32.996094 45.371094 C 32.859375 45.472656 32.757812 45.609375 32.625 45.714844 L 32.632812 45.722656 C 32.167969 46.042969 31.863281 46.546875 31.355469 46.816406 C 31.3125 46.835938 31.335938 46.929688 31.285156 46.972656 C 30.890625 47.132812 30.671875 47.503906 30.371094 47.769531 C 30.125 47.984375 29.925781 48.257812 29.675781 48.476562 C 29.625 48.519531 29.621094 48.609375 29.589844 48.679688 C 29.335938 48.875 29.203125 49.183594 28.960938 49.390625 C 28.921875 49.519531 28.90625 49.65625 28.765625 49.722656 C 28.636719 49.785156 28.617188 49.898438 28.605469 50.023438 C 28.285156 50.316406 28.269531 50.703125 28.277344 51.097656 C 28.089844 51.289062 27.980469 51.546875 27.953125 51.785156 C 27.921875 52.066406 27.800781 52.253906 27.621094 52.4375 C 27.613281 52.519531 27.609375 52.605469 27.601562 52.6875 C 27.515625 52.835938 27.378906 52.941406 27.253906 53.058594 C 27.128906 53.09375 26.988281 53.113281 26.925781 53.253906 C 26.867188 53.382812 26.753906 53.40625 26.628906 53.417969 C 26.355469 53.6875 26.003906 53.738281 25.648438 53.78125 C 25.285156 54.035156 24.867188 53.851562 24.476562 53.910156 C 24.304688 53.9375 24.085938 53.953125 23.9375 53.78125 L 23.941406 53.78125 C 23.652344 53.753906 23.410156 53.636719 23.203125 53.4375 C 23.09375 53.429688 22.988281 53.417969 22.882812 53.410156 C 22.738281 53.316406 22.632812 53.175781 22.511719 53.058594 C 22.417969 52.972656 22.328125 52.882812 22.242188 52.789062 C 22.164062 52.605469 21.957031 52.53125 21.882812 52.34375 C 21.878906 52.222656 21.859375 52.109375 21.765625 52.015625 C 21.582031 51.835938 21.542969 51.601562 21.519531 51.359375 C 21.269531 50.703125 21.253906 50.046875 21.523438 49.386719 C 21.527344 49.273438 21.535156 49.15625 21.539062 49.042969 C 21.675781 48.71875 21.621094 48.328125 21.875 48.042969 C 21.882812 48.015625 21.890625 47.992188 21.890625 47.964844 C 21.972656 47.648438 22.191406 47.386719 22.246094 47.0625 L 22.246094 47.066406 C 22.589844 46.824219 22.53125 46.324219 22.875 46.082031 C 22.929688 45.878906 23.160156 45.820312 23.222656 45.628906 C 23.246094 45.523438 23.269531 45.417969 23.378906 45.375 C 23.550781 45.3125 23.558594 45.15625 23.597656 45.015625 C 23.828125 44.832031 23.957031 44.542969 24.203125 44.371094 L 24.210938 44.375 C 24.324219 44.246094 24.460938 44.148438 24.558594 44.007812 C 24.589844 43.875 24.648438 43.777344 24.753906 43.675781 C 25.15625 43.289062 25.511719 42.847656 25.933594 42.484375 C 26.246094 42.210938 26.472656 41.832031 26.878906 41.675781 C 27.023438 41.578125 27.128906 41.445312 27.253906 41.328125 L 27.25 41.324219 C 27.378906 41.214844 27.492188 41.085938 27.613281 40.972656 L 27.613281 40.96875 C 27.78125 40.714844 28.070312 40.59375 28.253906 40.359375 C 28.390625 40.316406 28.539062 40.300781 28.609375 40.140625 C 28.667969 39.996094 28.8125 40 28.941406 39.972656 C 29.085938 39.875 29.210938 39.757812 29.289062 39.597656 C 29.46875 39.355469 29.753906 39.230469 29.953125 39.011719 L 29.957031 39.019531 C 30.226562 38.976562 30.449219 38.863281 30.617188 38.644531 C 30.78125 38.425781 31.007812 38.3125 31.277344 38.269531 L 31.277344 38.277344 C 31.46875 38.007812 31.792969 37.902344 32.003906 37.660156 L 32.003906 37.65625 C 32.265625 37.628906 32.464844 37.492188 32.636719 37.304688 C 32.910156 37.011719 33.347656 36.972656 33.617188 36.671875 C 33.71875 36.574219 33.875 36.6875 33.972656 36.578125 L 33.96875 36.578125 C 34.0625 36.453125 34.246094 36.449219 34.328125 36.308594 C 34.425781 36.28125 34.546875 36.285156 34.609375 36.191406 C 34.710938 36.019531 34.917969 36.023438 35.046875 35.925781 C 35.339844 35.699219 35.714844 35.65625 36 35.425781 C 36.023438 35.410156 36.042969 35.375 36.070312 35.371094 C 36.394531 35.316406 36.644531 35.101562 36.933594 34.96875 C 37.132812 34.765625 37.46875 34.84375 37.664062 34.621094 C 37.773438 34.613281 37.886719 34.605469 37.996094 34.597656 C 38.195312 34.382812 38.441406 34.277344 38.730469 34.261719 C 38.8125 34.257812 38.898438 34.253906 38.988281 34.246094 C 39.21875 33.917969 39.558594 33.917969 39.90625 33.941406 C 40.101562 33.878906 40.28125 33.78125 40.433594 33.636719 C 40.519531 33.628906 40.605469 33.625 40.691406 33.621094 C 41.066406 33.542969 41.4375 33.464844 41.777344 33.28125 C 41.867188 33.273438 41.953125 33.269531 42.039062 33.265625 C 42.695312 33.113281 43.351562 32.988281 44.019531 32.925781 C 44.046875 32.921875 44.074219 32.917969 44.101562 32.910156 C 44.433594 32.675781 44.828125 32.742188 45.191406 32.738281 C 45.636719 32.738281 46.105469 32.644531 46.519531 32.910156 C 46.574219 32.914062 46.636719 32.917969 46.691406 32.925781 C 47.28125 32.929688 47.84375 33.101562 48.402344 33.265625 L 48.398438 33.28125 C 48.707031 33.460938 49.058594 33.511719 49.394531 33.621094 C 49.507812 33.628906 49.617188 33.636719 49.730469 33.640625 C 49.9375 33.824219 50.140625 34.007812 50.453125 33.949219 C 50.605469 34.015625 50.703125 34.148438 50.8125 34.265625 C 50.925781 34.304688 51.039062 34.335938 51.09375 34.457031 C 51.160156 34.601562 51.300781 34.601562 51.429688 34.628906 C 51.578125 34.71875 51.675781 34.859375 51.804688 34.96875 L 51.800781 34.976562 C 51.988281 35.210938 52.179688 35.4375 52.433594 35.597656 C 52.550781 35.722656 52.671875 35.835938 52.789062 35.957031 L 52.792969 35.953125 C 52.902344 36.082031 53.039062 36.1875 53.140625 36.320312 L 53.144531 36.316406 C 53.316406 36.492188 53.453125 36.691406 53.507812 36.9375 C 53.597656 36.96875 53.683594 37.003906 53.769531 37.03125 C 53.808594 37.289062 53.941406 37.492188 54.121094 37.671875 C 54.125 37.757812 54.132812 37.839844 54.140625 37.921875 C 54.367188 38.109375 54.460938 38.359375 54.488281 38.640625 L 54.480469 38.652344 C 54.648438 38.882812 54.738281 39.152344 54.792969 39.425781 C 54.824219 39.578125 54.894531 39.707031 54.9375 39.847656 C 55.054688 40.207031 55.226562 40.222656 55.488281 40.007812 C 55.617188 39.972656 55.757812 39.964844 55.816406 39.820312 C 55.871094 39.691406 55.992188 39.671875 56.105469 39.640625 C 56.3125 39.390625 56.605469 39.242188 56.820312 39.011719 C 56.96875 38.980469 57.113281 38.957031 57.183594 38.796875 C 57.230469 38.6875 57.34375 38.675781 57.441406 38.648438 C 57.570312 38.503906 57.71875 38.378906 57.894531 38.296875 C 57.976562 38.289062 58.058594 38.28125 58.140625 38.273438 C 58.339844 38.015625 58.671875 37.917969 58.871094 37.660156 L 58.875 37.664062 C 59.136719 37.632812 59.339844 37.5 59.507812 37.308594 L 59.496094 37.296875 C 59.636719 37.199219 59.722656 37.042969 59.882812 36.964844 C 59.96875 36.960938 60.054688 36.957031 60.136719 36.953125 C 60.214844 36.808594 60.410156 36.816406 60.484375 36.671875 L 60.488281 36.671875 C 60.59375 36.582031 60.746094 36.691406 60.84375 36.582031 C 60.960938 36.492188 61.074219 36.390625 61.179688 36.28125 C 61.339844 36.210938 61.433594 36.058594 61.582031 35.976562 C 61.664062 35.96875 61.746094 35.960938 61.828125 35.953125 C 62.003906 35.769531 62.203125 35.625 62.46875 35.613281 C 62.496094 35.613281 62.519531 35.609375 62.546875 35.601562 C 62.746094 35.363281 63.0625 35.332031 63.304688 35.167969 C 63.378906 35.097656 63.472656 35.054688 63.550781 34.988281 C 63.816406 34.96875 64.082031 34.949219 64.273438 34.714844 C 64.351562 34.617188 64.492188 34.636719 64.605469 34.613281 C 64.953125 34.613281 65.164062 34.265625 65.511719 34.273438 C 65.535156 34.265625 65.5625 34.257812 65.589844 34.253906 C 65.992188 33.972656 66.5 33.96875 66.9375 33.777344 C 67.035156 33.738281 67.140625 33.722656 67.203125 33.628906 L 67.207031 33.628906 C 67.578125 33.550781 67.953125 33.480469 68.289062 33.285156 C 68.378906 33.28125 68.464844 33.269531 68.550781 33.265625 C 68.972656 33.03125 69.464844 33.089844 69.90625 32.925781 C 70.230469 32.917969 70.550781 32.914062 70.875 32.910156 C 71.238281 32.738281 71.628906 32.8125 72.003906 32.769531 C 72.550781 32.703125 73.09375 32.746094 73.636719 32.792969 C 73.746094 32.800781 73.851562 32.824219 73.929688 32.914062 C 74.164062 32.917969 74.398438 32.925781 74.632812 32.929688 C 74.957031 33.066406 75.34375 33.023438 75.636719 33.261719 L 75.625 33.273438 C 75.996094 33.273438 76.257812 33.589844 76.613281 33.628906 L 76.617188 33.625 C 76.699219 33.765625 76.878906 33.773438 76.972656 33.894531 C 77.382812 33.863281 77.585938 34.285156 77.953125 34.347656 C 77.980469 34.546875 78.121094 34.609375 78.300781 34.625 C 78.4375 34.726562 78.550781 34.855469 78.667969 34.976562 C 78.84375 35.21875 79.058594 35.421875 79.289062 35.609375 C 79.335938 35.75 79.363281 35.894531 79.519531 35.964844 C 79.625 36.015625 79.644531 36.121094 79.664062 36.222656 C 79.796875 36.359375 79.925781 36.503906 80.019531 36.671875 C 80.328125 36.9375 80.308594 37.410156 80.636719 37.664062 C 80.640625 37.75 80.644531 37.835938 80.648438 37.921875 C 80.664062 38.210938 80.765625 38.457031 80.984375 38.65625 C 80.992188 38.769531 81 38.882812 81.007812 38.996094 C 81.261719 39.40625 81.277344 39.882812 81.371094 40.339844 L 81.371094 40.335938 C 81.449219 40.488281 81.535156 40.453125 81.628906 40.355469 C 81.808594 40.269531 81.890625 40.070312 82.070312 39.984375 C 82.335938 39.878906 82.480469 39.625 82.699219 39.46875 C 82.910156 39.316406 83.023438 39.042969 83.3125 38.992188 C 83.453125 38.894531 83.558594 38.761719 83.683594 38.648438 L 83.679688 38.644531 C 83.808594 38.535156 83.910156 38.398438 84.054688 38.300781 C 84.328125 38.207031 84.488281 37.964844 84.695312 37.789062 C 84.796875 37.703125 84.898438 37.671875 85.011719 37.648438 C 85.164062 37.558594 85.257812 37.414062 85.390625 37.308594 L 85.382812 37.304688 C 85.550781 37.109375 85.753906 36.984375 86.007812 36.941406 C 86.230469 36.710938 86.507812 36.550781 86.738281 36.332031 L 86.734375 36.332031 L 86.738281 36.328125 C 86.988281 36.277344 87.179688 36.128906 87.367188 35.972656 C 87.476562 35.964844 87.585938 35.953125 87.691406 35.945312 C 87.875 35.789062 88.089844 35.664062 88.246094 35.480469 C 88.285156 35.46875 88.324219 35.460938 88.367188 35.457031 C 88.503906 35.46875 88.578125 35.371094 88.667969 35.292969 C 88.777344 35.160156 88.929688 35.085938 89.0625 34.984375 L 89.066406 34.984375 C 89.066406 34.984375 89.066406 34.984375 89.0625 34.984375 C 89.335938 34.933594 89.59375 34.84375 89.789062 34.628906 C 89.898438 34.621094 90.011719 34.613281 90.125 34.609375 C 90.441406 34.535156 90.703125 34.308594 91.027344 34.253906 L 91.023438 34.253906 C 91.117188 34.125 91.296875 34.117188 91.382812 33.980469 C 91.503906 33.953125 91.625 33.925781 91.746094 33.898438 C 91.832031 33.765625 92.011719 33.753906 92.105469 33.632812 L 92.101562 33.632812 C 92.441406 33.527344 92.867188 33.675781 93.105469 33.28125 C 93.300781 33.273438 93.503906 33.265625 93.703125 33.253906 C 94.023438 33.003906 94.433594 33.050781 94.789062 32.914062 C 94.875 32.910156 94.964844 32.90625 95.050781 32.90625 C 95.332031 32.746094 95.660156 32.714844 95.953125 32.589844 C 96.324219 32.429688 96.707031 32.421875 97.097656 32.433594 C 97.296875 32.441406 97.394531 32.234375 97.582031 32.238281 C 98.691406 32.183594 99.792969 32.019531 100.910156 32.113281 C 101.191406 32.136719 101.449219 32.3125 101.742188 32.238281 C 102.070312 32.417969 102.402344 32.488281 102.78125 32.414062 C 102.890625 32.390625 103.082031 32.410156 103.175781 32.5625 C 103.367188 32.636719 103.570312 32.582031 103.769531 32.597656 C 103.960938 32.628906 104.039062 32.824219 104.199219 32.90625 C 104.3125 32.910156 104.425781 32.917969 104.535156 32.925781 C 104.808594 32.929688 105.003906 33.082031 105.1875 33.257812 L 105.179688 33.265625 C 105.457031 33.304688 105.671875 33.476562 105.894531 33.625 C 106.109375 33.960938 106.59375 33.867188 106.804688 34.203125 C 106.929688 34.363281 107.101562 34.46875 107.242188 34.609375 C 107.53125 34.625 107.636719 34.902344 107.804688 35.0625 C 107.953125 35.203125 108.222656 35.324219 108.21875 35.605469 C 108.480469 35.761719 108.53125 36.035156 108.59375 36.304688 C 108.683594 36.445312 108.828125 36.542969 108.910156 36.691406 C 108.933594 36.769531 109.023438 36.808594 109.042969 36.890625 C 109.148438 37.136719 108.902344 37.449219 109.195312 37.664062 L 109.210938 37.652344 C 109.332031 38.410156 109.449219 39.160156 109.367188 39.9375 C 109.339844 40.234375 109.160156 40.507812 109.253906 40.820312 C 109.0625 41.183594 108.976562 41.5625 109.054688 41.976562 C 108.96875 42.203125 108.882812 42.429688 108.859375 42.675781 C 108.855469 42.765625 108.851562 42.851562 108.847656 42.941406 C 108.675781 43.214844 108.566406 43.53125 108.558594 43.835938 C 108.542969 44.167969 108.433594 44.414062 108.234375 44.652344 C 108.226562 44.679688 108.222656 44.703125 108.21875 44.730469 C 108.128906 45.074219 108.105469 45.433594 107.878906 45.726562 C 107.871094 45.839844 107.863281 45.953125 107.855469 46.066406 C 107.828125 46.429688 107.503906 46.6875 107.507812 47.058594 C 107.328125 47.265625 107.253906 47.542969 107.214844 47.785156 C 107.171875 48.058594 107.058594 48.234375 106.878906 48.40625 L 106.867188 48.402344 C 106.867188 48.699219 106.640625 48.886719 106.53125 49.132812 C 106.527344 49.21875 106.519531 49.300781 106.511719 49.386719 C 106.332031 49.5625 106.179688 49.761719 106.179688 50.03125 C 106.171875 50.140625 106.164062 50.253906 106.15625 50.363281 C 105.988281 50.554688 105.820312 50.734375 105.839844 51.03125 C 105.847656 51.210938 105.65625 51.320312 105.539062 51.449219 L 105.53125 51.449219 C 105.519531 51.714844 105.359375 51.902344 105.199219 52.09375 C 105.191406 52.179688 105.1875 52.261719 105.179688 52.347656 C 105.042969 52.574219 104.851562 52.78125 104.824219 53.066406 L 104.824219 53.0625 C 104.574219 53.242188 104.488281 53.496094 104.46875 53.785156 C 104.132812 54.070312 104.117188 54.542969 103.84375 54.863281 C 103.839844 54.945312 103.835938 55.03125 103.828125 55.113281 C 103.644531 55.292969 103.492188 55.484375 103.492188 55.757812 C 103.484375 55.785156 103.476562 55.808594 103.472656 55.832031 C 103.160156 56.097656 103.1875 56.574219 102.855469 56.828125 L 102.851562 56.824219 C 102.820312 57.085938 102.667969 57.28125 102.507812 57.472656 C 102.5 57.554688 102.496094 57.636719 102.488281 57.71875 C 102.347656 57.945312 102.160156 58.148438 102.136719 58.4375 L 102.136719 58.441406 C 101.996094 58.519531 101.996094 58.707031 101.863281 58.789062 L 101.863281 58.792969 C 101.835938 59.078125 101.757812 59.335938 101.503906 59.507812 L 101.507812 59.511719 C 101.476562 59.769531 101.335938 59.96875 101.160156 60.148438 C 101.15625 60.230469 101.152344 60.320312 101.148438 60.40625 C 101.003906 60.632812 100.824219 60.839844 100.785156 61.121094 L 100.789062 61.117188 C 100.480469 61.308594 100.535156 61.71875 100.28125 61.941406 C 100.085938 62.117188 99.941406 62.332031 99.8125 62.5625 C 99.808594 62.644531 99.800781 62.730469 99.796875 62.816406 C 99.699219 62.949219 99.550781 63.046875 99.496094 63.214844 C 99.53125 63.488281 99.300781 63.621094 99.175781 63.808594 C 99.082031 63.910156 99.199219 64.066406 99.082031 64.164062 L 99.082031 64.160156 C 98.96875 64.238281 98.972656 64.40625 98.847656 64.472656 C 98.707031 64.601562 98.59375 64.75 98.476562 64.898438 C 98.46875 64.980469 98.460938 65.066406 98.453125 65.148438 C 98.328125 65.292969 98.183594 65.425781 98.113281 65.609375 C 98.109375 65.695312 98.101562 65.777344 98.097656 65.863281 C 97.800781 66.136719 97.785156 66.589844 97.472656 66.851562 C 97.4375 66.980469 97.425781 67.121094 97.28125 67.1875 C 97.15625 67.246094 97.132812 67.363281 97.109375 67.480469 C 96.980469 67.621094 96.832031 67.75 96.769531 67.941406 C 96.765625 68.027344 96.757812 68.109375 96.753906 68.195312 C 96.496094 68.414062 96.472656 68.777344 96.25 69.019531 C 96.066406 69.175781 95.941406 69.378906 95.789062 69.5625 C 95.777344 69.667969 95.765625 69.777344 95.757812 69.882812 C 95.585938 70.066406 95.453125 70.269531 95.40625 70.523438 L 95.402344 70.515625 C 95.277344 70.597656 95.0625 70.554688 95.085938 70.828125 C 95.105469 71.003906 94.90625 71.117188 94.792969 71.246094 L 94.796875 71.246094 C 94.753906 71.5 94.621094 71.703125 94.445312 71.882812 C 94.4375 71.992188 94.425781 72.101562 94.417969 72.207031 C 94.332031 72.367188 94.171875 72.464844 94.09375 72.632812 C 93.734375 72.851562 93.761719 73.328125 93.445312 73.566406 C 93.414062 73.714844 93.382812 73.855469 93.230469 73.933594 C 93.128906 73.988281 93.117188 74.101562 93.089844 74.199219 C 92.949219 74.332031 92.808594 74.464844 92.742188 74.660156 C 92.738281 74.742188 92.734375 74.828125 92.730469 74.914062 C 92.628906 75.097656 92.40625 75.203125 92.414062 75.449219 C 92.417969 75.660156 92.1875 75.527344 92.117188 75.640625 C 92.105469 75.722656 92.097656 75.804688 92.085938 75.886719 C 92 76.035156 91.84375 76.125 91.757812 76.269531 C 91.75 76.351562 91.742188 76.433594 91.738281 76.515625 C 91.605469 76.660156 91.476562 76.796875 91.386719 76.972656 C 91.222656 77.15625 91.070312 77.347656 91.03125 77.601562 C 90.902344 77.664062 90.910156 77.84375 90.785156 77.90625 C 90.644531 78.035156 90.535156 78.1875 90.414062 78.332031 C 90.40625 78.414062 90.402344 78.496094 90.394531 78.578125 C 90.269531 78.726562 90.132812 78.859375 90.042969 79.03125 C 90.035156 79.199219 89.925781 79.265625 89.78125 79.304688 C 89.71875 79.546875 89.589844 79.753906 89.421875 79.933594 C 89.386719 80.074219 89.375 80.222656 89.214844 80.296875 C 89.074219 80.363281 89.078125 80.507812 89.046875 80.632812 C 88.890625 80.824219 88.738281 81.015625 88.691406 81.265625 C 88.691406 81.265625 88.695312 81.261719 88.695312 81.261719 L 88.6875 81.265625 C 88.527344 81.328125 88.355469 81.351562 88.363281 81.605469 C 88.367188 81.769531 88.183594 81.867188 88.074219 81.992188 C 88.042969 82.117188 88.027344 82.253906 87.894531 82.328125 C 87.78125 82.390625 87.746094 82.503906 87.710938 82.617188 C 87.515625 82.777344 87.394531 82.988281 87.347656 83.238281 L 87.355469 83.246094 C 87.128906 83.558594 87.042969 83.953125 86.78125 84.246094 C 86.625 84.375 86.507812 84.539062 86.382812 84.695312 C 86.375 84.777344 86.371094 84.859375 86.359375 84.941406 C 86.230469 85.085938 86.078125 85.210938 86.023438 85.40625 C 86.019531 85.492188 86.015625 85.574219 86.007812 85.660156 C 85.707031 85.929688 85.679688 86.375 85.390625 86.652344 L 85.390625 86.648438 C 85.347656 86.929688 85.257812 87.183594 85.035156 87.375 C 85.027344 87.457031 85.023438 87.539062 85.011719 87.625 C 84.789062 87.8125 84.695312 88.066406 84.664062 88.34375 C 84.5 88.554688 84.4375 88.847656 84.308594 89.027344 C 84.046875 89.382812 84.019531 89.773438 83.894531 90.148438 C 83.839844 90.246094 83.769531 90.332031 83.691406 90.414062 C 83.683594 90.496094 83.675781 90.578125 83.664062 90.660156 C 83.457031 90.859375 83.347656 91.105469 83.324219 91.394531 C 83.121094 91.578125 83.070312 91.859375 83.035156 92.082031 C 82.992188 92.363281 82.859375 92.546875 82.695312 92.738281 L 82.691406 92.734375 C 82.644531 93.089844 82.382812 93.367188 82.335938 93.722656 C 82.332031 93.808594 82.328125 93.894531 82.328125 93.984375 C 82.179688 94.242188 81.988281 94.480469 81.980469 94.796875 C 81.980469 94.855469 81.976562 94.914062 81.976562 94.972656 C 81.625 95.285156 81.691406 95.777344 81.480469 96.152344 C 81.4375 96.226562 81.421875 96.332031 81.347656 96.40625 L 81.34375 96.40625 C 81.367188 96.789062 81.023438 97.039062 80.996094 97.398438 C 80.992188 97.484375 80.988281 97.574219 80.984375 97.660156 C 80.832031 97.917969 80.632812 98.15625 80.648438 98.476562 C 80.640625 98.5625 80.636719 98.648438 80.628906 98.734375 C 80.496094 99.023438 80.355469 99.304688 80.3125 99.632812 C 80.273438 99.917969 80.164062 100.195312 80.019531 100.449219 C 80.011719 100.652344 80.003906 100.855469 80 101.058594 C 79.925781 101.515625 79.765625 101.957031 79.660156 102.410156 L 79.640625 102.40625 C 79.335938 102.769531 79.566406 103.203125 79.480469 103.59375 C 79.488281 103.875 79.40625 104.167969 79.566406 104.433594 C 79.601562 104.460938 79.628906 104.5 79.679688 104.5 C 81.292969 104.515625 82.902344 104.804688 84.519531 104.675781 C 85.328125 104.613281 86.121094 104.578125 86.925781 104.636719 C 88.015625 104.667969 89.097656 104.652344 90.179688 104.644531 C 90.886719 104.640625 91.59375 104.710938 92.300781 104.679688 C 92.730469 104.660156 93.160156 104.558594 93.59375 104.628906 C 94.371094 104.710938 95.148438 104.652344 95.921875 104.652344 C 98.410156 104.648438 100.894531 104.648438 103.382812 104.652344 C 103.679688 104.652344 103.976562 104.632812 104.273438 104.613281 C 105.472656 104.628906 106.667969 104.5625 107.867188 104.628906 C 108.757812 104.679688 109.644531 104.648438 110.53125 104.628906 C 110.796875 104.621094 111.011719 104.476562 111.265625 104.476562 C 111.351562 104.472656 111.4375 104.46875 111.523438 104.464844 C 111.824219 104.269531 112.171875 104.191406 112.515625 104.109375 L 112.511719 104.109375 C 112.757812 103.765625 113.246094 103.8125 113.5 103.480469 L 113.496094 103.472656 C 113.828125 103.292969 114.023438 102.96875 114.289062 102.722656 C 114.589844 102.46875 114.90625 102.226562 114.949219 101.789062 L 114.949219 101.792969 C 115.117188 101.597656 115.3125 101.410156 115.253906 101.113281 C 115.257812 101.066406 115.273438 101.027344 115.296875 100.992188 C 115.480469 100.886719 115.402344 100.71875 115.390625 100.570312 C 115.433594 99.898438 115.390625 99.226562 115.398438 98.550781 C 115.363281 97.925781 115.355469 97.292969 114.945312 96.761719 C 114.90625 96.480469 114.8125 96.230469 114.597656 96.03125 C 114.585938 95.949219 114.578125 95.871094 114.570312 95.785156 C 114.449219 95.636719 114.300781 95.511719 114.226562 95.328125 C 114.222656 95.246094 114.214844 95.164062 114.214844 95.085938 C 114.023438 95.027344 113.871094 94.9375 113.863281 94.707031 C 113.777344 94.617188 113.679688 94.53125 113.601562 94.433594 C 113.503906 94.265625 113.378906 94.125 113.246094 93.984375 C 113.230469 93.761719 113.207031 93.539062 113.03125 93.371094 C 113.011719 93.351562 112.984375 93.328125 112.980469 93.300781 C 112.875 92.617188 112.75 91.925781 113.074219 91.265625 C 113.152344 91.105469 113.234375 90.953125 113.246094 90.769531 C 113.304688 90.570312 113.535156 90.511719 113.59375 90.316406 C 113.6875 90.226562 113.78125 90.144531 113.855469 90.039062 L 113.851562 90.039062 C 113.925781 89.871094 114.109375 89.820312 114.222656 89.6875 L 114.214844 89.683594 C 114.359375 89.558594 114.492188 89.417969 114.675781 89.339844 C 114.730469 89.335938 114.789062 89.332031 114.847656 89.328125 C 115.042969 89.101562 115.28125 88.957031 115.589844 89.019531 C 115.820312 89.070312 116.003906 88.914062 116.222656 88.90625 C 116.824219 88.878906 117.375 89.046875 117.898438 89.328125 C 118.179688 89.308594 118.296875 89.5625 118.457031 89.707031 C 118.851562 90.0625 119.207031 90.460938 119.574219 90.847656 C 119.605469 90.886719 119.601562 90.960938 119.613281 91.019531 C 119.695312 91.171875 119.847656 91.261719 119.949219 91.398438 C 119.976562 91.515625 120 91.632812 120.121094 91.691406 C 120.261719 91.757812 120.28125 91.890625 120.308594 92.023438 C 120.566406 92.1875 120.625 92.457031 120.675781 92.730469 C 120.753906 92.828125 120.855469 92.90625 120.929688 93.011719 C 120.9375 93.039062 120.941406 93.066406 120.945312 93.089844 C 120.949219 93.359375 121.132812 93.539062 121.28125 93.734375 C 121.289062 93.84375 121.296875 93.957031 121.304688 94.066406 C 121.503906 94.371094 121.5625 94.722656 121.652344 95.0625 C 121.8125 95.3125 121.953125 95.585938 121.957031 95.871094 C 121.964844 96.367188 122.105469 96.8125 122.328125 97.246094 C 122.351562 98.21875 122.492188 99.183594 122.460938 100.160156 Z M 122.460938 100.160156 "/>
</g>
</svg>
