<svg width="512" height="512" viewBox="0 0 512 512" fill="none" xmlns="http://www.w3.org/2000/svg">
<rect width="512" height="512" rx="256" fill="#090903"/>
<path d="M326.871 261.118C327.77 269.672 326.872 278.331 324.23 286.599C321.587 294.867 317.25 302.584 311.468 309.307C305.685 316.031 298.57 321.63 290.528 325.785C282.486 329.94 273.675 332.569 264.598 333.523C255.521 334.478 246.356 333.737 237.626 331.345C228.896 328.953 220.772 324.955 213.718 319.581C206.664 314.207 200.818 307.561 196.514 300.022C192.21 292.484 189.531 284.201 188.632 275.647L257.752 268.382L326.871 261.118Z" fill="url(#paint0_radial_707_234)"/>
<path d="M392.608 268.632C391.804 277.745 390.09 286.776 387.479 295.59C382.351 312.903 373.862 329.037 362.499 343.07C351.135 357.102 337.119 368.759 321.25 377.375C305.382 385.991 287.971 391.397 270.013 393.285C252.056 395.172 233.902 393.504 216.589 388.375C199.276 383.247 183.142 374.759 169.11 363.396C155.077 352.032 143.419 338.016 134.804 322.147C130.417 314.069 126.863 305.591 124.182 296.845L165.086 292.545C166.511 296.13 168.151 299.634 169.999 303.038C176.105 314.284 184.367 324.219 194.313 332.273C204.258 340.326 215.693 346.342 227.963 349.977C240.234 353.612 253.1 354.794 265.827 353.456C278.555 352.119 290.895 348.287 302.141 342.181C313.388 336.074 323.322 327.812 331.375 317.867C339.429 307.921 345.445 296.486 349.08 284.216C350.18 280.502 351.055 276.734 351.704 272.931L392.608 268.632Z" fill="white" fill-opacity="0.9"/>
<path d="M242.057 119.712C259.123 118.035 276.292 119.57 292.69 124.177C303.314 127.162 307.826 139.13 303.334 149.21C298.843 159.29 287.029 163.595 276.246 161.248C266.346 159.093 256.13 158.486 245.965 159.485C229.139 161.138 213.032 167.137 199.223 176.893C185.415 186.649 174.379 199.826 167.199 215.133C162.886 224.329 160.053 234.103 158.766 244.096L424.706 216.145C426.784 235.918 412.439 253.632 392.666 255.711L86.4253 287.898C86.3858 287.902 86.35 287.873 86.3458 287.834C84.2737 268.117 98.5638 250.451 118.272 248.352C118.275 248.03 118.288 247.704 118.31 247.376C119.446 230.382 123.735 213.686 131.017 198.161C141.139 176.583 156.696 158.005 176.163 144.252C195.629 130.499 218.336 122.042 242.057 119.712Z" fill="white" fill-opacity="0.9"/>
<path d="M379.385 150.763C379.849 151.662 380.021 152.683 379.878 153.684C379.735 154.685 379.284 155.617 378.587 156.35L364.36 171.524L366.854 192.176C366.968 193.176 366.773 194.187 366.295 195.073C365.818 195.959 365.081 196.678 364.183 197.133C363.285 197.587 362.27 197.756 361.273 197.617C360.276 197.477 359.346 197.036 358.607 196.352L343.434 182.118L322.784 184.607C321.784 184.721 320.773 184.526 319.887 184.048C319.001 183.571 318.282 182.833 317.828 181.935C317.373 181.037 317.204 180.021 317.343 179.024C317.482 178.027 317.923 177.097 318.607 176.358L332.835 161.186L330.34 140.532C330.227 139.532 330.421 138.521 330.899 137.635C331.376 136.748 332.113 136.03 333.011 135.575C333.909 135.121 334.925 134.952 335.921 135.091C336.918 135.231 337.848 135.672 338.587 136.356L353.763 150.589L374.41 148.1C375.413 147.972 376.431 148.16 377.323 148.637C378.214 149.114 378.935 149.858 379.385 150.763Z" fill="white" fill-opacity="0.9"/>
<defs>
<radialGradient id="paint0_radial_707_234" cx="0" cy="0" r="1" gradientUnits="userSpaceOnUse" gradientTransform="translate(257.752 268.382) rotate(84) scale(65.5 69.5)">
<stop stop-color="#EBD4C2"/>
<stop offset="0.794735" stop-color="#FBF9F0" stop-opacity="0.1"/>
<stop offset="1" stop-color="#FBF9F0" stop-opacity="0"/>
</radialGradient>
</defs>
</svg>
