<svg width="512" height="512" viewBox="0 0 512 512" fill="none" xmlns="http://www.w3.org/2000/svg">
<path d="M448.362 272.471C447.24 285.187 444.847 297.791 441.204 310.09C434.048 334.25 422.203 356.765 406.346 376.348C390.488 395.93 370.928 412.198 348.784 424.221C326.64 436.244 302.343 443.788 277.283 446.422C252.224 449.056 226.891 446.727 202.731 439.571C178.571 432.414 156.056 420.57 136.474 404.712C116.891 388.855 100.623 369.295 88.5997 347.151C82.479 335.878 77.5197 324.046 73.7775 311.841L72.7101 308.36L76.3322 307.979L132.523 302.073L134.783 301.835L135.624 303.948C137.538 308.762 139.738 313.468 142.219 318.037C150.419 333.14 161.515 346.481 174.87 357.296C188.226 368.111 203.58 376.19 220.058 381.071C236.536 385.952 253.815 387.541 270.906 385.744C287.998 383.948 304.568 378.801 319.671 370.601C334.774 362.401 348.115 351.307 358.93 337.951C369.745 324.596 377.823 309.239 382.704 292.761C384.181 287.775 385.356 282.715 386.228 277.609L386.609 275.367L388.871 275.13L445.061 269.224L448.683 268.843L448.362 272.471ZM238.275 64.6545C262.09 62.3146 286.048 64.457 308.931 70.885C325.575 75.5609 332.27 94.1485 325.483 109.381C318.592 124.846 300.723 131.074 284.894 127.629C271.598 124.735 257.879 123.919 244.229 125.26C221.633 127.48 200.002 135.537 181.458 148.638C162.915 161.739 148.094 179.435 138.452 199.99C133.204 211.18 129.587 223.009 127.669 235.116L489.152 197.123L492.136 196.81L492.449 199.793C495.477 228.603 474.577 254.412 445.768 257.441L25.0929 301.656L25.0734 301.657C23.3994 301.822 21.8684 300.613 21.6876 298.899V298.898C18.7579 271.022 38.2723 245.96 65.6652 241.699C67.3618 218.367 73.315 195.457 83.3185 174.13C97.4431 144.018 119.153 118.093 146.318 98.9006C173.483 79.7083 205.173 67.9071 238.275 64.6545Z" fill="#0B0B0A" fill-opacity="0.9" stroke="white" stroke-width="6"/>
<path d="M362.604 87.6465C364.202 86.8375 366.009 86.5373 367.783 86.7856C369.445 87.0183 371.004 87.7227 372.276 88.8123L372.526 89.0346L372.535 89.0442L392.7 107.957L420.137 104.651L420.136 104.651C421.922 104.426 423.734 104.761 425.321 105.61C426.903 106.457 428.184 107.773 428.988 109.377L429.137 109.68C429.852 111.208 430.107 112.914 429.868 114.589C429.614 116.371 428.811 118.029 427.572 119.335L408.668 139.5L411.982 166.942L411.983 166.955C412.186 168.734 411.839 170.534 410.99 172.11C410.14 173.687 408.828 174.966 407.231 175.775C405.633 176.584 403.826 176.884 402.052 176.636C400.279 176.387 398.624 175.602 397.309 174.385L397.299 174.376L377.137 155.462L349.699 158.77L349.685 158.772C347.906 158.974 346.107 158.627 344.531 157.777C342.954 156.927 341.676 155.615 340.866 154.017C340.057 152.42 339.756 150.612 340.004 148.839C340.252 147.065 341.037 145.41 342.253 144.095L342.262 144.085L361.167 123.924L357.854 96.4797L357.852 96.4653C357.649 94.6861 357.996 92.8875 358.846 91.3111C359.695 89.7346 361.007 88.4556 362.604 87.6465Z" fill="#FFC53D" stroke="white" stroke-width="4"/>
</svg>
