<svg width="512" height="512" viewBox="0 0 512 512" fill="none" xmlns="http://www.w3.org/2000/svg">
<path d="M423.624 271.225C422.643 282.326 420.554 293.329 417.371 304.066C411.119 325.158 400.77 344.813 386.916 361.908C373.062 379.004 355.974 393.204 336.628 403.701C317.281 414.197 296.055 420.783 274.162 423.082C252.269 425.382 230.137 423.349 209.03 417.102C187.923 410.854 168.253 400.514 151.145 386.67C134.037 372.827 119.825 355.752 109.321 336.42C103.973 326.578 99.6404 316.25 96.371 305.595L146.24 300.357C147.977 304.724 149.976 308.993 152.229 313.139C159.674 326.841 169.747 338.943 181.872 348.755C193.997 358.566 207.937 365.895 222.897 370.323C237.856 374.751 253.542 376.191 269.059 374.562C284.575 372.932 299.62 368.264 313.331 360.825C327.043 353.386 339.153 343.321 348.972 331.205C358.791 319.088 366.125 305.158 370.556 290.209C371.897 285.685 372.964 281.094 373.755 276.462L423.624 271.225Z" fill="black"/>
<path d="M240.079 89.8028C260.885 87.76 281.817 89.631 301.808 95.2426C314.761 98.8788 320.262 113.459 314.786 125.739C309.309 138.019 294.907 143.264 281.761 140.405C269.691 137.78 257.236 137.04 244.844 138.256C224.33 140.271 204.693 147.579 187.858 159.464C171.023 171.349 157.569 187.402 148.816 206.05C143.558 217.253 140.104 229.16 138.535 241.334L462.756 207.282C465.29 231.371 447.801 252.952 423.695 255.483L50.3403 294.695C50.2921 294.7 50.2485 294.665 50.2435 294.617C47.7172 270.597 65.139 249.076 89.166 246.519C89.1703 246.126 89.1854 245.729 89.2121 245.33C90.598 224.627 95.8264 204.287 104.704 185.374C117.044 159.086 136.011 136.454 159.744 119.7C183.476 102.945 211.16 92.6423 240.079 89.8028Z" fill="black"/>
<path d="M407.503 127.631C408.069 128.726 408.279 129.97 408.105 131.19C407.93 132.409 407.38 133.544 406.531 134.437L389.186 152.923L392.225 178.082C392.364 179.301 392.127 180.532 391.545 181.612C390.963 182.691 390.064 183.567 388.969 184.121C387.875 184.675 386.637 184.88 385.421 184.71C384.206 184.54 383.072 184.003 382.171 183.17L363.673 165.829L338.498 168.862C337.279 169 336.046 168.763 334.966 168.181C333.886 167.599 333.01 166.7 332.455 165.606C331.901 164.512 331.695 163.275 331.864 162.06C332.034 160.846 332.572 159.712 333.405 158.812L350.751 140.329L347.71 115.167C347.571 113.948 347.809 112.717 348.391 111.637C348.973 110.558 349.872 109.682 350.966 109.128C352.061 108.575 353.299 108.369 354.514 108.539C355.729 108.709 356.864 109.246 357.764 110.079L376.265 127.419L401.438 124.387C402.661 124.231 403.902 124.46 404.989 125.041C406.076 125.623 406.955 126.528 407.503 127.631Z" fill="black"/>
</svg>
