<svg width="968" height="376" viewBox="0 0 968 376" fill="none" xmlns="http://www.w3.org/2000/svg">
<path d="M908.989 29.2936C908.989 23.6936 913.529 19.1539 919.129 19.1539C924.729 19.1539 929.269 23.6936 929.269 29.2936V119.994C929.269 125.594 924.729 130.134 919.129 130.134C913.529 130.134 908.989 125.594 908.989 119.994V29.2936ZM929.269 149.1C933.4 149.1 936.154 148.536 937.531 147.41C939.033 146.158 939.784 143.654 939.784 139.898V13.5198C939.784 7.29751 944.828 2.25339 951.051 2.25339C957.273 2.25339 962.317 7.29752 962.317 13.5198V149.1C962.317 154.983 961.441 159.678 959.688 163.183C958.061 166.689 955.307 169.192 951.426 170.695C947.545 172.322 942.163 173.136 935.278 173.136H925.632C919.892 173.136 914.952 169.055 913.852 163.421C912.405 156.011 918.075 149.1 925.625 149.1H929.269ZM838.387 39.9978C838.387 36.1605 841.497 33.0498 845.335 33.0498H869.181C873.018 33.0498 876.129 36.1605 876.129 39.9978C876.129 43.835 873.018 46.9457 869.181 46.9457H845.335C841.497 46.9457 838.387 43.835 838.387 39.9978ZM825.806 81.7794C825.806 77.7866 829.043 74.5498 833.036 74.5498H880.729C884.722 74.5498 887.959 77.7866 887.959 81.7794C887.959 85.7723 884.722 89.0091 880.729 89.0091H833.036C829.043 89.0091 825.806 85.7723 825.806 81.7794ZM802.306 153.43C799.801 149.524 799.807 144.544 802.116 140.52C804.58 136.226 806.531 132.388 807.968 129.007C810.096 123.874 811.598 117.865 812.474 110.98C813.35 104.094 813.788 94.8929 813.788 83.3756V63.2647C813.788 56.6373 819.161 51.2647 825.788 51.2647H885.911C892.538 51.2647 897.911 56.6373 897.911 63.2647V99.7308C897.911 106.358 892.538 111.731 885.911 111.731H833.411C828.796 111.731 825.055 107.99 825.055 103.374C825.055 98.7594 828.796 95.0181 833.411 95.0181H865.256C871.883 95.0181 877.256 89.6455 877.256 83.0181V80.9163C877.256 74.2889 871.883 68.9163 865.256 68.9163H847.007C840.379 68.9163 835.007 74.2889 835.007 80.9163V96.7082C835.007 105.972 834.131 114.297 832.378 121.683C830.751 129.069 828.247 136.205 824.867 143.091C821.619 149.837 817.125 157.642 811.384 166.508C811.361 166.542 811.28 166.563 811.238 166.563C811.171 166.563 811.161 166.619 811.141 166.683C811.134 166.705 811.125 166.727 811.114 166.748C811.06 166.859 810.909 166.841 810.843 166.738L802.306 153.43ZM825.055 129.74C825.055 123.112 830.427 117.74 837.055 117.74H887.976C894.604 117.74 899.976 123.112 899.976 129.74V153.812C899.976 160.44 894.604 165.812 887.976 165.812H845.71C840.318 165.812 835.946 161.44 835.946 156.048C835.946 150.655 840.318 146.283 845.71 146.283H873.782C876.737 146.283 879.133 143.887 879.133 140.931C879.133 137.975 876.737 135.579 873.782 135.579H858.085C851.458 135.579 846.085 140.952 846.085 147.579V160.743C846.085 166.55 841.378 171.258 835.57 171.258C829.763 171.258 825.055 166.55 825.055 160.743V129.74ZM800.836 50.0539C798.791 44.9397 800.868 39.1383 805.469 36.1109C811.967 31.8362 818.182 26.9976 824.116 21.595C830.439 15.7431 835.696 10.2115 839.884 5.00002C842.341 1.94366 845.981 0 849.902 0H861.684C864.353 0 866.953 0.879431 869.016 2.57276C870.373 3.68704 871.805 4.89507 873.313 6.19683C876.192 8.45023 879.196 10.8914 882.326 13.5204C889.178 19.1741 895.386 24.4762 900.949 29.4265C905.109 33.1282 905.589 39.4204 902.144 43.7958C898.058 48.9869 890.284 49.2781 885.636 44.5831C883.928 42.8575 882.136 41.0786 880.26 39.2466C874.877 33.8635 869.369 28.543 863.736 23.2851C862.359 21.908 861.045 20.6561 859.793 19.5294C858.09 17.8265 855.287 17.9836 853.735 19.8246C848.291 26.2799 841.86 33.0043 834.444 39.9978C828.976 45.1486 823.157 50.0737 816.988 54.7731C811.407 59.024 803.441 56.5676 800.836 50.0539Z" fill="black"/>
<path d="M856.882 210.376C863.26 210.376 868.43 215.546 868.43 221.924C868.43 228.302 863.26 233.473 856.882 233.473H815.761C809.383 233.473 804.212 228.302 804.212 221.924C804.212 215.546 809.383 210.376 815.761 210.376H856.882ZM797.967 301.594C796.259 297.682 796.846 293.174 799.275 289.664C805.398 280.817 810.674 271.037 815.103 260.326C819.202 250.543 822.331 241.037 824.489 231.809C825.75 226.415 830.433 222.394 835.973 222.394C842.883 222.394 848.2 228.543 846.661 235.28C843.75 248.024 839.302 260.941 833.317 274.034C828.312 284.904 822.819 294.822 816.837 303.787C812.01 311.021 801.446 309.564 797.967 301.594ZM820.217 267.853C822.409 264.339 826.257 262.204 830.399 262.204H853.989C860.617 262.204 865.989 267.576 865.989 274.204V345.785C865.989 352.413 860.617 357.785 853.989 357.785H834.632C828.306 357.785 823.177 352.657 823.177 346.33V345.015C823.177 339.415 827.717 334.876 833.317 334.876C838.917 334.876 843.457 330.336 843.457 324.736V289.714C843.457 287.276 841.481 285.301 839.044 285.301C836.607 285.301 834.631 287.276 834.631 289.714V353.936C834.631 360.21 829.545 365.296 823.271 365.296C816.997 365.296 811.911 360.21 811.911 353.936V284.605C811.911 282.36 812.541 280.16 813.729 278.255L820.217 267.853ZM952.27 210.563C958.649 210.563 963.819 215.734 963.819 222.112C963.819 228.49 958.649 233.661 952.27 233.661H885.237C878.859 233.661 873.688 228.49 873.688 222.112C873.688 215.734 878.859 210.563 885.237 210.563H952.27ZM955.65 277.79C962.028 277.79 967.199 282.96 967.199 289.338C967.199 295.716 962.028 300.887 955.65 300.887H881.857C875.479 300.887 870.308 295.716 870.308 289.338C870.308 282.96 875.479 277.79 881.857 277.79H955.65ZM871.068 368.92C865.439 364.672 864.701 356.528 869.006 350.944C871.969 347.102 874.28 343.624 875.941 340.509C878.946 334.75 880.823 328.679 881.575 322.294C882.451 315.909 882.889 305.957 882.889 292.437C882.889 290.559 882.889 288.681 882.889 286.803C882.889 284.8 882.889 282.735 882.889 280.606V232.815C882.889 226.541 887.975 221.455 894.249 221.455C900.523 221.455 905.609 226.541 905.609 232.815V278.541C905.609 299.072 905.171 313.969 904.295 323.233C903.544 332.497 901.416 341.01 897.911 348.772C895.587 354.109 892.109 360.067 887.476 366.647C883.729 371.97 876.263 372.842 871.068 368.92ZM937.249 222.018C943.523 222.018 948.609 227.104 948.609 233.378V362.199C948.609 368.473 943.523 373.559 937.249 373.559C930.975 373.559 925.889 368.473 925.889 362.199V233.378C925.889 227.104 930.975 222.018 937.249 222.018Z" fill="black"/>
<path d="M128.54 242.944C135.881 242.944 141.532 249.488 140.047 256.677C135.855 276.966 129.625 293.518 121.357 306.333C111.295 321.93 97.837 334.004 80.9832 342.557C66.2703 350.136 47.3101 356.629 24.1024 362.036C18.7398 363.285 13.2612 360.591 10.8514 355.64L1.21957 335.85C-2.28678 328.646 2.12274 320.11 9.95883 318.44C27.8686 314.623 42.236 309.958 53.0614 304.447C67.1481 297.403 76.8326 289.102 82.1151 279.543C85.9655 272.393 88.6144 263.972 90.0594 254.282C91.0015 247.965 96.1808 242.944 102.567 242.944H128.54ZM395.954 297.256C396.896 290.782 402.769 286.154 409.272 286.869L420.431 288.095C426.835 288.799 431.552 294.433 430.884 300.84C430.045 308.879 428.873 317.754 427.366 327.464C426.072 336.847 424.726 345.19 423.328 352.493C422.123 358.786 415.999 362.758 409.702 361.578L397.317 359.255C390.501 357.977 386.194 351.207 387.683 344.434C389.315 337.016 390.845 329.095 392.275 320.672C393.701 312.119 394.927 304.314 395.954 297.256ZM650.438 19.9458C657.066 19.9458 662.438 25.3185 662.438 31.9458V59.979C662.438 65.5849 666.983 70.1293 672.589 70.1294C671.911 70.8061 671.37 71.6132 671.002 72.5083C670.438 73.8805 670.308 75.3927 670.629 76.8413C670.949 78.2899 671.705 79.6064 672.795 80.6128C673.885 81.6192 675.257 82.2674 676.726 82.4712L701.567 85.7446C705.087 86.2085 708.222 88.2072 710.127 91.2036L723.572 112.354C724.154 113.256 724.927 114.012 725.829 114.576C725.829 116.078 724.611 117.295 723.109 117.295H674.438C667.811 117.295 662.438 122.668 662.438 129.295V158.498C662.438 165.125 667.811 170.497 674.438 170.498H704.018C710.646 170.498 716.018 175.87 716.018 182.498V349.045C716.018 355.673 710.646 361.045 704.018 361.045H684.249C677.622 361.045 672.249 355.673 672.249 349.045V347.388C672.249 340.761 666.876 335.388 660.249 335.388H625.387C618.759 335.388 613.387 340.761 613.387 347.388V349.045C613.387 355.673 608.014 361.045 601.387 361.045H582.372C575.745 361.045 570.372 355.673 570.372 349.045V182.498C570.372 175.87 575.745 170.498 582.372 170.498H604.027C610.655 170.498 616.027 165.125 616.027 158.498V31.9458C616.027 25.3186 621.4 19.9459 628.027 19.9458H650.438ZM227.459 242.944C234.086 242.944 239.459 248.317 239.459 254.944V302.561C239.459 308.095 240.214 311.491 241.723 312.749C243.233 313.755 246.881 314.257 252.666 314.257H270.022C277.317 314.257 281.971 313.377 283.983 311.617C286.247 309.856 287.253 305.705 287.002 299.165C287.002 297.915 287.261 296.675 287.351 295.429C287.37 295.175 287.379 294.91 287.379 294.637C287.63 290.864 287.882 286.713 288.134 282.185C288.163 281.917 288.194 281.648 288.223 281.378C289.004 274.333 295.66 269.459 302.604 270.883L323.876 275.247C329.603 276.421 333.66 281.554 333.408 287.394C332.931 298.455 332.304 308.165 331.526 316.522C330.52 327.338 328.13 335.513 324.357 341.047C320.584 346.833 314.924 350.984 307.378 353.5C300.083 356.015 290.146 357.273 277.569 357.273H238.327C226.505 357.273 217.071 356.015 210.028 353.5C203.237 350.984 198.205 346.707 194.935 340.67C191.665 334.885 190.03 326.709 190.03 316.144V254.944C190.03 248.317 195.403 242.944 202.03 242.944H227.459ZM460.518 287.683C467.183 286.943 473.161 291.819 473.796 298.495C475.667 318.184 477.094 332.814 478.079 342.385C478.77 349.105 473.893 355.234 467.178 355.964L456.756 357.097C450.127 357.818 444.199 353.004 443.6 346.363C442.707 336.458 441.405 321.598 439.692 301.783C439.132 295.295 443.849 289.535 450.32 288.816L460.518 287.683ZM499.541 284.088C505.526 283.432 511.077 287.314 512.483 293.168C516.126 308.331 519.132 321.587 521.504 332.936C522.899 339.615 518.336 346.029 511.586 347.026L502.519 348.366C496.006 349.328 489.938 344.862 488.838 338.371C486.855 326.678 484.451 313.627 481.625 299.217C480.268 292.296 485.102 285.672 492.113 284.903L499.541 284.088ZM538.244 278.598C544.116 277.41 549.972 280.733 551.909 286.402C555.432 296.713 558.442 305.999 560.938 314.257C562.167 318.226 563.254 321.769 564.198 324.886C566.178 331.42 562.185 338.187 555.536 339.734L547.338 341.64C540.74 343.174 534.173 338.868 532.262 332.37C531.004 327.842 529.62 323.187 528.111 318.408C526.35 312.119 524.463 305.956 522.451 299.919C521.987 298.528 521.53 297.157 521.08 295.806C518.801 288.969 523.021 281.679 530.085 280.25L538.244 278.598ZM625.387 218.417C618.759 218.418 613.387 223.79 613.387 230.417V276.6C613.387 283.227 618.759 288.6 625.387 288.6H660.249C666.876 288.6 672.249 283.228 672.249 276.6V230.417C672.249 223.79 666.876 218.417 660.249 218.417H625.387ZM544.033 22.9644C550.66 22.9644 556.033 28.3371 556.033 34.9644V153.969C556.033 160.597 550.66 165.969 544.033 165.969H505.661C501.389 165.969 497.926 169.433 497.926 173.705C497.926 177.977 501.389 181.44 505.661 181.44H548.183C554.811 181.44 560.183 186.813 560.183 193.44V206.794C560.183 213.422 554.811 218.794 548.183 218.794H505.473C501.305 218.795 497.926 222.173 497.926 226.341C497.926 230.509 501.305 233.888 505.473 233.888H549.693C556.321 233.888 561.693 239.261 561.693 245.888V258.866C561.693 265.493 556.321 270.866 549.693 270.866H401.634C395.006 270.866 389.634 265.493 389.634 258.866V245.888C389.634 239.261 395.006 233.888 401.634 233.888H450.005C454.173 233.888 457.552 230.509 457.552 226.341C457.551 222.173 454.173 218.794 450.005 218.794H409.934C403.307 218.794 397.934 213.422 397.934 206.794V193.44C397.935 186.813 403.307 181.44 409.934 181.44H449.816C454.088 181.44 457.552 177.977 457.552 173.705C457.551 169.433 454.088 165.969 449.816 165.969H411.444C404.817 165.969 399.444 160.597 399.444 153.969V34.9644C399.444 28.3371 404.817 22.9644 411.444 22.9644H544.033ZM316.885 192.382C323.512 192.382 328.884 197.755 328.885 204.382V247.923C328.885 254.551 323.512 259.923 316.885 259.923H291.078C284.451 259.923 279.078 254.551 279.078 247.923V242.115C279.078 235.487 273.705 230.115 267.078 230.115H64.6844C58.0572 230.115 52.6846 235.488 52.6844 242.115V247.923C52.6844 254.551 47.3118 259.923 40.6844 259.923H15.6327C9.00532 259.923 3.63266 254.551 3.63266 247.923V204.382C3.63283 197.755 9.00542 192.382 15.6327 192.382H316.885ZM441.231 114.191C439.896 108.865 432.648 109.811 432.648 115.302V124.688C432.648 128.107 435.42 130.878 438.839 130.878H455.091C459.368 130.878 462.835 127.411 462.835 123.134C462.835 117.848 457.656 114.116 452.641 115.788L447.398 117.535C444.741 118.42 441.912 116.908 441.231 114.191ZM523.206 85.2886C523.206 85.0713 522.902 85.0178 522.829 85.2222C521.823 88.7437 520.69 92.3915 519.432 96.1646C517.923 100.441 516.289 104.718 514.528 108.994C513.824 110.703 513.14 112.373 512.476 114.002C510.901 117.869 506.459 119.705 502.625 118.052L501.844 117.715C497.314 115.763 492.265 119.085 492.265 124.017C492.266 127.807 495.338 130.878 499.128 130.878H516.271C520.101 130.878 523.206 127.774 523.206 123.944V85.2886ZM709.278 16.2104C710.726 15.89 712.238 16.0214 713.61 16.5854C714.982 17.1495 716.149 18.1201 716.954 19.3667L730.404 40.5181C732.309 43.5135 735.442 45.5122 738.962 45.9761L763.8 49.2495C765.278 49.4339 766.663 50.074 767.762 51.0815C768.86 52.0893 769.617 53.4148 769.928 54.8726C770.261 56.3254 770.133 57.8462 769.562 59.2231C768.992 60.6002 768.006 61.7652 766.743 62.5562L745.601 76.0073C742.606 77.9128 740.609 81.0465 740.145 84.5659L736.875 109.411C736.671 110.88 736.023 112.253 735.017 113.343C734.011 114.434 732.695 115.19 731.247 115.51C729.799 115.831 728.287 115.699 726.915 115.135C726.536 114.979 726.173 114.791 725.829 114.576V82.1294C725.829 75.5021 720.456 70.1294 713.829 70.1294H672.589C672.95 69.7687 673.349 69.4443 673.782 69.1646L694.924 55.7192C697.92 53.8138 699.918 50.679 700.381 47.1587L703.65 22.3101C703.854 20.8404 704.503 19.4676 705.509 18.3774C706.515 17.2874 707.83 16.5309 709.278 16.2104ZM438.876 58.4321C435.437 58.4322 432.648 61.2205 432.648 64.6597C432.648 69.0899 437.144 72.1035 441.242 70.4204L443.51 69.4897C447.664 67.7837 452.401 69.8931 453.908 74.1235C455.574 78.801 457.292 83.6329 459.061 88.6187C459.762 90.5941 462.835 90.0966 462.835 88.0005V63.9897C462.835 60.9208 460.347 58.4322 457.278 58.4321H438.876ZM499.217 58.4321C495.378 58.4324 492.265 61.5452 492.265 65.3843V84.5913C492.265 88.1131 496.844 88.9518 497.926 85.6001L501.955 74.4077C503.473 70.1909 508.153 68.0372 512.344 69.6265L514.735 70.5337C518.827 72.0852 523.206 69.0621 523.206 64.686C523.206 61.2323 520.406 58.4321 516.952 58.4321H499.217ZM182.558 17.6167C187.16 17.2126 191.455 20.0166 192.671 24.4731C193.677 26.9884 194.683 29.6302 195.689 32.397C195.859 32.9132 196.026 33.4224 196.19 33.9233C197.809 38.862 202.414 42.2075 207.611 42.2075H318.771C325.399 42.2075 330.771 47.5802 330.771 54.2075V70.2036C330.771 76.831 325.399 82.2036 318.771 82.2036H13.368C6.74067 82.2035 1.36801 76.831 1.36801 70.2036V54.2075C1.36818 47.5803 6.74077 42.2076 13.368 42.2075H140.332C140.527 42.2075 140.665 42.0148 140.6 41.8306C139.091 36.7998 137.456 31.3913 135.695 25.606C135.111 23.6586 136.463 21.6657 138.488 21.4878L182.558 17.6167Z" fill="black"/>
<path d="M255.791 98.0801C276.955 98.0803 294.112 115.237 294.112 136.401C294.112 157.566 276.955 174.723 255.791 174.724H75.9724C54.8078 174.724 37.6501 157.566 37.6501 136.401C37.6503 115.237 54.8079 98.0801 75.9724 98.0801H255.791ZM102.503 123.137C95.1767 123.137 89.2382 129.075 89.238 136.401C89.238 143.728 95.1766 149.667 102.503 149.667H229.26C236.586 149.667 242.525 143.728 242.525 136.401C242.525 129.075 236.586 123.137 229.26 123.137H102.503Z" fill="black"/>
</svg>
