<svg width="512" height="512" viewBox="0 0 512 512" fill="none" xmlns="http://www.w3.org/2000/svg">
<path d="M512 512H-0.000457764V0H512V512ZM351.704 272.932C351.055 276.734 350.18 280.502 349.08 284.216C345.445 296.486 339.429 307.922 331.376 317.867C323.322 327.813 313.388 336.074 302.141 342.181C290.895 348.287 278.555 352.118 265.828 353.456C253.1 354.794 240.234 353.612 227.963 349.978C215.693 346.343 204.259 340.326 194.313 332.272C184.368 324.219 176.105 314.285 169.999 303.038C168.151 299.634 166.512 296.13 165.086 292.546L124.181 296.845C126.863 305.591 130.417 314.069 134.803 322.147C143.419 338.016 155.077 352.033 169.11 363.396C183.142 374.76 199.276 383.248 216.589 388.376C233.902 393.504 252.056 395.172 270.013 393.285C287.971 391.398 305.382 385.991 321.251 377.375C337.119 368.759 351.135 357.103 362.499 343.07C373.862 329.038 382.351 312.904 387.479 295.591C390.09 286.777 391.803 277.744 392.608 268.632L351.704 272.932ZM292.69 124.177C276.292 119.57 259.123 118.034 242.057 119.711C218.337 122.042 195.629 130.499 176.163 144.252C156.696 158.005 141.139 176.583 131.017 198.161C123.735 213.686 119.446 230.382 118.309 247.376C118.287 247.704 118.276 248.03 118.272 248.353C98.5642 250.451 84.2744 268.116 86.3462 287.833C86.3504 287.873 86.3858 287.902 86.4253 287.897L392.667 255.711C412.44 253.632 426.784 235.918 424.706 216.145L158.766 244.096C160.053 234.103 162.887 224.328 167.2 215.133C174.38 199.826 185.415 186.648 199.223 176.893C213.032 167.137 229.139 161.138 245.965 159.484C256.13 158.486 266.346 159.093 276.247 161.248C287.03 163.595 298.843 159.29 303.335 149.21C307.826 139.13 303.314 127.162 292.69 124.177ZM335.92 135.091C334.924 134.952 333.909 135.121 333.011 135.575C332.113 136.03 331.376 136.749 330.899 137.635C330.422 138.521 330.227 139.532 330.341 140.532L332.835 161.187L318.606 176.358C317.923 177.097 317.483 178.028 317.343 179.024C317.204 180.021 317.373 181.037 317.828 181.935C318.282 182.833 319.001 183.571 319.887 184.049C320.773 184.526 321.784 184.721 322.784 184.607L343.434 182.117L358.607 196.352C359.346 197.035 360.276 197.477 361.273 197.616C362.27 197.756 363.285 197.587 364.183 197.133C365.081 196.678 365.818 195.959 366.295 195.073C366.773 194.187 366.967 193.176 366.853 192.176L364.361 171.524L378.587 156.35C379.284 155.617 379.735 154.685 379.878 153.684C380.021 152.683 379.849 151.661 379.385 150.763C378.935 149.857 378.214 149.114 377.323 148.637C376.431 148.16 375.413 147.973 374.41 148.101L353.762 150.589L338.587 136.356C337.849 135.673 336.917 135.23 335.92 135.091Z" fill="#090903"/>
</svg>
