<svg width="512" height="512" viewBox="0 0 512 512" fill="none" xmlns="http://www.w3.org/2000/svg">
<rect width="512" height="512" rx="80" fill="white"/>
<path d="M86 393.906V118.549C86 116.676 86.7678 115.606 88.5596 115.606C115.012 115.606 141.451 114 167.911 114C210.843 114 257.332 128.963 273.626 174.745C277.466 185.984 279.513 197.49 279.513 209.533C279.513 232.545 274.394 251.544 264.155 266.53C235.555 308.39 185.982 307.741 141.545 307.741V393.637C141.893 396.181 139.767 397.384 137.706 397.384H89.0717C87.024 397.384 86 396.315 86 393.906ZM141.801 167.253V257.163C159.421 258.48 177.858 258.622 194.787 252.882C213.477 247.387 223.712 230.898 223.712 211.138C224.233 194.301 215.231 178.144 199.908 172.069C183.182 164.98 159.857 164.555 141.801 167.253Z" fill="url(#paint0_linear_36_112)"/>
<path d="M314.211 184.26H359.134C361.61 184.284 363.835 186.071 364.489 188.57C367.781 196.211 368.188 205.427 368.199 213.676C375.903 204.298 385.191 196.486 395.604 190.626C406.771 184.022 419.43 180.673 432.258 180.933C434.388 180.614 436.272 182.585 435.968 184.809V236.94C435.968 238.954 434.59 239.956 431.846 239.956C412.833 238.585 383.231 243.281 369.415 258.913V394.46C369.415 397.045 368.317 398.338 366.119 398.338H317.921C315.554 398.692 313.465 396.466 313.8 394.029V246.849C313.8 227.129 314.209 206.813 311.328 187.277C310.884 185.479 312.529 183.807 314.211 184.26Z" fill="url(#paint1_linear_36_112)"/>
<defs>
<linearGradient id="paint0_linear_36_112" x1="182.757" y1="114" x2="182.757" y2="397.384" gradientUnits="userSpaceOnUse">
<stop stop-color="#B37FEB"/>
<stop offset="1" stop-color="#722ED1"/>
</linearGradient>
<linearGradient id="paint1_linear_36_112" x1="373.627" y1="180.899" x2="373.627" y2="398.375" gradientUnits="userSpaceOnUse">
<stop stop-color="#B37FEB"/>
<stop offset="1" stop-color="#722ED1"/>
</linearGradient>
</defs>
</svg>
