<svg width="512" height="512" viewBox="0 0 512 512" fill="none" xmlns="http://www.w3.org/2000/svg">
<rect width="512" height="512" rx="80" fill="white"/>
<path d="M86 382.292V126.23C86 124.489 86.7279 123.493 88.4263 123.493C113.499 123.493 138.561 122 163.639 122C204.336 122 248.399 135.915 263.844 178.487C267.484 188.939 269.424 199.639 269.424 210.838C269.424 232.239 264.572 249.906 254.867 263.842C227.756 302.768 180.769 302.163 138.65 302.163V382.044C138.979 384.409 136.964 385.527 135.011 385.527H88.9115C86.9706 385.527 86 384.531 86 382.292ZM138.891 171.52V255.132C155.593 256.355 173.068 256.488 189.115 251.152C206.831 246.04 216.533 230.707 216.533 212.331C217.023 196.674 208.493 181.65 193.969 176C178.115 169.407 156.005 169.012 138.891 171.52Z" fill="url(#paint0_linear_36_123)"/>
<path d="M420.753 238.614C413.412 234.743 405.592 231.913 397.509 230.199C387.123 227.756 346.158 219.196 346.142 240.616C346.506 252.574 365.489 258.433 373.876 261.849C403.321 271.958 436.641 290.028 435.986 326.353C436.887 371.573 393.073 389.651 355.517 389.656C335.966 389.857 315.598 386.829 297.705 378.436C295.995 377.531 294.897 375.599 294.97 373.628V330.359C294.777 328.624 296.64 327.108 298.096 328.356C315.627 338.958 336.407 344.107 356.69 344.382C365.643 344.382 383.386 343.515 383.253 330.359C383.253 317.735 362.026 311.931 353.564 308.724C341.298 304.347 329.669 298.28 318.994 290.696C304.075 280.054 294.717 262.993 294.97 244.222C294.883 201.644 335.213 182.532 371.534 182.524C388.512 182.382 406.747 183.64 422.552 190.536C424.825 191.204 425.295 193.6 425.287 195.744V236.209C425.43 238.722 422.641 239.576 420.753 238.614Z" fill="url(#paint1_linear_36_123)"/>
<defs>
<linearGradient id="paint0_linear_36_123" x1="177.712" y1="122" x2="177.712" y2="385.527" gradientUnits="userSpaceOnUse">
<stop stop-color="#4BD4F2"/>
<stop offset="1" stop-color="#1394BF"/>
</linearGradient>
<linearGradient id="paint1_linear_36_123" x1="365.478" y1="182.513" x2="365.478" y2="389.665" gradientUnits="userSpaceOnUse">
<stop stop-color="#4BD4F2"/>
<stop offset="1" stop-color="#1394BF"/>
</linearGradient>
</defs>
</svg>
