<svg width="512" height="512" viewBox="0 0 512 512" fill="none" xmlns="http://www.w3.org/2000/svg">
<rect width="512" height="512" rx="80" fill="white"/>
<path d="M268.398 154.065L205.918 259.836L272.764 372.151C274.153 374.697 272.764 375.261 270.75 375.261H223.051C219.691 375.261 217.339 375.139 215.996 372.841C211.512 363.883 207.034 354.982 202.558 346.139C198.076 337.299 193.317 328.284 188.283 319.094C183.244 309.91 178.261 300.609 173.334 291.188C168.853 300.376 163.868 309.563 159.058 318.75C154.24 327.939 149.481 337.068 144.781 346.139C140.079 355.215 135.264 364.23 130.337 373.184C129.44 375.252 127.87 375.465 125.634 375.465H79.6142C77.806 375.465 77.5878 374.105 78.6066 372.496L143.438 263.28L80.2856 153.72C79.1385 152.157 80.1257 150.492 81.9656 150.619H129.329C131.38 150.504 133.192 151.277 134.368 153.031C138.399 162.22 142.878 171.408 147.804 180.593C152.727 189.782 157.711 198.856 162.753 207.811C167.792 216.769 172.775 225.841 177.029 235.03C181.505 225.614 186.041 216.427 190.633 207.467C195.222 198.509 199.924 189.494 204.742 180.422C209.556 171.351 214.202 162.336 218.682 153.376C219.277 151.411 220.701 150.415 222.713 150.619H266.717C268.398 150.619 269.092 152.913 268.398 154.065Z" fill="url(#paint0_linear_39_1024)"/>
<path d="M364.802 379.733C335.178 380.197 304.148 367.998 288.55 340.974C280.935 328 277.128 311.751 277.129 292.223C277.002 276.411 280.942 260.843 288.55 247.09C308.181 211.999 347.729 198.851 385.293 202.302V134.43C385.293 132.825 385.966 132.018 387.309 132.018H429.634C430.791 131.849 431.814 132.898 431.65 134.085V337.701C431.65 346.101 432.483 354.473 432.994 362.851C433.077 364.282 432.249 365.698 430.977 366.297C410.066 375.243 387.438 379.63 364.802 379.733ZM385.293 337.011V242.956C354.612 234.432 324.825 257.801 324.829 290.156C324.101 323.607 352.936 346.718 385.293 337.011Z" fill="url(#paint1_linear_39_1024)"/>
<defs>
<linearGradient id="paint0_linear_39_1024" x1="175.662" y1="150.593" x2="175.662" y2="375.465" gradientUnits="userSpaceOnUse">
<stop stop-color="#FF85C0"/>
<stop offset="1" stop-color="#9E0F68"/>
</linearGradient>
<linearGradient id="paint1_linear_39_1024" x1="355.063" y1="132" x2="355.063" y2="379.746" gradientUnits="userSpaceOnUse">
<stop stop-color="#FF85C0"/>
<stop offset="1" stop-color="#9E0F68"/>
</linearGradient>
</defs>
</svg>
