<svg width="512" height="512" viewBox="0 0 512 512" fill="none" xmlns="http://www.w3.org/2000/svg">
<rect width="512" height="512" rx="80" fill="white"/>
<path d="M378.209 303.212C391.733 301.565 421.557 298.021 426.867 304.859C432.174 311.573 420.927 339.82 415.871 352.358C414.355 356.159 417.641 357.678 421.053 354.765C443.296 336.019 449.11 296.878 444.561 291.179C440.009 285.608 400.959 280.793 377.197 297.513C373.532 300.172 374.164 303.72 378.209 303.212Z" fill="#FAAD14"/>
<path d="M255.616 371.737C307.561 371.737 367.971 355.395 409.552 324.618C416.376 319.551 410.436 311.826 403.484 314.992C356.849 334.751 306.17 344.379 260.039 344.379C191.666 344.379 125.567 325.507 71.9832 294.348C67.3036 291.561 63.7663 296.374 67.6827 299.921C117.227 344.758 182.819 371.737 255.616 371.737Z" fill="#FAAD14"/>
<path d="M173.088 226.709C173.088 231.397 173.593 235.195 174.477 237.982C175.6 241.117 176.953 244.164 178.524 247.101C179.154 248.115 179.407 249.129 179.407 250.015C179.407 251.283 178.649 252.551 177.005 253.816L169.044 259.136C167.907 259.895 166.767 260.276 165.758 260.276C164.492 260.276 163.23 259.641 161.967 258.501C160.263 256.667 158.739 254.674 157.415 252.549C156.002 250.115 154.695 247.621 153.496 245.074C143.64 256.729 131.253 262.556 116.341 262.556C105.724 262.556 97.2589 259.516 91.0655 253.437C84.872 247.357 81.7113 239.247 81.7113 229.117C81.7113 218.349 85.5021 209.61 93.2119 203.024C100.922 196.436 111.159 193.145 124.179 193.145C128.474 193.145 132.898 193.524 137.575 194.157C142.249 194.792 147.052 195.804 152.108 196.944V187.697C152.108 178.071 150.085 171.358 146.166 167.431C142.124 163.505 135.298 161.607 125.567 161.607C121.144 161.607 116.595 162.111 111.918 163.251C107.271 164.361 102.71 165.801 98.268 167.56C96.8309 168.204 95.3533 168.754 93.8445 169.207C92.9609 169.458 92.3282 169.586 91.8211 169.586C90.0537 169.586 89.1675 168.32 89.1675 165.659V159.453C89.1675 157.427 89.4236 155.905 90.0537 155.022C90.6838 154.133 91.8211 153.247 93.591 152.358C98.0145 150.078 103.324 148.18 109.515 146.659C115.708 145.014 122.284 144.251 129.233 144.251C144.273 144.251 155.266 147.673 162.343 154.512C169.295 161.351 172.835 171.74 172.835 185.671V226.709H173.088ZM121.776 245.963C125.946 245.963 130.244 245.203 134.793 243.684C139.342 242.162 143.387 239.375 146.798 235.577C148.822 233.169 150.338 230.51 151.096 227.47C151.855 224.43 152.359 220.757 152.359 216.451V211.131C148.527 210.197 144.646 209.479 140.733 208.98C136.793 208.477 132.825 208.222 128.853 208.216C120.386 208.216 114.192 209.863 110.022 213.283C105.852 216.705 103.829 221.517 103.829 227.849C103.829 233.802 105.345 238.236 108.506 241.276C111.539 244.442 115.962 245.963 121.774 245.963H121.776ZM223.261 259.641C220.986 259.641 219.47 259.262 218.458 258.376C217.449 257.615 216.563 255.84 215.804 253.435L186.105 155.526C185.347 152.99 184.968 151.346 184.968 150.46C184.968 148.434 185.977 147.294 188.001 147.294H200.385C202.788 147.294 204.432 147.673 205.316 148.559C206.327 149.32 207.083 151.095 207.844 153.5L229.078 237.349L248.792 153.5C249.423 150.964 250.181 149.32 251.192 148.559C252.204 147.799 253.972 147.294 256.249 147.294H266.358C268.761 147.294 270.403 147.673 271.414 148.559C272.426 149.32 273.31 151.095 273.815 153.5L293.783 238.364L315.649 153.5C316.405 150.964 317.289 149.32 318.175 148.559C319.187 147.799 320.829 147.294 323.106 147.294H334.857C336.881 147.294 338.018 148.306 338.018 150.46C338.018 151.092 337.892 151.725 337.764 152.486C337.567 153.566 337.271 154.626 336.881 155.652L306.423 253.565C305.663 256.099 304.779 257.743 303.767 258.504C302.758 259.265 301.114 259.772 298.965 259.772H288.097C285.694 259.772 284.05 259.39 283.041 258.504C282.031 257.618 281.145 255.971 280.641 253.437L261.051 171.742L241.587 253.312C240.955 255.845 240.196 257.492 239.185 258.378C238.176 259.265 236.406 259.644 234.131 259.644L223.261 259.641ZM385.665 263.063C379.092 263.063 372.52 262.302 366.201 260.783C359.882 259.262 354.954 257.615 351.668 255.714C349.644 254.575 348.256 253.307 347.749 252.169C347.257 251.051 346.999 249.844 346.99 248.622V242.162C346.99 239.503 348.002 238.236 349.898 238.236C350.656 238.236 351.414 238.364 352.172 238.615C352.93 238.871 354.068 239.375 355.333 239.883C359.797 241.85 364.457 243.335 369.236 244.314C374.29 245.328 379.22 245.835 384.274 245.835C392.237 245.835 398.431 244.442 402.726 241.655C407.024 238.868 409.299 234.816 409.299 229.622C409.299 226.077 408.161 223.164 405.887 220.757C403.612 218.349 399.314 216.198 393.121 214.171L374.797 208.47C365.571 205.558 358.745 201.252 354.575 195.55C350.405 189.977 348.256 183.77 348.256 177.185C348.256 171.865 349.393 167.178 351.668 163.126C353.942 159.074 356.975 155.526 360.768 152.739C364.559 149.827 368.854 147.673 373.911 146.154C378.967 144.633 384.274 144 389.835 144C392.616 144 395.523 144.128 398.303 144.507C401.21 144.886 403.863 145.393 406.517 145.901C409.045 146.533 411.447 147.166 413.722 147.924C415.996 148.687 417.766 149.445 419.029 150.206C420.799 151.221 422.064 152.232 422.823 153.372C423.581 154.386 423.96 155.78 423.96 157.552V163.507C423.96 166.169 422.948 167.562 421.053 167.562C420.041 167.562 418.399 167.055 416.25 166.041C409.045 162.749 400.956 161.102 391.984 161.102C384.781 161.102 379.092 162.242 375.176 164.647C371.257 167.055 369.236 170.728 369.236 175.922C369.236 179.467 370.499 182.505 373.027 184.913C375.555 187.321 380.229 189.728 386.927 191.88L404.875 197.581C413.976 200.494 420.545 204.548 424.464 209.74C428.383 214.932 430.279 220.885 430.279 227.473C430.279 232.918 429.141 237.859 426.992 242.165C424.718 246.47 421.685 250.272 417.766 253.312C413.848 256.478 409.173 258.757 403.738 260.404C398.051 262.177 392.109 263.063 385.665 263.063Z" fill="#434343"/>
</svg>
