<svg width="512" height="512" viewBox="0 0 512 512" fill="none" xmlns="http://www.w3.org/2000/svg">
<rect width="512" height="512" rx="80" fill="white"/>
<path d="M196.014 86.0041H302.541L191.955 413.658C190.819 417.025 188.655 419.95 185.768 422.023C182.882 424.095 179.418 425.211 175.865 425.211H92.9601C90.2677 425.212 87.6139 424.571 85.2183 423.342C82.8227 422.113 80.7541 420.332 79.1836 418.145C77.6132 415.958 76.586 413.428 76.1871 410.766C75.7883 408.103 76.0291 405.383 76.8898 402.832L179.919 97.5577C181.055 94.1894 183.219 91.2624 186.107 89.189C188.994 87.1156 192.459 86.0043 196.014 86.0041Z" fill="url(#paint0_linear_35_104)"/>
<path d="M350.814 305.772H181.887C180.317 305.771 178.782 306.242 177.483 307.125C176.184 308.008 175.181 309.261 174.605 310.722C174.029 312.183 173.906 313.784 174.253 315.316C174.599 316.848 175.399 318.24 176.548 319.31L285.096 420.625C288.257 423.573 292.418 425.212 296.74 425.212H392.393L350.814 305.772Z" fill="#3F96FF"/>
<path d="M196.014 86.0045C192.42 85.9907 188.916 87.1263 186.014 89.2454C183.112 91.3645 180.963 94.3561 179.882 97.7831L77.0164 402.555C76.0979 405.115 75.8095 407.859 76.1757 410.554C76.5419 413.25 77.5519 415.817 79.1202 418.04C80.6886 420.262 82.7692 422.074 85.186 423.323C87.6028 424.571 90.2847 425.219 93.0049 425.212H178.049C181.217 424.646 184.177 423.249 186.628 421.165C189.079 419.08 190.933 416.383 192 413.347L212.514 352.891L285.787 421.235C288.858 423.775 292.71 425.179 296.695 425.212H391.991L350.196 305.773L228.355 305.801L302.926 86.0045H196.014Z" fill="url(#paint1_linear_35_104)"/>
<path d="M332.076 97.5416C330.941 94.1788 328.78 91.2566 325.897 89.1869C323.014 87.1171 319.554 86.004 316.005 86.0044H197.282C200.831 86.0046 204.291 87.1179 207.174 89.1876C210.056 91.2573 212.218 94.1791 213.353 97.5416L316.386 402.829C317.247 405.38 317.489 408.1 317.09 410.764C316.692 413.427 315.665 415.957 314.094 418.145C312.524 420.333 310.455 422.115 308.059 423.345C305.663 424.574 303.009 425.216 300.316 425.216H419.043C421.736 425.215 424.389 424.573 426.785 423.343C429.18 422.113 431.249 420.331 432.819 418.143C434.389 415.956 435.415 413.426 435.813 410.763C436.212 408.099 435.97 405.38 435.109 402.829L332.076 97.5416Z" fill="url(#paint2_linear_35_104)"/>
<defs>
<linearGradient id="paint0_linear_35_104" x1="234.84" y1="111.141" x2="124.209" y2="437.972" gradientUnits="userSpaceOnUse">
<stop stop-color="#69B1FF"/>
<stop offset="1" stop-color="#003EB3"/>
</linearGradient>
<linearGradient id="paint1_linear_35_104" x1="269.398" y1="263.453" x2="243.807" y2="272.106" gradientUnits="userSpaceOnUse">
<stop stop-opacity="0.3"/>
<stop offset="0.071" stop-opacity="0.2"/>
<stop offset="0.321" stop-opacity="0.1"/>
<stop offset="0.623" stop-opacity="0.05"/>
<stop offset="1" stop-opacity="0"/>
</linearGradient>
<linearGradient id="paint2_linear_35_104" x1="255.324" y1="101.608" x2="376.764" y2="425.146" gradientUnits="userSpaceOnUse">
<stop stop-color="#3F96FF"/>
<stop offset="1" stop-color="#003EB3"/>
</linearGradient>
</defs>
</svg>
