<svg width="512" height="512" viewBox="0 0 512 512" fill="none" xmlns="http://www.w3.org/2000/svg">
<rect width="512" height="512" rx="80" fill="white"/>
<path d="M416.292 181.84C416.29 175.787 414.995 170.438 412.377 165.847C409.806 161.333 405.954 157.55 400.788 154.558C358.146 129.971 315.463 105.458 272.835 80.8455C261.343 74.2108 250.2 74.4527 238.793 81.1827C221.82 91.1924 136.843 139.877 111.522 154.544C101.093 160.581 96.0188 169.82 96.0163 181.829C96 231.276 96.0163 280.722 96 330.17C96 336.09 97.242 341.335 99.7447 345.857C102.318 350.508 106.223 354.395 111.508 357.455C136.831 372.121 221.819 420.803 238.788 430.815C250.2 437.549 261.343 437.789 272.839 431.152C315.468 406.538 358.154 382.027 400.802 357.44C406.087 354.382 409.992 350.492 412.565 345.844C415.064 341.323 416.309 336.078 416.309 330.156C416.309 330.156 416.309 231.288 416.292 181.84Z" fill="#9154DE"/>
<path d="M256.644 255.517L99.7448 345.857C102.318 350.507 106.223 354.395 111.508 357.454C136.831 372.121 221.819 420.802 238.788 430.815C250.2 437.548 261.343 437.789 272.839 431.152C315.468 406.538 358.154 382.027 400.802 357.439C406.087 354.381 409.992 350.491 412.565 345.844L256.644 255.517Z" fill="#391085"/>
<path d="M416.292 181.841C416.29 175.788 414.995 170.439 412.377 165.848L256.644 255.518L412.565 345.845C415.064 341.323 416.306 336.079 416.309 330.157C416.309 330.157 416.309 231.289 416.292 181.841Z" fill="#541DAB"/>
<path d="M349.022 221.746V238.632H365.908V221.746H374.351V238.632H391.237V247.075H374.351V263.961H391.237V272.404H374.351V289.29H365.908V272.404H349.022V289.29H340.579V272.404H323.693V263.961H340.579V247.075H323.693V238.632H340.579V221.746H349.022ZM365.908 247.075H349.022V263.961H365.908V247.075Z" fill="white"/>
<path d="M256.989 136.94C301.033 136.94 339.487 160.86 360.083 196.415L359.882 196.073L308.062 225.91C297.852 208.624 279.135 196.958 257.665 196.717L256.989 196.714C224.247 196.714 197.702 223.257 197.702 255.999C197.702 266.706 200.557 276.743 205.521 285.412C215.74 303.252 234.951 315.285 256.989 315.285C279.162 315.285 298.482 303.099 308.65 285.068L308.403 285.501L360.145 315.476C339.774 350.73 301.847 374.576 258.315 375.051L256.989 375.058C212.806 375.058 174.242 350.991 153.697 315.249C143.668 297.8 137.929 277.57 137.929 255.999C137.929 190.246 191.233 136.94 256.989 136.94Z" fill="white"/>
</svg>
