<svg width="512" height="512" viewBox="0 0 512 512" fill="none" xmlns="http://www.w3.org/2000/svg">
<rect width="512" height="512" rx="80" fill="white"/>
<path d="M242.829 388.024C242.829 395.224 248.8 401.195 256 401.195C263.2 401.195 269.171 395.224 269.171 388.024V260.707H343.805C371.551 260.707 383.317 272.473 383.317 300.219V388.024C383.317 395.224 389.288 401.195 396.488 401.195C403.688 401.195 409.659 395.224 409.659 388.024V300.219C409.659 257.722 386.302 234.366 343.805 234.366H269.171V142.171C269.171 134.971 263.2 129 256 129C248.8 129 242.829 134.971 242.829 142.171V234.366H168.195C125.698 234.366 102.342 257.722 102.342 300.219V388.024C102.342 395.224 108.312 401.195 115.512 401.195C122.712 401.195 128.683 395.224 128.683 388.024V300.219C128.683 272.473 140.449 260.707 168.195 260.707H242.829V388.024Z" fill="url(#paint0_linear_39_1036)"/>
<rect x="174" y="111" width="164" height="79" rx="20" fill="url(#paint1_linear_39_1036)"/>
<rect x="202" y="322" width="108" height="79" rx="20" fill="url(#paint2_linear_39_1036)"/>
<rect x="62" y="322" width="108" height="79" rx="20" fill="url(#paint3_linear_39_1036)"/>
<rect x="342" y="322" width="108" height="79" rx="20" fill="url(#paint4_linear_39_1036)"/>
<defs>
<linearGradient id="paint0_linear_39_1036" x1="256" y1="129" x2="256" y2="401.195" gradientUnits="userSpaceOnUse">
<stop stop-color="#3F96FF"/>
<stop offset="1" stop-color="#91CAFF"/>
</linearGradient>
<linearGradient id="paint1_linear_39_1036" x1="256" y1="111" x2="256" y2="190" gradientUnits="userSpaceOnUse">
<stop stop-color="#0758D9"/>
<stop offset="1" stop-color="#1777FF"/>
</linearGradient>
<linearGradient id="paint2_linear_39_1036" x1="256" y1="322" x2="256" y2="401" gradientUnits="userSpaceOnUse">
<stop stop-color="#1777FF"/>
<stop offset="1" stop-color="#3F96FF"/>
</linearGradient>
<linearGradient id="paint3_linear_39_1036" x1="116" y1="322" x2="116" y2="401" gradientUnits="userSpaceOnUse">
<stop stop-color="#1777FF"/>
<stop offset="1" stop-color="#3F96FF"/>
</linearGradient>
<linearGradient id="paint4_linear_39_1036" x1="396" y1="322" x2="396" y2="401" gradientUnits="userSpaceOnUse">
<stop stop-color="#1777FF"/>
<stop offset="1" stop-color="#3F96FF"/>
</linearGradient>
</defs>
</svg>
