<svg width="512" height="512" viewBox="0 0 512 512" fill="none" xmlns="http://www.w3.org/2000/svg">
<rect width="512" height="512" rx="80" fill="white"/>
<path d="M214.31 229.096L299.706 267.292L385.862 193.269C390.278 171.891 387.021 149.672 376.644 130.382C366.267 111.092 349.408 95.9185 328.929 87.4366C308.45 78.9547 285.611 77.6865 264.287 83.8472C242.964 90.0079 224.469 103.218 211.94 121.236L197.628 194.122L214.31 229.096Z" fill="#FFEC3C"/>
<path d="M125.88 317.81C124.616 324.02 123.981 330.338 123.984 336.671C123.998 356.904 130.622 376.601 142.886 392.874C155.151 409.147 172.409 421.141 192.133 427.098C211.857 433.054 233.008 432.659 252.486 425.972C271.965 419.285 288.746 406.656 300.37 389.938L314.587 317.241L295.631 281.699L209.855 243.408L125.88 317.81Z" fill="#16C2C2"/>
<path d="M125.406 172.891L183.885 186.445L196.68 121.141C188.709 115.256 179.008 112.055 169.026 112.016C159.044 111.977 149.317 115.102 141.298 120.924C133.279 126.747 127.398 134.954 124.533 144.32C121.669 153.687 121.975 163.709 125.406 172.891Z" fill="#F759AB"/>
<path d="M120.288 186.54C107.644 190.64 96.6022 198.475 88.6765 208.972C80.7507 219.47 76.3291 232.114 76.0177 245.173C75.7062 258.233 79.5203 271.066 86.9369 281.916C94.3536 292.765 105.01 301.098 117.444 305.773L199.524 232.982L184.454 201.42L120.288 186.54Z" fill="#4BD4F2"/>
<path d="M315.44 389.938C323.387 395.824 333.061 399.031 343.018 399.079C352.974 399.127 362.68 396.014 370.686 390.204C378.692 384.394 384.569 376.199 387.441 366.841C390.313 357.484 390.024 347.466 386.62 338.282L328.14 324.824L315.44 389.938Z" fill="#52C41A"/>
<path d="M327.287 309.848L391.643 324.634C404.493 320.395 415.673 312.326 423.625 301.554C431.576 290.782 435.903 277.843 436 264.544C435.986 251.724 431.999 239.211 424.568 228.665C417.137 218.12 406.613 210.039 394.392 205.496L310.227 277.908L327.287 309.848Z" fill="#1777FF"/>
</svg>
