<svg width="512" height="512" viewBox="0 0 512 512" fill="none" xmlns="http://www.w3.org/2000/svg">
<rect width="512" height="512" rx="80" fill="white"/>
<path fill-rule="evenodd" clip-rule="evenodd" d="M256.333 256C256.333 221.943 283.943 194.333 318 194.333C352.057 194.333 379.667 221.943 379.667 256C379.667 290.057 352.057 317.667 318 317.667C283.943 317.667 256.333 290.057 256.333 256Z" fill="#69B1FF"/>
<path fill-rule="evenodd" clip-rule="evenodd" d="M133 379.333C133 345.276 160.609 317.667 194.667 317.667H256.333V379.333C256.333 413.39 228.724 441 194.667 441C160.609 441 133 413.39 133 379.333Z" fill="#95DE64"/>
<path fill-rule="evenodd" clip-rule="evenodd" d="M256.333 71V194.333H318C352.057 194.333 379.667 166.724 379.667 132.667C379.667 98.6091 352.057 71 318 71H256.333Z" fill="#FFA39E"/>
<path fill-rule="evenodd" clip-rule="evenodd" d="M133 132.667C133 166.724 160.609 194.333 194.667 194.333H256.333V71H194.667C160.609 71 133 98.6091 133 132.667Z" fill="#FF4D4F"/>
<path fill-rule="evenodd" clip-rule="evenodd" d="M133 256C133 290.057 160.609 317.667 194.667 317.667H256.333V194.333H194.667C160.609 194.333 133 221.943 133 256Z" fill="#B37FEB"/>
</svg>
