<svg width="512" height="512" viewBox="0 0 512 512" fill="none" xmlns="http://www.w3.org/2000/svg">
<g clip-path="url(#clip0_35_41)">
<path d="M435.2 0H76.8C34.3845 0 0 34.3845 0 76.8V435.2C0 477.615 34.3845 512 76.8 512H435.2C477.615 512 512 477.615 512 435.2V76.8C512 34.3845 477.615 0 435.2 0Z" fill="white"/>
<path d="M198.012 433.193C213.787 439.556 230.898 443.334 248.868 443.967C273.183 444.818 296.318 439.774 316.989 430.193C292.198 420.426 269.746 406.144 250.575 388.384C238.164 408.333 219.791 424.08 198.012 433.193Z" fill="#FA8B16"/>
<path d="M250.585 388.394C206.84 347.83 180.299 289.112 182.546 224.706C182.618 222.62 182.732 220.523 182.856 218.437C175.02 216.402 166.843 215.167 158.427 214.866C146.378 214.441 134.712 215.946 123.699 219.049C112.022 239.56 104.973 263.09 104.093 288.303C101.826 353.363 141.089 410.202 198.011 433.193C219.789 424.09 238.163 408.355 250.585 388.394Z" fill="#FADB15"/>
<path d="M250.585 388.393C260.761 372.077 266.92 352.936 267.644 332.322C269.528 278.099 233.175 231.452 182.857 218.436C182.733 220.522 182.619 222.619 182.547 224.705C180.311 289.101 206.841 347.819 250.585 388.393Z" fill="#FA8B16"/>
<path d="M262.011 66C233.359 89.0222 210.721 119.372 197.037 154.342C189.201 174.375 184.274 195.881 182.835 218.436C233.152 231.453 269.506 278.099 267.612 332.333C266.897 352.947 260.707 372.067 250.553 388.405C269.713 406.185 292.175 420.446 316.967 430.214C366.736 407.15 402.044 357.514 404.083 298.807C405.408 260.765 390.833 226.865 370.244 198.248C348.496 167.991 262.011 66 262.011 66Z" fill="#F5212D"/>
</g>
<defs>
<clipPath id="clip0_35_41">
<rect width="512" height="512" rx="80" fill="white"/>
</clipPath>
</defs>
</svg>
