<svg width="512" height="512" viewBox="0 0 512 512" fill="none" xmlns="http://www.w3.org/2000/svg">
<rect width="512" height="512" rx="80" fill="white"/>
<path fill-rule="evenodd" clip-rule="evenodd" d="M178.486 162.876C177.242 152.098 186.942 156.666 185.703 163.165C183.883 164.896 180.52 163.476 178.486 162.876ZM190.033 160.855C192.476 160.605 194.805 160.239 195.519 158.257C192.139 156.174 187.09 161.314 189.167 163.743C190.32 163.645 189.3 161.375 190.033 160.855ZM157.7 167.495C159.735 166.548 163.077 166.906 164.052 164.897C157.996 162.788 147.09 164.345 145.285 168.361C149.902 168.076 153.763 164.412 157.7 167.495ZM144.131 168.651C142.819 168.375 142.313 169.865 142.977 170.67C144.002 170.637 144.138 169.715 144.131 168.651ZM140.955 174.425C140.77 171.671 134.108 169.472 133.45 173.27C134.026 175.426 139.399 176.814 140.955 174.425ZM129.697 171.827C128.321 171.891 127.614 172.632 126.809 173.27C127.856 173.88 130.175 173.662 129.697 171.827ZM126.234 179.62C131.319 179.263 132.866 183.939 137.202 183.373C138.01 178.34 127.666 171.417 126.234 179.62ZM194.94 204.735C193.424 199.703 198.067 195.385 195.229 191.454C191.299 191.768 187.9 210.007 193.497 209.933C197.515 209.878 198.932 198.846 199.27 195.211C196.328 196.883 197.609 202.786 194.94 204.735ZM146.73 202.717C146.817 201.954 146.329 201.768 145.575 201.848C145.594 202.627 146.234 203.237 146.73 202.717ZM160.876 211.088C160.931 209.299 160.861 207.638 159.433 207.335C158.346 207.212 158.411 208.238 157.7 208.491C158.097 210.017 158.903 211.138 160.876 211.088ZM147.018 220.327C152.554 220.95 156.26 224.943 161.453 224.944C157.312 222.157 153.009 219.532 146.441 219.172C146.231 219.959 147.014 219.753 147.018 220.327ZM190.611 224.657C190.18 222.681 189.323 221.131 188.302 219.748C188.677 221.777 189.195 223.664 190.611 224.657ZM158.854 231.007C155.231 226.159 149.458 221.934 142.977 220.903C143.892 228.647 152.501 228.703 158.854 231.007ZM149.04 232.738C146.565 228.574 142.324 226.174 137.202 224.657C140.08 228.234 142.717 233.566 149.04 232.738ZM135.759 228.698C136.745 230.41 139.222 232.159 138.647 234.472C136.116 233.732 134.885 231.69 132.295 231.008C133.67 232.918 138.919 241.384 142.109 241.114C144.146 240.938 145.067 238.69 144.708 235.051C143.147 231.701 138.18 230.223 135.759 228.698ZM150.482 236.204C151.124 237.969 151.35 240.148 153.659 240.245C153.266 238.233 152.091 237.001 150.482 236.204ZM148.461 237.071C147.385 236.954 146.768 237.3 146.73 238.224C147.054 238.287 147.18 238.544 147.306 238.801C148.229 238.765 148.579 238.148 148.461 237.071ZM197.827 243.71C198.128 242.078 198.434 238.935 197.827 237.358C197.457 238.98 196.063 242.628 197.827 243.71ZM177.62 237.647C177.84 239.353 177.015 242.102 178.485 242.557C178.55 241.294 178.844 238.449 177.62 237.647ZM191.188 244.288C190.35 243.545 189.148 244.667 188.589 244C187.999 242.089 188.243 239.343 186.569 238.514C186.378 238.514 186.184 238.514 185.993 238.514C183.615 243.439 183.85 254.018 188.012 256.7C188.799 258.032 188.875 260.073 190.899 260.166C192.563 258.845 192.972 256.275 193.209 253.524C189.596 252.766 192.962 246.537 191.188 244.288ZM199.849 247.461C200.205 244.905 202.391 241.188 200.715 238.514C200.162 241.044 199.115 244.61 199.849 247.461ZM149.04 249.774C149.5 248.455 149.138 246.217 148.173 245.443C147.5 246.707 147.108 249.618 149.04 249.774ZM154.235 250.928C155.401 251.686 155.491 253.52 157.123 253.815C159.154 251.222 155.301 246.653 154.235 250.928ZM203.602 256.7C203.604 257.585 202.444 258.795 203.313 259.587C203.48 258.871 204.359 257.384 203.602 256.7ZM206.199 267.959C206.187 266.627 206.362 265.106 205.623 264.497C205.493 265.525 204.732 267.801 206.199 267.959ZM169.536 279.798C169.707 280.873 169.883 281.952 170.979 282.106C171.687 281.116 171.164 279.362 169.536 279.798ZM182.527 281.242C182.929 282.004 184.083 283.518 184.836 282.971C184.168 282.478 183.397 280.575 182.527 281.242ZM209.952 284.418C209.141 287.855 211.061 290.987 212.551 293.078C213.161 289.727 213.104 284.928 209.952 284.418ZM217.171 306.643C217.607 305.77 217.761 303.08 216.882 302.606C216.122 303.649 215.444 306.145 217.171 306.643ZM230.159 320.503C229.741 318.382 228.079 316.091 226.408 316.17C226.992 318.279 227.094 320.875 230.159 320.503ZM232.76 324.543C232.772 325.879 232.599 327.403 233.336 328.006C233.374 326.626 233.354 325.296 232.76 324.543ZM137.491 324.833C137.495 325.89 138.061 326.38 138.647 326.854C138.531 325.908 138.396 324.989 137.491 324.833ZM243.153 340.709C242.442 335.265 239.579 331.97 235.936 329.453C236.457 335.087 239.218 338.488 243.153 340.709ZM289.633 369.291C289.457 369.128 288.262 368.617 288.189 369.291C288.623 369.625 289.404 370.305 289.633 369.291ZM436 390.654C436 391.715 436 392.77 436 393.83C435.531 394.806 435.379 396.095 435.133 397.293C427.105 402.449 412.023 400.551 405.397 407.111C393.775 400.85 382.973 410.711 370.756 411.731C368.738 411.898 366.494 411.562 364.401 411.731C357.183 412.314 350.134 414.002 342.751 414.617C335.181 415.247 327.596 415.71 319.657 416.061C316.768 416.061 313.883 416.061 310.997 416.061C275.191 414.181 239.788 409.364 213.418 397.584C200.271 391.709 188.17 384.503 177.043 375.931C166.215 367.593 155.1 358.323 147.306 347.929C139.009 336.861 130.707 326.097 123.345 313.865C116.243 302.059 109.605 289.622 103.715 275.756C97.905 262.083 93.7653 248.553 89.8561 231.875C87.3009 220.967 84.604 208.616 80.041 198.387C78.2643 194.404 76.1959 191.144 76 187.416C76 186.551 76 185.683 76 184.818C77.4238 172.692 86.8542 165.654 97.9402 162.299C100.716 161.46 103.415 160.658 106.024 159.123C106.193 159.025 107.857 158.855 107.18 157.969C102.24 156.781 98.1769 164.052 92.7452 162.011C87.9229 160.197 90.6994 152.731 95.9211 150.463C98.3587 149.404 103.199 149.129 105.447 147.865C109.323 145.687 111.082 141.084 110.356 136.895C109.925 134.419 107.356 133.116 107.469 131.121C107.626 128.339 112.601 125.919 114.974 124.192C117.877 122.079 121.313 119.44 121.036 116.108C120.745 112.628 116.652 111.519 114.685 108.892C111.597 104.767 111.107 98.6031 116.128 96.1873C121.391 93.6547 131.197 95.0348 132.295 101.673C133.263 107.524 129.109 109.753 130.85 114.087C134.094 122.15 159.318 109.386 153.081 126.212C158.628 134.908 180.307 127.469 180.796 141.224C189.837 141.406 193.992 148.267 201.292 151.04C203.249 151.783 205.578 151.783 207.644 152.483C219.956 156.668 235.212 161.157 240.266 172.98C235.699 176.057 229.467 173.997 224.1 172.115C219.432 170.475 212.626 167.229 207.933 169.227C203.28 171.209 203.528 179.159 204.18 187.125C205.913 208.331 206.93 230.205 209.953 249.194C214.175 275.699 223.199 296.928 235.937 313.574C248.258 329.678 262.734 346.541 281.548 358.322C297.424 368.259 315.26 376.099 337.844 381.127C341.194 381.874 345.242 383.506 347.082 383.148C349.809 382.624 355.677 374.693 357.766 372.756C362.732 368.139 369.414 361.679 376.528 367.269C375.561 374.966 368.665 376.733 367.001 383.728C371.278 386.449 375.813 383.985 381.148 384.302C387.357 384.671 392.117 388.231 397.317 387.478C400.636 386.997 402.298 384.525 404.822 382.86C410.558 391.246 432.674 380.33 436 390.654ZM373.351 369.291C373.229 368.36 373.732 366.795 372.775 366.696C371.942 367.118 371.119 369.771 373.351 369.291ZM228.142 166.052C230.97 167.745 233.46 169.78 235.936 171.828C237.427 167.438 233.148 164.63 228.142 164.898C228.142 165.281 228.142 165.666 228.142 166.052ZM305.8 378.818C306.901 379.05 307.698 379.269 307.821 377.953C306.792 377.887 306.093 378.144 305.8 378.818ZM265.959 353.412C265.862 354.771 268.604 354.797 269.137 354.566C268.686 353.664 267.318 352.492 265.959 353.412ZM259.03 347.928C259.511 348.414 260.726 348.156 261.628 348.217C261.725 347.16 261.306 346.612 261.051 345.906C259.534 345.74 259.115 346.665 259.03 347.928ZM203.602 229.851C202.818 229.187 202.25 230.403 201.869 229.851C202.81 222.689 204.321 211.662 201.292 205.604C200.543 204.95 199.358 205.833 198.984 205.313C200.999 200.502 202.36 190.466 201.581 184.528C201.307 182.435 200.22 178.712 198.984 177.888C195.877 175.82 193.05 178.998 190.899 179.62C189.545 180.015 188.041 179.733 186.569 179.908C180.748 180.609 174.571 182.345 170.692 184.238C172.714 185.585 175.579 186.086 176.464 188.567C171.434 188.212 167.51 186.748 163.184 185.682C163.645 192.195 155.658 190.154 150.771 190.591C152.459 190.627 152.73 191.443 152.792 192.611C152.993 196.442 140.384 200.984 136.048 198.098C129.863 203.084 138.769 208.178 138.357 214.554C137.141 215.455 136.58 217.009 135.47 218.015C129.323 218.164 122.858 219.401 123.921 225.811C123.09 225.326 121.78 225.003 120.745 225.52C119.174 229.568 121.811 233.961 125.366 234.761C126.261 234.5 126.47 233.555 127.675 233.606C135.703 235.141 138.53 240.466 138.068 250.637C137.988 252.388 138.162 254.673 136.914 255.835C132.358 255.523 128.134 244.278 135.47 243.999C133.71 241.411 132.378 237.55 129.118 237.646C125.38 237.758 123.703 243.664 121.034 245.73C124.881 247.856 133.915 253.722 126.519 257.567C130.18 258.116 132.223 259.567 133.736 261.606C136.256 265.01 136.176 270.111 138.067 272.868C141.893 278.449 143.913 267.862 148.458 272.288C149.532 272.657 147.986 271.245 147.881 271.136C143.982 266.926 138.035 263.475 135.757 258.433C137.508 257.631 139.854 258.507 141.53 258.721C142.192 255.329 139.835 251.491 140.664 248.903C141.26 247.047 142.362 247.864 143.552 247.173C144.251 246.765 143.704 245.249 144.996 245.73C144.988 249.693 142.6 256.363 145.282 259.298C149.2 260.001 150.332 253.264 153.656 253.235C155.513 253.219 157.268 256.488 158.563 258.143C160.118 260.129 162.233 262.569 161.739 264.781C160.699 269.445 152.866 265.895 150.191 263.915C151.822 270.386 161.853 271.391 162.316 279.796C162.369 280.734 161.895 281.932 162.028 282.97C162.595 287.405 166.731 290.701 170.976 287.88C171.6 289.471 171.682 291.603 173.288 292.21C174.694 291.021 174.194 287.92 175.019 286.145C180.056 287.2 182.686 289.626 184.256 293.651C185.034 295.643 184.833 299.334 188.009 299.425C188.495 294.504 184.639 291.454 183.969 286.722C186.556 290.897 195.89 295.414 195.517 302.024C195.269 306.383 190.088 306.858 185.123 307.509C189.855 309.135 191.836 314.434 196.96 316.168C198.336 316.637 200.104 316.236 201.578 316.748C205.327 318.052 211.321 325.737 209.663 330.606C201.675 334.631 195.443 323.751 186.567 323.967C190.31 328.739 196.433 330.327 201.579 332.627C207.118 335.1 212.664 337.634 218.035 340.132C230.696 346.021 239.484 353.726 247.771 363.517C242.021 366.652 224.595 361.437 235.068 357.74C231.425 357.617 227.569 355.332 224.385 356.589C226.073 367.604 240.566 365.814 251.524 367.557C250.526 369.447 249.12 370.929 248.058 372.754C248.903 373.252 250.07 373.434 251.524 373.331C250.822 374.456 248.995 374.459 248.924 376.217C250.327 378.086 253.105 378.581 254.987 379.97C262.406 374.649 263.238 386.72 267.978 386.898C272.457 387.065 273.316 380.629 277.796 379.97C276.67 382.311 274.467 383.57 273.466 386.034C277.852 384.974 279.103 382.612 282.7 381.701C295.591 378.44 306.158 389.178 316.766 390.365C320.58 390.789 324.372 392.931 327.737 393.54C332.088 394.325 334.763 392.893 338.129 391.232C333.002 386.445 321.231 388.309 317.056 382.569C317.217 381.576 317.897 381.101 318.5 380.55C304.988 383.518 296.48 375.421 290.785 367.847C274.115 363.542 259.491 357.186 252.387 343.309C252.046 342.002 253.667 342.664 253.256 341.287C247.395 334.766 241.537 328.145 236.8 320.501C235.163 317.862 234.042 314.545 232.18 312.418C231.001 311.071 229.022 310.329 227.85 308.952C226.567 307.443 226.393 305.554 224.384 304.913C223.612 306.064 224.13 308.504 223.52 309.819C222.131 304.245 219.038 298.95 213.127 298.848C213.017 294.794 216.292 294.126 218.034 291.919C215.741 289.163 215.189 285.691 213.993 281.528C211.085 271.412 208.682 260.845 206.197 251.502C202.904 252.732 202.031 256.382 200.424 259.298C200.583 255.127 200.778 250.99 203.023 248.903C204.05 249.032 204.162 250.075 204.754 250.636C205.297 248.669 207.158 246.834 206.197 244.286C205.452 243.134 203.273 243.671 202.734 243.709C204.159 240.222 205.355 233.894 203.602 229.851ZM319.656 401.049C322.152 399.982 324.399 398.67 325.428 396.139C322.715 396.819 318.889 397.844 319.656 401.049ZM319.944 395.274C318.274 396.199 316.396 396.923 315.327 398.45C317.72 398.593 320.524 396.191 319.944 395.274ZM310.996 399.604C312.63 399.168 314.38 397.48 314.172 396.139C312.274 396.329 309.338 397.682 310.996 399.604ZM312.151 392.963C309.552 392.142 307.431 394.176 307.24 396.718C309.555 396.144 311.122 394.823 312.151 392.963ZM304.065 393.543C301.528 393.985 299.63 395.066 298.868 397.293C301.97 398.523 303.558 395.858 304.065 393.543ZM300.025 401.049C300.74 401.09 301.425 401.101 301.469 400.469C301.036 400.011 299.823 400.047 300.025 401.049ZM304.645 388.633C300.605 388.323 295.774 390.944 298.293 394.407C300.983 393.054 303.707 391.738 304.645 388.633ZM284.723 394.12C287.246 394.475 287.905 391.589 289.633 392.096C290.636 392.728 290.027 394.976 291.652 394.985C295.428 394.217 296.788 389.064 294.538 385.458C289.449 386.353 284.793 389.154 284.723 394.12ZM285.877 386.614C284.345 387.39 282.713 388.064 281.837 389.499C283.726 389.418 286.539 387.335 285.877 386.614ZM277.797 388.058C277.959 388.826 276.608 389.526 277.504 390.076C277.744 389.714 279.263 388.286 277.797 388.058ZM272.6 394.984C272.509 395.377 272.187 395.535 272.313 396.139C272.695 396.139 273.081 396.139 273.468 396.139C273.546 395.383 273.359 394.899 272.6 394.984ZM268.27 393.543C266.811 393.624 266.26 394.612 266.248 396.139C267.505 395.86 268.651 395.464 268.27 393.543ZM239.109 378.818C237.33 378.74 236.788 379.014 238.822 379.398C240.76 379.756 244.179 379.943 245.463 379.398C243.939 379.381 240.002 378.859 239.109 378.818ZM247.772 374.201C246.262 373.052 243.225 373.884 241.71 374.488C242.584 376.89 246.877 375.824 247.772 374.201ZM238.536 395.851C245.735 399.625 255.649 403.744 265.959 402.49C258.467 398.822 247.326 397.257 238.536 395.851ZM227.852 392.675C228.542 393.622 230.171 393.628 231.315 394.12C233.446 392.06 228.762 390.9 227.852 392.675ZM200.715 369.291C198.766 369.461 196.645 369.455 196.096 371.025C197.952 371.714 200.638 371.286 200.715 369.291ZM195.229 376.797C195.907 377.412 197.155 378.144 197.539 376.797C197.24 376.492 195.478 376.202 195.229 376.797ZM198.693 352.258C198.955 351.051 196.657 350.594 196.385 351.681C197.017 352.008 197.565 352.425 198.693 352.258ZM202.448 362.072C202.433 361.676 202.584 361.439 202.736 361.208C201.876 360.319 200.136 360.161 198.693 360.631C198.924 362.019 201.237 362.599 202.448 362.072ZM202.736 380.552C203.106 380.945 204.099 380.945 204.468 380.552C204.604 379.644 204.107 379.372 203.602 379.105C203.343 379.618 202.905 379.949 202.736 380.552ZM211.686 347.351C210.746 344.632 207.679 345.349 205.623 344.464C202.318 343.041 199.496 339.642 195.229 339.558C195.038 339.558 194.844 339.558 194.654 339.558C198.365 343.931 203.277 348.631 211.686 347.351ZM196.673 336.672C193.978 334.841 191.026 333.268 187.146 332.63C188.379 335.726 193.181 336.792 196.673 336.672ZM205.622 350.236C207.646 352.352 210.186 353.951 214.572 353.7C212.886 351.438 208.858 349.987 205.622 350.236ZM216.592 363.229C213.62 361.169 208.945 357.827 205.045 358.609C207.301 361.551 211.836 363.754 216.592 363.229ZM205.622 374.201C205.552 374.611 205.147 374.685 205.045 375.062C205.757 375.991 206.827 374.394 205.622 374.201ZM212.262 382.861C212.507 383.962 213.567 384.25 214.572 384.593C214.963 383.925 215.732 383.635 215.438 382.284C214.736 381.862 212.213 381.619 212.262 382.861ZM217.748 370.158C216.854 369.611 213.593 368.999 212.839 370.158C214.239 370.727 216.991 372.198 217.748 370.158ZM218.614 360.34C218.903 358.193 216.473 358.184 215.438 358.896C215.535 360.34 217.446 359.972 218.614 360.34ZM221.789 344.752C220.485 342.783 216.863 343.134 214.283 342.443C212.394 340.07 207.876 339.209 203.89 339.845C208.455 342.886 213.646 345.294 221.789 344.752ZM221.212 372.466C222.452 373.536 224.396 373.902 226.119 374.488C226.212 373.808 226.575 373.404 226.408 372.466C225.567 371.497 221.92 370.996 221.212 372.466ZM196.673 325.697C196.962 324.35 196.169 324.086 194.94 324.256C194.505 325.75 195.945 325.366 196.673 325.697ZM203.602 329.163C202.758 328.949 203.042 327.608 201.869 327.719C200.805 328.695 202.722 330.18 203.602 329.163ZM183.682 331.185C182.724 329.066 180.564 328.144 179.063 326.565C181.878 322.486 175.597 320.817 174.444 317.904C174.43 317.026 175.053 316.782 175.31 316.17C172.884 314.749 170.083 313.7 168.669 311.266C169.786 310.458 172.762 311.506 173.865 310.686C172.116 309.933 170.228 309.321 169.535 307.51C170.547 305.154 174.663 305.904 175.597 303.47C170.624 302.371 165.683 299.729 160.295 300.004C160.357 302.061 162.187 302.347 162.894 303.757C161.296 303.048 160.004 302.025 157.698 302.025C157.525 303.449 158.447 303.778 158.276 305.201C156.702 305.33 155.903 304.686 154.233 304.915C155.424 307.571 158.477 308.368 159.431 311.266C158.25 311.565 156.647 310.797 156.255 311.266C159.303 313.798 163.754 316.466 165.492 319.346C162.656 318.819 161.033 317.073 158.276 316.461C160.584 321.031 166.204 321.983 170.401 324.256C174.697 326.581 178.546 330.332 183.682 331.185ZM177.33 334.648C178.537 335.307 180.939 337.401 182.527 335.805C181.189 335.212 179.083 333.865 177.33 334.648ZM175.021 333.203C174.209 331.888 170.065 331.187 168.96 332.048C170.844 332.591 172.619 334.053 175.021 333.203ZM169.824 334.07C169.733 334.463 169.414 334.62 169.536 335.228C170.044 335.061 171.232 335.573 171.269 334.938C170.821 334.616 170.666 334 169.824 334.07ZM166.072 295.674C165.284 292.961 164.232 289.988 162.031 287.881C160.845 286.744 159.697 286.767 158.855 285.279C156.623 281.353 157.693 275.811 154.813 271.714C154.132 271.493 152.818 271.143 152.215 271.714C152.269 273.607 156.662 278.096 153.66 280.375C147.02 280.638 144.465 275.353 138.071 276.332C136.631 280.061 141.721 281.978 140.378 284.705C149.562 287.653 156.856 294.039 166.072 295.674ZM145.285 304.334C146.982 305.626 149.434 307.692 151.637 307.51C149.892 306.274 148.286 303.362 145.285 304.334ZM142.109 301.739C141.361 299.409 140.062 297.628 137.202 297.409C137.784 299.904 140.495 300.274 142.109 301.739ZM137.202 309.244C138.748 310.302 140.283 312.894 141.821 312.997C140.696 311.524 139.325 308.761 137.202 309.244ZM139.224 289.323C139.373 288.895 139.649 288.596 139.801 288.168C139.06 287.149 137.235 287.705 136.914 288.748C137.482 289.141 138.563 289.024 139.224 289.323ZM183.971 300.871C183.931 298.387 181.171 296.945 179.063 298.275C179.731 300.109 181.744 300.596 183.971 300.871ZM156.832 263.055C156.881 262.578 155.055 262.578 155.101 263.055C155.497 263.143 156.843 264.359 156.832 263.055ZM145.576 261.898C145.19 261.898 144.805 261.898 144.419 261.898C144.023 262.269 144.134 263.155 144.131 263.916C144.658 263.995 145.75 264.959 146.153 264.209C145.438 263.957 146.236 262.199 145.576 261.898ZM123.921 261.608C124.878 263.785 128.751 263.623 129.407 261.321C127.764 260.685 125.344 261.127 123.921 261.608ZM124.789 253.524C123.673 253.469 122.661 253.515 121.9 253.815C122.125 255.074 124.782 254.85 124.789 253.524ZM127.386 207.046C125.902 207.732 122.808 206.36 121.325 207.046C122.638 212.248 132.377 209.447 131.718 205.313C131.159 201.806 121.898 202.675 118.726 203.005C121.184 204.78 125.092 205.107 127.386 207.046ZM115.839 212.531C116.383 213.335 117.875 213.189 118.726 213.686C118.893 213.084 119.443 212.863 119.303 211.954C118.546 211.554 115.821 211.239 115.839 212.531ZM130.563 211.377C130.408 212.007 129.863 213.245 130.85 213.398C131.538 212.914 131.394 211.795 130.563 211.377ZM138.647 194.055C138.571 193.211 139.298 193.17 139.224 192.323C138.05 192.208 137.211 192.428 137.202 193.477C137.751 193.603 137.927 194.099 138.647 194.055ZM138.358 129.965C137.208 137.01 143.556 145.532 151.059 142.955C151.409 140.297 150.196 139.201 150.194 136.894C152.108 136.43 153.236 138.268 154.235 137.76C151.426 132.678 143.957 132.258 138.358 129.965ZM135.181 123.325C137.718 123.828 141.701 123.573 142.688 121.593C140.771 120.312 135.019 119.969 135.181 123.325ZM128.252 103.116C128.807 97.509 121.955 94.4106 117.861 98.2092C115.301 100.582 114.189 106.312 118.149 108.314C117.699 106.837 116.387 106.226 116.706 103.984C119.715 102.264 125.232 104.823 128.252 103.116ZM126.234 121.592C126.968 121.173 128.07 121.123 127.965 119.861C127.078 119.95 125.565 120.907 126.234 121.592ZM120.169 142.955C123.769 143.041 126.484 141.01 129.985 140.936C133.016 140.872 135.904 141.773 139.512 141.513C136.936 133.951 124.417 140.555 120.169 142.955ZM114.685 156.236C121.496 155.37 130.987 150.888 140.09 151.906C143.523 152.289 146.531 154.222 148.461 155.659C147.477 154.609 146.311 150.298 148.461 149.597C153.199 150.5 153.357 159.451 159.143 158.258C162.09 157.65 162.988 151.932 161.453 148.442C163.656 149.992 164.791 152.61 167.805 153.35C167.117 150.573 165.118 149.107 163.764 146.999C164.615 145.926 165.729 145.115 165.495 142.955C157.233 142.161 149.9 146.621 142.11 148.153C136.065 149.343 131.566 150.522 126.234 151.905C122.226 152.945 117.765 153.674 114.685 156.236ZM90.4345 215.996C90.0378 216.364 89.9315 217.721 90.7226 217.728C90.96 217.519 91.4976 215.73 90.4345 215.996ZM100.537 181.642C87.8778 183.651 101.371 197.114 108.911 193.768C109.865 192.302 109.569 190.959 109.488 188.858C113.88 189.288 117.185 187.149 121.036 187.993C121.658 189.335 120.483 190.472 120.17 191.745C133.269 190.914 139.754 180.622 153.946 179.043C155.709 178.847 157.719 179.159 159.721 179.043C165.697 178.695 172.318 177.587 178.486 176.444C184.539 175.326 190.072 173.1 195.229 171.827C201.702 170.227 211.548 166 210.243 157.391C210.093 156.411 209.414 155.531 208.799 154.504C174.395 151.178 148.673 164.665 121.614 170.094C118.364 170.746 114.411 170.313 111.798 172.98C112.743 175.306 116.066 175.256 117.57 177.021C116.818 177.903 114.957 177.678 114.685 179.043C115.322 181.485 118.941 180.941 119.303 183.663C113.557 187.714 101.507 182.548 104.291 174.425C95.6083 176.328 82.9661 178.218 82.9287 187.993C82.9111 192.301 85.479 196.286 88.4126 198.675C86.4252 189.58 89.8032 176.131 100.537 181.642ZM111.22 235.627C111.483 233.672 108.27 232.303 107.179 233.607C108.243 234.563 109.908 234.916 111.22 235.627ZM101.115 239.38C103.157 246.479 103.821 254.959 109.199 258.723C108.389 250.39 105.433 244.205 101.115 239.38ZM113.24 231.874C114.139 227.799 108.16 226.202 107.756 228.987C107.403 231.412 111.226 231.13 113.24 231.874ZM114.396 224.078C113.093 222.653 109.822 221.77 107.468 222.347C108.298 224.39 113.409 227.415 114.396 224.078ZM110.932 211.377C112.236 210.564 113.62 209.829 113.817 207.911C112.142 206.657 108.131 206.48 107.756 208.491C107.472 210.012 109.509 210.628 110.932 211.377ZM114.685 216.284C114.811 215.292 114.571 214.667 114.396 213.974C112.915 213.937 112.224 214.689 112.087 215.996C112.805 216.239 113.633 216.373 114.685 216.284ZM94.4762 214.841C94.2535 214.101 94.1873 213.204 93.6103 212.821C92.8925 213.598 92.865 214.993 94.4762 214.841ZM97.3632 195.211C96.0676 194.706 94.15 195.245 93.6103 196.365C94.2162 196.912 95.0884 197.197 95.9197 197.518C96.2113 196.563 97.5168 196.616 97.3632 195.211ZM100.537 232.451C99.7902 230.793 99.6965 228.482 98.229 227.545C94.2761 228.107 98.1924 233.786 100.537 232.451ZM106.023 263.629C108.842 270.444 111.817 277.809 117.861 280.95C113.341 275.922 112.275 267.602 109.199 261.608C108.135 259.539 106.438 257.931 105.446 255.836C103.112 250.902 102.036 245.146 97.3632 242.844C99.2048 250.104 103.149 256.674 106.023 263.629ZM185.415 371.89C183.668 365.94 178.978 362.927 172.423 361.785C170.803 357.921 166.126 357.115 165.206 352.548C165.057 351.61 166.994 351.279 166.362 350.816C157.576 352.48 157.266 343.167 153.082 339.267C142.524 339.458 144.488 326.395 138.648 319.639C136.979 317.705 135.325 317.26 133.45 315.309C130.565 306.368 123.037 301.832 118.727 293.946C114.9 286.939 114.094 279.034 107.757 274.024C112.771 290.999 123.513 305.349 133.162 319.639C140.886 331.073 146.139 341.963 154.814 351.104C157.761 354.206 161.089 356.284 164.63 359.187C170.653 364.126 174.8 373.287 185.415 371.89ZM184.259 352.258C183.948 351.021 181.721 350.187 180.506 350.816C181.625 351.432 182.855 351.93 184.259 352.258ZM194.94 344.752C192.985 342.473 188.89 341.605 185.125 340.134C180.455 338.306 173.792 336.575 170.403 338.69C170.744 341.522 173 342.443 174.444 344.174C178.454 344.792 180.75 346.749 184.547 347.06C189.023 347.43 193.202 347.23 194.94 344.752ZM332.647 410.576C323.911 406.592 311.099 411.074 301.756 408.841C299.992 408.419 298.433 407.207 296.849 407.11C295.273 407.013 293.438 407.845 291.941 407.977C283.94 408.689 276.636 407.898 269.137 406.82C263.875 406.064 258.271 405.768 253.545 404.511C249.018 403.31 244.337 400.538 239.687 398.737C234.969 396.911 230.058 395.092 225.542 393.252C216.633 389.623 207.164 383.341 197.827 380.84C204.126 387.531 214.97 389.681 222.367 395.274C211.914 392.351 204.026 386.863 194.652 382.861C201.956 389.4 212.147 393.361 222.367 397.582C232.545 401.789 243.605 405.349 255.565 407.109C279.321 410.608 307.185 415.805 332.647 410.576ZM340.152 409.709C338.67 409.768 336.824 409.459 336.69 410.863C337.946 411.941 340.059 411.829 340.152 409.709ZM355.741 375.642C356.151 377.775 359.248 377.139 358.92 374.775C357.346 374.552 356.664 375.221 355.741 375.642ZM379.703 390.654C371.942 390.467 362.369 387.786 354.297 388.058C351.2 388.161 347.435 388.902 346.503 392.095C348.885 393.061 351.437 392.482 354.297 392.388C363.66 392.072 375.101 396.279 379.703 390.654ZM387.499 390.076C386.148 390.074 385.75 391.026 385.478 392.095C385.849 392.493 386.731 392.385 387.499 392.388C387.361 391.111 387.895 390.95 387.499 390.076ZM404.532 388.923C403.123 388.709 402.598 390.461 403.088 391.234C403.996 391.371 404.216 390.821 404.822 390.654C405.03 389.772 404.324 389.805 404.532 388.923ZM428.491 390.654C422.581 390.024 415.679 390.414 410.306 391.234C413.47 394.213 424.834 392.312 428.491 390.654ZM150.771 215.128C153.619 216.71 156.247 220.044 160.01 219.748C158.993 218.359 157.552 217.394 156.544 215.996C157.616 215.912 158.527 215.67 158.854 214.841C155.343 212.384 150.84 209.384 149.039 206.178C150.227 208.481 152.046 212.15 150.771 215.128ZM187.724 217.44C187.106 216.807 187.385 215.275 186.568 214.842C186.384 216.098 187.197 217.854 187.724 217.44ZM161.164 242.557C161.606 247.311 164.644 249.466 164.917 254.393C161.542 250.551 159.658 245.215 157.411 240.245C157.191 246.257 159.008 249.983 160.587 254.105C161.802 257.272 162.941 260.99 166.072 261.899C167.533 261.626 167.452 259.809 168.961 259.587C170.566 259.818 171.401 262.338 172.423 262.188C171.653 261.322 171.412 259.927 171.269 258.435C171.548 257.366 173.076 257.548 173.577 256.701C170.674 250.753 166.513 246.059 161.164 242.557Z" fill="#434343"/>
</svg>
