<svg width="512" height="512" viewBox="0 0 512 512" fill="none" xmlns="http://www.w3.org/2000/svg">
<rect width="512" height="512" rx="80" fill="white"/>
<path d="M314.597 189.514L362.403 151.513L353.992 141.024C334.907 124.386 311.93 112.836 287.191 107.446C262.452 102.056 236.752 103.001 212.476 110.193C188.293 117.498 166.361 130.823 148.734 148.919C131.108 167.015 118.364 189.29 111.697 213.657C110.937 216.52 119.602 211.174 123.427 212.238L189.498 201.395C189.498 201.395 192.716 198.254 194.59 196.202C223.978 164.129 273.784 159.924 307.706 187.234L314.597 189.514Z" fill="#F5212D"/>
<path d="M398.807 212.923C391.197 185.095 375.609 160.102 353.966 141.025L307.605 187.133C317.245 194.954 324.977 204.868 330.214 216.123C335.451 227.378 338.055 239.678 337.828 252.089V260.272C360.629 260.272 379.123 278.639 379.123 301.313C379.123 323.936 360.629 342.329 337.828 342.329L255.316 342.253L247.082 343.139V406.652L255.316 407.994H337.828C360.825 408.22 383.286 401.048 401.897 387.537C420.508 374.026 434.283 354.891 441.191 332.955C448.011 311.05 447.567 287.527 439.924 265.895C432.281 244.263 417.849 225.682 398.782 212.923H398.807Z" fill="#3F96FF"/>
<path d="M172.676 407.969H255.24V342.253H172.651C166.773 342.253 160.972 340.581 155.627 338.174L144.024 341.721L110.76 374.579L107.872 385.903C126.497 400.092 149.237 407.829 172.651 407.944L172.676 407.969Z" fill="#52C41A"/>
<path d="M172.676 194.479C150.363 194.572 128.635 201.621 110.516 214.644C92.3982 227.668 78.7923 246.017 71.5937 267.137C64.471 288.244 64.1425 311.052 70.6543 332.356C77.1662 353.659 90.1909 372.386 107.897 385.903L155.779 338.174C147.643 334.546 140.911 328.365 136.604 320.568C132.297 312.771 130.648 303.782 131.908 294.964C133.169 286.146 137.269 277.979 143.588 271.7C149.906 265.422 158.099 261.374 166.925 260.17C175.753 258.904 184.754 260.529 192.581 264.804C200.408 269.078 206.641 275.771 210.348 283.883L258.229 236.306C248.142 223.222 235.172 212.642 220.33 205.388C205.487 198.134 189.197 194.401 172.676 194.479Z" fill="#FADB15"/>
</svg>
