<svg width="512" height="512" viewBox="0 0 512 512" fill="none" xmlns="http://www.w3.org/2000/svg">
<rect width="512" height="512" rx="80" fill="white"/>
<path d="M305.537 222.386C306.458 224.225 304.617 224.225 303.697 224.225L272.406 232.501C269.645 234.34 267.805 231.581 267.805 231.581C248.478 207.672 207.985 224.225 206.144 259.169C204.304 292.274 247.558 305.149 267.805 272.043H232.833C230.072 272.043 225.471 271.124 230.072 262.847L237.435 247.214C239.275 243.536 240.196 243.536 245.717 243.536H310.139C310.139 318.023 227.311 351.128 183.137 306.068C162.89 284.918 156.448 237.099 197.862 203.074C230.993 176.406 286.211 176.406 305.537 222.386ZM320.262 310.666C278.849 274.802 300.936 200.315 366.278 188.361C433.46 176.406 462.91 238.938 436.221 285.837C414.134 325.38 355.234 341.932 320.262 310.666ZM406.771 263.767C415.054 240.777 398.488 218.707 373.64 220.546C346.031 223.305 326.704 259.169 344.19 280.32C361.676 300.551 397.568 291.355 406.771 263.767ZM111.353 261.928V261.008L113.193 256.41L115.034 255.491H152.767L153.687 256.41L152.767 261.008L151.846 261.928H111.353ZM67.178 245.375C67.178 245.375 65.3374 245.375 66.2577 244.456L69.9389 238.938L71.7795 238.019H156.448L157.368 238.938L155.527 243.536L154.607 244.456L67.178 245.375ZM94.7872 227.903L93.8669 226.984L98.4684 222.386L100.309 221.466H166.571V222.386L163.81 226.984L161.97 227.903H94.7872Z" fill="#24BBE5"/>
</svg>
