<svg width="512" height="512" viewBox="0 0 512 512" fill="none" xmlns="http://www.w3.org/2000/svg">
<rect width="512" height="512" rx="80" fill="white"/>
<path d="M418.204 390.952C418.271 403.779 412.83 416.017 403.262 424.561C393.695 433.104 380.921 437.131 368.183 435.618C345.263 432.226 328.466 412.28 329.025 389.116V122.805C328.471 99.616 345.309 79.6603 368.26 76.3036C380.985 74.8142 393.738 78.8513 403.288 87.392C412.838 95.9327 418.268 108.158 418.204 120.969V390.952Z" fill="#FFC53D"/>
<path d="M137.589 346.822C162.215 346.822 182.178 366.785 182.178 391.411C182.178 416.037 162.215 436 137.589 436C112.963 436 93 416.037 93 391.411C93 366.785 112.963 346.822 137.589 346.822ZM254.913 211.677C230.171 213.034 210.974 233.788 211.548 258.561V378.332C211.548 410.837 225.85 430.57 246.806 434.776C259.962 437.443 273.62 434.051 284 425.539C294.38 417.028 300.381 404.299 300.344 390.875V256.496C300.366 244.496 295.566 232.99 287.024 224.563C278.481 216.135 266.912 211.493 254.913 211.677Z" fill="#D36B08"/>
</svg>
