<svg width="512" height="512" viewBox="0 0 512 512" fill="none" xmlns="http://www.w3.org/2000/svg">
<rect width="512" height="512" rx="80" fill="white"/>
<path d="M325.472 359.9C334.107 374.563 346.196 384.913 366.056 384.913C383.326 384.913 394.552 376.288 394.552 364.213C394.552 350.413 383.326 345.238 364.329 336.613L353.967 332.3C323.745 319.363 303.884 303.838 303.884 270.2C303.884 239.15 327.199 215 364.329 215C391.098 215 410.095 224.488 423.047 248.638L391.098 269.338C384.19 256.4 376.418 251.225 364.329 251.225C352.24 251.225 344.469 258.988 344.469 269.338C344.469 281.413 352.24 286.588 370.374 294.35L380.736 298.663C416.139 314.188 436 328.85 436 364.213C436 401.3 406.641 422 366.92 422C328.062 422 303.021 403.888 290.932 379.738L325.472 359.9ZM178.677 363.35C185.585 374.563 190.766 384.913 205.445 384.913C219.261 384.913 227.896 379.738 227.896 359.038V215.863H269.344V357.313C269.344 400.438 244.303 419.413 207.172 419.413C173.496 419.413 154.499 402.163 145 381.463L178.677 363.35Z" fill="url(#paint0_linear_32_68)"/>
<defs>
<linearGradient id="paint0_linear_32_68" x1="290.5" y1="215" x2="290.5" y2="422" gradientUnits="userSpaceOnUse">
<stop stop-color="#FADB15"/>
<stop offset="1" stop-color="#D4B108"/>
</linearGradient>
</defs>
</svg>
