<svg width="512" height="512" viewBox="0 0 512 512" fill="none" xmlns="http://www.w3.org/2000/svg">
<rect width="512" height="512" rx="80" fill="white"/>
<path d="M253.59 166.232C331.824 105.497 291.672 66 291.672 66C297.648 128.788 227.029 143.613 208.099 186.759C195.183 216.201 216.945 241.979 253.564 274.47C250.327 267.274 245.334 260.282 240.28 253.203C223.038 229.059 205.078 203.907 253.59 166.232Z" fill="#F5212D"/>
<path d="M266.08 287.789C266.08 287.789 289.617 268.8 270.978 247.697C207.793 176.103 340.083 143.613 340.083 143.613C259.314 182.523 271.372 205.619 291.673 233.677C313.409 263.764 266.08 287.789 266.08 287.789Z" fill="#F5212D"/>
<path d="M335.377 344.417C407.877 307.369 374.357 271.768 350.959 276.564C345.224 277.737 342.667 278.755 342.667 278.755C342.667 278.755 344.796 275.475 348.862 274.055C395.15 258.053 430.747 321.252 333.92 346.283C333.92 346.283 335.042 345.298 335.377 344.417Z" fill="#0758D9"/>
<path d="M184.517 297.526C139.156 291.569 209.389 275.165 209.389 275.165C209.389 275.165 182.115 273.356 148.57 289.301C108.906 308.169 246.684 316.75 318.004 298.304C325.419 293.325 335.667 289.01 335.667 289.01C335.667 289.01 306.481 294.135 277.416 296.547C241.852 299.477 203.67 300.048 184.517 297.526Z" fill="#0758D9"/>
<path d="M201.776 332.9C176.48 330.328 193.043 318.271 193.043 318.271C127.588 339.635 229.461 363.861 320.924 337.56C311.202 334.19 305.02 328.026 305.02 328.026C260.319 336.49 234.487 336.219 201.776 332.9Z" fill="#0758D9"/>
<path d="M212.797 371.177C187.521 368.32 202.288 359.875 202.288 359.875C142.871 376.201 238.428 409.93 314.077 378.048C301.686 373.31 292.814 367.84 292.814 367.84C259.069 374.12 243.418 374.612 212.797 371.177Z" fill="#0758D9"/>
<path d="M371.022 390.648C371.022 390.648 381.949 399.502 358.987 406.352C315.321 419.36 177.249 423.288 138.892 406.871C125.104 400.972 150.961 392.787 159.094 391.069C167.577 389.26 172.424 389.597 172.424 389.597C157.09 378.975 73.3133 410.454 129.869 419.47C284.107 444.067 411.029 408.393 371.022 390.648Z" fill="#0758D9"/>
<path d="M395.5 409.994C392.969 442.374 286.104 449.186 216.513 444.805C171.114 441.942 162.015 434.787 161.882 434.683C205.333 441.727 278.589 443.01 337.987 432.017C390.635 422.269 395.5 409.994 395.5 409.994Z" fill="#0758D9"/>
</svg>
