<svg width="512" height="512" viewBox="0 0 512 512" fill="none" xmlns="http://www.w3.org/2000/svg">
<rect width="512" height="512" rx="80" fill="white"/>
<path d="M420.714 238.204L366.619 209.107L320.964 236.196L320.421 263.936L298.191 249.713L268.009 267.627L266.679 237.309L235.6 217.087L265.294 202.159C265.077 202.159 265.294 205.036 260.897 102.924L190.651 70L95 98.9343L116.361 198.983L148.471 223.249L124.043 234.431L140.003 309.834L162.423 330.327L146.409 339.827L158.84 398.13L209.163 450C209.407 449.729 214.456 445.929 273.79 399.921L272.053 360.32L297.567 381.383C297.92 381.003 302.996 377.339 349.709 341.211L351.527 311.924L370.771 324.926C371.097 324.573 375.467 321.316 413.169 292.191L420.714 238.204Z" fill="#231F20"/>
<path d="M375.847 269.391L420.714 238.204L366.619 209.107L320.964 236.196L375.847 269.391Z" fill="#262626"/>
<path d="M370.853 324.872L375.82 269.392L320.992 236.196L319.852 290.4L370.853 324.872ZM297.649 381.329V323.84L242.223 282.936L246.566 339.393L297.649 381.302V381.329Z" fill="#135200"/>
<path d="M297.649 323.84L353.292 285.026L298.192 249.713L242.223 282.936L297.649 323.84Z" fill="#262626"/>
<path d="M209.163 449.946L200.314 391.209L146.381 339.8L158.867 398.103L209.163 449.946Z" fill="#135200"/>
<path d="M200.314 391.209L271.32 341.917L216.329 298.326L146.381 339.8L200.314 391.209Z" fill="#262626"/>
<path d="M195.7 360.7L184.028 283.017L123.934 234.486L140.003 309.807L195.7 360.7Z" fill="#135200"/>
<path d="M184.001 283.017L266.733 237.308L204.928 197.028L123.934 234.458L184.001 283.044V283.017Z" fill="#262626"/>
<path d="M178.383 245.94L162.341 139.54L95 98.9614L116.361 199.01L178.383 245.94Z" fill="#135200"/>
<path d="M162.341 139.567L260.789 102.843L190.651 70L95 98.9343L162.341 139.567Z" fill="#262626"/>
<path d="M413.25 292.137C371.586 324.301 370.636 324.871 370.826 324.871C375.983 266.786 375.549 269.391 375.793 269.391C423.293 236.304 420.334 238.204 420.66 238.204L413.25 292.137ZM349.817 341.157C298.246 381.057 297.431 381.301 297.649 381.301C297.133 321.126 297.431 323.813 297.649 323.813C357.037 282.556 353.101 284.998 353.291 284.998L349.817 341.157ZM273.871 399.867C209.543 449.647 208.946 449.946 209.271 449.946C200.124 389.417 200.341 391.209 200.341 391.209C276.016 338.741 271.239 341.917 271.429 341.917L273.871 399.867ZM260.789 102.843C265.294 205.036 264.941 202.104 265.186 202.104C180.039 245.099 178.166 245.94 178.329 245.94C161.934 137.178 162.179 139.54 162.314 139.54L260.789 102.843ZM266.679 237.309C270.099 314.774 269.664 312.087 269.99 312.087C196.324 360.266 195.483 360.781 195.781 360.781C183.866 280.981 183.866 283.017 184.056 283.017L266.679 237.309Z" fill="#52C41A"/>
</svg>
