<svg width="512" height="512" viewBox="0 0 512 512" fill="none" xmlns="http://www.w3.org/2000/svg">
<rect width="512" height="512" rx="80" fill="white"/>
<path d="M311.987 258.445C312.014 266.791 310.389 275.061 307.204 282.778C304.02 290.495 299.339 297.507 293.431 303.411C287.523 309.315 280.505 313.995 272.779 317.181C265.054 320.367 256.774 321.996 248.416 321.975C211.05 321.896 184.291 291.08 184.925 257.464C185.283 240.792 192.199 224.93 204.177 213.311C216.156 201.691 232.233 195.248 248.932 195.375C265.631 195.501 281.608 202.188 293.409 213.988C305.209 225.788 311.883 241.769 311.987 258.445ZM445.984 257.812C446.039 259.621 445.715 261.422 445.034 263.099C444.352 264.776 443.328 266.293 442.026 267.552C430.182 279.442 418.318 291.301 406.432 303.128C405.134 304.44 403.82 304.709 402.474 303.982C401.033 303.223 400.511 302.069 400.922 300.155C402.794 291.68 404.116 283.092 404.881 274.446C405.511 266.609 405.659 258.741 405.324 250.887C404.933 239.637 403.502 228.448 401.049 217.461C400.847 216.914 400.767 216.329 400.813 215.748C400.86 215.166 401.032 214.602 401.318 214.093C401.544 213.752 401.837 213.459 402.178 213.232C402.52 213.005 402.903 212.848 403.306 212.772C403.709 212.695 404.123 212.7 404.524 212.786C404.925 212.871 405.305 213.036 405.641 213.271C406.13 213.624 406.586 214.021 407.002 214.457L441.424 248.831C444.132 251.519 446.016 254.618 446 257.796L445.984 257.812ZM243.745 384.984C213.82 384.953 188.519 376.051 165.75 359.512C160.408 355.596 155.369 351.283 150.677 346.61C138.802 334.888 126.911 323.182 115.005 311.492L84.4306 281.466C79.8231 276.96 75.1998 272.454 70.6081 267.916C64.3856 261.749 64.4806 254.792 70.7981 248.673C75.4848 244.119 80.1397 239.518 84.8106 234.949C99.9367 220.086 115.068 205.234 130.205 190.392C138.628 182.138 146.94 173.774 155.601 165.805C172.424 150.305 193.141 139.65 215.546 134.973C224.328 132.994 233.302 131.997 242.304 132C272.229 132.237 299.494 140.633 323.26 159.243C338.475 170.916 350.831 185.894 359.392 203.041C365.767 215.695 369.841 229.379 371.425 243.455C375.463 281.466 364.87 314.892 339.03 343.258C322.543 361.687 300.874 374.725 276.853 380.668C266.025 383.403 254.913 384.841 243.745 384.984ZM249.509 351.195C252.709 351.172 255.907 350.982 259.088 350.626C261.102 350.434 263.109 350.17 265.104 349.835C289.25 345.408 308.804 333.217 323.751 314.054C338.318 295.428 344.018 273.861 342.244 250.365C341.268 238.382 337.869 226.72 332.253 216.086C322.326 196.906 306.983 183.403 287.651 174.248C270.298 166.042 252.058 163.987 233.137 166.912C213.874 169.699 195.992 178.512 182.059 192.084C168.474 205.207 155.031 218.473 141.525 231.676C134.78 238.301 128.067 244.973 121.259 251.551C116.921 255.757 116.731 260.848 121.053 265.101C129.54 273.46 138.037 281.804 146.545 290.131C157.976 301.341 169.345 312.583 180.824 323.746C199.57 341.977 222.054 351.211 249.524 351.227L249.509 351.195Z" fill="#24BBE5"/>
</svg>
