<svg width="512" height="512" viewBox="0 0 512 512" fill="none" xmlns="http://www.w3.org/2000/svg">
<rect width="512" height="512" rx="80" fill="white"/>
<path d="M253.156 347.04C253.156 347.04 253.156 215.757 257.527 215.77C260.907 215.77 265.304 385.116 265.304 385.116C259.255 384.407 253.156 357.253 253.156 347.04ZM337.887 217.29C326.209 166.404 300.629 122.652 265.354 88.8836L265.265 88.8076C260.97 82.2694 257.044 74.7683 253.893 66.8616L253.588 66C253.6 66.2534 253.6 66.5575 253.6 66.8616C253.6 74.0207 250.385 80.4195 245.315 84.7149L245.277 84.7402C199.862 123.184 170.966 179.835 170.013 243.228V243.392C170 244.178 170 245.103 170 246.028C170 308.838 200.307 364.59 247.132 399.536L247.628 399.891L248.733 400.689C250.775 415.759 252.52 430.863 253.969 446H261.606C263.715 427.108 266.562 410.572 270.285 394.353L269.7 397.382C274.732 393.897 279.129 390.286 283.233 386.371L283.195 386.409C318.788 353.503 341 306.62 341 254.581C341 253.808 341 253.048 340.987 252.275V252.389C340.949 239.959 339.818 227.807 337.671 216.011L337.861 217.265L337.887 217.29Z" fill="#389E0E"/>
</svg>
