<svg width="512" height="512" viewBox="0 0 512 512" fill="none" xmlns="http://www.w3.org/2000/svg">
<rect width="512" height="512" rx="80" fill="white"/>
<path fill-rule="evenodd" clip-rule="evenodd" d="M162.035 136.883C158.614 136.872 155.206 137.306 151.897 138.174V138.626H152.388C154.758 142.204 157.4 145.593 160.292 148.764C162.28 152.716 164.011 156.655 165.987 160.607C166.232 160.361 166.478 160.103 166.478 160.103C168.312 158.647 169.748 156.75 170.651 154.588C171.555 152.427 171.896 150.073 171.643 147.744C170.562 146.076 169.57 144.352 168.673 142.578C167.188 140.112 163.972 138.872 161.996 136.896" fill="#097099"/>
<path d="M162.035 136.883C158.614 136.872 155.206 137.306 151.897 138.174V138.626H152.388C154.758 142.204 157.4 145.593 160.292 148.764C162.28 152.716 164.011 156.655 165.987 160.607C166.232 160.361 166.478 160.103 166.478 160.103C168.312 158.647 169.748 156.75 170.651 154.588C171.555 152.427 171.896 150.073 171.643 147.744C170.562 146.076 169.57 144.352 168.673 142.578C167.188 140.112 163.972 138.872 161.996 136.896" stroke="#097099" stroke-width="9" stroke-linecap="round" stroke-linejoin="round"/>
<mask id="path-4-outside-1_39_913" maskUnits="userSpaceOnUse" x="70" y="72" width="368" height="364" fill="black">
<rect fill="white" x="70" y="72" width="368" height="364"/>
<path fill-rule="evenodd" clip-rule="evenodd" d="M407.343 352.398C391.053 351.254 374.706 353.614 359.405 359.32C355.699 360.805 349.784 360.805 349.267 365.493C351.256 367.469 351.489 370.659 353.232 373.41C356.614 379.137 360.962 384.235 366.082 388.481C371.247 392.433 376.413 396.371 381.902 399.833C391.523 405.786 402.41 409.234 411.786 415.162C417.235 418.623 422.659 423.065 428.109 426.785C430.821 428.761 432.539 431.951 436 433.242V432.493C434.983 429.748 433.726 427.099 432.242 424.576C429.775 422.123 427.296 419.889 424.816 417.422C417.572 407.843 408.905 399.429 399.117 392.471C391.2 387.022 373.895 379.557 370.705 370.517L370.201 370.013C375.994 369.193 381.703 367.861 387.261 366.036C395.656 363.814 403.314 364.318 411.953 362.161C415.918 361.167 423.086 358.7 423.086 358.7V354.826C418.669 350.435 415.505 344.559 410.856 340.414C398.207 329.373 384.728 319.321 370.537 310.349C362.956 305.455 353.18 302.303 345.109 298.132C342.19 296.66 337.36 295.937 335.591 293.483C331.577 287.594 328.216 281.284 325.569 274.667C318.492 261.236 311.635 246.346 305.539 232.14C301.931 222.62 297.77 213.318 293.077 204.284C270.43 165.779 237.74 134.156 198.505 112.798C188.606 108.007 178.08 104.633 167.24 102.777C161.118 102.519 155.023 102.041 148.914 101.808C144.971 99.2249 141.22 96.359 137.692 93.2331C123.718 84.3868 87.8163 65.3769 77.5365 90.5469C70.9502 106.444 87.3256 122.071 92.9433 130.142C97.6802 135.833 101.854 141.971 105.406 148.468C107.123 152.626 107.614 157.03 109.28 161.382C112.865 172.554 117.121 183.5 122.026 194.159C124.65 199.427 127.672 204.487 131.066 209.294C133.042 211.993 136.452 213.169 137.188 217.624C134.48 223.445 132.585 229.612 131.557 235.95C127.288 249.431 125.717 263.621 126.934 277.71C128.15 291.798 132.131 305.509 138.647 318.059C142.522 324.167 151.846 337.611 164.308 332.471C175.298 328.08 172.857 314.146 176.034 301.942C176.757 298.984 176.28 297.047 177.739 295.097V297.473C177.739 297.473 183.977 311.176 187.076 318.136C195.505 330.909 205.976 342.209 218.07 351.585C222.854 355.761 226.708 360.896 229.383 366.656V371.085H234.898C234.783 369.088 234.229 367.141 233.276 365.382C232.323 363.623 230.994 362.096 229.383 360.909C224.861 356.254 220.72 351.245 216.999 345.928C206.89 331.531 197.975 316.332 190.343 300.483C186.469 292.734 183.202 284.236 180.102 276.501C178.682 273.517 178.682 269.01 176.293 267.461C171.881 272.68 168.053 278.366 164.876 284.417C161.02 296.648 158.775 309.329 158.2 322.14C157.257 322.398 157.722 322.14 157.257 322.631C149.65 320.629 147.029 312.402 144.162 305.429C136.755 283.92 136.008 260.679 142.018 238.739C143.671 233.509 150.838 217.03 147.971 212.032C146.538 207.267 141.772 204.542 139.164 200.784C135.833 195.728 132.968 190.381 130.602 184.809C124.932 170.913 122.065 155.416 115.892 141.417C112.475 134.684 108.496 128.251 103.998 122.187C99.0223 116.129 94.6333 109.613 90.89 102.725C89.7018 99.9744 88.0359 95.4802 89.9343 92.4841C90.0624 91.6518 90.4582 90.884 91.0617 90.2968C91.6653 89.7095 92.4437 89.3349 93.2791 89.2297C96.3527 86.4918 105.173 89.9787 108.26 91.4768C116.555 94.7425 124.457 98.9316 131.816 103.965C135.147 106.47 142.999 112.811 142.999 112.811H145.324C153.228 114.529 162.113 113.289 169.551 115.523C182.076 119.698 194.029 125.425 205.13 132.57C237.851 153.429 264.451 182.596 282.216 217.095C285.186 222.764 286.439 227.968 289.151 233.883C294.317 246.023 300.774 258.42 305.94 270.224C310.497 281.902 316.391 293.014 323.503 303.337C327.197 308.502 342.035 311.24 348.712 313.952C354.51 315.958 360.2 318.264 365.759 320.861C374.166 326.027 382.548 331.981 390.464 337.65C394.403 340.62 406.762 346.793 407.511 351.74"/>
</mask>
<path fill-rule="evenodd" clip-rule="evenodd" d="M407.343 352.398C391.053 351.254 374.706 353.614 359.405 359.32C355.699 360.805 349.784 360.805 349.267 365.493C351.256 367.469 351.489 370.659 353.232 373.41C356.614 379.137 360.962 384.235 366.082 388.481C371.247 392.433 376.413 396.371 381.902 399.833C391.523 405.786 402.41 409.234 411.786 415.162C417.235 418.623 422.659 423.065 428.109 426.785C430.821 428.761 432.539 431.951 436 433.242V432.493C434.983 429.748 433.726 427.099 432.242 424.576C429.775 422.123 427.296 419.889 424.816 417.422C417.572 407.843 408.905 399.429 399.117 392.471C391.2 387.022 373.895 379.557 370.705 370.517L370.201 370.013C375.994 369.193 381.703 367.861 387.261 366.036C395.656 363.814 403.314 364.318 411.953 362.161C415.918 361.167 423.086 358.7 423.086 358.7V354.826C418.669 350.435 415.505 344.559 410.856 340.414C398.207 329.373 384.728 319.321 370.537 310.349C362.956 305.455 353.18 302.303 345.109 298.132C342.19 296.66 337.36 295.937 335.591 293.483C331.577 287.594 328.216 281.284 325.569 274.667C318.492 261.236 311.635 246.346 305.539 232.14C301.931 222.62 297.77 213.318 293.077 204.284C270.43 165.779 237.74 134.156 198.505 112.798C188.606 108.007 178.08 104.633 167.24 102.777C161.118 102.519 155.023 102.041 148.914 101.808C144.971 99.2249 141.22 96.359 137.692 93.2331C123.718 84.3868 87.8163 65.3769 77.5365 90.5469C70.9502 106.444 87.3256 122.071 92.9433 130.142C97.6802 135.833 101.854 141.971 105.406 148.468C107.123 152.626 107.614 157.03 109.28 161.382C112.865 172.554 117.121 183.5 122.026 194.159C124.65 199.427 127.672 204.487 131.066 209.294C133.042 211.993 136.452 213.169 137.188 217.624C134.48 223.445 132.585 229.612 131.557 235.95C127.288 249.431 125.717 263.621 126.934 277.71C128.15 291.798 132.131 305.509 138.647 318.059C142.522 324.167 151.846 337.611 164.308 332.471C175.298 328.08 172.857 314.146 176.034 301.942C176.757 298.984 176.28 297.047 177.739 295.097V297.473C177.739 297.473 183.977 311.176 187.076 318.136C195.505 330.909 205.976 342.209 218.07 351.585C222.854 355.761 226.708 360.896 229.383 366.656V371.085H234.898C234.783 369.088 234.229 367.141 233.276 365.382C232.323 363.623 230.994 362.096 229.383 360.909C224.861 356.254 220.72 351.245 216.999 345.928C206.89 331.531 197.975 316.332 190.343 300.483C186.469 292.734 183.202 284.236 180.102 276.501C178.682 273.517 178.682 269.01 176.293 267.461C171.881 272.68 168.053 278.366 164.876 284.417C161.02 296.648 158.775 309.329 158.2 322.14C157.257 322.398 157.722 322.14 157.257 322.631C149.65 320.629 147.029 312.402 144.162 305.429C136.755 283.92 136.008 260.679 142.018 238.739C143.671 233.509 150.838 217.03 147.971 212.032C146.538 207.267 141.772 204.542 139.164 200.784C135.833 195.728 132.968 190.381 130.602 184.809C124.932 170.913 122.065 155.416 115.892 141.417C112.475 134.684 108.496 128.251 103.998 122.187C99.0223 116.129 94.6333 109.613 90.89 102.725C89.7018 99.9744 88.0359 95.4802 89.9343 92.4841C90.0624 91.6518 90.4582 90.884 91.0617 90.2968C91.6653 89.7095 92.4437 89.3349 93.2791 89.2297C96.3527 86.4918 105.173 89.9787 108.26 91.4768C116.555 94.7425 124.457 98.9316 131.816 103.965C135.147 106.47 142.999 112.811 142.999 112.811H145.324C153.228 114.529 162.113 113.289 169.551 115.523C182.076 119.698 194.029 125.425 205.13 132.57C237.851 153.429 264.451 182.596 282.216 217.095C285.186 222.764 286.439 227.968 289.151 233.883C294.317 246.023 300.774 258.42 305.94 270.224C310.497 281.902 316.391 293.014 323.503 303.337C327.197 308.502 342.035 311.24 348.712 313.952C354.51 315.958 360.2 318.264 365.759 320.861C374.166 326.027 382.548 331.981 390.464 337.65C394.403 340.62 406.762 346.793 407.511 351.74" fill="#097099"/>
<path d="M407.343 352.398C407.343 352.398 407.343 352.398 407.343 352.398C391.127 351.062 374.591 353.253 359.214 358.808C359.211 358.809 359.204 358.812 359.202 358.813C357.314 359.53 355.196 359.822 353.125 360.553C351.105 361.172 348.753 362.909 348.587 365.418C348.567 365.581 348.67 365.862 348.785 365.979C350.634 367.882 350.862 371.12 352.573 373.828L352.56 373.807C355.917 379.634 360.297 384.884 365.449 389.244C365.455 389.249 365.473 389.263 365.479 389.268C369.236 392.204 373.009 395.148 376.937 397.916C378.358 398.918 379.799 399.896 381.265 400.842C381.267 400.843 381.272 400.846 381.274 400.847C390.928 406.955 401.76 410.506 410.967 416.457C416.455 420.032 421.57 424.332 427.135 428.212L427.091 428.182C429.407 429.835 431.321 433.393 435.361 434.954C436.678 435.459 437.814 434.653 437.827 433.242C437.83 432.992 437.832 432.743 437.835 432.493C437.836 432.355 437.767 431.985 437.72 431.856C436.693 429.002 435.411 426.237 433.895 423.604C433.845 423.516 433.666 423.289 433.595 423.217C431.137 420.726 428.605 418.397 426.237 415.993L426.423 416.206C419.161 406.413 410.379 397.729 400.475 390.561C400.469 390.557 400.452 390.545 400.446 390.541C390.364 383.663 377.506 378.709 373.217 369.631C373.133 369.386 372.77 368.818 372.588 368.634C372.422 368.464 372.255 368.295 372.089 368.126L370.576 372.656C376.527 371.864 382.413 370.543 388.141 368.713L387.982 368.76C395.534 366.765 404.025 367.214 412.686 365.095C416.68 364.084 420.341 362.884 424.1 361.648C425.249 361.262 426.193 359.913 426.202 358.7C426.213 357.409 426.223 356.117 426.233 354.826C426.238 354.2 425.745 353.039 425.305 352.594C421.286 348.576 418.308 342.795 413.049 337.954C413.044 337.949 413.028 337.936 413.023 337.931C400.339 326.687 386.777 316.417 372.498 307.248L372.527 307.267C363.988 301.766 354.809 298.876 346.884 294.697C346.877 294.693 346.857 294.683 346.85 294.68C344.699 293.619 342.963 293.167 341.447 292.579C339.966 292.07 338.707 291.243 338.786 291.179L338.846 291.264C335.036 285.59 331.849 279.505 329.358 273.151C329.327 273.072 329.219 272.841 329.179 272.765C322.049 258.985 315.627 244.774 309.558 230.415L309.629 230.59C306.019 220.891 301.838 211.402 297.115 202.186C297.094 202.143 297.024 202.018 297 201.976C274.333 162.835 240.762 130.024 200.994 108.227C200.95 108.203 200.817 108.136 200.773 108.114C190.471 103.074 179.449 99.4939 168.14 97.5171C168.005 97.4935 167.601 97.4516 167.465 97.4453C161.481 97.1706 155.377 96.669 149.12 96.4077L151.876 97.2875C148.162 94.8343 144.627 92.1123 141.308 89.1503C141.176 89.0323 140.759 88.7199 140.609 88.6246C130.553 82.3244 119.941 76.755 107.74 73.7688C101.649 72.3863 94.8975 71.5668 87.8311 73.6785C80.6604 75.6645 74.7142 81.9911 72.2908 88.4045L72.3017 88.3781C64.8893 108.268 80.7364 123.001 88.2023 133.442C88.2592 133.524 88.44 133.761 88.5037 133.838C92.9858 139.248 96.9411 145.092 100.297 151.261L100.024 150.691C101.368 153.831 101.912 158.379 103.818 163.473L103.711 163.169C107.346 174.569 111.674 185.749 116.661 196.628C116.677 196.661 116.724 196.759 116.74 196.791C119.488 202.33 122.662 207.658 126.223 212.714C126.234 212.731 126.27 212.78 126.282 212.797C128.146 215.259 129.883 216.383 130.526 217.131C131.199 217.882 131.169 217.903 131.325 218.593L131.8 215.118C128.859 221.42 126.791 228.129 125.672 234.995L125.874 234.15C121.364 248.327 119.685 263.399 120.965 278.225C122.204 292.721 126.269 306.969 132.867 319.937C133.017 320.233 133.169 320.529 133.322 320.824C133.37 320.916 133.525 321.185 133.58 321.273C136.648 326.074 140.226 331.024 145.608 335.004C150.698 339.102 159.812 341.198 166.593 338.013L166.532 338.037C174.757 335.204 178.468 325.733 179.237 319.939C180.31 313.71 180.561 308.199 181.817 303.447C181.821 303.43 181.834 303.378 181.838 303.361C182.24 301.759 182.389 300.074 182.5 299.164C182.554 298.708 182.609 298.496 182.609 298.504C182.613 298.507 182.533 298.664 182.518 298.674L171.769 295.097C171.77 295.889 171.771 296.681 171.771 297.473C171.771 298.025 172.08 299.444 172.308 299.946C175.431 306.8 178.577 313.706 181.645 320.555C181.725 320.736 182.005 321.246 182.114 321.411C190.892 334.691 201.872 346.508 214.465 356.235L214.201 356.017C218.358 359.629 221.747 364.124 224.076 369.12L223.532 366.656C223.534 368.132 223.537 369.609 223.54 371.085C223.534 374.391 226.078 376.923 229.383 376.929C231.222 376.925 233.06 376.922 234.898 376.918C238.388 376.925 240.915 374.236 240.721 370.75C240.556 367.908 239.755 365.107 238.395 362.608C237.037 360.108 235.122 357.914 232.83 356.232L233.55 356.86C229.237 352.44 225.278 347.674 221.724 342.621C211.763 328.505 202.958 313.582 195.419 298.039C195.412 298.023 195.389 297.978 195.382 297.963C191.64 290.525 188.532 282.54 185.259 274.434C185.233 274.369 185.148 274.176 185.118 274.112C184.831 273.568 184.469 272.105 183.989 270.289C183.364 268.562 183.186 265.671 179.299 262.826C177.007 261.329 173.847 261.81 172.074 263.895C167.423 269.43 163.382 275.474 160.046 281.881C159.954 282.055 159.733 282.589 159.673 282.777C155.72 295.454 153.435 308.645 152.89 321.901L156.795 317.014C156.747 317.028 156.708 317.038 156.685 317.044C156.65 317.052 156.701 317.042 156.603 317.062C156.558 317.073 156.521 317.075 156.257 317.142C156.112 317.181 155.904 317.232 155.521 317.388C155.16 317.53 154.566 317.859 154.151 318.211C153.304 318.957 153.285 319.14 153.229 319.182C153.196 319.226 153.224 319.189 153.242 319.166C153.336 319.046 153.388 318.993 153.402 318.978L158.608 317.495C154.565 316.805 151.795 310.629 148.989 303.444L149.097 303.729C141.962 283.402 141.123 260.895 146.758 240.037L146.704 240.22C148.014 236.277 149.846 231.643 151.227 227.03C151.931 224.689 152.58 222.302 153.029 219.681C153.286 216.968 154.348 214.486 152.113 209.656L152.544 210.657C150.141 203.592 144.687 200.832 143.024 198.104L143.088 198.199C139.888 193.401 137.122 188.311 134.836 183.011L134.861 183.071C129.244 169.545 126.369 154.278 119.858 139.668C119.839 139.625 119.778 139.497 119.757 139.455C116.191 132.53 112.041 125.909 107.367 119.688C107.342 119.655 107.265 119.557 107.239 119.525C102.397 113.708 98.1059 107.428 94.4428 100.794L94.6021 101.122C93.2121 98.2679 92.777 95.0017 93.2904 94.6106C93.4809 94.3142 93.8052 93.4364 93.8611 93.0886C93.8523 93.1089 93.8373 93.124 93.8207 93.1323C93.804 93.1407 93.7863 93.1421 93.7716 93.1383C94.3175 93.0732 95.4865 92.5342 95.8994 92.1714C95.7294 92.3113 95.6993 92.2625 95.9071 92.2128C96.1061 92.1609 96.4753 92.1198 96.904 92.1262C97.7716 92.1355 98.8549 92.3059 99.949 92.5659C102.14 93.0901 104.51 93.9539 106.586 94.9244C106.639 94.9506 106.801 95.0207 106.856 95.0427C114.898 98.1419 122.597 102.151 129.758 106.973L129.625 106.878C133.312 109.643 137.081 112.64 140.775 115.566C141.221 115.931 142.423 116.348 142.999 116.352C143.774 116.346 144.549 116.34 145.324 116.335L144.576 116.254C153.425 118.036 161.746 116.727 168.59 118.722L168.495 118.692C180.772 122.676 192.559 128.207 203.491 135.118C203.493 135.119 203.5 135.123 203.502 135.125C235.78 155.281 262.632 184.174 280.419 218.02C280.42 218.023 280.424 218.03 280.425 218.033C283.196 223.113 284.789 228.985 287.47 234.654L287.449 234.608C292.838 246.928 299.149 258.705 304.603 270.809L304.58 270.755C308.518 280.559 313.405 289.971 319.147 298.817C320.271 300.549 321.428 302.259 322.617 303.947C322.619 303.95 322.625 303.959 322.628 303.963C330.183 311.159 340.021 311.324 348.417 314.679C348.424 314.682 348.448 314.691 348.455 314.694C354.248 316.628 359.944 318.865 365.511 321.392L365.452 321.361C373.97 326.473 382.155 332.153 390.315 337.858C396.293 342.208 404.341 344.763 407.511 351.74C407.511 351.74 407.511 351.74 407.511 351.74C404.494 344.662 396.416 341.877 390.618 337.446C382.581 331.555 374.516 325.688 366.066 320.362C366.054 320.355 366.019 320.336 366.007 320.33C360.459 317.665 354.77 315.287 348.968 313.211L349.007 313.225C340.515 309.758 330.245 308.667 324.379 302.711L324.389 302.726C323.251 301.036 322.145 299.326 321.072 297.595C315.592 288.758 310.973 279.399 307.299 269.694C307.294 269.683 307.281 269.65 307.276 269.639C302.007 257.3 295.928 245.399 290.853 233.159C290.849 233.15 290.837 233.121 290.832 233.112C288.414 227.779 286.93 221.811 284.007 216.156L284.013 216.169C266.545 181.362 239.604 151.271 206.759 130.016L206.77 130.023C195.528 122.66 183.349 116.706 170.607 112.355C170.588 112.348 170.531 112.33 170.512 112.324C161.58 109.75 153.197 111.045 146.072 109.368C145.921 109.337 145.478 109.287 145.324 109.288C144.549 109.282 143.774 109.276 142.999 109.271L145.224 110.057C141.52 107.036 137.873 104.042 134.006 101.052C133.979 101.033 133.9 100.975 133.873 100.957C126.333 95.7213 118.196 91.3348 109.664 87.9108L109.933 88.0291C107.275 86.7495 104.703 85.7663 101.8 85.0172C100.345 84.6567 98.8319 84.3575 97.0751 84.3022C95.3674 84.3102 93.0827 84.2773 90.6588 86.288L92.7866 85.3211C91.1143 85.5227 89.5142 86.2855 88.3028 87.4612C87.0866 88.6319 86.2671 90.2079 86.0075 91.8796L86.5782 90.3576C83.3638 96.4195 85.9308 100.827 87.1778 104.329C87.2072 104.395 87.3018 104.592 87.3371 104.656C91.1543 111.788 95.654 118.56 100.757 124.849L100.629 124.686C104.946 130.585 108.763 136.846 112.027 143.378L111.926 143.165C117.77 156.591 120.443 171.723 126.343 186.546C126.348 186.558 126.362 186.595 126.368 186.607C128.809 192.444 131.783 198.062 135.24 203.368C135.253 203.387 135.291 203.444 135.304 203.463C139.16 208.549 142.917 210.962 143.399 213.408C143.465 213.621 143.718 214.215 143.83 214.408C143.657 214.013 143.89 214.632 143.848 215.368C143.837 216.127 143.725 217.069 143.55 218.038C143.197 219.993 142.62 222.085 141.965 224.18C140.642 228.446 138.995 232.428 137.332 237.258C137.32 237.294 137.288 237.404 137.278 237.441C130.908 260.131 131.585 284.768 139.226 307.128C139.246 307.186 139.31 307.357 139.334 307.413C142.074 313.544 144.449 324.362 155.905 327.766C157.498 328.179 159.985 327.482 161.112 326.283C161.255 326.132 161.429 325.941 161.637 325.674C161.684 325.615 161.739 325.54 161.733 325.548C161.705 325.553 161.715 325.697 160.902 326.414C160.506 326.75 159.932 327.068 159.592 327.201C159.23 327.349 159.044 327.393 158.923 327.426C158.704 327.481 158.71 327.475 158.712 327.476C158.795 327.46 159.029 327.411 159.173 327.376C159.33 327.338 159.47 327.302 159.604 327.266C161.644 326.698 163.422 324.494 163.509 322.379C164.111 310.049 166.327 297.805 170.079 286.058L169.707 286.953C172.716 281.27 176.346 275.919 180.511 271.026L173.286 272.095C173.031 271.932 172.866 271.749 172.808 271.674C172.747 271.594 172.773 271.618 172.823 271.731C172.932 271.959 173.117 272.508 173.295 273.187C173.69 274.574 173.959 276.411 175.086 278.889L174.945 278.567C178.135 286.598 181.278 294.871 185.305 303.002L185.268 302.926C192.983 319.066 202.027 334.574 212.278 349.242C216.157 354.81 220.49 360.073 225.217 364.957C225.352 365.096 225.781 365.471 225.937 365.586C226.855 366.266 227.619 367.15 228.158 368.155C228.698 369.159 229.013 370.283 229.074 371.42L234.898 365.252C233.06 365.248 231.222 365.245 229.383 365.242L235.227 371.085C235.23 369.609 235.232 368.132 235.235 366.656C235.234 366.104 234.924 364.691 234.691 364.191C231.696 357.705 227.321 351.858 221.94 347.152C221.888 347.107 221.73 346.976 221.675 346.934C210.129 337.957 200.073 327.074 192.038 314.862L192.507 315.718C189.417 308.777 186.293 301.886 183.17 295.001L183.706 297.473C183.707 296.681 183.708 295.889 183.708 295.097C183.706 288.752 176.759 286.439 172.96 291.521C171.402 293.47 170.773 296.327 170.648 297.675C170.479 299.123 170.408 299.812 170.23 300.522L170.252 300.437C167.307 312.798 168.15 325.645 162.084 326.905C162.072 326.91 162.035 326.925 162.023 326.93C156.225 329.942 148.884 323.351 143.714 314.845L143.972 315.294C143.835 315.03 143.699 314.765 143.565 314.5C137.664 302.902 134.022 290.161 132.902 277.194C131.744 263.933 133.227 250.446 137.241 237.749C137.294 237.582 137.414 237.077 137.442 236.904C138.374 231.114 140.106 225.452 142.575 220.131C142.922 219.383 143.186 217.468 143.05 216.655C142.679 213.847 140.885 210.639 139.077 208.896C137.283 207.107 136.077 206.188 135.851 205.792L135.91 205.874C132.685 201.32 129.809 196.519 127.313 191.526L127.391 191.69C122.572 181.257 118.381 170.533 114.849 159.595C114.829 159.534 114.765 159.352 114.742 159.291C113.399 155.976 112.887 151.447 110.787 146.245C110.739 146.127 110.576 145.786 110.515 145.675C106.773 138.859 102.368 132.41 97.383 126.447L97.6844 126.843C88.085 114.692 78.331 102.994 82.7714 92.7157C82.7735 92.7104 82.7801 92.6946 82.7822 92.6893C89.1106 74.7392 117.65 87.0786 134.774 97.8417L134.075 97.3159C137.81 100.603 141.783 103.618 145.952 106.329C146.507 106.689 148.047 107.186 148.709 107.209C154.678 107.413 160.774 107.868 167.015 108.108L166.339 108.037C176.676 109.762 186.774 112.951 196.238 117.483L196.017 117.37C234.311 137.945 266.883 169.118 289.154 206.591L289.038 206.381C293.7 215.23 297.846 224.353 301.45 233.69C301.463 233.725 301.505 233.83 301.52 233.864C307.828 248.302 314.5 262.601 321.959 276.569L321.781 276.182C324.577 283.051 328.124 289.609 332.336 295.702C332.348 295.719 332.383 295.77 332.396 295.787C334.659 298.623 336.933 299.157 338.749 299.905C340.579 300.562 342.311 301.062 343.367 301.584L343.334 301.567C352.142 306.003 361.16 308.77 368.547 313.432C368.553 313.435 368.57 313.447 368.576 313.45C382.666 322.216 396.089 332.069 408.689 342.896L408.663 342.873C412.853 346.503 415.93 352.144 420.867 357.058L419.938 354.826C419.948 356.117 419.959 357.409 419.969 358.7L422.071 355.753C418.478 357.002 414.743 358.279 411.218 359.229C403.671 361.27 395.16 360.953 386.54 363.312C386.509 363.321 386.413 363.348 386.382 363.359C381 365.178 375.453 366.523 369.827 367.37C367.369 367.735 366.545 370.156 368.314 371.901C368.483 372.067 368.653 372.234 368.822 372.4L368.194 371.403C375.247 384.641 388.215 387.717 397.787 394.402L397.759 394.382C407.398 401.098 416.015 409.307 423.209 418.637C423.244 418.683 423.354 418.811 423.395 418.85C425.9 421.298 428.474 423.577 430.889 425.936L430.589 425.549C432.038 427.958 433.275 430.499 434.28 433.13L434.165 432.493C434.168 432.743 434.17 432.992 434.173 433.242L436.639 431.53C434.042 430.701 432.306 427.787 429.127 425.388C429.119 425.382 429.093 425.363 429.084 425.357C423.613 421.703 418.391 417.48 412.607 413.868C402.808 407.836 391.964 404.541 382.53 398.818L382.538 398.823C381.085 397.928 379.651 396.997 378.231 396.039C374.308 393.394 370.5 390.55 366.684 387.694L366.714 387.718C361.649 383.611 357.292 378.614 353.904 373.013C353.901 373.009 353.894 372.996 353.891 372.992C352.312 370.723 352.127 367.485 349.75 365.008L349.948 365.568C350.293 361.489 355.757 361.372 359.608 359.828L359.596 359.833C374.702 353.999 391.1 351.435 407.343 352.398Z" fill="#097099" mask="url(#path-4-outside-1_39_913)"/>
</svg>
