<svg width="512" height="512" viewBox="0 0 512 512" fill="none" xmlns="http://www.w3.org/2000/svg">
<rect width="512" height="512" rx="80" fill="white"/>
<path d="M76 256C76 355.424 156.576 436 256 436C355.424 436 436 355.424 436 256C436.041 156.576 355.424 76 256.041 76C156.658 76 76 156.576 76 256Z" fill="url(#paint0_radial_39_1189)"/>
<mask id="mask0_39_1189" style="mask-type:luminance" maskUnits="userSpaceOnUse" x="77" y="77" width="358" height="358">
<path d="M77.4996 256C77.4996 354.613 157.428 434.541 256.041 434.541C354.653 434.541 434.581 354.613 434.581 256C434.581 157.387 354.653 77.4591 256.041 77.4591C157.428 77.4591 77.4996 157.428 77.4996 256Z" fill="white"/>
</mask>
<g mask="url(#mask0_39_1189)">
<path d="M434.541 77.4996H77.4996V434.541H434.541V77.4996Z" fill="url(#paint1_radial_39_1189)"/>
</g>
<path d="M327.079 199.608C304.868 238.275 255.5 251.65 216.833 229.439C216.104 229.033 215.415 228.588 214.726 228.182C207.957 224.007 201.796 218.819 196.527 212.861C182.584 197.135 175.329 176.626 176.302 155.672C176.424 153.321 176.626 150.97 176.91 148.66C177.194 146.349 177.599 144.08 178.126 141.81C178.653 139.499 179.261 137.189 179.95 134.919C180.639 132.731 181.449 130.542 182.341 128.394C183.273 126.165 184.287 123.976 185.381 121.868C186.556 119.639 187.853 117.45 189.231 115.302C190.488 113.357 191.866 111.452 193.285 109.587C194.865 107.561 196.527 105.656 198.27 103.791C200.053 101.927 201.877 100.143 203.823 98.4411C205.768 96.6983 207.835 95.1176 209.943 93.5774C211.037 92.8073 212.132 92.0372 213.267 91.3076C165.399 115.789 145.782 173.992 169.087 222.467C169.29 222.913 169.533 223.399 169.776 223.845C169.898 224.048 169.979 224.251 170.101 224.453C170.141 224.575 170.222 224.697 170.303 224.818C170.425 224.98 170.465 224.94 170.668 224.94C171.722 224.94 172.776 224.94 173.789 224.94C175.735 224.98 177.64 225.102 179.585 225.264C216.185 228.709 245.854 256.433 251.812 292.708C253.109 300.774 253.19 309.002 252.055 317.108C249.907 332.388 243.422 346.696 233.33 358.41C227.574 365.097 220.765 370.812 213.145 375.352C197.986 384.309 180.315 388.079 162.805 386.093C159.644 385.728 156.482 385.201 153.402 384.471C151.375 383.985 149.389 383.458 147.444 382.81C156.279 386.741 165.642 389.335 175.208 390.511C184.165 391.605 193.204 391.524 202.12 390.186C218.049 387.795 233.208 381.553 246.178 371.988C255.703 364.976 263.89 356.302 270.375 346.412C270.659 345.966 270.943 345.561 271.227 345.115C271.348 344.953 271.591 344.669 271.551 344.507C271.429 344.224 271.308 343.98 271.105 343.737C270.578 342.724 270.051 341.711 269.565 340.657C268.551 338.59 267.66 336.442 266.849 334.293C265.187 329.916 263.931 325.377 263.08 320.756C261.215 310.826 261.215 300.693 263.08 290.763C264.66 282.332 267.579 274.226 271.753 266.728C285.858 241.112 312.69 225.142 341.913 224.94C343.899 224.94 345.885 224.98 347.871 225.102C349.776 225.223 351.681 225.426 353.586 225.669C355.451 225.912 357.315 226.237 359.18 226.642C361.004 227.007 362.787 227.453 364.611 227.98C366.354 228.466 368.097 229.033 369.799 229.641C371.542 230.249 373.244 230.938 374.946 231.708C376.689 232.479 378.351 233.289 380.053 234.14C381.715 235.032 383.336 235.964 384.958 236.937C386.457 237.869 387.957 238.842 389.376 239.896C390.875 240.95 392.294 242.084 393.712 243.219C395.172 244.395 396.59 245.651 397.968 246.948C399.427 248.326 400.846 249.745 402.184 251.245C403.521 252.704 404.818 254.244 406.075 255.825C407.453 257.567 408.75 259.391 410.006 261.256C411.263 263.161 412.438 265.147 413.532 267.133C415.073 269.93 416.41 272.848 417.626 275.807C418.923 279.049 419.977 282.332 420.868 285.696C418.518 267.741 411.263 250.799 399.914 236.694C391.564 226.318 381.229 217.685 369.515 211.362C357.477 204.877 344.264 200.986 330.646 199.891C329.389 199.729 328.254 199.648 327.079 199.608Z" fill="url(#paint2_radial_39_1189)"/>
<defs>
<radialGradient id="paint0_radial_39_1189" cx="0" cy="0" r="1" gradientUnits="userSpaceOnUse" gradientTransform="translate(256.025 256.009) scale(180.009 180.009)">
<stop offset="0.99" stop-opacity="0.5"/>
<stop offset="1" stop-opacity="0"/>
</radialGradient>
<radialGradient id="paint1_radial_39_1189" cx="0" cy="0" r="1" gradientUnits="userSpaceOnUse" gradientTransform="translate(256.029 256.005) scale(178.523 178.523)">
<stop stop-color="#262626"/>
<stop offset="1" stop-color="#434343"/>
</radialGradient>
<radialGradient id="paint2_radial_39_1189" cx="0" cy="0" r="1" gradientUnits="userSpaceOnUse" gradientTransform="translate(284.112 241.274) scale(143.458 157.388)">
<stop stop-color="#C2C0C2"/>
<stop offset="1" stop-color="#EBEBEB"/>
</radialGradient>
</defs>
</svg>
