<svg width="512" height="512" viewBox="0 0 512 512" fill="none" xmlns="http://www.w3.org/2000/svg">
<g clip-path="url(#clip0_32_58)">
<path d="M435.2 0H76.8C34.3845 0 0 34.3845 0 76.8V435.2C0 477.615 34.3845 512 76.8 512H435.2C477.615 512 512 477.615 512 435.2V76.8C512 34.3845 477.615 0 435.2 0Z" fill="white"/>
<path d="M154.322 204.132H96.1096C95.458 204.095 94.812 204.271 94.2689 204.633C93.7259 204.995 93.3152 205.523 93.0986 206.139L66 347.654C66 350.665 69.011 350.665 69.011 350.665H99.1206C102.132 350.665 102.132 348.658 102.132 348.658L109.157 313.53H136.256C178.409 313.53 199.486 285.428 204.504 260.336C209.522 235.245 205.508 204.132 154.322 204.132ZM167.369 258.329C163.354 277.399 150.307 285.428 132.241 285.428H114.175L125.216 232.234H143.281C170.38 232.234 169.376 242.271 167.369 258.329Z" fill="url(#paint0_linear_32_58)" stroke="white" stroke-width="6"/>
<path d="M274.76 313.53C270.745 313.53 271.749 309.515 271.749 309.515L283.793 248.292C283.793 240.263 289.815 232.234 265.727 233.237H247.661L232.607 311.522C232.607 311.522 232.607 314.533 228.592 314.533H199.486C196.475 314.533 196.475 311.522 196.475 311.522L224.577 170.007C224.577 170.007 224.577 168 228.592 168H258.702C261.712 168 260.709 171.011 260.709 171.011L253.683 205.135H279.778C315.91 205.135 324.943 222.197 321.932 242.27L308.884 311.522C308.884 311.522 308.884 314.533 303.866 314.533L274.76 313.53Z" fill="url(#paint1_linear_32_58)" stroke="white" stroke-width="6"/>
<path d="M394.195 204.132H335.983C335.331 204.095 334.685 204.271 334.142 204.633C333.599 204.995 333.188 205.523 332.972 206.139L305.873 347.654C305.873 350.665 308.884 350.665 308.884 350.665H338.994C342.005 350.665 342.005 348.658 342.005 348.658L349.03 313.53H376.129C418.282 313.53 439.359 285.428 444.377 260.336C449.396 235.245 445.381 204.132 394.195 204.132ZM407.242 258.329C403.228 277.399 390.18 285.428 372.114 285.428H354.049L365.089 232.234H383.155C410.253 232.234 409.25 242.271 407.242 258.329Z" fill="url(#paint2_linear_32_58)" stroke="white" stroke-width="6"/>
</g>
<defs>
<linearGradient id="paint0_linear_32_58" x1="136.063" y1="204.127" x2="136.063" y2="350.665" gradientUnits="userSpaceOnUse">
<stop stop-color="#9154DE"/>
<stop offset="1" stop-color="#722ED1"/>
</linearGradient>
<linearGradient id="paint1_linear_32_58" x1="259.472" y1="168" x2="259.472" y2="314.533" gradientUnits="userSpaceOnUse">
<stop stop-color="#9154DE"/>
<stop offset="1" stop-color="#722ED1"/>
</linearGradient>
<linearGradient id="paint2_linear_32_58" x1="375.937" y1="204.127" x2="375.937" y2="350.665" gradientUnits="userSpaceOnUse">
<stop stop-color="#9154DE"/>
<stop offset="1" stop-color="#722ED1"/>
</linearGradient>
<clipPath id="clip0_32_58">
<rect width="512" height="512" rx="80" fill="white"/>
</clipPath>
</defs>
</svg>
