<svg width="512" height="512" viewBox="0 0 512 512" fill="none" xmlns="http://www.w3.org/2000/svg">
<rect width="512" height="512" rx="80" fill="white"/>
<path d="M245.527 80.0501C251.121 79.9374 256.714 80.0501 262.32 80.0501C263.271 80.0501 264.335 79.8749 265.148 80.513C267.1 80.6132 269.065 80.5131 271.03 80.6132C272.544 81.5141 274.396 80.8759 276.035 81.1137C277.286 82.0647 278.976 81.1137 280.215 82.0147C281.391 82.1398 282.717 81.8144 283.756 82.5152L286.096 82.6403C287.072 83.2285 288.286 82.9532 289.274 83.4787C290.135 83.4758 290.987 83.6505 291.777 83.9918C292.631 84.0095 293.476 84.1659 294.28 84.4548C294.976 84.5502 295.658 84.7352 296.307 85.0054L297.671 85.1931C298.522 85.5309 299.435 85.6811 300.311 85.9689C301.005 86.0624 301.686 86.2388 302.338 86.4945L303.214 86.7197C304.078 87.0325 304.991 87.1952 305.855 87.508L306.743 87.6832C307.419 88.0211 308.132 88.2088 308.833 88.4841C309.333 88.6343 309.834 88.7969 310.347 88.9721L311.861 89.4601C312.378 89.6353 312.891 89.8314 313.4 90.0483L314.339 90.1734L315.853 91.0994L316.804 91.237C317.314 91.4556 317.841 91.6314 318.38 91.7626L319.97 92.5635H320.921C321.421 92.8638 321.922 93.1516 322.435 93.4394C323.314 93.623 324.158 93.9439 324.937 94.3904L325.888 94.941C327.104 95.3608 328.295 95.8496 329.455 96.4051C330.131 96.7429 330.794 97.0808 331.469 97.4312L333.046 98.182L335.549 99.4333L337.126 100.184C338.877 100.935 340.316 102.236 342.131 102.925C342.832 103.338 343.47 103.851 344.196 104.176C345.234 104.664 346.11 105.427 347.161 105.915C354.192 110.309 360.918 115.171 367.295 120.468C368.997 121.394 369.961 123.196 371.612 124.222C372.312 124.679 372.947 125.226 373.502 125.849C377.394 129.841 381.435 133.695 385.29 137.724C386.391 139.739 388.518 140.903 389.619 142.93C391.659 144.807 392.923 147.335 394.862 149.312C397.29 153.066 400.131 156.444 402.446 160.236C403.171 161.838 404.448 163.114 405.186 164.716C405.561 165.429 406.062 166.067 406.437 166.768L406.875 167.819C407.716 169.084 408.476 170.401 409.153 171.761C409.478 172.437 409.803 173.112 410.166 173.775C410.529 174.439 410.667 174.827 410.917 175.352C411.343 176.166 411.743 176.991 412.168 177.855C412.406 178.38 412.656 178.906 412.907 179.444L413.67 180.858C413.908 181.396 414.171 181.909 414.433 182.447C414.995 183.593 415.488 184.772 415.91 185.976C416.413 186.732 416.754 187.584 416.911 188.479C417.199 188.992 417.487 189.492 417.787 189.993L417.862 190.956C418.15 191.457 418.438 191.957 418.725 192.47C418.852 193.01 419.023 193.537 419.239 194.047L419.389 194.986L420.227 196.5C420.359 197.037 420.531 197.564 420.74 198.077L420.915 198.977C421.216 199.666 421.453 200.391 421.766 201.08C421.766 201.305 421.904 201.755 421.954 201.981C422.267 202.844 422.442 203.745 422.742 204.609L422.968 205.509C423.268 206.373 423.43 207.274 423.743 208.137C423.743 208.363 423.906 208.813 423.969 209.026C424.269 209.902 424.432 210.803 424.769 211.679C424.769 212.129 424.895 212.58 424.957 213.043C425.223 213.694 425.412 214.374 425.52 215.07C425.933 216.083 425.771 217.247 426.284 218.236C426.284 218.686 426.409 219.137 426.471 219.587C427.185 220.713 426.571 222.152 427.31 223.266C427.31 223.879 427.397 224.517 427.46 225.118C428.336 226.369 427.46 228.059 428.336 229.31C428.473 230.486 428.098 231.813 428.849 232.839C428.849 233.952 428.849 235.079 428.949 236.192C429.912 238.032 429.149 240.247 429.449 242.236C430.088 243.062 429.862 244.126 429.912 245.089C429.85 252.535 429.912 259.968 429.85 267.401C428.899 269.078 429.625 271.155 429.349 272.944C428.486 274.283 429.049 275.96 428.849 277.462C427.885 278.713 428.849 280.427 427.948 281.666C428.058 282.858 427.9 284.059 427.485 285.182C427.502 286.046 427.322 286.902 426.959 287.685C426.959 288.298 426.859 288.936 426.809 289.537C426.439 290.318 426.255 291.175 426.271 292.04C425.783 293.028 425.933 294.179 425.52 295.206C425.394 295.887 425.227 296.559 425.02 297.22C424.896 297.902 424.729 298.575 424.519 299.235C424.408 299.923 424.227 300.598 423.981 301.25L423.743 302.125C423.418 302.976 423.28 303.877 423.018 304.741C422.842 305.254 422.642 305.754 422.442 306.255L422.242 307.156C421.929 308.019 421.754 308.933 421.453 309.796L421.241 310.685C421.037 311.199 420.865 311.725 420.728 312.261L419.964 313.763C419.814 314.289 419.639 314.814 419.451 315.34L419.239 316.241C419.028 316.752 418.856 317.279 418.725 317.817L417.875 319.331L417.799 320.307C417.499 320.795 417.211 321.309 416.924 321.809C416.767 322.704 416.427 323.556 415.922 324.312C415.484 325.338 415.122 326.389 414.671 327.415L414.158 328.391L413.395 329.843L412.631 331.444L412.131 332.42C411.781 333.096 411.443 333.772 411.117 334.448L410.617 335.436C410.204 336.25 409.791 337.075 409.365 337.939C408.635 339.504 407.798 341.017 406.863 342.469C406.4 343.332 405.762 344.095 405.361 344.971C404.815 345.78 404.309 346.615 403.847 347.474C399.368 354.717 394.349 361.61 388.831 368.096C387.767 369.986 385.74 371.062 384.727 372.989C381.21 376.743 377.506 380.197 373.94 383.851C372.689 385.302 370.812 386.078 369.648 387.605C363.001 393.276 355.972 398.486 348.613 403.196C347.174 403.872 345.96 404.948 344.596 405.699C342.794 406.375 341.38 407.701 339.591 408.427C337.801 409.153 336.325 410.554 334.46 411.205L333.046 411.968L331.444 412.706C329.905 413.708 328.091 414.108 326.439 414.959C325.73 415.29 325.041 415.662 324.374 416.073H323.398L321.872 417.024H320.883L319.369 417.975H318.393L316.879 418.838C316.34 418.965 315.813 419.137 315.302 419.351L314.351 419.501L312.85 420.352C312.324 420.477 311.798 420.615 311.285 420.778C310.772 420.94 310.259 421.14 309.759 421.366L308.858 421.566C308.007 421.879 307.106 422.029 306.242 422.292C305.729 422.467 305.216 422.655 304.728 422.867L303.827 423.068C302.951 423.368 302.038 423.543 301.174 423.868L299.811 424.056C299.157 424.326 298.471 424.511 297.771 424.607C296.895 424.882 295.981 425.045 295.131 425.383L293.767 425.57C292.778 426.108 291.577 425.833 290.601 426.396L288.736 426.559C287.76 427.134 286.534 426.822 285.558 427.41C284.525 427.314 283.485 427.49 282.542 427.923L279.689 428.035C278.438 428.961 276.723 428.035 275.497 428.936C274.045 428.936 272.581 428.936 271.142 429.036C268.64 430.288 265.449 428.661 262.921 429.937C257.674 430.021 252.431 430.021 247.192 429.937L246.316 429.524C243.813 429.162 241.098 430.063 238.808 429.011C237.356 429.011 235.892 429.011 234.453 428.924C233.264 428.11 231.763 428.586 230.436 428.411C229.335 427.597 227.846 428.298 226.682 427.522L224.342 427.397C223.397 426.971 222.359 426.794 221.326 426.884C220.35 426.309 219.137 426.584 218.136 426.046L216.784 425.858C216.137 425.579 215.455 425.39 214.757 425.295C213.743 424.882 212.592 425.007 211.591 424.557L210.728 424.331C210.065 424.193 209.389 424.139 208.713 424.169C207.837 423.881 206.936 423.731 206.085 423.418L205.197 423.193C204.333 422.88 203.432 422.705 202.569 422.404L201.668 422.192C201.155 421.991 200.642 421.804 200.141 421.641C199.641 421.478 198.74 421.191 198.051 420.94C197.363 420.69 197.025 420.577 196.525 420.377L195.586 420.24C195.086 419.939 194.585 419.664 194.085 419.389C193.543 419.253 193.012 419.077 192.496 418.863L191.57 418.725C191.069 418.425 190.564 418.137 190.055 417.862C189.345 417.7 188.653 417.465 187.991 417.161C187.237 416.648 186.385 416.298 185.488 416.135L184.462 415.597C182.835 414.771 181.033 414.346 179.457 413.357L176.866 412.106C176.203 411.743 175.527 411.405 174.839 411.105L173.425 410.354C171.911 409.841 170.822 408.602 169.308 408.089C168.82 407.826 168.332 407.588 167.844 407.363C167.043 406.806 166.207 406.301 165.341 405.849C164.478 405.374 163.727 404.723 162.839 404.335C155.595 399.858 148.701 394.838 142.217 389.319C140.54 388.38 139.539 386.603 137.824 385.715C134.221 382.286 130.767 378.67 127.213 375.179C125.877 373.999 124.673 372.677 123.622 371.237C117.18 364.068 111.392 356.338 106.328 348.137C105.94 347.424 105.427 346.786 105.077 346.073C104.726 345.359 104.038 344.421 103.563 343.57C103 342.319 101.999 341.33 101.548 340.016L100.797 338.602C100.206 337.381 99.5241 336.205 98.7576 335.086C98.5324 334.548 98.2821 334.01 98.0318 333.484C97.0182 331.945 96.6428 330.118 95.7669 328.479C95.5041 327.953 95.2413 327.44 94.9911 326.915C94.2277 325.663 94.015 324.174 93.2016 322.948C92.8989 322.285 92.6641 321.593 92.5009 320.883C92.2256 320.37 91.9378 319.869 91.65 319.381L91.4998 318.43C91.2922 317.918 91.1207 317.391 90.9868 316.854C90.7115 316.353 90.4362 315.853 90.1484 315.365L89.9982 314.414C89.798 313.901 89.6103 313.388 89.4351 312.875C89.2212 312.16 88.9578 311.462 88.6468 310.785C88.6468 310.56 88.5467 310.097 88.4966 309.859C88.1838 309.171 87.9585 308.445 87.6457 307.757C87.6457 307.531 87.508 307.081 87.458 306.856C87.1452 305.98 86.97 305.079 86.6696 304.215L86.4444 303.339C86.1854 302.687 86.0048 302.007 85.9063 301.312C85.631 300.436 85.4684 299.535 85.1555 298.672L84.9303 297.796C84.4297 296.795 84.655 295.619 84.1294 294.63C84.0669 294.167 84.0043 293.729 83.9417 293.279C83.4036 292.29 83.6539 291.089 83.1284 290.1C83.1408 289.236 82.9569 288.38 82.5903 287.597C82.6773 286.565 82.5008 285.527 82.0772 284.582C82.0772 283.793 82.0021 283.005 81.9521 282.229C81.0386 280.978 81.9521 279.263 81.0636 278.025C80.8885 276.686 81.364 275.197 80.5631 274.008C80.2878 272.181 81.0011 270.141 80.0626 268.464C79.9791 259.697 79.9791 250.937 80.0626 242.186L80.4755 241.31C80.5506 239.684 80.4755 238.057 80.5756 236.43C81.6017 235.041 80.4505 233.139 81.4766 231.738C81.6142 230.561 81.2513 229.235 81.9771 228.209C81.9771 227.258 82.0397 226.307 82.0897 225.356C82.6904 224.392 82.4026 223.166 82.9281 222.177C82.9252 221.317 83.0999 220.465 83.4412 219.675C83.4327 218.813 83.6076 217.96 83.9542 217.172L84.1294 215.821C84.6425 214.832 84.4798 213.681 84.8927 212.655C85.0028 211.966 85.1831 211.291 85.4308 210.64L85.6561 209.777C85.91 209.123 86.0905 208.443 86.1941 207.749C86.4694 206.886 86.6321 205.997 86.8824 205.122C87.0576 204.608 87.2578 204.108 87.4705 203.607L87.6332 202.694C87.946 202.006 88.1713 201.28 88.4841 200.592L88.6343 199.666C88.9353 198.986 89.1944 198.288 89.4101 197.576C89.5853 197.063 89.773 196.55 89.9732 196.037L90.1108 195.086L91.0243 193.584C91.0243 193.346 91.1244 192.871 91.162 192.633C91.3738 192.119 91.5535 191.593 91.7 191.056L92.4759 189.555C92.6497 188.85 92.8884 188.163 93.1891 187.503C94.0776 186.089 94.3654 184.399 95.2538 182.973C96.1423 181.546 96.2549 180.27 96.9807 179.006C97.4062 178.143 97.8566 177.279 98.232 176.416L98.7451 175.427C99.2996 174.191 99.9833 173.016 100.785 171.923L101.248 170.897C101.944 169.505 102.73 168.159 103.6 166.868L104.038 165.817C104.777 164.566 105.665 163.502 106.353 162.263C109.605 156.996 113.156 151.92 116.99 147.059C118.929 144.945 120.393 142.442 122.521 140.502C123.196 139.827 123.572 138.926 124.247 138.25C128.89 133.645 133.482 129.003 138.112 124.398C139.474 123.447 140.732 122.357 141.866 121.144C143.38 120.368 144.281 118.867 145.758 118.041C147.748 116.289 149.95 114.8 152.015 113.173C155.03 111.359 157.658 108.956 160.774 107.292C162.025 106.616 163.102 105.678 164.353 105.002C165.392 104.514 166.28 103.75 167.294 103.237C168.945 102.637 170.209 101.36 171.848 100.735L174.426 99.4834C175.089 99.1205 175.765 98.7951 176.466 98.4823L177.88 97.7315C178.556 97.4061 179.244 97.0808 179.907 96.7179L181.484 95.9546C182.631 95.3964 183.809 94.9034 185.013 94.478C185.764 93.9665 186.618 93.6248 187.515 93.4769L189.092 92.5635H190.068L191.595 91.6124H192.583L194.097 90.6614L195.073 90.5613C195.75 90.2459 196.449 89.9783 197.163 89.7605C197.676 89.5978 198.189 89.4101 198.702 89.2099L199.616 89.0347C200.296 88.7352 200.994 88.4761 201.705 88.2588C202.218 88.0962 202.732 87.9085 203.245 87.7083L204.133 87.4955C204.996 87.1827 205.91 87.02 206.773 86.7072L207.649 86.4819C208.299 86.2297 208.975 86.0492 209.664 85.9439C210.326 85.7302 211.004 85.567 211.691 85.4558C212.567 85.1805 213.481 85.0179 214.344 84.68L215.695 84.4923C216.684 83.9417 217.898 84.2295 218.874 83.6664L220.738 83.5163C221.52 83.1493 222.377 82.9694 223.241 82.9907C224.367 82.29 225.806 82.9031 226.92 82.1648C227.934 82.0397 229.06 82.29 229.936 81.6393C231.275 81.4641 232.776 81.9521 233.965 81.1262C235.629 80.8885 237.494 81.5266 238.97 80.6257C241.123 80.3003 243.513 81.1262 245.515 80.1251" fill="#1394BF"/>
<path d="M193.346 176.117C193.346 180.672 193.346 185.227 193.346 189.782C200.567 190.52 207.749 191.584 214.97 192.36C214.97 234.697 214.97 277.034 214.97 319.371C207.812 319.471 200.629 319.158 193.497 319.521C193.291 321.809 193.237 324.108 193.334 326.403C193.246 328.869 193.292 331.338 193.472 333.799C198.777 334.187 204.108 333.799 209.426 333.961C224.367 333.961 239.308 333.961 254.249 333.961C254.87 333.958 255.489 333.903 256.101 333.799C256.287 331.493 256.338 329.178 256.251 326.866C256.336 324.417 256.29 321.965 256.114 319.521C254.499 319.323 252.87 319.269 251.246 319.358C244.539 319.358 237.832 319.358 231.137 319.358C231.137 300.238 231.137 281.117 231.137 261.997C239.709 261.997 248.293 261.997 256.865 261.997C261.006 267.765 264.773 273.809 268.79 279.691C280.327 297.018 291.869 314.34 303.414 331.659C304.128 332.597 304.666 334.262 306.092 334.024H333.622C333.622 329.156 333.622 324.301 333.622 319.446C327.782 319.446 321.972 319.446 316.191 319.446C315.515 319.446 314.727 319.446 314.264 318.908C301.258 299.72 288.24 280.533 275.209 261.346C274.798 260.702 274.494 259.997 274.308 259.256C281.1 257.369 287.471 254.205 293.078 249.934C294.191 248.866 295.365 247.863 296.595 246.931C299.359 244.01 301.742 240.751 303.69 237.233C307.906 228.65 309.337 218.964 307.782 209.528C307.099 204.921 305.511 200.495 303.11 196.505C300.709 192.515 297.542 189.039 293.792 186.278C285.107 180.307 274.925 176.883 264.398 176.392C250.749 176.363 237.115 177.275 223.591 179.12C213.415 179.703 203.21 178.69 193.346 176.117ZM231.162 192.472C239.846 191.409 248.568 190.783 257.302 190.52C266.593 189.917 275.796 192.636 283.268 198.191C286.533 201.396 288.957 205.356 290.325 209.722C291.694 214.087 291.965 218.723 291.114 223.218C290.648 226.55 289.508 229.752 287.763 232.628C286.018 235.505 283.705 237.996 280.965 239.948C272.655 245.206 263.032 248.021 253.198 248.069C245.853 248.707 238.507 247.932 231.162 247.957C231.112 229.445 231.112 210.95 231.162 192.472Z" fill="white"/>
</svg>
