<svg width="512" height="512" viewBox="0 0 512 512" fill="none" xmlns="http://www.w3.org/2000/svg">
<rect width="512" height="512" rx="80" fill="white"/>
<path d="M407.388 221H297.701C295.057 220.999 292.522 219.945 290.652 218.071C288.783 216.196 287.732 213.654 287.73 211.003V96.3743C287.73 87.8857 280.866 81 272.405 81H233.249C224.783 81 217.922 87.8857 217.922 96.3743V210.309C217.922 216.22 213.157 221.025 207.262 221.05L171.316 221.222C165.371 221.255 160.541 216.418 160.553 210.461L160.776 96.4002C160.795 87.8987 153.928 81 145.45 81H106.327C97.8591 81 91 87.8857 91 96.3743V417.35C91 424.891 97.0921 431 104.606 431H407.388C414.908 431 421 424.891 421 417.35V234.65C421 227.109 414.908 221 407.388 221ZM355.951 341.514C355.951 351.396 347.962 359.409 338.107 359.409H307.163C297.307 359.409 289.317 351.396 289.317 341.514V310.485C289.317 300.602 297.307 292.59 307.163 292.59H338.107C347.962 292.59 355.951 300.602 355.951 310.485V341.514Z" fill="#FA8B16"/>
</svg>
