<svg width="512" height="512" viewBox="0 0 512 512" fill="none" xmlns="http://www.w3.org/2000/svg">
<rect width="512" height="512" rx="80" fill="white"/>
<path d="M100.07 417.326C135.651 246.744 230.884 122.209 436 115.93V131.628C309.372 166.163 247.628 255.116 269.605 417.326H100.07Z" fill="#F5212D"/>
<path d="M284.256 372.326L280.07 400.581L311.465 414.186L312.512 385.93L284.256 372.326ZM89.6047 292.791L76 330.465L111.581 340.93L125.186 304.302L89.6047 292.791ZM162.86 179.767L136.698 208.023L169.14 232.093L195.302 200.698L162.86 179.767ZM259.14 110.698L230.884 130.581L252.86 155.698L282.163 136.86L259.14 110.698ZM337.628 100.233L343.907 119.07L373.209 111.744L366.93 95L337.628 100.233ZM373.209 173.488L386.814 194.419L403.558 178.721L396.233 161.977L373.209 173.488ZM332.395 201.744L314.605 220.581L338.674 248.837L351.233 228.953L332.395 201.744ZM293.674 283.372L285.302 309.535L317.744 328.372L318.791 300.116L293.674 283.372Z" fill="#F5212D"/>
</svg>
