<svg width="512" height="512" viewBox="0 0 512 512" fill="none" xmlns="http://www.w3.org/2000/svg">
<rect width="512" height="512" rx="80" fill="white"/>
<path d="M303.294 162.29C309.319 169.043 313.575 177.382 315.949 187.078C318.203 196.281 318.706 206.517 317.448 217.506C316.982 221.571 316.293 226.174 315.288 231.044C323.069 238.578 333.264 243.362 346.518 243.361C383.288 243.358 396.519 206.541 399.982 176.299C404.249 139.041 386.633 111.001 346.518 111.001C315.038 111.001 297.416 128.275 293.35 153.719C297.029 156.154 300.365 159.005 303.294 162.29Z" fill="url(#paint0_linear_40_1432)"/>
<path d="M445.985 331.03C445.584 319.295 444.208 307.505 442.159 295.951C439.681 281.956 436.521 261.437 424.302 252.316C417.236 247.044 408.086 245.313 399.998 242.134C396.059 240.587 392.532 239.05 389.222 237.301C378.049 249.554 363.48 255.963 346.515 255.964C333.313 255.964 321.571 252.064 311.743 244.565C309.48 251.564 306.451 258.612 302.402 265.052C305.958 267.193 309.805 268.904 314.479 270.741C316.548 271.554 318.819 272.297 321.225 273.082C327.727 275.207 335.095 277.615 341.711 282.554C357.438 294.294 361.31 316.292 364.137 332.356L364.441 334.089C365.903 342.327 366.977 350.419 367.668 358.281C380.22 356.995 392.708 354.798 404.952 352.212C414.85 350.123 424.681 347.573 434.203 344.138C441.808 341.395 446.297 340.119 445.985 331.03Z" fill="url(#paint1_linear_40_1432)"/>
<path d="M165.482 243.361C178.735 243.362 188.929 238.578 196.711 231.043C195.706 226.174 195.017 221.57 194.55 217.506C193.292 206.517 193.797 196.28 196.049 187.077C198.423 177.382 202.68 169.042 208.704 162.29C211.634 159.004 214.969 156.152 218.648 153.718C214.581 128.274 196.959 111 165.48 111C125.365 111 107.749 139.041 112.015 176.297C115.48 206.541 128.711 243.358 165.482 243.361Z" fill="url(#paint2_linear_40_1432)"/>
<path d="M170.288 282.555C176.904 277.616 184.274 275.207 190.775 273.083C193.181 272.297 195.451 271.555 197.52 270.741C202.194 268.905 206.042 267.195 209.598 265.052C205.549 258.614 202.519 251.565 200.257 244.566C190.429 252.065 178.686 255.965 165.485 255.965C148.521 255.964 133.95 249.554 122.778 237.302C119.469 239.051 115.94 240.587 112.002 242.135C103.914 245.314 94.7636 247.045 87.6976 252.317C75.4792 261.439 72.3194 281.956 69.8407 295.952C67.7917 307.505 66.4157 319.295 66.0152 331.03C65.7035 340.12 70.1915 341.395 77.7965 344.139C87.3176 347.573 97.1504 350.123 107.047 352.213C119.292 354.799 131.78 356.996 144.331 358.282C145.022 350.42 146.095 342.328 147.558 334.09L147.862 332.356C150.69 316.293 154.561 294.294 170.288 282.555Z" fill="url(#paint3_linear_40_1432)"/>
<path d="M358.049 335.19L357.743 333.449C355.099 318.424 351.478 297.849 337.755 287.605C331.968 283.286 325.416 281.145 319.079 279.074C316.584 278.259 314.229 277.488 311.984 276.606C308.713 275.321 305.765 274.062 303.003 272.671C291.402 288.152 275.323 296.302 256.197 296.304C237.076 296.304 220.999 288.153 209.398 272.671C206.635 274.064 203.688 275.322 200.415 276.608C198.173 277.488 195.816 278.259 193.322 279.074C186.984 281.145 180.431 283.286 174.645 287.605C160.919 297.85 157.299 318.431 154.656 333.457L154.35 335.193C152.141 347.665 150.823 359.764 150.433 371.153C149.975 384.514 158.269 387.493 165.585 390.122L166.373 390.405C175.172 393.579 185.014 396.299 196.461 398.718C219.836 403.652 238.806 406.008 256.155 406.131H256.199H256.244C273.596 406.007 292.564 403.652 315.936 398.718C327.385 396.3 337.226 393.581 346.021 390.406L346.808 390.123C354.126 387.494 362.422 384.517 361.965 371.152C361.576 359.733 360.257 347.635 358.049 335.19Z" fill="url(#paint4_linear_40_1432)"/>
<path d="M203.226 219.454C206.689 249.698 219.919 286.519 256.689 286.517C293.46 286.515 306.691 249.698 310.154 219.454C314.42 182.198 296.802 154.159 256.689 154.159C216.582 154.157 198.953 182.195 203.226 219.454Z" fill="url(#paint5_linear_40_1432)"/>
<defs>
<linearGradient id="paint0_linear_40_1432" x1="346.978" y1="111.001" x2="346.978" y2="243.361" gradientUnits="userSpaceOnUse">
<stop stop-color="#1777FF"/>
<stop offset="1" stop-color="#0758D9"/>
</linearGradient>
<linearGradient id="paint1_linear_40_1432" x1="374.201" y1="237.301" x2="374.201" y2="358.281" gradientUnits="userSpaceOnUse">
<stop stop-color="#1777FF"/>
<stop offset="1" stop-color="#0758D9"/>
</linearGradient>
<linearGradient id="paint2_linear_40_1432" x1="165.02" y1="111" x2="165.02" y2="243.361" gradientUnits="userSpaceOnUse">
<stop stop-color="#1777FF"/>
<stop offset="1" stop-color="#0758D9"/>
</linearGradient>
<linearGradient id="paint3_linear_40_1432" x1="137.799" y1="237.302" x2="137.799" y2="358.282" gradientUnits="userSpaceOnUse">
<stop stop-color="#1777FF"/>
<stop offset="1" stop-color="#0758D9"/>
</linearGradient>
<linearGradient id="paint4_linear_40_1432" x1="256.199" y1="272.671" x2="256.199" y2="406.131" gradientUnits="userSpaceOnUse">
<stop stop-color="#1777FF"/>
<stop offset="1" stop-color="#0758D9"/>
</linearGradient>
<linearGradient id="paint5_linear_40_1432" x1="256.689" y1="154.159" x2="256.689" y2="286.517" gradientUnits="userSpaceOnUse">
<stop stop-color="#1777FF"/>
<stop offset="1" stop-color="#0758D9"/>
</linearGradient>
</defs>
</svg>
