<svg width="512" height="512" viewBox="0 0 512 512" fill="none" xmlns="http://www.w3.org/2000/svg">
<rect width="512" height="512" rx="80" fill="white"/>
<path d="M349.928 91.8902H124.415C109.282 91.8902 97 104.282 97 119.305V368.011C97 383.144 109.391 395.426 124.415 395.426H273.003C271.358 321.516 296.579 178.082 349.983 91.6709L349.928 91.8902Z" fill="#1394BF"/>
<path d="M341.704 99.9502H124.415C119.257 99.9647 114.314 102.02 110.667 105.667C107.02 109.314 104.965 114.257 104.95 119.415V349.973C154.187 331.056 228.042 314.772 279.143 315.54C294.897 242.288 315.767 170.244 341.704 99.9502Z" fill="url(#paint0_linear_40_1331)"/>
<path d="M402.564 83.7755C387.103 70.0681 368.406 75.551 349.928 91.8902L341.704 99.8953C310.122 133.341 281.391 195.408 271.741 242.836C275.179 250.347 277.897 258.168 279.856 266.193L281.062 271.676L282.269 277.269C282.269 277.269 281.994 276.172 280.843 272.882L280.075 270.689C279.921 270.283 279.757 269.881 279.582 269.483C276.438 262.908 273.017 256.469 269.329 250.183C267.334 256.013 265.451 261.881 263.681 267.783C270.919 281.052 275.305 303.751 275.305 303.751C275.305 303.751 274.921 302.271 273.112 297.172C271.467 292.621 263.462 278.53 261.598 275.24C258.308 287.302 257.047 295.417 258.198 297.391C260.392 301.229 262.585 308.357 264.504 315.156C267.465 327.213 269.88 339.397 271.741 351.672L272.016 355.072C271.447 368.783 271.722 382.516 272.838 396.194C274.264 413.355 276.95 428.105 280.35 436L282.652 434.739C277.718 419.167 275.634 398.826 276.512 375.304C277.882 339.39 286.107 296.075 301.404 250.951C327.338 182.249 363.087 127.529 395.875 101.431C365.993 128.407 325.584 215.695 313.521 247.99C299.979 284.177 290.383 318.171 284.571 350.685C294.55 320.2 326.79 307.041 326.79 307.041C326.79 307.041 342.691 287.522 361.113 259.614L325.748 269.044L314.344 274.089C314.344 274.089 343.403 256.379 368.461 248.319C402.839 194.202 440.287 117.276 402.564 83.7206" fill="#097099"/>
<defs>
<linearGradient id="paint0_linear_40_1331" x1="241.53" y1="105.049" x2="241.53" y2="336.101" gradientUnits="userSpaceOnUse">
<stop stop-color="#24BBE5"/>
<stop offset="0.92024" stop-color="#1394BF"/>
<stop offset="1" stop-color="#1394BF"/>
</linearGradient>
</defs>
</svg>
