<svg width="512" height="512" viewBox="0 0 512 512" fill="none" xmlns="http://www.w3.org/2000/svg">
<rect width="512" height="512" rx="80" fill="white"/>
<mask id="mask0_40_1251" style="mask-type:luminance" maskUnits="userSpaceOnUse" x="66" y="142" width="380" height="228">
<path d="M66 142H446V369.782H66V142Z" fill="white"/>
</mask>
<g mask="url(#mask0_40_1251)">
<path fill-rule="evenodd" clip-rule="evenodd" d="M256 142C205.333 142 173.667 167.309 161 217.927C180 192.618 202.167 183.127 227.5 189.455C241.954 193.061 252.284 203.543 263.72 215.136C282.347 234.027 303.908 255.891 351 255.891C401.667 255.891 433.333 230.582 446 179.964C427 205.273 404.833 214.764 379.5 208.436C365.046 204.83 354.716 194.348 343.28 182.755C324.653 163.864 303.092 142 256 142ZM161 255.891C110.333 255.891 78.6667 281.2 66 331.818C85 306.509 107.167 297.018 132.5 303.345C146.954 306.959 157.284 317.434 168.72 329.027C187.347 347.918 208.908 369.782 256 369.782C306.667 369.782 338.333 344.473 351 293.855C332 319.164 309.833 328.655 284.5 322.327C270.046 318.721 259.716 308.239 248.28 296.646C229.653 277.755 208.092 255.891 161 255.891Z" fill="#4BD4F2"/>
</g>
</svg>
