<svg width="512" height="512" viewBox="0 0 512 512" fill="none" xmlns="http://www.w3.org/2000/svg">
<rect width="512" height="512" rx="80" fill="white"/>
<path d="M256 431C352.65 431 431 352.65 431 256C431 159.35 352.65 81 256 81C159.35 81 81 159.35 81 256C81 352.65 159.35 431 256 431Z" stroke="#1394BF" stroke-width="20"/>
<path d="M312.731 417.538L339.654 403.115L391.577 253.115C401.192 229.077 404.077 209.846 404.077 193.5C404.077 162.731 391.577 135.808 369.462 132.923C349.269 131 337.731 151.192 338.692 162.731C340.615 190.615 368.5 206 368.5 244.462C368.5 271.385 351.192 314.654 338.692 356.962L279.077 177.154L298.308 176.192C307.923 176.192 306.962 161.769 297.346 162.731C267.538 165.615 239.654 164.654 208.885 162.731C199.269 161.769 199.269 176.192 207.923 176.192L225.231 177.154L251.192 248.308L214.654 357.923L154.077 177.154L173.308 176.192C181.962 176.192 181 161.769 172.346 162.731C144.462 164.654 117.538 166.577 110.808 161.769L103.115 184.846L183.885 408.885L207.923 422.346L259.846 270.423" fill="#1394BF"/>
</svg>
