<svg width="512" height="512" viewBox="0 0 512 512" fill="none" xmlns="http://www.w3.org/2000/svg">
<rect width="512" height="512" rx="80" fill="white"/>
<path d="M379.143 241.38C380.119 237.531 385.588 237.531 386.564 241.38L434.357 429.848C434.971 432.267 433.142 434.617 430.647 434.617H335.061C332.565 434.617 330.736 432.267 331.35 429.848L379.143 241.38Z" fill="#78EBFF"/>
<path d="M114.62 284.021C115.606 280.189 121.048 280.189 122.034 284.021L159.531 429.643C160.155 432.066 158.326 434.426 155.824 434.426H80.8301C78.3285 434.426 76.4991 432.066 77.1229 429.643L114.62 284.021Z" fill="#78EBFF"/>
<path d="M180.461 162.493C181.439 158.646 186.905 158.646 187.882 162.493L255.896 430.229C256.511 432.649 254.682 435 252.186 435H116.157C113.661 435 111.832 432.649 112.447 430.229L180.461 162.493Z" fill="#1777FF"/>
<path d="M290.719 77.8615C291.714 74.0462 297.131 74.0462 298.127 77.8615L389.978 429.822C390.611 432.248 388.781 434.617 386.274 434.617H202.572C200.065 434.617 198.235 432.248 198.868 429.822L290.719 77.8615Z" fill="#1777FF"/>
<path d="M229.461 200.817C230.437 196.967 235.908 196.967 236.883 200.817L294.955 430.04C295.568 432.459 293.739 434.809 291.244 434.809H175.101C172.605 434.809 170.777 432.459 171.39 430.04L229.461 200.817Z" fill="#78EBFF"/>
</svg>
