<svg width="280" height="280" viewBox="0 0 280 280" fill="none" xmlns="http://www.w3.org/2000/svg">
<rect width="280" height="280" rx="140" fill="white"/>
<g clip-path="url(#clip0_502_2162)">
<path d="M101 67.5833C101.115 67.5833 101.208 67.49 101.208 67.375C101.208 67.2599 101.115 67.1666 101 67.1666C100.885 67.1666 100.792 67.2599 100.792 67.375C100.792 67.49 100.885 67.5833 101 67.5833Z" stroke="#9013FE" stroke-width="2" stroke-linecap="round" stroke-linejoin="round"/>
<path d="M101.125 67.8334H100.875C100.836 67.8334 100.817 67.8334 100.801 67.835C100.642 67.8506 100.517 67.9758 100.502 68.134C100.5 68.1503 100.5 68.1697 100.5 68.2084H101.5C101.5 68.1697 101.5 68.1503 101.498 68.134C101.483 67.9758 101.358 67.8506 101.199 67.835C101.183 67.8334 101.164 67.8334 101.125 67.8334Z" stroke="#9013FE" stroke-width="2" stroke-linecap="round" stroke-linejoin="round"/>
<path d="M101.708 68.116C101.787 68.167 101.833 68.2272 101.833 68.2916C101.833 68.4757 101.46 68.625 101 68.625C100.54 68.625 100.167 68.4757 100.167 68.2916C100.167 68.2272 100.212 68.167 100.292 68.116" stroke="#9013FE" stroke-width="2" stroke-linecap="round" stroke-linejoin="round"/>
<path d="M100.792 68.4166L101 68.625L100.792 68.8333" stroke="#9013FE" stroke-width="2" stroke-linecap="round" stroke-linejoin="round"/>
</g>
<path d="M80 92.0005C88.8366 92.0005 96 84.837 96 76.0005C96 67.1639 88.8366 60.0005 80 60.0005C71.1634 60.0005 64 67.1639 64 76.0005C64 84.837 71.1634 92.0005 80 92.0005Z" stroke="black" stroke-width="12"/>
<path d="M96 116H64V216H96V116Z" stroke="black" stroke-width="12" stroke-linejoin="round"/>
<path d="M128 154V216H156V160C156 150 162 142 172 142C182 142 188 152 188 160V216H216V154C216 142 202 116 172 116C142 116 128 142 128 154Z" stroke="black" stroke-width="12" stroke-linejoin="round"/>
<defs>
<clipPath id="clip0_502_2162">
<rect width="2" height="2" fill="white" transform="translate(100 67)"/>
</clipPath>
</defs>
</svg>
