<svg width="280" height="280" viewBox="0 0 280 280" fill="none" xmlns="http://www.w3.org/2000/svg">
<rect width="280" height="280" rx="140" fill="white"/>
<g clip-path="url(#clip0_502_2162)">
<path d="M101 67.5833C101.115 67.5833 101.208 67.49 101.208 67.375C101.208 67.2599 101.115 67.1666 101 67.1666C100.885 67.1666 100.792 67.2599 100.792 67.375C100.792 67.49 100.885 67.5833 101 67.5833Z" stroke="#9013FE" stroke-width="2" stroke-linecap="round" stroke-linejoin="round"/>
<path d="M101.125 67.8334H100.875C100.836 67.8334 100.817 67.8334 100.801 67.835C100.642 67.8506 100.517 67.9758 100.502 68.134C100.5 68.1503 100.5 68.1697 100.5 68.2084H101.5C101.5 68.1697 101.5 68.1503 101.498 68.134C101.483 67.9758 101.358 67.8506 101.199 67.835C101.183 67.8334 101.164 67.8334 101.125 67.8334Z" stroke="#9013FE" stroke-width="2" stroke-linecap="round" stroke-linejoin="round"/>
<path d="M101.708 68.116C101.787 68.167 101.833 68.2272 101.833 68.2916C101.833 68.4757 101.46 68.625 101 68.625C100.54 68.625 100.167 68.4757 100.167 68.2916C100.167 68.2272 100.212 68.167 100.292 68.116" stroke="#9013FE" stroke-width="2" stroke-linecap="round" stroke-linejoin="round"/>
<path d="M100.792 68.4166L101 68.625L100.792 68.8333" stroke="#9013FE" stroke-width="2" stroke-linecap="round" stroke-linejoin="round"/>
</g>
<path d="M208 76H72C65.3726 76 60 81.3726 60 88V192C60 198.627 65.3726 204 72 204H208C214.627 204 220 198.627 220 192V88C220 81.3726 214.627 76 208 76Z" stroke="black" stroke-width="16" stroke-linejoin="round"/>
<path d="M60 88C60 81.3726 65.3726 76 72 76H208C214.628 76 220 81.3726 220 88V124H60V88Z" stroke="black" stroke-width="16"/>
<path d="M76 100C76 95.5817 79.5817 92 84 92C88.4183 92 92 95.5817 92 100C92 104.418 88.4183 108 84 108C79.5817 108 76 104.418 76 100Z" fill="black"/>
<path d="M100 100C100 95.5817 103.582 92 108 92C112.418 92 116 95.5817 116 100C116 104.418 112.418 108 108 108C103.582 108 100 104.418 100 100Z" fill="black"/>
<defs>
<clipPath id="clip0_502_2162">
<rect width="2" height="2" fill="white" transform="translate(100 67)"/>
</clipPath>
</defs>
</svg>
