<?xml version="1.0" encoding="UTF-8"?>
<svg xmlns="http://www.w3.org/2000/svg" xmlns:xlink="http://www.w3.org/1999/xlink" width="64px" height="64px" viewBox="0 0 64 64" version="1.1">
<g id="surface1">
<path style=" stroke:none;fill-rule:nonzero;fill:rgb(97.647059%,97.647059%,97.647059%);fill-opacity:1;" d="M 21.613281 49.910156 C 21.609375 49.871094 21.605469 49.832031 21.601562 49.792969 C 21.507812 49.695312 21.445312 49.578125 21.441406 49.441406 C 21.3125 49.257812 21.386719 49.050781 21.371094 48.851562 C 21.328125 48.335938 21.367188 47.816406 21.386719 47.296875 C 21.394531 47.078125 21.507812 46.871094 21.460938 46.648438 C 21.515625 46.414062 21.53125 46.171875 21.605469 45.9375 C 21.609375 45.828125 21.613281 45.71875 21.613281 45.605469 C 21.730469 45.40625 21.691406 45.167969 21.777344 44.960938 C 21.855469 44.808594 21.914062 44.652344 21.925781 44.484375 C 21.9375 44.3125 21.992188 44.164062 22.078125 44.023438 C 22.078125 43.96875 22.082031 43.914062 22.085938 43.859375 C 22.171875 43.757812 22.136719 43.601562 22.242188 43.507812 C 22.246094 43.464844 22.25 43.425781 22.25 43.386719 C 22.332031 43.222656 22.382812 43.046875 22.417969 42.871094 C 22.511719 42.773438 22.535156 42.636719 22.558594 42.523438 C 22.585938 42.398438 22.636719 42.3125 22.710938 42.226562 C 22.714844 42.1875 22.71875 42.144531 22.71875 42.105469 C 22.714844 41.925781 22.871094 41.804688 22.886719 41.632812 C 22.890625 41.621094 22.890625 41.609375 22.894531 41.597656 C 22.964844 41.503906 23.054688 41.421875 23.054688 41.292969 C 23.054688 41.25 23.058594 41.210938 23.0625 41.167969 C 23.148438 41.074219 23.21875 40.96875 23.210938 40.832031 C 23.277344 40.785156 23.300781 40.707031 23.351562 40.648438 L 23.355469 40.652344 C 23.371094 40.519531 23.421875 40.398438 23.519531 40.304688 C 23.523438 40.210938 23.53125 40.117188 23.535156 40.027344 C 23.632812 39.929688 23.683594 39.808594 23.703125 39.671875 L 23.707031 39.679688 C 23.851562 39.546875 23.832031 39.320312 23.996094 39.203125 C 24.011719 39.070312 24.058594 38.949219 24.164062 38.859375 C 24.167969 38.816406 24.171875 38.777344 24.175781 38.738281 C 24.28125 38.648438 24.328125 38.527344 24.339844 38.394531 L 24.34375 38.394531 C 24.488281 38.265625 24.480469 38.042969 24.632812 37.917969 L 24.632812 37.921875 C 24.65625 37.789062 24.695312 37.664062 24.804688 37.574219 C 24.808594 37.535156 24.8125 37.496094 24.816406 37.457031 C 24.921875 37.367188 24.960938 37.246094 24.984375 37.117188 L 24.984375 37.113281 C 25.128906 36.988281 25.113281 36.757812 25.277344 36.640625 L 25.277344 36.644531 C 25.296875 36.507812 25.335938 36.386719 25.445312 36.296875 C 25.449219 36.257812 25.449219 36.21875 25.453125 36.179688 C 25.5625 36.089844 25.601562 35.964844 25.625 35.835938 C 25.765625 35.707031 25.757812 35.484375 25.917969 35.363281 C 25.9375 35.304688 25.945312 35.242188 26 35.199219 C 26.027344 35.179688 26.058594 35.152344 26.0625 35.121094 C 26.085938 35 26.140625 34.90625 26.230469 34.820312 C 26.25 34.800781 26.25 34.757812 26.261719 34.722656 C 26.316406 34.660156 26.363281 34.59375 26.410156 34.523438 C 26.398438 34.398438 26.511719 34.34375 26.554688 34.246094 C 26.558594 34.207031 26.558594 34.167969 26.5625 34.128906 C 26.59375 34.039062 26.671875 33.980469 26.722656 33.90625 C 26.726562 33.867188 26.734375 33.828125 26.738281 33.789062 C 26.792969 33.714844 26.863281 33.65625 26.898438 33.566406 C 26.898438 33.527344 26.902344 33.488281 26.902344 33.445312 C 26.957031 33.347656 27.074219 33.28125 27.054688 33.148438 C 27.121094 33.105469 27.140625 33.023438 27.199219 32.972656 C 27.214844 32.90625 27.222656 32.832031 27.300781 32.796875 C 27.351562 32.773438 27.359375 32.722656 27.371094 32.675781 C 27.4375 32.566406 27.523438 32.46875 27.542969 32.335938 L 27.539062 32.332031 C 27.605469 32.292969 27.605469 32.203125 27.667969 32.164062 C 27.714844 32.113281 27.664062 32.042969 27.710938 31.992188 C 27.773438 31.949219 27.773438 31.859375 27.839844 31.824219 C 27.851562 31.699219 27.917969 31.605469 28.003906 31.519531 C 28.007812 31.480469 28.011719 31.4375 28.011719 31.398438 C 28.078125 31.289062 28.15625 31.183594 28.1875 31.058594 C 28.28125 31.042969 28.3125 30.976562 28.328125 30.898438 C 28.347656 30.8125 28.382812 30.738281 28.476562 30.710938 C 28.496094 30.578125 28.582031 30.480469 28.648438 30.371094 C 28.652344 30.328125 28.652344 30.289062 28.65625 30.25 C 28.738281 30.164062 28.808594 30.070312 28.820312 29.945312 C 28.941406 29.863281 28.972656 29.738281 28.992188 29.605469 C 29.054688 29.5625 29.054688 29.472656 29.125 29.4375 C 29.132812 29.3125 29.21875 29.226562 29.289062 29.132812 C 29.292969 29.105469 29.292969 29.066406 29.308594 29.050781 C 29.460938 28.941406 29.472656 28.75 29.5625 28.605469 C 29.636719 28.480469 29.722656 28.347656 29.765625 28.199219 C 29.796875 28.109375 29.875 28.050781 29.925781 27.976562 C 29.929688 27.9375 29.933594 27.898438 29.9375 27.859375 C 29.992188 27.789062 30.0625 27.726562 30.097656 27.636719 C 30.097656 27.597656 30.101562 27.558594 30.105469 27.515625 C 30.242188 27.386719 30.253906 27.171875 30.398438 27.042969 C 30.414062 26.910156 30.453125 26.789062 30.566406 26.703125 C 30.570312 26.660156 30.574219 26.621094 30.578125 26.582031 C 30.683594 26.492188 30.722656 26.367188 30.746094 26.238281 C 30.886719 26.109375 30.875 25.882812 31.035156 25.761719 C 31.042969 25.589844 31.183594 25.464844 31.210938 25.296875 L 31.214844 25.300781 C 31.324219 25.210938 31.367188 25.089844 31.382812 24.957031 C 31.53125 24.828125 31.53125 24.628906 31.609375 24.464844 C 31.628906 24.425781 31.644531 24.386719 31.675781 24.355469 C 31.679688 24.34375 31.679688 24.328125 31.683594 24.316406 C 31.6875 24.1875 31.761719 24.097656 31.84375 24.011719 C 31.847656 23.957031 31.851562 23.90625 31.855469 23.851562 C 31.957031 23.757812 32.007812 23.640625 32.019531 23.503906 C 32.027344 23.457031 32.03125 23.40625 32.078125 23.375 C 32.132812 23.335938 32.148438 23.277344 32.152344 23.210938 C 32.183594 23.167969 32.15625 23.113281 32.179688 23.066406 C 32.234375 23.015625 32.265625 22.957031 32.253906 22.878906 C 32.25 22.855469 32.253906 22.835938 32.265625 22.816406 C 32.425781 22.71875 32.390625 22.523438 32.484375 22.394531 L 32.488281 22.394531 C 32.507812 22.277344 32.59375 22.171875 32.574219 22.042969 C 32.632812 21.957031 32.632812 21.851562 32.65625 21.757812 L 32.65625 21.753906 C 32.777344 21.558594 32.8125 21.332031 32.875 21.117188 C 32.890625 21.054688 32.898438 20.988281 32.957031 20.945312 C 32.964844 20.777344 32.972656 20.609375 33.089844 20.46875 C 33.144531 20.402344 33.121094 20.304688 33.132812 20.222656 C 33.253906 20.007812 33.210938 19.753906 33.292969 19.53125 C 33.292969 19.417969 33.296875 19.308594 33.296875 19.195312 C 33.324219 19.167969 33.355469 19.140625 33.355469 19.09375 C 33.367188 18.699219 33.40625 18.300781 33.355469 17.902344 C 33.347656 17.851562 33.324219 17.824219 33.300781 17.785156 C 33.296875 17.695312 33.289062 17.605469 33.289062 17.515625 C 33.28125 17.414062 33.265625 17.320312 33.199219 17.238281 C 33.140625 17.164062 33.125 17.074219 33.121094 16.980469 C 33.078125 16.914062 33.011719 16.863281 32.957031 16.804688 C 32.949219 16.804688 32.941406 16.804688 32.9375 16.800781 C 32.726562 16.605469 32.464844 16.644531 32.214844 16.640625 C 32.09375 16.640625 31.972656 16.640625 31.851562 16.640625 C 31.570312 16.644531 31.308594 16.75 31.035156 16.804688 C 30.996094 16.804688 30.953125 16.808594 30.914062 16.8125 C 30.765625 16.9375 30.5625 16.90625 30.398438 16.976562 C 30.332031 17.078125 30.175781 16.996094 30.117188 17.117188 C 30.0625 17.148438 30.011719 17.1875 29.949219 17.207031 C 29.796875 17.308594 29.574219 17.273438 29.453125 17.441406 C 29.398438 17.445312 29.347656 17.449219 29.292969 17.453125 C 29.203125 17.535156 29.113281 17.605469 28.988281 17.613281 L 28.984375 17.613281 C 28.949219 17.683594 28.859375 17.683594 28.816406 17.746094 C 28.769531 17.792969 28.695312 17.742188 28.644531 17.789062 C 28.605469 17.851562 28.515625 17.851562 28.476562 17.917969 L 28.476562 17.921875 C 28.351562 17.933594 28.265625 18.011719 28.175781 18.085938 C 28.074219 18.167969 27.972656 18.246094 27.839844 18.261719 L 27.835938 18.257812 C 27.75 18.335938 27.652344 18.402344 27.535156 18.429688 L 27.539062 18.429688 C 27.496094 18.488281 27.402344 18.488281 27.371094 18.5625 C 27.300781 18.601562 27.257812 18.675781 27.191406 18.71875 C 27.152344 18.722656 27.113281 18.726562 27.074219 18.730469 C 27.003906 18.792969 26.925781 18.84375 26.863281 18.914062 C 26.777344 19.027344 26.644531 19.085938 26.554688 19.191406 L 26.550781 19.1875 C 26.433594 19.214844 26.332031 19.269531 26.253906 19.367188 L 26.257812 19.367188 C 26.195312 19.417969 26.148438 19.484375 26.078125 19.53125 L 26.082031 19.535156 C 25.914062 19.632812 25.828125 19.839844 25.613281 19.878906 C 25.597656 19.96875 25.535156 20 25.449219 20.011719 C 25.386719 20.058594 25.332031 20.121094 25.273438 20.179688 L 25.277344 20.179688 C 25.191406 20.296875 25.070312 20.375 24.972656 20.476562 C 24.917969 20.53125 24.859375 20.589844 24.804688 20.648438 C 24.746094 20.703125 24.6875 20.757812 24.632812 20.820312 L 24.632812 20.816406 C 24.53125 20.914062 24.453125 21.035156 24.339844 21.121094 C 24.324219 21.191406 24.316406 21.261719 24.234375 21.292969 C 24.179688 21.316406 24.171875 21.367188 24.164062 21.414062 C 24.128906 21.503906 24.019531 21.535156 24 21.632812 C 23.996094 21.671875 23.988281 21.710938 23.988281 21.75 C 23.878906 21.851562 23.839844 21.96875 23.835938 22.121094 C 23.832031 22.277344 23.773438 22.429688 23.691406 22.566406 C 23.679688 22.75 23.65625 22.933594 23.527344 23.082031 C 23.527344 23.125 23.523438 23.164062 23.519531 23.207031 C 23.503906 23.378906 23.367188 23.507812 23.355469 23.679688 C 23.355469 23.734375 23.351562 23.789062 23.347656 23.84375 C 23.15625 23.953125 23.234375 24.15625 23.179688 24.3125 C 23.125 24.363281 23.117188 24.445312 23.054688 24.488281 C 23.058594 24.667969 22.902344 24.789062 22.886719 24.960938 C 22.886719 25 22.882812 25.039062 22.882812 25.082031 C 22.816406 25.199219 22.722656 25.300781 22.714844 25.445312 C 22.523438 25.542969 22.582031 25.761719 22.5 25.910156 C 22.472656 25.964844 22.46875 26.027344 22.414062 26.066406 C 22.414062 26.082031 22.414062 26.09375 22.414062 26.109375 C 22.410156 26.269531 22.253906 26.375 22.246094 26.539062 C 22.246094 26.550781 22.246094 26.5625 22.242188 26.574219 C 22.164062 26.683594 22.058594 26.785156 22.09375 26.941406 C 22.097656 26.960938 22.101562 26.988281 22.085938 27 C 21.890625 27.121094 21.941406 27.382812 21.777344 27.519531 C 21.761719 27.570312 21.761719 27.632812 21.714844 27.667969 C 21.601562 27.746094 21.605469 27.867188 21.597656 27.980469 C 21.492188 28.070312 21.453125 28.195312 21.429688 28.328125 L 21.429688 28.324219 C 21.285156 28.453125 21.296875 28.679688 21.136719 28.800781 C 21.136719 28.8125 21.132812 28.824219 21.132812 28.835938 C 21.125 28.964844 21.054688 29.058594 20.96875 29.140625 C 20.964844 29.183594 20.960938 29.222656 20.960938 29.261719 C 20.851562 29.347656 20.8125 29.476562 20.789062 29.605469 C 20.652344 29.738281 20.640625 29.949219 20.496094 30.078125 C 20.476562 30.144531 20.46875 30.214844 20.398438 30.253906 C 20.335938 30.289062 20.335938 30.355469 20.324219 30.417969 C 20.304688 30.625 20.125 30.734375 20.03125 30.890625 C 20.003906 31.019531 19.972656 31.148438 19.855469 31.230469 C 19.839844 31.355469 19.773438 31.449219 19.691406 31.535156 C 19.6875 31.574219 19.683594 31.613281 19.683594 31.65625 C 19.617188 31.765625 19.53125 31.863281 19.511719 31.996094 C 19.351562 32.113281 19.363281 32.34375 19.214844 32.46875 C 19.195312 32.53125 19.183594 32.605469 19.117188 32.644531 C 19.054688 32.679688 19.054688 32.746094 19.039062 32.804688 C 18.953125 32.886719 18.886719 32.984375 18.875 33.109375 C 18.804688 33.144531 18.808594 33.238281 18.742188 33.277344 C 18.695312 33.324219 18.746094 33.398438 18.703125 33.445312 C 18.636719 33.488281 18.636719 33.578125 18.570312 33.613281 C 18.558594 33.675781 18.546875 33.738281 18.488281 33.777344 C 18.445312 33.804688 18.425781 33.847656 18.414062 33.898438 C 18.394531 33.980469 18.375 34.058594 18.292969 34.105469 C 18.242188 34.136719 18.246094 34.203125 18.230469 34.257812 C 18.085938 34.386719 18.078125 34.597656 17.933594 34.726562 C 17.929688 34.765625 17.929688 34.808594 17.925781 34.847656 C 17.902344 34.941406 17.820312 35 17.765625 35.070312 C 17.761719 35.109375 17.757812 35.148438 17.753906 35.1875 C 17.691406 35.269531 17.613281 35.347656 17.589844 35.453125 C 17.519531 35.535156 17.441406 35.617188 17.417969 35.730469 C 17.40625 35.792969 17.355469 35.820312 17.300781 35.839844 C 17.269531 35.96875 17.238281 36.09375 17.125 36.183594 C 17.121094 36.222656 17.121094 36.261719 17.117188 36.300781 C 17.039062 36.390625 16.949219 36.472656 16.964844 36.605469 C 16.816406 36.699219 16.789062 36.886719 16.65625 36.992188 L 16.65625 36.988281 C 16.636719 37.121094 16.550781 37.222656 16.484375 37.332031 C 16.484375 37.371094 16.480469 37.414062 16.476562 37.453125 C 16.40625 37.542969 16.324219 37.632812 16.3125 37.757812 L 16.316406 37.757812 C 16.25 37.796875 16.25 37.890625 16.179688 37.921875 L 16.179688 37.925781 C 16.171875 38.0625 16.132812 38.183594 16.011719 38.265625 C 16.003906 38.394531 15.933594 38.484375 15.847656 38.570312 C 15.835938 38.617188 15.84375 38.675781 15.800781 38.703125 C 15.671875 38.785156 15.679688 38.910156 15.671875 39.035156 C 15.527344 39.128906 15.550781 39.320312 15.429688 39.425781 C 15.335938 39.511719 15.265625 39.613281 15.207031 39.722656 C 15.203125 39.761719 15.199219 39.804688 15.199219 39.84375 C 15.113281 39.929688 15.046875 40.023438 15.035156 40.148438 C 14.972656 40.191406 14.964844 40.273438 14.90625 40.320312 C 14.890625 40.453125 14.839844 40.570312 14.734375 40.660156 C 14.722656 40.785156 14.648438 40.878906 14.570312 40.96875 C 14.566406 41.019531 14.558594 41.070312 14.554688 41.125 C 14.472656 41.210938 14.402344 41.304688 14.394531 41.429688 C 14.335938 41.492188 14.257812 41.539062 14.242188 41.632812 C 14.269531 41.773438 14.175781 41.855469 14.097656 41.945312 L 14.097656 41.941406 C 14.078125 42.074219 13.980469 42.171875 13.929688 42.289062 C 13.925781 42.339844 13.921875 42.394531 13.917969 42.445312 C 13.878906 42.597656 13.773438 42.722656 13.75 42.878906 L 13.746094 42.875 C 13.675781 42.960938 13.585938 43.035156 13.597656 43.167969 C 13.609375 43.269531 13.511719 43.320312 13.453125 43.390625 C 13.449219 43.433594 13.449219 43.472656 13.445312 43.515625 C 13.375 43.621094 13.351562 43.75 13.28125 43.859375 C 13.261719 44.03125 13.105469 44.148438 13.113281 44.328125 L 13.113281 44.332031 C 13.023438 44.4375 12.988281 44.574219 12.964844 44.703125 C 12.945312 44.816406 12.90625 44.90625 12.820312 44.976562 C 12.816406 45.03125 12.8125 45.085938 12.804688 45.136719 C 12.808594 45.277344 12.695312 45.367188 12.648438 45.484375 C 12.644531 45.566406 12.640625 45.652344 12.640625 45.734375 C 12.507812 45.882812 12.488281 46.0625 12.472656 46.25 C 12.394531 46.398438 12.359375 46.566406 12.3125 46.726562 C 12.195312 46.832031 12.25 46.96875 12.25 47.097656 C 12.246094 47.191406 12.25 47.289062 12.171875 47.359375 C 12.160156 47.546875 12.160156 47.734375 12.042969 47.90625 C 11.988281 47.984375 12.015625 48.097656 12.011719 48.195312 C 12.007812 48.285156 12.003906 48.378906 12 48.46875 C 11.964844 48.722656 11.976562 48.984375 11.917969 49.238281 C 11.890625 49.367188 11.828125 49.488281 11.832031 49.625 C 11.832031 49.664062 11.828125 49.703125 11.828125 49.746094 C 11.726562 49.859375 11.625 49.96875 11.53125 50.089844 C 11.476562 50.148438 11.421875 50.207031 11.359375 50.257812 C 11.238281 50.410156 11.019531 50.414062 10.890625 50.554688 L 10.894531 50.5625 C 10.65625 50.628906 10.417969 50.648438 10.171875 50.640625 C 10.0625 50.636719 9.96875 50.605469 9.871094 50.582031 C 9.714844 50.566406 9.636719 50.375 9.460938 50.40625 C 9.386719 50.390625 9.347656 50.328125 9.300781 50.277344 C 9.171875 50.175781 9.089844 50.03125 8.972656 49.917969 L 8.976562 49.917969 C 8.957031 49.78125 8.867188 49.6875 8.804688 49.574219 C 8.800781 49.535156 8.800781 49.492188 8.796875 49.453125 C 8.652344 49.234375 8.71875 48.980469 8.714844 48.75 C 8.707031 48.441406 8.691406 48.125 8.796875 47.824219 C 8.800781 47.671875 8.800781 47.515625 8.804688 47.363281 C 8.863281 47.105469 8.96875 46.855469 8.957031 46.585938 C 9.019531 46.519531 9.035156 46.441406 9.039062 46.347656 C 9.058594 46.085938 9.160156 45.84375 9.265625 45.605469 C 9.269531 45.589844 9.269531 45.578125 9.273438 45.566406 C 9.300781 45.355469 9.328125 45.148438 9.4375 44.960938 C 9.441406 44.910156 9.441406 44.855469 9.445312 44.800781 C 9.542969 44.65625 9.570312 44.488281 9.609375 44.328125 L 9.609375 44.324219 C 9.691406 44.21875 9.738281 44.085938 9.753906 43.960938 C 9.777344 43.808594 9.832031 43.683594 9.910156 43.558594 C 9.917969 43.410156 10.003906 43.292969 10.078125 43.171875 C 10.078125 43.132812 10.082031 43.089844 10.082031 43.050781 C 10.183594 42.910156 10.207031 42.738281 10.253906 42.578125 C 10.332031 42.496094 10.417969 42.421875 10.40625 42.285156 C 10.394531 42.183594 10.496094 42.132812 10.546875 42.0625 L 10.546875 42.066406 C 10.589844 41.902344 10.570312 41.714844 10.722656 41.59375 C 10.722656 41.554688 10.726562 41.511719 10.726562 41.472656 C 10.835938 41.382812 10.882812 41.261719 10.894531 41.128906 C 10.972656 41.042969 11.058594 40.96875 11.046875 40.832031 C 11.039062 40.742188 11.117188 40.691406 11.179688 40.640625 C 11.210938 40.476562 11.332031 40.351562 11.363281 40.1875 C 11.363281 40.136719 11.367188 40.082031 11.371094 40.027344 C 11.46875 39.933594 11.515625 39.8125 11.539062 39.679688 L 11.539062 39.683594 C 11.683594 39.554688 11.664062 39.324219 11.832031 39.207031 C 11.84375 39.160156 11.839844 39.101562 11.882812 39.074219 C 12.003906 38.996094 12.003906 38.871094 12.011719 38.746094 C 12.140625 38.644531 12.140625 38.472656 12.234375 38.347656 C 12.300781 38.246094 12.308594 38.117188 12.402344 38.035156 C 12.480469 37.9375 12.5625 37.847656 12.636719 37.746094 C 12.640625 37.707031 12.644531 37.667969 12.648438 37.628906 C 12.761719 37.542969 12.796875 37.421875 12.816406 37.289062 C 12.96875 37.164062 12.949219 36.933594 13.109375 36.8125 C 13.113281 36.800781 13.113281 36.789062 13.117188 36.777344 C 13.125 36.652344 13.195312 36.558594 13.277344 36.472656 C 13.28125 36.433594 13.285156 36.394531 13.289062 36.355469 C 13.371094 36.265625 13.449219 36.171875 13.449219 36.039062 C 13.523438 36 13.617188 35.992188 13.613281 35.863281 C 13.609375 35.777344 13.699219 35.726562 13.75 35.664062 C 13.769531 35.542969 13.835938 35.445312 13.914062 35.359375 C 13.921875 35.308594 13.925781 35.253906 13.929688 35.203125 C 14.003906 35.113281 14.082031 35.023438 14.09375 34.898438 C 14.15625 34.859375 14.15625 34.765625 14.226562 34.730469 C 14.265625 34.679688 14.214844 34.605469 14.269531 34.558594 L 14.269531 34.5625 C 14.304688 34.511719 14.351562 34.476562 14.386719 34.425781 C 14.410156 34.363281 14.417969 34.289062 14.488281 34.253906 C 14.550781 34.21875 14.550781 34.148438 14.566406 34.089844 C 14.65625 34.007812 14.722656 33.914062 14.730469 33.789062 C 14.734375 33.773438 14.734375 33.761719 14.738281 33.75 C 14.773438 33.699219 14.820312 33.664062 14.859375 33.617188 C 14.910156 33.570312 14.855469 33.496094 14.902344 33.449219 C 14.96875 33.40625 14.96875 33.316406 15.035156 33.28125 C 15.046875 33.21875 15.054688 33.15625 15.117188 33.117188 C 15.160156 33.089844 15.183594 33.046875 15.191406 32.996094 C 15.207031 32.90625 15.242188 32.832031 15.320312 32.769531 C 15.355469 32.746094 15.355469 32.683594 15.375 32.636719 C 15.527344 32.515625 15.523438 32.292969 15.671875 32.167969 C 15.671875 32.125 15.675781 32.085938 15.679688 32.046875 C 15.707031 31.953125 15.777344 31.894531 15.839844 31.824219 C 15.84375 31.785156 15.84375 31.746094 15.847656 31.703125 C 16 31.507812 16.113281 31.296875 16.191406 31.0625 C 16.230469 31.058594 16.265625 31.054688 16.300781 31.054688 C 16.339844 30.929688 16.371094 30.800781 16.476562 30.710938 C 16.480469 30.671875 16.484375 30.632812 16.488281 30.59375 C 16.550781 30.523438 16.617188 30.460938 16.648438 30.371094 C 16.652344 30.332031 16.65625 30.292969 16.65625 30.25 C 16.816406 30.128906 16.800781 29.902344 16.953125 29.777344 C 16.96875 29.710938 16.976562 29.640625 17.046875 29.59375 C 17.070312 29.582031 17.09375 29.554688 17.097656 29.53125 C 17.109375 29.347656 17.304688 29.246094 17.3125 29.058594 C 17.316406 29.007812 17.375 28.984375 17.421875 28.96875 C 17.441406 28.835938 17.472656 28.707031 17.59375 28.625 C 17.605469 28.503906 17.675781 28.410156 17.757812 28.320312 C 17.761719 28.28125 17.761719 28.242188 17.765625 28.199219 C 17.828125 28.089844 17.917969 27.992188 17.933594 27.859375 C 18.003906 27.761719 18.097656 27.683594 18.089844 27.546875 C 18.085938 27.457031 18.179688 27.410156 18.234375 27.347656 C 18.246094 27.222656 18.316406 27.128906 18.394531 27.042969 C 18.398438 27.003906 18.402344 26.960938 18.40625 26.921875 C 18.464844 26.8125 18.5625 26.714844 18.574219 26.578125 L 18.574219 26.582031 C 18.628906 26.519531 18.691406 26.472656 18.722656 26.394531 C 18.710938 26.269531 18.742188 26.167969 18.851562 26.097656 C 18.902344 25.980469 18.929688 25.847656 19.035156 25.757812 C 19.039062 25.707031 19.039062 25.652344 19.042969 25.601562 C 19.140625 25.503906 19.121094 25.355469 19.210938 25.257812 C 19.332031 25.070312 19.375 24.839844 19.507812 24.660156 C 19.515625 24.484375 19.65625 24.359375 19.679688 24.191406 C 19.683594 24.175781 19.683594 24.164062 19.683594 24.148438 C 19.699219 23.980469 19.855469 23.855469 19.851562 23.679688 L 19.851562 23.675781 C 19.914062 23.636719 19.917969 23.550781 19.980469 23.507812 C 20.023438 23.417969 19.988281 23.320312 20.003906 23.226562 C 20.011719 23.160156 20.089844 23.140625 20.109375 23.082031 C 20.121094 23.066406 20.132812 23.050781 20.148438 23.035156 L 20.148438 23.039062 C 20.203125 22.878906 20.203125 22.703125 20.316406 22.5625 C 20.320312 22.46875 20.324219 22.371094 20.328125 22.277344 C 20.433594 22.199219 20.402344 22.074219 20.433594 21.96875 C 20.527344 21.671875 20.617188 21.371094 20.648438 21.058594 C 20.664062 20.917969 20.707031 20.773438 20.792969 20.648438 C 20.792969 20.605469 20.792969 20.566406 20.796875 20.523438 C 20.878906 20.246094 20.875 19.949219 20.957031 19.664062 C 20.96875 19.253906 20.96875 18.84375 20.957031 18.429688 C 20.847656 18.214844 20.878906 17.964844 20.792969 17.746094 C 20.789062 17.703125 20.785156 17.664062 20.785156 17.625 C 20.773438 17.605469 20.761719 17.59375 20.75 17.578125 C 20.730469 17.519531 20.667969 17.5 20.644531 17.445312 C 20.628906 17.390625 20.664062 17.328125 20.617188 17.277344 C 20.578125 17.234375 20.53125 17.195312 20.496094 17.144531 C 20.46875 17.058594 20.367188 17.042969 20.324219 16.972656 C 20.257812 16.929688 20.214844 16.855469 20.144531 16.8125 C 20.089844 16.8125 20.035156 16.808594 19.980469 16.800781 C 19.511719 16.664062 19.039062 16.691406 18.566406 16.800781 C 18.511719 16.804688 18.457031 16.804688 18.402344 16.808594 C 18.1875 16.871094 17.972656 16.921875 17.757812 16.976562 C 17.648438 17.046875 17.523438 17.105469 17.398438 17.117188 C 17.261719 17.136719 17.167969 17.207031 17.078125 17.289062 C 16.925781 17.316406 16.777344 17.355469 16.648438 17.445312 C 16.605469 17.445312 16.566406 17.445312 16.527344 17.449219 C 16.414062 17.507812 16.316406 17.605469 16.179688 17.613281 L 16.179688 17.617188 C 16.082031 17.707031 15.988281 17.804688 15.863281 17.855469 C 15.691406 17.910156 15.558594 18.050781 15.375 18.089844 C 15.304688 18.148438 15.246094 18.21875 15.152344 18.25 C 15.113281 18.257812 15.074219 18.261719 15.035156 18.265625 C 14.878906 18.382812 14.761719 18.550781 14.550781 18.59375 C 14.484375 18.605469 14.441406 18.675781 14.390625 18.726562 C 14.304688 18.808594 14.210938 18.871094 14.09375 18.898438 C 14 19.046875 13.824219 19.089844 13.699219 19.195312 C 13.628906 19.257812 13.585938 19.382812 13.457031 19.371094 C 13.390625 19.417969 13.34375 19.484375 13.277344 19.535156 L 13.28125 19.539062 C 13.0625 19.691406 12.917969 19.929688 12.671875 20.058594 C 12.652344 20.070312 12.664062 20.113281 12.640625 20.132812 C 12.453125 20.210938 12.347656 20.386719 12.203125 20.515625 C 12.089844 20.617188 11.992188 20.746094 11.875 20.851562 C 11.851562 20.871094 11.847656 20.914062 11.832031 20.949219 C 11.710938 21.042969 11.648438 21.1875 11.53125 21.285156 C 11.515625 21.347656 11.507812 21.414062 11.441406 21.445312 C 11.378906 21.472656 11.371094 21.527344 11.363281 21.585938 C 11.210938 21.726562 11.203125 21.910156 11.207031 22.101562 C 11.117188 22.191406 11.066406 22.316406 11.050781 22.425781 C 11.039062 22.5625 10.980469 22.652344 10.894531 22.738281 C 10.890625 22.777344 10.886719 22.816406 10.886719 22.855469 C 10.84375 22.925781 10.777344 22.976562 10.71875 23.03125 C 10.660156 23.050781 10.59375 23.058594 10.5625 23.128906 C 10.535156 23.191406 10.480469 23.199219 10.421875 23.207031 C 10.292969 23.335938 10.125 23.359375 9.953125 23.378906 C 9.78125 23.5 9.582031 23.414062 9.394531 23.441406 C 9.3125 23.453125 9.210938 23.460938 9.140625 23.378906 C 9.003906 23.367188 8.890625 23.308594 8.789062 23.214844 C 8.738281 23.210938 8.6875 23.207031 8.636719 23.199219 C 8.566406 23.15625 8.519531 23.089844 8.460938 23.035156 C 8.414062 22.992188 8.375 22.949219 8.332031 22.90625 C 8.296875 22.820312 8.195312 22.78125 8.160156 22.695312 C 8.160156 22.636719 8.148438 22.582031 8.105469 22.539062 C 8.019531 22.453125 8 22.339844 7.988281 22.226562 C 7.867188 21.910156 7.863281 21.597656 7.988281 21.285156 C 7.992188 21.230469 7.992188 21.175781 7.996094 21.121094 C 8.0625 20.96875 8.035156 20.78125 8.15625 20.644531 C 8.160156 20.632812 8.164062 20.621094 8.164062 20.609375 C 8.203125 20.457031 8.308594 20.335938 8.332031 20.179688 C 8.496094 20.066406 8.46875 19.828125 8.632812 19.710938 C 8.660156 19.617188 8.769531 19.585938 8.800781 19.496094 C 8.808594 19.445312 8.820312 19.394531 8.875 19.375 C 8.953125 19.34375 8.957031 19.269531 8.976562 19.203125 C 9.089844 19.113281 9.148438 18.976562 9.265625 18.894531 L 9.269531 18.898438 C 9.320312 18.835938 9.386719 18.789062 9.4375 18.722656 C 9.449219 18.660156 9.476562 18.613281 9.527344 18.5625 C 9.71875 18.378906 9.890625 18.171875 10.089844 17.996094 C 10.238281 17.867188 10.347656 17.6875 10.542969 17.613281 C 10.609375 17.566406 10.660156 17.503906 10.71875 17.445312 L 10.714844 17.445312 C 10.777344 17.390625 10.832031 17.332031 10.890625 17.277344 L 10.890625 17.273438 C 10.96875 17.152344 11.109375 17.097656 11.195312 16.984375 C 11.257812 16.960938 11.332031 16.953125 11.363281 16.878906 C 11.390625 16.8125 11.460938 16.8125 11.519531 16.800781 C 11.589844 16.753906 11.648438 16.699219 11.6875 16.621094 C 11.773438 16.503906 11.90625 16.445312 12.003906 16.34375 L 12.003906 16.347656 C 12.132812 16.328125 12.238281 16.269531 12.320312 16.167969 C 12.398438 16.0625 12.503906 16.007812 12.632812 15.988281 L 12.632812 15.992188 C 12.722656 15.863281 12.878906 15.8125 12.980469 15.699219 L 12.980469 15.695312 C 13.101562 15.683594 13.199219 15.621094 13.28125 15.53125 L 13.28125 15.527344 C 13.410156 15.390625 13.617188 15.371094 13.746094 15.226562 C 13.796875 15.179688 13.871094 15.234375 13.917969 15.183594 C 13.960938 15.125 14.046875 15.121094 14.085938 15.054688 C 14.132812 15.039062 14.191406 15.042969 14.21875 15 C 14.269531 14.917969 14.367188 14.917969 14.425781 14.871094 C 14.566406 14.765625 14.746094 14.742188 14.882812 14.632812 C 14.894531 14.625 14.902344 14.609375 14.914062 14.609375 C 15.070312 14.582031 15.1875 14.480469 15.328125 14.414062 C 15.421875 14.320312 15.582031 14.359375 15.671875 14.25 C 15.726562 14.246094 15.78125 14.242188 15.832031 14.238281 C 15.925781 14.136719 16.042969 14.085938 16.179688 14.078125 C 16.222656 14.078125 16.261719 14.074219 16.304688 14.070312 C 16.414062 13.914062 16.574219 13.914062 16.742188 13.925781 C 16.835938 13.894531 16.921875 13.851562 16.992188 13.78125 C 17.03125 13.777344 17.074219 13.773438 17.113281 13.773438 C 17.292969 13.734375 17.46875 13.699219 17.632812 13.613281 C 17.671875 13.609375 17.714844 13.605469 17.757812 13.605469 C 18.070312 13.53125 18.382812 13.472656 18.703125 13.441406 C 18.714844 13.441406 18.726562 13.4375 18.738281 13.433594 C 18.898438 13.324219 19.085938 13.355469 19.257812 13.351562 C 19.472656 13.351562 19.695312 13.308594 19.890625 13.433594 C 19.917969 13.4375 19.945312 13.4375 19.972656 13.441406 C 20.253906 13.445312 20.523438 13.523438 20.789062 13.605469 L 20.785156 13.609375 C 20.933594 13.695312 21.101562 13.722656 21.261719 13.773438 C 21.316406 13.773438 21.367188 13.777344 21.421875 13.78125 C 21.519531 13.871094 21.617188 13.957031 21.765625 13.929688 C 21.839844 13.960938 21.886719 14.023438 21.9375 14.078125 C 21.988281 14.097656 22.042969 14.113281 22.070312 14.171875 C 22.101562 14.242188 22.167969 14.242188 22.230469 14.253906 C 22.300781 14.296875 22.347656 14.363281 22.410156 14.414062 L 22.40625 14.417969 C 22.496094 14.53125 22.585938 14.636719 22.707031 14.714844 C 22.761719 14.773438 22.820312 14.828125 22.878906 14.886719 L 22.878906 14.882812 C 22.933594 14.945312 22.996094 14.996094 23.046875 15.058594 C 23.128906 15.140625 23.195312 15.238281 23.222656 15.355469 C 23.261719 15.367188 23.304688 15.382812 23.34375 15.398438 C 23.363281 15.519531 23.429688 15.617188 23.511719 15.703125 C 23.515625 15.742188 23.519531 15.78125 23.523438 15.820312 C 23.632812 15.910156 23.675781 16.03125 23.691406 16.164062 L 23.6875 16.167969 C 23.765625 16.28125 23.808594 16.40625 23.835938 16.539062 C 23.847656 16.613281 23.882812 16.671875 23.902344 16.738281 C 23.960938 16.910156 24.039062 16.917969 24.164062 16.816406 C 24.226562 16.796875 24.292969 16.792969 24.324219 16.722656 C 24.347656 16.664062 24.40625 16.652344 24.460938 16.636719 C 24.558594 16.519531 24.699219 16.449219 24.800781 16.339844 C 24.871094 16.324219 24.941406 16.3125 24.972656 16.238281 C 24.996094 16.183594 25.050781 16.179688 25.097656 16.164062 C 25.160156 16.097656 25.226562 16.035156 25.3125 15.996094 C 25.351562 15.992188 25.390625 15.988281 25.429688 15.988281 C 25.523438 15.863281 25.683594 15.816406 25.777344 15.691406 L 25.78125 15.695312 C 25.902344 15.683594 26 15.617188 26.078125 15.527344 L 26.074219 15.523438 C 26.140625 15.476562 26.183594 15.398438 26.257812 15.363281 C 26.296875 15.363281 26.339844 15.359375 26.378906 15.355469 C 26.414062 15.289062 26.507812 15.292969 26.542969 15.226562 L 26.546875 15.226562 C 26.59375 15.179688 26.667969 15.234375 26.714844 15.179688 L 26.714844 15.183594 C 26.773438 15.136719 26.824219 15.089844 26.875 15.039062 C 26.949219 15.007812 26.996094 14.933594 27.066406 14.894531 C 27.105469 14.890625 27.144531 14.886719 27.183594 14.882812 C 27.269531 14.792969 27.363281 14.726562 27.492188 14.722656 C 27.503906 14.71875 27.515625 14.71875 27.527344 14.714844 C 27.621094 14.601562 27.773438 14.585938 27.886719 14.507812 C 27.921875 14.476562 27.96875 14.457031 28.003906 14.421875 C 28.132812 14.414062 28.257812 14.40625 28.347656 14.292969 C 28.386719 14.246094 28.453125 14.257812 28.507812 14.242188 C 28.671875 14.242188 28.773438 14.078125 28.9375 14.082031 C 28.949219 14.078125 28.964844 14.074219 28.976562 14.074219 C 29.171875 13.9375 29.410156 13.9375 29.621094 13.847656 C 29.664062 13.828125 29.714844 13.820312 29.746094 13.777344 C 29.921875 13.738281 30.101562 13.707031 30.261719 13.613281 C 30.304688 13.609375 30.34375 13.605469 30.386719 13.601562 C 30.585938 13.488281 30.824219 13.519531 31.03125 13.441406 C 31.1875 13.4375 31.339844 13.4375 31.496094 13.433594 C 31.667969 13.351562 31.851562 13.386719 32.03125 13.367188 C 32.292969 13.335938 32.550781 13.355469 32.8125 13.378906 C 32.863281 13.382812 32.914062 13.394531 32.949219 13.433594 C 33.0625 13.4375 33.171875 13.441406 33.285156 13.441406 C 33.4375 13.507812 33.625 13.488281 33.761719 13.601562 L 33.757812 13.605469 C 33.9375 13.609375 34.058594 13.757812 34.230469 13.777344 C 34.269531 13.84375 34.355469 13.847656 34.402344 13.90625 L 34.402344 13.902344 C 34.597656 13.890625 34.691406 14.089844 34.871094 14.117188 C 34.882812 14.214844 34.949219 14.246094 35.035156 14.253906 C 35.097656 14.300781 35.152344 14.363281 35.207031 14.421875 C 35.292969 14.535156 35.394531 14.632812 35.503906 14.722656 C 35.523438 14.789062 35.539062 14.859375 35.613281 14.890625 C 35.664062 14.914062 35.671875 14.964844 35.683594 15.011719 C 35.746094 15.078125 35.804688 15.148438 35.851562 15.226562 C 36 15.355469 35.988281 15.582031 36.144531 15.703125 C 36.148438 15.742188 36.148438 15.78125 36.152344 15.824219 C 36.160156 15.960938 36.207031 16.078125 36.3125 16.171875 C 36.316406 16.226562 36.320312 16.28125 36.324219 16.335938 C 36.445312 16.53125 36.453125 16.757812 36.496094 16.972656 C 36.53125 17.046875 36.574219 17.03125 36.621094 16.980469 C 36.703125 16.941406 36.746094 16.847656 36.828125 16.804688 C 36.957031 16.753906 37.023438 16.632812 37.128906 16.558594 C 37.230469 16.488281 37.285156 16.355469 37.421875 16.332031 C 37.488281 16.285156 37.539062 16.222656 37.597656 16.167969 C 37.660156 16.113281 37.707031 16.050781 37.773438 16.003906 C 37.90625 15.960938 37.980469 15.84375 38.082031 15.757812 C 38.128906 15.71875 38.175781 15.703125 38.230469 15.691406 C 38.300781 15.652344 38.347656 15.582031 38.410156 15.53125 L 38.40625 15.527344 C 38.488281 15.4375 38.585938 15.375 38.707031 15.355469 C 38.8125 15.246094 38.945312 15.167969 39.054688 15.066406 C 39.171875 15.042969 39.265625 14.96875 39.355469 14.894531 C 39.40625 14.890625 39.457031 14.886719 39.507812 14.882812 C 39.597656 14.808594 39.699219 14.75 39.773438 14.660156 C 39.792969 14.65625 39.8125 14.652344 39.832031 14.652344 C 39.894531 14.65625 39.929688 14.609375 39.972656 14.574219 C 40.027344 14.511719 40.097656 14.472656 40.164062 14.425781 L 40.160156 14.425781 C 40.292969 14.402344 40.414062 14.359375 40.507812 14.257812 C 40.5625 14.253906 40.613281 14.25 40.667969 14.246094 C 40.820312 14.210938 40.941406 14.105469 41.097656 14.078125 C 41.140625 14.019531 41.226562 14.015625 41.265625 13.949219 C 41.324219 13.933594 41.382812 13.921875 41.441406 13.910156 C 41.480469 13.84375 41.566406 13.839844 41.613281 13.78125 L 41.609375 13.78125 C 41.773438 13.734375 41.976562 13.800781 42.085938 13.613281 C 42.183594 13.609375 42.277344 13.605469 42.371094 13.601562 C 42.523438 13.484375 42.722656 13.503906 42.890625 13.441406 C 42.933594 13.4375 42.972656 13.4375 43.015625 13.4375 C 43.148438 13.359375 43.304688 13.347656 43.445312 13.289062 C 43.621094 13.210938 43.804688 13.207031 43.988281 13.210938 C 44.085938 13.214844 44.128906 13.117188 44.21875 13.121094 C 44.75 13.09375 45.273438 13.015625 45.804688 13.058594 C 45.941406 13.070312 46.0625 13.15625 46.203125 13.121094 C 46.359375 13.207031 46.515625 13.238281 46.695312 13.203125 C 46.75 13.191406 46.839844 13.203125 46.886719 13.273438 C 46.976562 13.308594 47.074219 13.28125 47.167969 13.289062 C 47.261719 13.304688 47.296875 13.398438 47.375 13.4375 C 47.425781 13.4375 47.480469 13.441406 47.535156 13.445312 C 47.664062 13.445312 47.757812 13.519531 47.84375 13.605469 L 47.839844 13.609375 C 47.972656 13.628906 48.074219 13.710938 48.179688 13.78125 C 48.285156 13.941406 48.515625 13.894531 48.613281 14.054688 C 48.671875 14.128906 48.757812 14.179688 48.820312 14.25 C 48.960938 14.257812 49.011719 14.390625 49.089844 14.464844 C 49.164062 14.53125 49.289062 14.589844 49.289062 14.722656 C 49.414062 14.800781 49.4375 14.929688 49.464844 15.058594 L 49.464844 15.054688 C 49.507812 15.121094 49.578125 15.167969 49.617188 15.238281 C 49.625 15.277344 49.667969 15.296875 49.679688 15.335938 C 49.730469 15.453125 49.613281 15.601562 49.75 15.703125 L 49.757812 15.699219 C 49.816406 16.058594 49.871094 16.417969 49.835938 16.785156 C 49.820312 16.925781 49.734375 17.058594 49.78125 17.207031 C 49.6875 17.378906 49.648438 17.5625 49.683594 17.757812 C 49.644531 17.863281 49.605469 17.972656 49.59375 18.089844 C 49.589844 18.132812 49.589844 18.175781 49.585938 18.214844 C 49.503906 18.347656 49.453125 18.496094 49.449219 18.640625 C 49.441406 18.800781 49.390625 18.917969 49.292969 19.03125 C 49.292969 19.042969 49.289062 19.054688 49.285156 19.070312 C 49.246094 19.230469 49.234375 19.40625 49.125 19.542969 C 49.121094 19.597656 49.117188 19.652344 49.113281 19.707031 C 49.097656 19.878906 48.945312 20 48.945312 20.179688 C 48.863281 20.277344 48.828125 20.410156 48.808594 20.523438 C 48.789062 20.652344 48.734375 20.738281 48.648438 20.820312 L 48.644531 20.820312 C 48.644531 20.960938 48.535156 21.050781 48.484375 21.167969 C 48.480469 21.207031 48.476562 21.246094 48.472656 21.289062 C 48.386719 21.375 48.316406 21.464844 48.3125 21.59375 C 48.308594 21.648438 48.308594 21.703125 48.304688 21.753906 C 48.222656 21.847656 48.144531 21.929688 48.152344 22.074219 C 48.15625 22.160156 48.0625 22.210938 48.007812 22.273438 L 48.003906 22.269531 C 48 22.398438 47.921875 22.488281 47.847656 22.578125 C 47.84375 22.617188 47.839844 22.660156 47.835938 22.699219 C 47.773438 22.808594 47.679688 22.90625 47.667969 23.039062 C 47.550781 23.125 47.507812 23.246094 47.5 23.382812 C 47.339844 23.519531 47.332031 23.742188 47.203125 23.898438 C 47.199219 23.9375 47.195312 23.976562 47.195312 24.019531 C 47.109375 24.101562 47.035156 24.195312 47.035156 24.324219 C 47.03125 24.335938 47.027344 24.347656 47.023438 24.359375 C 46.878906 24.488281 46.890625 24.714844 46.730469 24.835938 L 46.730469 24.832031 C 46.714844 24.957031 46.644531 25.050781 46.566406 25.140625 C 46.5625 25.179688 46.5625 25.21875 46.558594 25.257812 C 46.488281 25.367188 46.402344 25.464844 46.390625 25.601562 C 46.324219 25.640625 46.324219 25.730469 46.257812 25.769531 C 46.246094 25.90625 46.207031 26.027344 46.089844 26.109375 L 46.089844 26.113281 C 46.074219 26.234375 46.007812 26.328125 45.925781 26.414062 C 45.921875 26.457031 45.921875 26.496094 45.917969 26.539062 C 45.851562 26.648438 45.765625 26.746094 45.746094 26.878906 C 45.601562 26.96875 45.625 27.164062 45.507812 27.269531 C 45.414062 27.355469 45.34375 27.457031 45.28125 27.566406 C 45.28125 27.605469 45.277344 27.644531 45.273438 27.6875 C 45.226562 27.75 45.15625 27.796875 45.132812 27.875 C 45.148438 28.003906 45.039062 28.070312 44.980469 28.160156 C 44.933594 28.207031 44.988281 28.28125 44.933594 28.328125 C 44.882812 28.363281 44.882812 28.445312 44.824219 28.476562 C 44.757812 28.539062 44.703125 28.609375 44.644531 28.679688 C 44.644531 28.71875 44.640625 28.757812 44.636719 28.796875 C 44.578125 28.867188 44.507812 28.929688 44.476562 29.015625 C 44.472656 29.058594 44.46875 29.097656 44.46875 29.136719 C 44.328125 29.265625 44.320312 29.484375 44.167969 29.609375 C 44.152344 29.667969 44.148438 29.734375 44.078125 29.765625 C 44.019531 29.796875 44.011719 29.851562 44 29.90625 C 43.933594 29.972656 43.867188 30.035156 43.835938 30.125 C 43.832031 30.167969 43.832031 30.207031 43.828125 30.246094 C 43.703125 30.351562 43.695312 30.523438 43.589844 30.640625 C 43.5 30.714844 43.441406 30.8125 43.367188 30.898438 C 43.363281 30.949219 43.359375 31 43.355469 31.050781 C 43.273438 31.136719 43.207031 31.234375 43.1875 31.355469 L 43.183594 31.351562 C 43.125 31.390625 43.019531 31.371094 43.035156 31.5 C 43.042969 31.585938 42.949219 31.636719 42.894531 31.703125 C 42.875 31.820312 42.8125 31.917969 42.730469 32.003906 C 42.722656 32.058594 42.71875 32.109375 42.714844 32.160156 C 42.671875 32.234375 42.59375 32.285156 42.558594 32.363281 C 42.390625 32.464844 42.402344 32.691406 42.25 32.808594 C 42.238281 32.878906 42.222656 32.945312 42.148438 32.980469 C 42.101562 33.007812 42.09375 33.058594 42.082031 33.109375 C 42.015625 33.171875 41.949219 33.234375 41.917969 33.328125 C 41.914062 33.367188 41.914062 33.40625 41.910156 33.449219 C 41.863281 33.535156 41.757812 33.585938 41.761719 33.703125 C 41.761719 33.804688 41.652344 33.742188 41.621094 33.792969 C 41.613281 33.832031 41.609375 33.871094 41.605469 33.910156 C 41.566406 33.984375 41.492188 34.023438 41.449219 34.09375 C 41.445312 34.132812 41.441406 34.171875 41.4375 34.214844 C 41.375 34.28125 41.3125 34.347656 41.269531 34.429688 C 41.191406 34.519531 41.121094 34.609375 41.101562 34.730469 C 41.039062 34.761719 41.046875 34.84375 40.984375 34.875 C 40.917969 34.9375 40.863281 35.007812 40.808594 35.078125 C 40.804688 35.117188 40.800781 35.15625 40.796875 35.195312 C 40.738281 35.265625 40.671875 35.328125 40.632812 35.410156 C 40.628906 35.492188 40.574219 35.523438 40.503906 35.542969 C 40.476562 35.65625 40.414062 35.753906 40.332031 35.839844 C 40.316406 35.90625 40.3125 35.980469 40.234375 36.011719 C 40.167969 36.042969 40.167969 36.113281 40.15625 36.171875 C 40.078125 36.265625 40.007812 36.355469 39.984375 36.476562 L 39.988281 36.472656 C 39.910156 36.503906 39.824219 36.515625 39.828125 36.636719 C 39.832031 36.714844 39.742188 36.761719 39.691406 36.820312 C 39.679688 36.882812 39.667969 36.945312 39.605469 36.980469 C 39.550781 37.011719 39.535156 37.066406 39.519531 37.117188 C 39.425781 37.195312 39.367188 37.292969 39.347656 37.414062 L 39.351562 37.417969 C 39.242188 37.566406 39.199219 37.753906 39.074219 37.894531 C 39.003906 37.957031 38.945312 38.03125 38.886719 38.109375 C 38.882812 38.148438 38.878906 38.1875 38.875 38.226562 C 38.816406 38.292969 38.742188 38.355469 38.714844 38.445312 C 38.710938 38.488281 38.710938 38.527344 38.707031 38.566406 C 38.5625 38.695312 38.550781 38.90625 38.414062 39.039062 C 38.394531 39.171875 38.351562 39.292969 38.246094 39.382812 C 38.242188 39.425781 38.238281 39.464844 38.234375 39.503906 C 38.125 39.59375 38.082031 39.710938 38.066406 39.847656 C 37.988281 39.945312 37.960938 40.085938 37.898438 40.171875 C 37.773438 40.339844 37.761719 40.527344 37.699219 40.707031 C 37.671875 40.753906 37.640625 40.792969 37.601562 40.832031 C 37.597656 40.871094 37.59375 40.910156 37.589844 40.949219 C 37.488281 41.042969 37.4375 41.160156 37.429688 41.296875 C 37.332031 41.386719 37.308594 41.519531 37.292969 41.625 C 37.269531 41.761719 37.207031 41.847656 37.128906 41.9375 L 37.125 41.9375 C 37.105469 42.105469 36.980469 42.238281 36.957031 42.40625 C 36.957031 42.449219 36.953125 42.488281 36.953125 42.53125 C 36.882812 42.652344 36.792969 42.769531 36.789062 42.917969 C 36.789062 42.945312 36.785156 42.972656 36.785156 43 C 36.617188 43.148438 36.652344 43.382812 36.550781 43.5625 C 36.53125 43.601562 36.523438 43.652344 36.488281 43.6875 L 36.484375 43.6875 C 36.496094 43.867188 36.332031 43.988281 36.320312 44.160156 C 36.320312 44.199219 36.316406 44.242188 36.316406 44.28125 C 36.242188 44.40625 36.148438 44.519531 36.15625 44.671875 C 36.152344 44.714844 36.148438 44.753906 36.148438 44.796875 C 36.082031 44.933594 36.015625 45.066406 35.996094 45.222656 C 35.976562 45.359375 35.925781 45.492188 35.855469 45.613281 C 35.851562 45.710938 35.851562 45.804688 35.847656 45.902344 C 35.8125 46.121094 35.734375 46.332031 35.683594 46.546875 L 35.675781 46.546875 C 35.527344 46.71875 35.636719 46.925781 35.597656 47.109375 C 35.601562 47.246094 35.5625 47.386719 35.640625 47.511719 C 35.65625 47.523438 35.671875 47.542969 35.691406 47.542969 C 36.464844 47.550781 37.230469 47.6875 38 47.628906 C 38.382812 47.597656 38.765625 47.582031 39.148438 47.609375 C 39.664062 47.625 40.179688 47.617188 40.695312 47.613281 C 41.035156 47.613281 41.371094 47.648438 41.703125 47.632812 C 41.910156 47.621094 42.113281 47.574219 42.324219 47.605469 C 42.691406 47.648438 43.0625 47.617188 43.433594 47.617188 C 44.617188 47.617188 45.800781 47.617188 46.988281 47.617188 C 47.128906 47.617188 47.269531 47.609375 47.410156 47.601562 C 47.980469 47.605469 48.550781 47.574219 49.121094 47.605469 C 49.546875 47.632812 49.96875 47.617188 50.390625 47.605469 C 50.515625 47.605469 50.621094 47.535156 50.742188 47.535156 C 50.78125 47.53125 50.824219 47.53125 50.863281 47.527344 C 51.007812 47.433594 51.171875 47.398438 51.335938 47.359375 C 51.453125 47.195312 51.683594 47.21875 51.804688 47.058594 L 51.800781 47.058594 C 51.960938 46.972656 52.054688 46.816406 52.179688 46.699219 C 52.324219 46.578125 52.472656 46.460938 52.492188 46.253906 L 52.496094 46.257812 C 52.574219 46.164062 52.667969 46.074219 52.636719 45.933594 C 52.640625 45.910156 52.648438 45.890625 52.660156 45.875 C 52.746094 45.824219 52.707031 45.746094 52.703125 45.675781 C 52.722656 45.355469 52.703125 45.035156 52.707031 44.714844 C 52.691406 44.414062 52.6875 44.113281 52.488281 43.859375 L 52.488281 43.863281 C 52.472656 43.730469 52.425781 43.605469 52.324219 43.515625 C 52.320312 43.476562 52.316406 43.4375 52.3125 43.394531 C 52.253906 43.328125 52.183594 43.265625 52.148438 43.179688 C 52.144531 43.136719 52.144531 43.101562 52.140625 43.0625 C 52.050781 43.035156 51.980469 42.988281 51.976562 42.882812 C 51.933594 42.839844 51.886719 42.796875 51.851562 42.753906 L 51.851562 42.75 C 51.800781 42.671875 51.742188 42.605469 51.679688 42.539062 C 51.671875 42.429688 51.660156 42.328125 51.578125 42.246094 C 51.566406 42.234375 51.554688 42.222656 51.554688 42.210938 C 51.503906 41.882812 51.445312 41.554688 51.597656 41.242188 C 51.632812 41.164062 51.675781 41.09375 51.679688 41.003906 C 51.707031 40.910156 51.816406 40.882812 51.84375 40.789062 C 51.890625 40.746094 51.933594 40.707031 51.96875 40.65625 C 52.003906 40.578125 52.089844 40.554688 52.144531 40.492188 L 52.140625 40.488281 C 52.210938 40.429688 52.273438 40.359375 52.359375 40.324219 C 52.386719 40.320312 52.414062 40.320312 52.441406 40.316406 C 52.535156 40.210938 52.648438 40.140625 52.796875 40.171875 C 52.90625 40.195312 52.992188 40.121094 53.097656 40.117188 C 53.382812 40.105469 53.644531 40.183594 53.894531 40.316406 C 54.03125 40.308594 54.085938 40.429688 54.160156 40.5 C 54.351562 40.667969 54.519531 40.859375 54.695312 41.042969 C 54.710938 41.058594 54.707031 41.09375 54.714844 41.121094 C 54.753906 41.195312 54.824219 41.238281 54.871094 41.304688 C 54.886719 41.359375 54.898438 41.414062 54.957031 41.445312 C 55.023438 41.476562 55.035156 41.539062 55.046875 41.601562 C 55.167969 41.679688 55.199219 41.808594 55.222656 41.941406 L 55.222656 41.9375 C 55.257812 41.988281 55.308594 42.023438 55.34375 42.074219 C 55.34375 42.085938 55.347656 42.097656 55.351562 42.109375 C 55.351562 42.238281 55.441406 42.324219 55.507812 42.417969 C 55.515625 42.472656 55.519531 42.523438 55.523438 42.578125 C 55.617188 42.722656 55.644531 42.890625 55.6875 43.050781 C 55.761719 43.167969 55.832031 43.300781 55.832031 43.433594 C 55.835938 43.671875 55.902344 43.882812 56.007812 44.089844 C 56.027344 44.554688 56.09375 45.011719 56.078125 45.476562 C 56.074219 45.664062 55.972656 45.835938 56.007812 46.023438 C 55.921875 46.183594 55.890625 46.355469 55.914062 46.535156 C 55.921875 46.601562 55.90625 46.664062 55.851562 46.710938 C 55.835938 46.882812 55.78125 47.042969 55.691406 47.191406 L 55.6875 47.1875 C 55.675781 47.324219 55.628906 47.441406 55.527344 47.535156 C 55.523438 47.589844 55.515625 47.640625 55.511719 47.695312 C 55.441406 47.785156 55.363281 47.875 55.347656 48 L 55.34375 47.996094 C 55.238281 48.101562 55.160156 48.238281 55.050781 48.34375 L 55.054688 48.34375 C 55.03125 48.460938 54.972656 48.5625 54.878906 48.640625 C 54.820312 48.695312 54.761719 48.746094 54.710938 48.8125 C 54.574219 48.988281 54.414062 49.140625 54.242188 49.28125 L 54.242188 49.285156 C 54.175781 49.328125 54.128906 49.394531 54.066406 49.449219 L 54.070312 49.449219 C 53.992188 49.542969 53.890625 49.597656 53.773438 49.625 C 53.664062 49.730469 53.535156 49.808594 53.425781 49.917969 C 53.386719 49.921875 53.347656 49.925781 53.308594 49.925781 C 53.230469 49.976562 53.171875 50.050781 53.085938 50.089844 C 53.046875 50.09375 53.011719 50.09375 52.96875 50.097656 C 52.878906 50.167969 52.78125 50.234375 52.699219 50.320312 C 52.679688 50.324219 52.660156 50.328125 52.640625 50.328125 C 52.570312 50.316406 52.539062 50.382812 52.488281 50.40625 C 52.433594 50.421875 52.371094 50.386719 52.320312 50.429688 C 52.277344 50.492188 52.191406 50.496094 52.148438 50.558594 C 51.988281 50.609375 51.8125 50.613281 51.671875 50.722656 C 51.617188 50.726562 51.5625 50.730469 51.507812 50.730469 C 51.257812 50.835938 50.996094 50.816406 50.734375 50.8125 C 50.5 50.796875 50.261719 50.757812 50.039062 50.871094 C 50.011719 50.882812 50.042969 50.878906 50.015625 50.875 C 49.523438 50.8125 49.046875 50.984375 48.554688 50.960938 C 46.796875 50.871094 45.035156 50.933594 43.273438 50.929688 C 42.9375 50.929688 42.589844 51.011719 42.253906 50.945312 C 41.585938 50.820312 40.90625 50.953125 40.242188 50.867188 C 39.425781 50.761719 38.609375 50.8125 37.792969 50.800781 C 37.667969 50.800781 37.542969 50.863281 37.414062 50.820312 C 36.753906 50.804688 36.09375 50.820312 35.433594 50.8125 C 35.128906 50.808594 34.824219 50.828125 34.519531 50.792969 C 34.445312 50.78125 34.382812 50.734375 34.3125 50.734375 C 34.296875 50.734375 34.285156 50.730469 34.269531 50.730469 C 34.105469 50.648438 33.933594 50.597656 33.753906 50.5625 C 33.667969 50.5625 33.605469 50.527344 33.585938 50.433594 C 33.46875 50.40625 33.371094 50.34375 33.289062 50.261719 C 33.230469 50.207031 33.175781 50.144531 33.113281 50.09375 C 33.0625 50.03125 33.003906 49.976562 32.945312 49.917969 L 32.941406 49.921875 C 32.800781 49.839844 32.769531 49.660156 32.632812 49.574219 C 32.648438 49.40625 32.480469 49.308594 32.476562 49.148438 C 32.46875 49.101562 32.480469 49.039062 32.453125 49.007812 C 32.316406 48.847656 32.324219 48.65625 32.304688 48.46875 C 32.1875 48.3125 32.230469 48.128906 32.226562 47.957031 C 32.226562 47.652344 32.1875 47.351562 32.25 47.050781 C 32.261719 46.988281 32.269531 46.9375 32.304688 46.886719 C 32.308594 46.832031 32.308594 46.777344 32.3125 46.722656 C 32.347656 46.40625 32.394531 46.089844 32.476562 45.777344 L 32.484375 45.78125 C 32.597656 45.625 32.597656 45.4375 32.640625 45.257812 C 32.644531 45.164062 32.652344 45.070312 32.65625 44.972656 C 32.796875 44.773438 32.789062 44.519531 32.886719 44.300781 C 32.90625 44.253906 32.90625 44.195312 32.945312 44.15625 L 32.945312 44.160156 C 32.933594 43.9375 33.0625 43.757812 33.113281 43.558594 C 33.117188 43.503906 33.117188 43.449219 33.121094 43.394531 C 33.199219 43.226562 33.25 43.054688 33.289062 42.878906 C 33.421875 42.6875 33.425781 42.445312 33.523438 42.238281 C 33.542969 42.199219 33.554688 42.148438 33.589844 42.109375 C 33.59375 41.960938 33.683594 41.84375 33.753906 41.722656 C 33.761719 41.609375 33.765625 41.5 33.851562 41.40625 C 33.925781 41.332031 33.917969 41.226562 33.929688 41.128906 C 34.015625 41.027344 34.050781 40.894531 34.070312 40.777344 C 34.089844 40.652344 34.148438 40.570312 34.226562 40.488281 C 34.230469 40.3125 34.378906 40.1875 34.398438 40.019531 C 34.480469 39.871094 34.511719 39.707031 34.570312 39.550781 C 34.667969 39.460938 34.746094 39.363281 34.722656 39.21875 C 34.738281 39.160156 34.808594 39.136719 34.828125 39.078125 C 34.839844 39.066406 34.851562 39.050781 34.863281 39.035156 L 34.867188 39.039062 C 34.882812 38.902344 34.980469 38.808594 35.035156 38.691406 C 35.039062 38.578125 35.039062 38.46875 35.140625 38.382812 C 35.21875 38.3125 35.203125 38.199219 35.214844 38.101562 C 35.296875 38.015625 35.359375 37.921875 35.378906 37.792969 C 35.390625 37.71875 35.441406 37.636719 35.511719 37.589844 L 35.511719 37.585938 C 35.519531 37.464844 35.589844 37.367188 35.671875 37.285156 C 35.675781 37.242188 35.679688 37.203125 35.683594 37.160156 C 35.75 37.050781 35.828125 36.949219 35.859375 36.820312 C 35.945312 36.800781 35.980469 36.738281 35.996094 36.65625 C 36.015625 36.570312 36.046875 36.496094 36.144531 36.472656 C 36.167969 36.355469 36.230469 36.253906 36.3125 36.167969 C 36.316406 36.128906 36.316406 36.089844 36.320312 36.050781 C 36.359375 35.964844 36.433594 35.902344 36.484375 35.828125 C 36.488281 35.789062 36.492188 35.75 36.496094 35.710938 C 36.597656 35.601562 36.679688 35.472656 36.785156 35.363281 C 36.800781 35.226562 36.871094 35.121094 36.964844 35.027344 C 37.039062 34.941406 37.105469 34.84375 37.132812 34.726562 L 37.132812 34.730469 C 37.222656 34.648438 37.277344 34.550781 37.308594 34.433594 C 37.347656 34.414062 37.382812 34.398438 37.421875 34.382812 C 37.453125 34.265625 37.503906 34.164062 37.597656 34.085938 C 37.609375 34.019531 37.621094 33.957031 37.6875 33.925781 C 37.746094 33.898438 37.757812 33.839844 37.769531 33.789062 C 37.890625 33.691406 37.933594 33.53125 38.0625 33.4375 C 38.066406 33.398438 38.070312 33.359375 38.070312 33.320312 C 38.109375 33.234375 38.171875 33.167969 38.238281 33.101562 C 38.238281 33.0625 38.242188 33.023438 38.246094 32.984375 C 38.292969 32.914062 38.363281 32.863281 38.402344 32.78125 C 38.570312 32.679688 38.558594 32.453125 38.710938 32.339844 C 38.726562 32.269531 38.738281 32.203125 38.808594 32.164062 C 38.871094 32.128906 38.871094 32.0625 38.886719 32.003906 C 38.96875 31.917969 39.03125 31.820312 39.054688 31.699219 L 39.054688 31.703125 C 39.160156 31.59375 39.238281 31.460938 39.34375 31.351562 L 39.347656 31.355469 C 39.363281 31.234375 39.429688 31.136719 39.511719 31.050781 C 39.527344 30.992188 39.53125 30.925781 39.59375 30.890625 C 39.664062 30.851562 39.671875 30.78125 39.6875 30.714844 C 39.835938 30.59375 39.835938 30.371094 39.988281 30.25 C 40.003906 30.179688 40.015625 30.109375 40.089844 30.074219 C 40.140625 30.050781 40.144531 29.996094 40.160156 29.949219 C 40.226562 29.886719 40.292969 29.820312 40.324219 29.730469 C 40.324219 29.691406 40.328125 29.648438 40.328125 29.609375 C 40.457031 29.507812 40.464844 29.332031 40.570312 29.21875 C 40.65625 29.144531 40.71875 29.046875 40.789062 28.960938 C 40.792969 28.90625 40.800781 28.855469 40.804688 28.804688 C 40.886719 28.71875 40.953125 28.621094 40.96875 28.5 C 41.074219 28.390625 41.160156 28.265625 41.257812 28.152344 C 41.261719 28.109375 41.265625 28.070312 41.269531 28.03125 C 41.296875 27.9375 41.410156 27.910156 41.433594 27.8125 C 41.4375 27.773438 41.441406 27.734375 41.445312 27.695312 C 41.527344 27.605469 41.59375 27.511719 41.609375 27.386719 C 41.640625 27.367188 41.679688 27.355469 41.695312 27.332031 C 41.769531 27.195312 41.839844 27.058594 41.910156 26.921875 C 41.945312 26.832031 42.011719 26.769531 42.074219 26.703125 C 42.078125 26.660156 42.078125 26.621094 42.082031 26.582031 C 42.15625 26.492188 42.238281 26.402344 42.246094 26.277344 C 42.25 26.265625 42.253906 26.253906 42.253906 26.242188 C 42.367188 26.136719 42.378906 25.96875 42.480469 25.859375 C 42.578125 25.785156 42.628906 25.671875 42.710938 25.589844 L 42.710938 25.59375 C 42.738281 25.464844 42.828125 25.363281 42.882812 25.246094 C 42.882812 25.207031 42.886719 25.167969 42.890625 25.128906 C 43.046875 25.007812 43.039062 24.78125 43.183594 24.65625 L 43.183594 24.652344 C 43.203125 24.523438 43.246094 24.398438 43.355469 24.3125 C 43.355469 24.273438 43.359375 24.234375 43.363281 24.195312 C 43.445312 24.105469 43.523438 24.011719 43.523438 23.878906 C 43.636719 23.851562 43.707031 23.789062 43.675781 23.660156 C 43.652344 23.566406 43.722656 23.523438 43.765625 23.464844 C 43.863281 23.375 43.933594 23.273438 43.992188 23.160156 C 43.992188 23.132812 43.996094 23.105469 43.996094 23.078125 C 44.0625 22.96875 44.15625 22.875 44.167969 22.734375 L 44.167969 22.738281 C 44.25 22.65625 44.332031 22.578125 44.320312 22.445312 C 44.3125 22.34375 44.40625 22.292969 44.464844 22.226562 C 44.476562 22.089844 44.574219 21.992188 44.632812 21.878906 C 44.632812 21.839844 44.632812 21.796875 44.636719 21.753906 C 44.667969 21.589844 44.792969 21.460938 44.816406 21.289062 C 44.855469 21.277344 44.910156 21.265625 44.917969 21.222656 C 44.941406 21.070312 45.054688 20.957031 45.109375 20.820312 C 45.125 20.683594 45.15625 20.558594 45.269531 20.472656 C 45.273438 20.429688 45.277344 20.390625 45.28125 20.351562 C 45.394531 20.265625 45.433594 20.144531 45.445312 20.007812 L 45.445312 20.003906 C 45.546875 19.921875 45.558594 19.785156 45.582031 19.683594 C 45.613281 19.554688 45.679688 19.464844 45.746094 19.367188 C 45.800781 19.207031 45.800781 19.03125 45.914062 18.894531 C 45.917969 18.851562 45.917969 18.8125 45.921875 18.773438 C 45.996094 18.652344 46.085938 18.535156 46.085938 18.382812 C 46.085938 18.34375 46.089844 18.300781 46.09375 18.261719 C 46.195312 18.164062 46.242188 18.054688 46.246094 17.90625 C 46.246094 17.746094 46.304688 17.589844 46.390625 17.449219 C 46.390625 17.253906 46.460938 17.070312 46.472656 16.878906 C 46.496094 16.519531 46.476562 16.488281 46.136719 16.488281 C 46.109375 16.488281 46.085938 16.484375 46.066406 16.46875 C 45.953125 16.363281 45.820312 16.40625 45.691406 16.417969 C 45.410156 16.40625 45.128906 16.414062 44.84375 16.414062 C 44.785156 16.410156 44.726562 16.402344 44.667969 16.40625 C 44.566406 16.425781 44.441406 16.355469 44.359375 16.472656 C 44.339844 16.484375 44.316406 16.488281 44.296875 16.488281 C 44.066406 16.464844 43.859375 16.539062 43.65625 16.636719 C 43.617188 16.636719 43.574219 16.640625 43.535156 16.640625 C 43.355469 16.675781 43.175781 16.710938 43.015625 16.804688 C 42.945312 16.808594 42.871094 16.8125 42.820312 16.863281 C 42.703125 16.96875 42.566406 16.976562 42.425781 16.980469 C 42.359375 17.023438 42.308594 17.085938 42.242188 17.125 C 42.097656 17.097656 42 17.179688 41.910156 17.277344 C 41.773438 17.289062 41.675781 17.382812 41.566406 17.445312 C 41.539062 17.449219 41.511719 17.449219 41.484375 17.449219 C 41.394531 17.484375 41.335938 17.558594 41.261719 17.613281 C 41.222656 17.617188 41.183594 17.621094 41.144531 17.625 C 41.03125 17.726562 40.90625 17.808594 40.796875 17.914062 C 40.625 17.921875 40.519531 18.042969 40.414062 18.15625 C 40.375 18.195312 40.335938 18.234375 40.285156 18.253906 C 40.246094 18.257812 40.207031 18.261719 40.167969 18.265625 C 40.140625 18.355469 40.097656 18.429688 39.988281 18.429688 C 39.945312 18.472656 39.90625 18.515625 39.855469 18.554688 C 39.773438 18.597656 39.734375 18.691406 39.648438 18.730469 C 39.523438 18.78125 39.453125 18.898438 39.347656 18.972656 C 39.246094 19.042969 39.183594 19.167969 39.054688 19.203125 C 38.992188 19.25 38.9375 19.3125 38.882812 19.371094 C 38.820312 19.425781 38.765625 19.484375 38.707031 19.539062 L 38.710938 19.542969 C 38.625 19.652344 38.527344 19.757812 38.410156 19.839844 L 38.410156 19.835938 C 38.355469 19.894531 38.296875 19.953125 38.238281 20.007812 C 38.183594 20.066406 38.128906 20.125 38.070312 20.179688 C 37.988281 20.296875 37.886719 20.394531 37.773438 20.480469 L 37.769531 20.476562 C 37.714844 20.535156 37.65625 20.589844 37.601562 20.648438 C 37.542969 20.703125 37.484375 20.761719 37.429688 20.820312 C 37.328125 20.917969 37.25 21.039062 37.136719 21.121094 C 37.070312 21.171875 37.007812 21.226562 36.964844 21.296875 C 36.9375 21.445312 36.804688 21.511719 36.714844 21.613281 C 36.65625 21.679688 36.617188 21.765625 36.527344 21.804688 C 36.488281 21.824219 36.492188 21.878906 36.484375 21.921875 C 36.4375 21.988281 36.375 22.039062 36.316406 22.097656 L 36.3125 22.09375 C 36.269531 22.164062 36.167969 22.179688 36.144531 22.265625 C 36.105469 22.3125 36.0625 22.355469 36.019531 22.394531 C 35.964844 22.457031 35.902344 22.507812 35.851562 22.574219 L 35.851562 22.570312 C 35.84375 22.746094 35.699219 22.871094 35.679688 23.039062 C 35.675781 23.214844 35.523438 23.339844 35.515625 23.515625 C 35.511719 23.566406 35.507812 23.621094 35.503906 23.671875 C 35.332031 23.800781 35.367188 24.015625 35.285156 24.179688 C 35.261719 24.226562 35.253906 24.28125 35.210938 24.316406 L 35.207031 24.316406 C 35.195312 24.453125 35.148438 24.570312 35.046875 24.664062 C 35.042969 24.71875 35.039062 24.773438 35.035156 24.828125 C 35.015625 24.996094 34.875 25.125 34.863281 25.296875 L 34.859375 25.292969 C 34.699219 25.414062 34.742188 25.652344 34.574219 25.773438 L 34.570312 25.769531 C 34.5625 25.941406 34.421875 26.070312 34.398438 26.238281 C 34.394531 26.277344 34.394531 26.316406 34.394531 26.359375 C 34.34375 26.476562 34.226562 26.566406 34.238281 26.710938 C 34.140625 26.78125 34.066406 26.859375 34.074219 26.992188 C 34.082031 27.097656 33.988281 27.148438 33.929688 27.214844 L 33.929688 27.21875 C 33.914062 27.351562 33.820312 27.445312 33.761719 27.558594 C 33.757812 27.601562 33.753906 27.640625 33.75 27.679688 C 33.671875 27.769531 33.597656 27.859375 33.589844 27.984375 C 33.523438 28.027344 33.523438 28.113281 33.457031 28.15625 L 33.460938 28.15625 C 33.445312 28.289062 33.40625 28.414062 33.289062 28.496094 C 33.273438 28.632812 33.183594 28.730469 33.121094 28.839844 C 33.117188 28.878906 33.113281 28.917969 33.109375 28.957031 C 33.03125 29.046875 32.964844 29.140625 32.945312 29.265625 L 32.945312 29.261719 C 32.796875 29.355469 32.824219 29.558594 32.695312 29.664062 C 32.597656 29.785156 32.515625 29.917969 32.476562 30.074219 C 32.46875 30.136719 32.457031 30.199219 32.398438 30.238281 C 32.328125 30.277344 32.324219 30.351562 32.308594 30.417969 C 32.15625 30.542969 32.171875 30.769531 32.011719 30.890625 C 32.011719 30.929688 32.007812 30.972656 32.003906 31.011719 C 31.972656 31.101562 31.898438 31.160156 31.84375 31.234375 C 31.839844 31.273438 31.835938 31.3125 31.832031 31.351562 C 31.726562 31.441406 31.6875 31.566406 31.660156 31.695312 L 31.664062 31.695312 C 31.546875 31.796875 31.542969 31.96875 31.433594 32.078125 C 31.34375 32.15625 31.28125 32.257812 31.207031 32.347656 C 31.203125 32.386719 31.199219 32.425781 31.199219 32.464844 C 31.078125 32.546875 31.046875 32.671875 31.027344 32.804688 L 31.027344 32.808594 C 30.882812 32.933594 30.875 33.148438 30.730469 33.277344 C 30.730469 33.292969 30.726562 33.304688 30.726562 33.316406 C 30.71875 33.441406 30.652344 33.539062 30.5625 33.621094 C 30.558594 33.660156 30.554688 33.699219 30.550781 33.738281 C 30.441406 33.828125 30.414062 33.957031 30.375 34.082031 C 30.351562 34.09375 30.308594 34.097656 30.300781 34.113281 C 30.25 34.269531 30.109375 34.382812 30.078125 34.550781 C 30.039062 34.621094 29.964844 34.664062 29.925781 34.734375 C 29.921875 34.773438 29.917969 34.816406 29.917969 34.855469 C 29.847656 34.964844 29.761719 35.0625 29.742188 35.195312 L 29.746094 35.195312 C 29.648438 35.289062 29.597656 35.40625 29.570312 35.535156 L 29.570312 35.53125 C 29.539062 35.585938 29.488281 35.621094 29.449219 35.667969 C 29.433594 35.742188 29.425781 35.816406 29.34375 35.859375 C 29.289062 35.886719 29.289062 35.949219 29.273438 36.003906 C 29.183594 36.089844 29.117188 36.183594 29.109375 36.308594 L 29.113281 36.3125 C 29.039062 36.34375 29.039062 36.4375 28.980469 36.480469 L 28.980469 36.476562 C 28.960938 36.609375 28.925781 36.734375 28.808594 36.820312 C 28.792969 36.953125 28.703125 37.050781 28.636719 37.160156 C 28.632812 37.199219 28.632812 37.238281 28.628906 37.28125 C 28.550781 37.367188 28.476562 37.460938 28.46875 37.585938 C 28.285156 37.691406 28.347656 37.925781 28.210938 38.054688 C 28.195312 38.066406 28.179688 38.082031 28.164062 38.097656 C 28.152344 38.140625 28.152344 38.199219 28.113281 38.226562 C 28.007812 38.300781 27.996094 38.40625 27.992188 38.519531 C 27.957031 38.617188 27.871094 38.6875 27.828125 38.78125 C 27.824219 38.808594 27.824219 38.835938 27.820312 38.863281 C 27.710938 38.949219 27.671875 39.074219 27.652344 39.207031 L 27.652344 39.203125 C 27.59375 39.25 27.59375 39.335938 27.523438 39.375 C 27.511719 39.421875 27.511719 39.476562 27.46875 39.507812 C 27.355469 39.59375 27.355469 39.714844 27.347656 39.835938 C 27.203125 39.964844 27.210938 40.1875 27.058594 40.316406 C 27.046875 40.453125 27.003906 40.574219 26.890625 40.660156 L 26.886719 40.65625 C 26.878906 40.792969 26.78125 40.890625 26.722656 41 C 26.71875 41.027344 26.71875 41.054688 26.714844 41.082031 C 26.65625 41.195312 26.554688 41.289062 26.550781 41.429688 C 26.472656 41.605469 26.414062 41.792969 26.296875 41.949219 C 26.269531 41.984375 26.257812 42.023438 26.246094 42.066406 C 26.238281 42.203125 26.183594 42.316406 26.085938 42.414062 C 26.082031 42.46875 26.078125 42.519531 26.078125 42.574219 C 25.96875 42.710938 25.957031 42.886719 25.902344 43.042969 C 25.847656 43.089844 25.84375 43.175781 25.777344 43.214844 C 25.761719 43.386719 25.753906 43.558594 25.609375 43.6875 L 25.605469 43.683594 C 25.566406 43.847656 25.539062 44.015625 25.441406 44.160156 C 25.4375 44.171875 25.4375 44.183594 25.433594 44.195312 C 25.425781 44.371094 25.253906 44.488281 25.273438 44.671875 C 25.269531 44.710938 25.265625 44.753906 25.261719 44.792969 C 25.160156 44.886719 25.109375 44.996094 25.109375 45.144531 C 25.113281 45.308594 25.046875 45.460938 24.96875 45.605469 C 24.96875 45.789062 24.875 45.957031 24.890625 46.140625 C 24.917969 46.289062 24.816406 46.40625 24.800781 46.542969 C 24.789062 46.675781 24.777344 46.808594 24.695312 46.925781 C 24.636719 47.007812 24.644531 47.113281 24.640625 47.210938 C 24.636719 47.316406 24.632812 47.421875 24.625 47.527344 C 24.503906 47.703125 24.546875 47.90625 24.535156 48.097656 C 24.515625 48.585938 24.605469 49.078125 24.507812 49.5625 C 24.46875 49.691406 24.457031 49.832031 24.332031 49.917969 C 24.304688 50.078125 24.167969 50.148438 24.070312 50.25 C 23.988281 50.332031 23.902344 50.414062 23.777344 50.441406 C 23.726562 50.453125 23.703125 50.503906 23.6875 50.550781 C 23.578125 50.574219 23.472656 50.621094 23.363281 50.636719 C 23.101562 50.625 22.84375 50.636719 22.582031 50.660156 C 22.515625 50.660156 22.464844 50.609375 22.40625 50.585938 C 22.308594 50.578125 22.296875 50.472656 22.226562 50.433594 L 22.234375 50.433594 C 22.1875 50.375 22.109375 50.433594 22.0625 50.386719 C 22.019531 50.339844 21.980469 50.296875 21.929688 50.261719 L 21.933594 50.261719 C 21.851562 50.226562 21.828125 50.136719 21.757812 50.089844 C 21.730469 50.019531 21.664062 49.972656 21.613281 49.910156 Z M 21.613281 49.910156 "/>
</g>
</svg>
