<svg width="2286" height="457" viewBox="0 0 2286 457" fill="none" xmlns="http://www.w3.org/2000/svg">
    <path
        d="M2149.84 307.179C2140.73 307.179 2133.6 305.001 2128.45 300.644C2123.5 296.089 2120.82 289.454 2120.43 280.739C2120.03 271.827 2121.91 261.033 2126.07 248.358L2155.78 159.234C2157.17 155.273 2158.75 152.699 2160.53 151.51C2162.51 150.322 2165.38 149.728 2169.15 149.728C2175.29 149.728 2179.15 150.718 2180.73 152.699C2182.52 154.481 2182.71 157.353 2181.33 161.314L2149.84 255.191C2148.06 260.142 2146.87 264.796 2146.27 269.153C2145.88 273.511 2146.57 276.976 2148.35 279.551C2150.33 282.126 2154 283.413 2159.34 283.413C2166.28 283.413 2173.8 280.442 2181.92 274.501C2190.04 268.559 2198.36 260.241 2206.88 249.546C2215.59 238.851 2224.11 226.275 2232.43 211.817C2240.74 197.161 2248.47 181.119 2255.6 163.69L2257.08 159.234C2258.47 155.273 2260.05 152.699 2261.84 151.51C2263.82 150.322 2266.69 149.728 2270.45 149.728C2276.59 149.728 2280.45 150.718 2282.04 152.699C2283.82 154.481 2284.02 157.353 2282.63 161.314L2246.09 272.124C2244.9 275.689 2244.21 278.363 2244.01 280.145C2244.01 281.928 2244.41 283.116 2245.2 283.71C2245.99 284.304 2246.88 284.602 2247.87 284.602C2249.85 284.602 2251.83 284.007 2253.82 282.819C2255.8 281.433 2257.88 279.551 2260.05 277.175C2262.23 274.798 2264.61 271.926 2267.18 268.559C2268.97 266.183 2270.95 264.994 2273.13 264.994C2275.3 264.994 2277.68 265.786 2280.26 267.371C2282.83 269.351 2284.41 271.233 2285.01 273.015C2285.8 274.6 2285.5 276.283 2284.12 278.066C2282.14 281.235 2279.17 285.097 2275.2 289.652C2271.44 294.207 2266.69 298.267 2260.95 301.832C2255.4 305.397 2249.06 307.179 2241.93 307.179C2234.21 307.179 2228.56 305.595 2225 302.426C2221.63 299.059 2219.65 294.9 2219.06 289.949C2218.66 284.998 2218.96 279.749 2219.95 274.204C2221.14 268.658 2222.52 263.509 2224.11 258.756L2227.38 249.249C2221.43 258.558 2215.29 266.777 2208.96 273.907C2202.62 281.037 2196.08 287.077 2189.35 292.028C2182.81 296.98 2176.18 300.743 2169.44 303.317C2162.91 305.892 2156.37 307.179 2149.84 307.179Z"
        fill="oklch(35.23% 0.00 0.00)" />
    <path
        d="M2048.53 307.773C2045.76 307.773 2043.68 306.585 2042.3 304.208C2040.91 302.03 2040.41 299.554 2040.81 296.782C2041.01 293.811 2042.2 291.236 2044.37 289.057C2046.55 286.681 2049.72 285.493 2053.88 285.493C2058.63 285.493 2064.08 283.116 2070.22 278.363C2076.16 273.609 2083.19 266.182 2091.31 256.082C2099.43 245.783 2109.04 232.415 2120.13 215.976C2131.22 199.34 2144.19 179.237 2159.05 155.669C2160.83 152.896 2163.11 151.708 2165.88 152.104C2168.85 152.5 2171.23 153.788 2173.01 155.966C2174.79 158.145 2174.89 160.521 2173.31 163.096C2156.47 191.616 2141.92 215.283 2129.64 234.098C2117.55 252.715 2106.96 267.47 2097.85 278.363C2088.74 289.058 2080.32 296.683 2072.6 301.238C2064.68 305.595 2056.65 307.773 2048.53 307.773Z"
        fill="oklch(35.23% 0.00 0.00)" />
    <path
        d="M1884.56 308.962C1877.43 308.962 1871.19 307.674 1865.84 305.1C1860.49 302.723 1856.34 299.257 1853.36 294.702C1850.39 290.147 1848.91 284.898 1848.91 278.957C1848.91 271.035 1851.09 264.103 1855.44 258.161C1860 252.022 1866.04 247.268 1873.57 243.902C1881.29 240.337 1889.91 238.554 1899.41 238.554C1908.32 238.554 1917.43 239.643 1926.74 241.822C1936.05 244.001 1945.46 246.872 1954.97 250.437C1964.67 254.002 1974.28 257.864 1983.78 262.023C1993.29 266.182 2002.3 270.044 2010.82 273.609C2019.53 276.976 2027.65 279.848 2035.18 282.225C2042.9 284.403 2049.73 285.493 2055.68 285.493C2059.44 285.493 2061.91 286.681 2063.1 289.057C2064.49 291.236 2064.79 293.811 2063.99 296.781C2063.2 299.554 2061.62 302.03 2059.24 304.208C2056.86 306.585 2053.79 307.773 2050.03 307.773C2043.1 307.773 2035.67 306.684 2027.75 304.506C2019.83 302.327 2011.51 299.554 2002.8 296.187C1994.28 292.622 1985.56 288.859 1976.65 284.898C1967.94 280.937 1959.12 277.273 1950.21 273.906C1941.3 270.342 1932.39 267.47 1923.48 265.291C1914.76 263.113 1906.15 262.023 1897.63 262.023C1893.67 262.023 1889.91 262.618 1886.34 263.806C1882.97 264.994 1880.2 266.678 1878.02 268.856C1876.04 271.035 1875.05 273.51 1875.05 276.283C1875.05 278.858 1876.04 281.234 1878.02 283.413C1880.2 285.394 1882.87 286.384 1886.04 286.384C1890.8 286.384 1895.65 284.799 1900.6 281.63C1905.55 278.462 1910.3 273.609 1914.86 267.074C1919.42 260.34 1923.38 251.824 1926.74 241.525L1966.55 122.396C1973.09 102.591 1980.42 85.1625 1988.54 70.1105C1996.66 55.0585 2005.37 42.4822 2014.68 32.3815C2023.99 22.0828 2033.99 14.3588 2044.68 9.20941C2055.38 3.86199 2066.57 1.18827 2078.25 1.18827C2087.76 1.18827 2096.18 3.06978 2103.5 6.83278C2111.03 10.3977 2116.87 15.4481 2121.03 21.9838C2125.39 28.5195 2127.57 36.0455 2127.57 44.5618C2127.57 55.4547 2125.09 65.5553 2120.14 74.8638C2115.39 83.9742 2108.56 91.9953 2099.64 98.9271C2090.93 105.661 2080.63 110.909 2068.75 114.672C2056.86 118.237 2043.89 120.02 2029.83 120.02C2014.58 120.02 2000.52 119.029 1987.64 117.049C1974.77 115.068 1962.39 111.9 1950.51 107.542C1938.82 102.987 1926.94 97.1447 1914.86 90.0148C1911.89 88.2323 1910.21 85.9547 1909.81 83.182C1909.61 80.4093 1910.6 77.2404 1912.78 73.6755C1914.56 70.5066 1916.64 68.7242 1919.02 68.3281C1921.59 67.7339 1924.37 68.328 1927.34 70.1105C1937.04 75.4579 1947.14 80.1122 1957.64 84.0732C1968.14 87.8362 1979.33 90.708 1991.21 92.6885C2003.09 94.669 2016.06 95.6593 2030.13 95.6593C2040.23 95.6593 2049.54 94.372 2058.05 91.7973C2066.57 89.2226 2074 85.7567 2080.33 81.3995C2086.67 76.8443 2091.52 71.5959 2094.89 65.6544C2098.45 59.5147 2100.24 52.7809 2100.24 45.453C2100.24 41.4919 2099.35 38.1251 2097.56 35.3523C2095.78 32.3815 2093.11 30.203 2089.54 28.8166C2085.98 27.2322 2081.92 26.44 2077.36 26.44C2068.65 26.44 2060.33 28.7176 2052.41 33.2728C2044.49 37.6299 2036.86 44.1657 2029.53 52.88C2022.2 61.3962 2015.27 71.992 2008.74 84.6674C2002.4 97.3427 1996.36 112.098 1990.61 128.932L1952.29 243.01C1947.14 258.458 1941 271.134 1933.87 281.036C1926.94 290.741 1919.32 297.871 1911 302.426C1902.88 306.783 1894.06 308.962 1884.56 308.962Z"
        fill="oklch(35.23% 0.00 0.00)" />
    <path
        d="M1585.78 307.179C1582.62 307.179 1579.65 306.486 1576.87 305.1C1574.3 303.713 1573.6 301.139 1574.79 297.376L1613.41 177.95C1614.01 175.97 1613.91 174.286 1613.12 172.9C1612.52 171.513 1611.04 170.82 1608.66 170.82C1606.28 170.82 1604.6 169.731 1603.61 167.552C1602.82 165.176 1602.72 162.601 1603.31 159.828C1603.91 156.858 1605.29 154.283 1607.47 152.104C1609.65 149.728 1612.52 148.539 1616.09 148.539C1623.41 148.539 1628.76 149.926 1632.13 152.698C1635.69 155.273 1637.87 158.739 1638.66 163.096C1639.46 167.255 1639.46 171.711 1638.66 176.465C1637.87 181.218 1636.88 185.575 1635.69 189.536L1629.75 207.361C1635.89 197.854 1642.13 189.536 1648.47 182.406C1655 175.078 1661.54 168.939 1668.08 163.987C1674.61 158.838 1681.25 154.976 1687.98 152.401C1694.71 149.827 1701.45 148.539 1708.18 148.539C1717.29 148.539 1724.32 150.817 1729.27 155.372C1734.23 159.729 1737 166.265 1737.59 174.979C1738.19 183.694 1736.3 194.487 1731.95 207.361L1709.67 271.827C1708.48 275.59 1707.79 278.363 1707.59 280.145C1707.59 281.928 1707.98 283.116 1708.78 283.71C1709.57 284.304 1710.46 284.601 1711.45 284.601C1713.43 284.601 1715.41 284.007 1717.39 282.819C1719.57 281.432 1721.85 279.551 1724.22 277.174C1726.8 274.6 1729.47 271.629 1732.24 268.262C1733.83 266.281 1735.41 265.192 1737 264.994C1738.58 264.598 1740.46 265.192 1742.64 266.777C1745.81 268.757 1747.69 270.738 1748.29 272.718C1749.08 274.699 1748.88 276.679 1747.69 278.66C1745.91 281.631 1743.04 285.394 1739.08 289.949C1735.31 294.504 1730.56 298.564 1724.82 302.129C1719.07 305.496 1712.64 307.179 1705.51 307.179C1698.18 307.179 1692.73 305.595 1689.17 302.426C1685.8 299.059 1683.82 294.9 1683.23 289.949C1682.63 284.997 1682.83 279.749 1683.82 274.204C1685.01 268.658 1686.4 263.509 1687.98 258.755L1708.18 200.528C1709.96 195.379 1711.05 190.724 1711.45 186.565C1712.04 182.208 1711.35 178.742 1709.37 176.168C1707.59 173.593 1703.92 172.306 1698.38 172.306C1691.84 172.306 1684.51 175.177 1676.39 180.921C1668.47 186.664 1660.25 194.686 1651.74 204.984C1643.42 215.283 1635.1 227.562 1626.78 241.822C1618.46 255.884 1610.74 271.431 1603.61 288.463L1600.04 299.455C1599.25 302.03 1597.77 303.911 1595.59 305.1C1593.61 306.486 1590.34 307.179 1585.78 307.179Z"
        fill="oklch(35.23% 0.00 0.00)" />
    <path
        d="M1512.7 307.773C1509.53 307.773 1507.55 306.585 1506.76 304.208C1505.77 302.03 1505.77 299.554 1506.76 296.782C1507.55 293.811 1508.94 291.236 1510.92 289.057C1512.9 286.681 1515.08 285.493 1517.46 285.493C1521.02 285.493 1524.88 284.106 1529.04 281.333C1533 278.561 1537.16 274.501 1541.52 269.153C1545.68 263.806 1550.14 257.369 1554.89 249.843C1559.44 242.119 1564.2 233.405 1569.15 223.7C1578.06 206.668 1585.98 193.101 1592.92 183C1600.04 172.9 1606.58 165.374 1612.52 160.422C1618.46 155.471 1624.11 152.302 1629.46 150.916C1635 149.332 1640.55 148.539 1646.09 148.539C1648.07 148.539 1649.36 149.728 1649.95 152.104C1650.55 154.283 1650.45 156.858 1649.66 159.828C1648.86 162.601 1647.48 165.176 1645.5 167.552C1643.72 169.731 1641.34 170.82 1638.37 170.82C1636.19 170.82 1633.61 171.414 1630.64 172.603C1627.87 173.593 1624.6 175.97 1620.84 179.733C1617.28 183.298 1613.02 188.744 1608.07 196.072C1603.31 203.4 1597.77 213.203 1591.43 225.483C1582.12 244.1 1573.6 258.954 1565.88 270.044C1558.16 280.937 1551.13 289.157 1544.79 294.702C1538.45 300.049 1532.71 303.515 1527.56 305.1C1522.21 306.882 1517.26 307.773 1512.7 307.773Z"
        fill="oklch(35.23% 0.00 0.00)" />
    <path
        d="M1513.54 307.774C1504.82 307.774 1498.29 306.189 1493.93 303.02C1489.77 299.851 1487.2 295.791 1486.21 290.84C1485.22 285.691 1485.22 280.343 1486.21 274.798C1487.2 269.054 1488.48 263.707 1490.07 258.756L1522.75 159.234C1524.13 155.273 1525.72 152.699 1527.5 151.51C1529.48 150.322 1532.35 149.728 1536.11 149.728C1542.25 149.728 1546.12 150.718 1547.7 152.699C1549.48 154.481 1549.68 157.353 1548.3 161.314L1516.51 258.458C1512.94 268.955 1511.26 276.085 1511.46 279.848C1511.85 283.611 1514.33 285.493 1518.88 285.493C1521.66 285.493 1523.74 286.681 1525.12 289.058C1526.51 291.236 1527 293.811 1526.61 296.782C1526.41 299.554 1525.22 302.03 1523.04 304.209C1520.86 306.585 1517.7 307.774 1513.54 307.774ZM1554.53 103.978C1550.57 103.978 1547.21 102.69 1544.43 100.116C1541.66 97.5409 1540.27 93.7779 1540.27 88.8266C1540.27 83.4792 1541.96 78.4289 1545.32 73.6756C1548.89 68.9224 1554.34 66.5457 1561.66 66.5457C1565.82 66.5457 1569.29 67.8331 1572.06 70.4077C1574.83 72.7844 1576.22 76.5474 1576.22 81.6967C1576.22 87.0441 1574.44 92.0945 1570.87 96.8477C1567.51 101.601 1562.06 103.978 1554.53 103.978Z"
        fill="oklch(35.23% 0.00 0.00)" />
    <path
        d="M1415.5 307.773C1412.73 307.773 1410.65 306.585 1409.26 304.208C1407.88 302.03 1407.38 299.554 1407.78 296.782C1407.97 293.811 1409.16 291.236 1411.34 289.057C1413.52 286.681 1416.69 285.493 1420.85 285.493C1425.6 285.493 1431.05 283.116 1437.19 278.363C1443.13 273.609 1450.16 266.182 1458.28 256.082C1466.4 245.783 1476.01 232.415 1487.1 215.976C1498.19 199.34 1511.16 179.237 1526.01 155.669C1527.8 152.896 1530.07 151.708 1532.85 152.104C1535.82 152.5 1538.19 153.788 1539.98 155.966C1541.76 158.145 1541.86 160.521 1540.27 163.096C1523.44 191.616 1508.88 215.283 1496.6 234.098C1484.52 252.715 1473.93 267.47 1464.82 278.363C1455.71 289.058 1447.29 296.683 1439.56 301.238C1431.64 305.595 1423.62 307.773 1415.5 307.773Z"
        fill="oklch(35.23% 0.00 0.00)" />
    <path
        d="M1415.57 307.773C1406.85 307.773 1400.32 306.09 1395.96 302.723C1391.8 299.554 1389.23 295.494 1388.23 290.543C1387.24 285.394 1387.24 280.046 1388.23 274.501C1389.23 268.757 1390.51 263.509 1392.1 258.755L1412.3 200.528C1414.08 195.379 1415.17 190.724 1415.57 186.565C1416.16 182.208 1415.47 178.742 1413.49 176.168C1411.7 173.593 1408.04 172.306 1402.49 172.306C1395.76 172.306 1388.23 175.276 1379.92 181.218C1371.8 187.16 1363.38 195.478 1354.67 206.173C1345.95 216.867 1337.34 229.543 1328.82 244.199C1320.5 258.656 1312.78 274.6 1305.65 292.028L1304.16 265.291C1311.69 246.872 1319.71 230.533 1328.22 216.273C1336.74 201.815 1345.65 189.536 1354.96 179.436C1364.27 169.335 1373.68 161.71 1383.18 156.56C1392.89 151.213 1402.59 148.539 1412.3 148.539C1421.41 148.539 1428.44 150.817 1433.39 155.372C1438.54 159.729 1441.31 166.265 1441.71 174.979C1442.3 183.694 1440.42 194.487 1436.06 207.361L1418.54 258.458C1414.97 268.757 1413.29 275.887 1413.49 279.848C1413.88 283.611 1416.46 285.493 1421.21 285.493C1423.98 285.493 1425.96 286.681 1427.15 289.058C1428.54 291.236 1429.03 293.811 1428.64 296.782C1428.44 299.554 1427.25 302.03 1425.07 304.209C1422.89 306.585 1419.73 307.773 1415.57 307.773ZM1289.31 307.179C1286.14 307.179 1283.17 306.486 1280.4 305.1C1277.62 303.713 1276.83 301.139 1278.02 297.376L1353.48 66.2485C1360.8 43.0764 1368.92 26.242 1377.84 15.7452C1386.95 5.2484 1397.84 0 1410.52 0C1417.05 0 1422.6 1.4854 1427.15 4.45619C1431.91 7.42698 1435.57 11.5861 1438.14 16.9335C1440.92 22.0829 1442.3 28.0244 1442.3 34.7582C1442.3 40.1056 1441.51 45.8491 1439.93 51.9888C1438.34 57.9303 1436.06 64.268 1433.09 71.0018C1430.32 77.5375 1426.76 84.4694 1422.4 91.7973C1418.24 98.9272 1413.29 106.255 1407.55 113.781C1402 121.109 1395.86 128.635 1389.13 136.359C1382.39 143.885 1374.97 151.609 1366.85 159.531C1358.92 167.255 1350.41 175.078 1341.3 183L1303.27 299.455C1302.48 302.03 1301.09 303.911 1299.11 305.1C1297.13 306.486 1293.86 307.179 1289.31 307.179ZM1352.29 149.431C1358.63 142.895 1364.57 136.26 1370.11 129.526C1375.86 122.793 1381.11 116.059 1385.86 109.325C1390.81 102.591 1395.27 96.0554 1399.23 89.7178C1403.19 83.182 1406.46 76.8443 1409.03 70.7047C1411.8 64.5651 1413.88 58.7226 1415.27 53.1771C1416.85 47.4336 1417.65 42.0861 1417.65 37.1348C1417.65 34.3621 1417.25 31.9855 1416.46 30.005C1415.67 28.0244 1414.48 26.539 1412.89 25.5488C1411.31 24.3605 1409.33 23.7663 1406.95 23.7663C1403.78 23.7663 1400.71 25.1527 1397.74 27.9254C1394.77 30.5001 1391.7 35.3524 1388.53 42.4823C1385.36 49.6121 1381.6 59.8118 1377.24 73.0813L1352.29 149.431Z"
        fill="oklch(35.23% 0.00 0.00)" />
    <path
        d="M1149.98 307.774C1147.01 307.774 1144.93 306.585 1143.74 304.209C1142.55 302.03 1142.15 299.455 1142.55 296.485C1142.95 293.316 1144.04 290.642 1145.82 288.464C1147.6 286.087 1149.98 284.899 1152.95 284.899C1166.42 284.899 1180.68 282.126 1195.73 276.58C1210.78 271.035 1225.83 263.212 1240.88 253.111C1255.94 242.812 1270.29 230.533 1283.96 216.273C1297.63 202.014 1309.91 186.169 1320.8 168.741C1323.17 164.78 1325.85 162.898 1328.82 163.096C1331.79 163.294 1333.97 164.78 1335.35 167.552C1336.74 170.127 1336.15 173.494 1333.57 177.653C1321.1 198.251 1307.43 216.57 1292.58 232.613C1277.92 248.655 1262.47 262.321 1246.23 273.61C1229.99 284.7 1213.75 293.217 1197.51 299.158C1181.07 304.902 1165.23 307.774 1149.98 307.774Z"
        fill="oklch(35.23% 0.00 0.00)" />
    <path
        d="M1150.11 307.773C1135.25 307.773 1121.98 305.496 1110.3 300.941C1098.61 296.187 1088.61 289.355 1080.29 280.442C1072.17 271.53 1065.94 260.736 1061.58 248.061C1057.42 235.187 1055.34 220.63 1055.34 204.39C1055.34 189.932 1057.02 174.979 1060.39 159.531C1063.76 143.885 1068.71 128.536 1075.24 113.484C1081.78 98.234 1089.9 83.8752 1099.6 70.4076C1109.31 56.742 1120.4 44.7598 1132.88 34.4611C1145.55 24.1624 1159.61 16.0422 1175.06 10.1006C1190.71 4.15906 1207.64 1.18827 1225.86 1.18827C1238.54 1.18827 1249.73 2.57464 1259.43 5.34739C1269.34 7.92207 1278.05 11.8831 1285.58 17.2305C1293.1 22.3799 1299.54 28.8166 1304.89 36.5406C1306.47 38.9173 1306.77 40.9968 1305.78 42.7793C1304.98 44.5618 1303.1 46.5423 1300.13 48.7209C1297.36 50.7014 1294.98 51.7907 1293 51.9887C1291.22 51.9887 1288.84 50.7014 1285.87 48.1267C1279.14 41.1949 1270.62 35.8475 1260.32 32.0845C1250.22 28.3215 1237.25 26.44 1221.41 26.44C1208.14 26.44 1195.46 28.9156 1183.38 33.8669C1171.5 38.8182 1160.41 45.6511 1150.11 54.3654C1139.81 62.8816 1130.5 72.8833 1122.18 84.3703C1114.06 95.8573 1107.03 108.137 1101.09 121.208C1095.35 134.28 1090.89 147.846 1087.72 161.908C1084.75 175.771 1083.27 189.338 1083.27 202.608C1083.27 216.273 1084.85 228.255 1088.02 238.554C1091.19 248.655 1095.74 257.171 1101.68 264.103C1107.63 271.035 1114.85 276.283 1123.37 279.848C1132.09 283.215 1141.99 284.898 1153.08 284.898C1156.05 284.898 1158.13 286.087 1159.32 288.463C1160.51 290.642 1160.9 293.316 1160.51 296.484C1160.11 299.455 1159.02 302.03 1157.24 304.208C1155.46 306.585 1153.08 307.773 1150.11 307.773Z"
        fill="oklch(35.23% 0.00 0.00)" />
    <path
        d="M851.672 300.644C855.633 297.871 859.594 295.296 863.555 292.92C867.516 290.345 871.378 287.869 875.141 285.493C878.904 283.116 882.469 281.036 885.836 279.254C889.401 277.273 892.668 275.491 895.639 273.906C898.61 272.52 900.987 272.52 902.769 273.906C904.552 275.293 905.74 277.471 906.334 280.442C907.126 283.215 907.126 285.988 906.334 288.76C905.74 291.335 904.453 293.118 902.472 294.108C898.313 296.088 894.055 298.366 889.698 300.941C885.34 303.515 880.785 306.189 876.032 308.962C871.477 311.933 866.823 314.903 862.069 317.874C857.316 321.043 852.563 324.212 847.81 327.381L851.672 300.644ZM764.628 456.907C754.131 456.907 745.515 453.936 738.782 447.995C732.246 442.251 728.978 434.725 728.978 425.417C728.978 418.485 730.364 411.553 733.137 404.621C735.712 397.887 739.574 391.055 744.723 384.123C749.873 377.191 756.309 370.061 764.033 362.733C771.955 355.603 781.066 348.077 791.365 340.155C796.514 336.392 801.366 332.827 805.921 329.46C810.675 326.093 815.428 322.726 820.181 319.359C824.934 316.191 829.886 312.923 835.035 309.556L852.86 254.299C844.344 266.381 835.827 276.382 827.311 284.304C818.993 292.226 810.972 298.168 803.248 302.129C795.524 305.892 788.196 307.773 781.264 307.773C774.53 307.773 768.688 305.991 763.736 302.426C758.785 298.861 754.923 293.811 752.15 287.275C749.377 280.739 747.991 273.015 747.991 264.103C747.991 254.992 749.377 245.189 752.15 234.692C754.923 224.195 759.082 213.897 764.628 203.796C770.173 193.695 776.907 184.486 784.829 176.168C792.751 167.849 801.861 161.215 812.16 156.263C822.657 151.114 834.144 148.539 846.621 148.539C850.582 148.539 854.642 148.935 858.802 149.728C862.961 150.322 867.219 151.312 871.576 152.698C875.933 154.085 880.092 155.768 884.053 157.749L884.944 155.966C885.935 153.59 887.42 152.005 889.401 151.213C891.381 150.223 893.956 149.728 897.125 149.728C903.264 149.728 907.126 150.718 908.711 152.698C910.493 154.481 910.691 157.353 909.305 161.314L838.897 376.993C834.144 391.253 829.292 403.433 824.34 413.533C819.389 423.634 814.042 431.853 808.298 438.191C802.555 444.727 796.019 449.48 788.691 452.451C781.561 455.422 773.54 456.907 764.628 456.907ZM769.084 434.032C775.025 434.032 780.571 432.051 785.72 428.09C790.869 424.129 795.722 417.792 800.277 409.077C805.03 400.561 809.486 389.47 813.646 375.804L824.637 342.235C821.865 344.017 819.092 345.899 816.319 347.879C813.546 349.86 810.774 351.84 808.001 353.821C805.228 355.801 802.456 357.881 799.683 360.059C791.761 366.397 784.928 372.438 779.184 378.181C773.639 383.925 769.084 389.272 765.519 394.223C762.152 399.175 759.577 403.829 757.795 408.186C756.21 412.741 755.418 417.098 755.418 421.258C755.418 423.634 755.913 425.813 756.904 427.793C757.894 429.774 759.379 431.259 761.36 432.249C763.538 433.438 766.113 434.032 769.084 434.032ZM789.879 284.007C796.811 284.007 804.733 280.442 813.646 273.312C822.756 265.984 832.361 255.389 842.462 241.525C852.761 227.661 863.159 210.629 873.655 190.427L877.517 178.544C870.784 175.772 864.446 173.989 858.504 173.197C852.761 172.405 847.413 172.009 842.462 172.009C833.946 172.009 826.123 173.989 818.993 177.95C812.061 181.911 805.822 187.16 800.277 193.695C794.93 200.033 790.374 207.163 786.611 215.085C782.848 222.809 779.977 230.533 777.996 238.257C776.016 245.981 775.025 253.012 775.025 259.35C775.025 264.301 775.619 268.658 776.808 272.421C777.996 276.184 779.68 279.056 781.858 281.036C784.235 283.017 786.908 284.007 789.879 284.007Z"
        fill="oklch(35.23% 0.00 0.00)" />
    <path
        d="M684.119 307.773C681.346 307.773 679.267 306.585 677.88 304.209C676.494 302.03 675.999 299.554 676.395 296.782C676.593 293.811 677.781 291.236 679.96 289.058C682.138 286.681 685.307 285.493 689.466 285.493C694.616 285.493 700.062 283.611 705.806 279.848C711.549 276.085 717.491 270.837 723.63 264.103C729.572 257.369 735.712 249.447 742.049 240.337C748.387 231.226 754.824 221.324 761.359 210.629C762.944 208.054 765.122 206.965 767.895 207.361C770.668 207.757 772.945 209.044 774.728 211.223C776.51 213.203 776.609 215.481 775.025 218.056C766.509 232.91 758.389 245.981 750.664 257.27C743.138 268.559 735.811 277.967 728.681 285.493C721.353 292.821 714.124 298.366 706.994 302.129C699.666 305.892 692.041 307.773 684.119 307.773Z"
        fill="oklch(35.23% 0.00 0.00)" />
    <path
        d="M684.149 307.773C675.435 307.773 668.899 306.09 664.542 302.723C660.383 299.554 657.808 295.494 656.818 290.543C655.828 285.394 655.828 280.046 656.818 274.501C657.808 268.757 659.096 263.509 660.68 258.755L680.882 200.528C682.664 195.379 683.753 190.724 684.149 186.565C684.744 182.208 684.05 178.742 682.07 176.168C680.287 173.593 676.623 172.306 671.078 172.306C664.542 172.306 657.214 175.177 649.094 180.921C641.172 186.664 632.953 194.686 624.437 204.984C616.118 215.283 607.8 227.562 599.482 241.822C591.164 255.884 583.44 271.431 576.31 288.463L572.745 299.455C571.953 302.03 570.467 303.911 568.289 305.1C566.308 306.486 563.04 307.179 558.485 307.179C555.316 307.179 552.346 306.486 549.573 305.1C546.998 303.713 546.305 301.139 547.493 297.376L586.114 177.95C586.708 175.97 586.609 174.286 585.816 172.9C585.222 171.513 583.737 170.82 581.36 170.82C578.984 170.82 577.3 169.731 576.31 167.552C575.518 165.176 575.419 162.601 576.013 159.828C576.607 156.858 577.993 154.283 580.172 152.104C582.351 149.728 585.222 148.539 588.787 148.539C596.115 148.539 601.463 149.926 604.829 152.698C608.394 155.273 610.573 158.739 611.365 163.096C612.157 167.255 612.157 171.711 611.365 176.465C610.573 181.218 609.583 185.575 608.394 189.536L602.453 207.361C608.592 197.854 614.831 189.536 621.169 182.406C627.704 175.078 634.24 168.939 640.776 163.987C647.312 158.838 653.946 154.976 660.68 152.401C667.414 149.827 674.148 148.539 680.882 148.539C689.992 148.539 697.023 150.817 701.974 155.372C706.925 159.729 709.698 166.265 710.292 174.979C710.887 183.694 709.005 194.487 704.648 207.361L687.12 258.458C683.555 268.757 681.872 275.887 682.07 279.848C682.466 283.611 685.041 285.493 689.794 285.493C692.567 285.493 694.547 286.681 695.736 289.057C697.122 291.236 697.617 293.811 697.221 296.782C697.023 299.554 695.835 302.03 693.656 304.208C691.477 306.585 688.309 307.773 684.149 307.773Z"
        fill="oklch(35.23% 0.00 0.00)" />
    <path
        d="M485.404 307.773C482.235 307.773 480.254 306.585 479.462 304.208C478.472 302.03 478.472 299.554 479.462 296.782C480.254 293.811 481.641 291.236 483.621 289.057C485.602 286.681 487.78 285.493 490.157 285.493C493.722 285.493 497.584 284.106 501.743 281.333C505.704 278.561 509.863 274.501 514.22 269.153C518.379 263.806 522.835 257.369 527.589 249.843C532.144 242.119 536.897 233.405 541.849 223.7C550.761 206.668 558.683 193.101 565.615 183C572.745 172.9 579.28 165.374 585.222 160.422C591.164 155.471 596.808 152.302 602.156 150.916C607.701 149.332 613.246 148.539 618.792 148.539C620.772 148.539 622.06 149.728 622.654 152.104C623.248 154.283 623.149 156.858 622.357 159.828C621.565 162.601 620.178 165.176 618.198 167.552C616.415 169.731 614.039 170.82 611.068 170.82C608.889 170.82 606.315 171.414 603.344 172.603C600.571 173.593 597.303 175.97 593.54 179.733C589.975 183.298 585.717 188.744 580.766 196.072C576.013 203.4 570.467 213.203 564.129 225.483C554.821 244.1 546.305 258.954 538.581 270.044C530.857 280.937 523.826 289.157 517.488 294.702C511.15 300.049 505.407 303.515 500.257 305.1C494.91 306.882 489.959 307.773 485.404 307.773Z"
        fill="oklch(35.23% 0.00 0.00)" />
    <path
        d="M393.379 307.773C386.645 307.773 380.803 305.991 375.851 302.426C370.9 298.861 367.038 293.811 364.265 287.275C361.493 280.739 360.106 273.015 360.106 264.103C360.106 254.992 361.493 245.189 364.265 234.692C367.038 224.195 371.197 213.897 376.743 203.796C382.288 193.695 389.022 184.486 396.944 176.168C404.866 167.849 413.977 161.215 424.275 156.263C434.772 151.114 446.259 148.539 458.736 148.539C466.262 148.539 474.382 149.926 483.097 152.698C491.811 155.273 499.634 158.937 506.566 163.69L501.219 184.189C491.514 179.039 482.899 175.772 475.373 174.385C467.847 172.801 460.915 172.009 454.577 172.009C446.061 172.009 438.238 173.989 431.108 177.95C424.176 181.911 417.938 187.16 412.392 193.695C407.045 200.033 402.489 207.163 398.726 215.085C394.963 222.809 392.092 230.533 390.111 238.257C388.131 245.981 387.14 253.012 387.14 259.35C387.14 264.301 387.735 268.658 388.923 272.421C390.111 276.184 391.795 279.056 393.973 281.036C396.35 283.017 399.024 284.007 401.994 284.007C409.322 284.007 417.641 280.046 426.949 272.124C436.257 264.004 446.16 252.121 456.657 236.475C467.352 220.828 478.245 201.815 489.335 179.436L500.327 190.427C487.454 216.966 474.68 238.95 462.004 256.379C449.527 273.609 437.545 286.483 426.058 294.999C414.571 303.515 403.678 307.773 393.379 307.773ZM484.879 307.773C475.967 307.773 469.332 306.09 464.975 302.723C460.816 299.554 458.142 295.494 456.954 290.543C455.964 285.394 455.964 280.046 456.954 274.501C457.944 268.757 459.331 263.509 461.113 258.755L494.386 159.234C495.772 155.273 497.357 152.698 499.139 151.51C501.12 150.322 503.991 149.728 507.754 149.728C513.894 149.728 517.756 150.718 519.34 152.698C521.123 154.481 521.321 157.353 519.935 161.314L487.256 258.458C483.889 268.757 482.305 275.887 482.503 279.848C482.899 283.611 485.374 285.493 489.93 285.493C492.702 285.493 494.782 286.681 496.168 289.057C497.555 291.236 498.05 293.811 497.654 296.782C497.456 299.554 496.267 302.03 494.089 304.208C492.108 306.585 489.038 307.773 484.879 307.773Z"
        fill="oklch(35.23% 0.00 0.00)" />
    <path
        d="M296.234 307.773C293.462 307.773 291.382 306.585 289.996 304.209C288.609 302.03 288.114 299.554 288.51 296.782C288.708 293.811 289.897 291.236 292.075 289.058C294.254 286.681 297.423 285.493 301.582 285.493C306.731 285.493 312.178 283.611 317.921 279.848C323.665 276.085 329.606 270.837 335.746 264.103C341.687 257.369 347.827 249.447 354.165 240.337C360.502 231.226 366.939 221.324 373.475 210.629C375.059 208.054 377.238 206.965 380.011 207.361C382.783 207.757 385.061 209.044 386.843 211.223C388.626 213.203 388.725 215.481 387.141 218.056C378.624 232.91 370.504 245.981 362.78 257.27C355.254 268.559 347.926 277.967 340.796 285.493C333.468 292.821 326.239 298.366 319.109 302.129C311.782 305.892 304.157 307.773 296.234 307.773Z"
        fill="oklch(35.23% 0.00 0.00)" />
    <path
        d="M297.662 307.774C288.947 307.774 282.412 306.189 278.054 303.02C273.895 299.851 271.321 295.791 270.33 290.84C269.34 285.691 269.34 280.343 270.33 274.798C271.321 269.054 272.608 263.707 274.192 258.756L306.871 159.234C308.257 155.273 309.842 152.699 311.624 151.51C313.605 150.322 316.477 149.728 320.24 149.728C326.379 149.728 330.241 150.718 331.826 152.699C333.608 154.481 333.806 157.353 332.42 161.314L300.632 258.458C297.067 268.955 295.384 276.085 295.582 279.848C295.978 283.611 298.454 285.493 303.009 285.493C305.782 285.493 307.861 286.681 309.248 289.058C310.634 291.236 311.129 293.811 310.733 296.782C310.535 299.554 309.347 302.03 307.168 304.209C304.99 306.585 301.821 307.774 297.662 307.774ZM338.659 103.978C334.697 103.978 331.331 102.69 328.558 100.116C325.785 97.5409 324.399 93.7779 324.399 88.8266C324.399 83.4792 326.082 78.4289 329.449 73.6756C333.014 68.9224 338.46 66.5457 345.788 66.5457C349.947 66.5457 353.413 67.8331 356.186 70.4077C358.959 72.7844 360.345 76.5474 360.345 81.6967C360.345 87.0441 358.563 92.0945 354.998 96.8477C351.631 101.601 346.184 103.978 338.659 103.978Z"
        fill="oklch(35.23% 0.00 0.00)" />
    <path
        d="M199.626 307.773C196.853 307.773 194.774 306.585 193.387 304.208C192.001 302.03 191.506 299.554 191.902 296.782C192.1 293.811 193.288 291.236 195.467 289.057C197.645 286.681 200.814 285.493 204.973 285.493C209.727 285.493 215.173 283.116 221.313 278.363C227.254 273.609 234.285 266.182 242.405 256.082C250.525 245.783 260.131 232.415 271.222 215.976C282.313 199.34 295.285 179.237 310.139 155.669C311.922 152.896 314.199 151.708 316.972 152.104C319.943 152.5 322.319 153.788 324.102 155.966C325.884 158.145 325.983 160.521 324.399 163.096C307.564 191.616 293.008 215.283 280.728 234.098C268.647 252.715 258.051 267.47 248.941 278.363C239.831 289.058 231.413 296.683 223.689 301.238C215.767 305.595 207.746 307.773 199.626 307.773Z"
        fill="oklch(35.23% 0.00 0.00)" />
    <path
        d="M35.6494 308.962C28.5195 308.962 22.2809 307.674 16.9335 305.1C11.5861 302.723 7.42697 299.257 4.45618 294.702C1.48539 290.147 0 284.898 0 278.957C0 271.035 2.17858 264.103 6.53573 258.161C11.0909 252.022 17.1315 247.268 24.6575 243.902C32.3816 240.337 40.9968 238.554 50.5034 238.554C59.4157 238.554 68.5261 239.643 77.8346 241.822C87.1431 244.001 96.5506 246.872 106.057 250.437C115.762 254.002 125.367 257.864 134.874 262.023C144.38 266.182 153.392 270.044 161.908 273.609C170.622 276.976 178.742 279.848 186.268 282.225C193.992 284.403 200.825 285.493 206.767 285.493C210.53 285.493 213.005 286.681 214.194 289.057C215.58 291.236 215.877 293.811 215.085 296.781C214.293 299.554 212.708 302.03 210.332 304.208C207.955 306.585 204.885 307.773 201.122 307.773C194.19 307.773 186.763 306.684 178.841 304.506C170.919 302.327 162.601 299.554 153.887 296.187C145.37 292.622 136.656 288.859 127.744 284.898C119.03 280.937 110.216 277.273 101.304 273.906C92.3915 270.342 83.4791 267.47 74.5667 265.291C65.8524 263.113 57.2371 262.023 48.7209 262.023C44.7598 262.023 40.9968 262.618 37.4319 263.806C34.065 264.994 31.2923 266.678 29.1137 268.856C27.1332 271.035 26.1429 273.51 26.1429 276.283C26.1429 278.858 27.1332 281.234 29.1137 283.413C31.2923 285.394 33.966 286.384 37.1348 286.384C41.8881 286.384 46.7404 284.799 51.6917 281.63C56.643 278.462 61.3962 273.609 65.9515 267.074C70.5067 260.34 74.4677 251.824 77.8346 241.525L117.643 122.396C124.179 102.591 131.507 85.1625 139.627 70.1105C147.747 55.0585 156.461 42.4822 165.77 32.3815C175.078 22.0828 185.08 14.3588 195.775 9.20941C206.47 3.86199 217.66 1.18827 229.345 1.18827C238.851 1.18827 247.268 3.06978 254.596 6.83278C262.122 10.3977 267.965 15.4481 272.124 21.9838C276.481 28.5195 278.66 36.0455 278.66 44.5618C278.66 55.4547 276.184 65.5553 271.233 74.8638C266.48 83.9742 259.647 91.9953 250.734 98.9271C242.02 105.661 231.721 110.909 219.838 114.672C207.955 118.237 194.983 120.02 180.921 120.02C165.671 120.02 151.609 119.029 138.736 117.049C125.862 115.068 113.484 111.9 101.601 107.542C89.9158 102.987 78.0327 97.1447 65.9515 90.0148C62.9807 88.2323 61.2972 85.9547 60.9011 83.182C60.7031 80.4093 61.6933 77.2404 63.8719 73.6755C65.6544 70.5066 67.7339 68.7242 70.1106 68.3281C72.6852 67.7339 75.458 68.328 78.4288 70.1105C88.1333 75.4579 98.234 80.1122 108.731 84.0732C119.228 87.8362 130.418 90.708 142.301 92.6885C154.184 94.669 167.156 95.6593 181.218 95.6593C191.319 95.6593 200.627 94.372 209.143 91.7973C217.66 89.2226 225.087 85.7567 231.424 81.3995C237.762 76.8443 242.614 71.5959 245.981 65.6544C249.546 59.5147 251.329 52.7809 251.329 45.453C251.329 41.4919 250.437 38.1251 248.655 35.3523C246.872 32.3815 244.199 30.203 240.634 28.8166C237.069 27.2322 233.009 26.44 228.453 26.44C219.739 26.44 211.421 28.7176 203.499 33.2728C195.577 37.6299 187.952 44.1657 180.624 52.88C173.296 61.3962 166.364 71.992 159.828 84.6674C153.491 97.3427 147.45 112.098 141.707 128.932L103.383 243.01C98.234 258.458 92.0944 271.134 84.9645 281.036C78.0327 290.741 70.4076 297.871 62.0894 302.426C53.9693 306.783 45.1559 308.962 35.6494 308.962Z"
        fill="oklch(35.23% 0.00 0.00)" />
</svg>